<?xml version="1.0" encoding="UTF-8"?>
<svg id="Layer_2" data-name="Layer 2" xmlns="http://www.w3.org/2000/svg" viewBox="0 0 2574.85 2574.85">
  <defs>
    <style>
      .cls-1 {
        fill: #fff;
      }

      .cls-2 {
        fill: none;
        stroke: #fff;
        stroke-miterlimit: 10;
        stroke-width: 5px;
      }
    </style>
  </defs>
  <g id="Layer_9_copy_4" data-name="Layer 9 copy 4">
    <g>
      <path class="cls-1" d="m2006.11,1251.05c-37.51,2.93-64.73,35.91-56.82,70.97,3.94,17.44,16.44,28.34,34.96,30.5,18.81,2.2,35.23-5.92,42.78-20.86,2.36-4.64,2.43-7.62-2.37-11.19-9.26-6.92-12.4-17.22-11.83-28.41.57-11.17,7.67-17.92,18.76-18.92,13.83-1.23,22.4,4.82,28.59,20.22,12.06,29.95,1.46,65.39-25.79,85.75-25.34,18.93-54.97,22.74-85.29,23.36-8.03.18-13.96-4.73-15.15-12.58-1.64-10.74-3.85-22.02-2.25-32.53,5.64-36.91,12.65-73.62,19.45-110.34,2.77-14.99,6.35-29.82,9.71-45.42h-85.95c-1.18,3.82-2.28,7.35-3.52,11.37-11.56-22.58-22.61-29.71-44.21-27.23-10.53,1.23-21.4,3.02-31.11,7.01-43.63,18.04-72.71,49.34-80.11,96.9-4.59,29.45-13.08,57.14-27.14,83.2-2.78,5.12-6.62,9.99-10.96,13.85-5.59,4.98-11.03,2.36-11.37-5.14-.23-5-.14-10.17.87-15.06,11.08-53.11,22.4-106.18,33.59-159.3.62-2.94.66-6.03,1.02-9.46-3.14.25-4.93.23-6.66.54-25.43,4.57-50.99,4.28-76.33.43-9.28-1.41-12.4.21-14.04,9.39-8.17,45.53-17.38,90.87-25.23,136.45-2.91,16.86-9.19,31.12-22.02,42.35-13.37,11.69-26.73,9.46-31.73-7.55-3.8-12.94-5.44-27.88-3.09-41.03,10.65-59.55,23.9-118.62,34.57-178.18,7-39.1,21.58-72.56,53.18-98.49,54.93-45.04,114.68-81.41,181.05-106.88,27.77-10.65,55.34-9.48,82.57.98,30.55,11.72,48.13,34.73,51.34,66.96,3,30.16-8.08,55.66-32.96,73.7-17.03,12.33-35.05,9.14-47.17-6.78-12.42-16.28-11.01-36.92,4.66-49.29,7.42-5.87,6.87-11.3,3.73-18.45-11.42-26.04-52.75-35.18-74.86-15.58-20.18,17.88-24.41,41.67-19.4,66.92,4.85,24.52,19.92,42.05,44.72,46.24,17.77,3,36.8,2.62,54.73.05,33.23-4.77,60.68-20.22,72.79-53.81,12.31-34.16,7.46-66.71-16.42-94.41-28.05-32.55-65.92-39.37-106.29-34.87-33.43,3.73-62.66,19.56-91.32,36.07-34.23,19.72-68.01,40.26-102.6,59.37-36.07,19.92-74.33,34.34-115.41,40.06-12.26,1.71-24.66,2.32-38.92,3.6,1.91,4.1,2.66,9.21,4.91,9.98,9.4,3.23,11.37,10.44,10.4,18.4-1.73,14.38-4.25,28.71-7.12,42.92-4.16,20.49-8.94,40.85-13.99,63.62-6.67-18.24-19.4-25.25-35-26.91-65.76-7.03-119.07,47.63-133.03,87.43-3.46,9.87-8.08,19.74-14.12,28.21-22.84,32.14-48.27,61.98-81.88,83.61-16.7,10.74-34.53,18.58-54.97,18.36-11.28-.12-17.77-4.3-17.6-15.45.39-22.95,2.82-45.86,4.41-68.71,6.25,0,10.37-.13,14.47.02,28.32,1.09,56.5.46,83.5-9.53,27.29-10.08,37.53-27.02,34.48-55.84-2.48-23.59-10.19-44.88-33-55.54-41.24-19.27-81.93-14.74-119.53,9.44-43.1,27.7-63.8,85.47-51.52,137.47,13.33,56.39,62.62,83.57,117.46,64.62,30.48-10.53,53.88-30.95,74.67-54.66,12.85-14.65,25.04-29.89,37.94-45.4.3,1.86.5,2.98.66,4.1,3.23,22.81,9.07,44.58,21.65,64.42,28.04,44.26,108.17,58.27,132.88-3.05.07-.16.45-.2,1.27-.54.55,1.25,1.11,2.52,1.64,3.77,9.85,23.09,27.09,36.39,52.24,38.51,32.25,2.69,61.25-4.52,84.48-29.91,6.75,13.97,17.28,23.13,31.61,27.47,13.94,4.23,28.13,4.32,42.26.96,30.89-7.3,48.95-28.59,60.89-56.41,1.93-4.46,3.52-9.07,5.59-14.42.86,2.48,1.41,3.87,1.82,5.28,11.49,39.07,35.87,58.41,76.2,60.16,20.47.89,37.32-6,48.49-24.02,2.11-3.37,3.77-7.05,5.98-11.26,13.85,24.36,34.98,37.37,61.09,41.56,34.64,5.55,68.78,1.84,101.62-10.64,25.84-9.82,46.95-25.72,58.82-51.54,22.45-48.83-8.21-105.36-64.44-100.99Zm-854.37-37.78c.29-.52.54-1.05.89-1.53,5.85-8.05,11.89-16.22,23.5-14.33,9.17,1.5,14.19,8.92,14.74,23.57.64,17.13,1.32,34.44-.36,51.43-2.16,21.88-15.97,32.66-37.78,32.44-8.51-.07-17.03-.02-26.7-.02,5.39-32.61,10.15-63.55,25.7-91.57Zm288.02,100.33c-2.28,15.53-3.91,31.36-8.44,46.26-3.43,11.3-9.48,22.61-17.08,31.62-11.44,13.6-27.09,11.53-34.34-4.66-6.19-13.85-11.21-29.05-12.69-44.04-4.07-41.08,3.28-80.56,24.29-116.55,5.28-9.05,12.4-17.65,20.49-24.27,16.28-13.35,31.59-7.53,36.25,12.83,1.37,6.01,1.53,12.31,2.41,19.76-3.5,25.63-6.96,52.38-10.89,79.06Zm422.29-53.2c-6.69,32.18-12.65,64.53-20.29,96.48-2.61,10.9-7.73,22.06-14.51,30.93-12.14,15.83-29.32,12.1-36.07-6.66-1.3-3.6-2.53-7.33-3.02-11.12-1.12-8.51-1.77-17.1-2.39-23.41,2.18-39.55,7.41-76.2,23.68-110.18,5.01-10.51,11.87-20.83,20.11-28.95,14.65-14.4,31.55-8.28,36.33,11.76,3.41,14.21-1.04,27.57-3.85,41.15Z"/>
      <path class="cls-1" d="m1872.48,491.25c-22.27-25.48-51.63-39.6-82.88-50.2-44.47-15.1-90.53-20.99-137.26-23.72-60.93-3.57-121.1,0-180.12,16.35-69.92,19.38-131.72,52.38-179.44,108.49-3.66,4.32-6.75,3.14-10.76,1.46-37.49-15.74-75.03-31.37-112.54-47.08-1.41-.59-2.75-1.37-3-1.55,64.26-48.18,128.62-96.57,193.26-144.55,3.3-2.44,9.44-2.89,13.72-1.91,52.27,11.92,104.9,20.74,158.76,18.22,10.76-.52,21.84-3,31.94-6.78,20.02-7.46,30.23-24.65,28.91-45.4-1.12-17.67-12.47-30.2-33.18-35.98-22.43-6.28-45.28-6.05-68.08-2.8-40.97,5.85-78.18,21.45-112.72,44.01-3.14,2.05-8.58,2.86-12.12,1.7-42.26-13.85-84.36-28.18-126.49-42.4-1.82-.62-3.48-1.66-5.73-2.75,18.26-24.84,37.21-48.1,60.64-67.19,7.03-5.73,15.19-10.6,23.59-14.03,14.12-5.76,27.18,1.66,27.79,16.2.27,6.39-4.39,12.99-6.98,19.92,13.51,0,27.05-3.57,36.62-16.1,10.9-14.29,6.87-34.18-9.03-42.9-6.01-3.3-13.26-5.23-20.15-5.92-19.08-1.91-34.41,7.55-48.6,18.63-28.71,22.41-50.61,50.95-70.81,80.84-3.77,5.59-6.8,6.78-13.49,4.59-36.76-12.06-73.97-22.29-113.34-18.56-22.02,2.09-42.58,8.3-59.57,23.2-24.79,21.74-22.9,56.06,5.92,71.74,35.07,19.08,72.28,22.29,109.38,4.35,20.93-10.12,37.8-25.66,52.86-43.1,4.28-4.96,8.17-6.14,14.6-4,24.18,8.1,48.56,15.67,72.94,23.13,16.4,5.01,32.94,9.53,50.49,14.56-1.45,1.86-1.87,2.66-2.53,3.18-61.5,48.26-122.84,96.74-189.03,138.63-5.01,3.16-9.01,3.68-14.71,1.46-38.96-15.19-77.76-30.93-117.29-44.49-53.52-18.35-108.33-23-163.7-8.28-26.73,7.12-50.81,18.95-65.55,44.03-12.3,20.92-9.74,41.92,8.26,58.11,8.23,7.39,18.2,13.44,28.34,18.01,25.82,11.64,53.66,14.85,81.63,16.06,70.17,3.05,136.02-13.38,198.25-45.19,4.78-2.44,8.32-2.5,13.1-.23,37,17.58,74.13,34.89,111.29,52.16,7.66,3.55,15.53,6.66,23.61,10.08-24.63,36.5-43.35,74.94-57.79,115.25-14.29,39.85-26.82,80.33-40.05,120.3-.87-1.25-2.27-3.14-3.55-5.1-38.96-59.75-77.99-119.44-116.75-179.32-3.77-5.8-7.57-8.49-14.87-8.42-39.83.41-79.7.2-119.55.2-1.48,0-3.25-.5-4.39.13-2.16,1.18-3.98,3-5.92,4.55,2.07,1.77,3.89,4.18,6.28,5.1,2.34.91,5.28.27,7.96.39,27.36,1.39,44.2,14.99,47.51,39.14.96,7,.59,14.28.02,21.36-3.21,40.35-10.37,80.04-22.74,118.59-6.48,20.15-14.74,39.73-22.08,59.25-21.61-9.99-40.6-19.9-60.41-27.73-42.97-16.99-87.14-27.86-133.81-18.76-29.39,5.75-56.34,17.08-77.65,38.9-21.54,22.08-22.54,50.04-3.21,74.01,10.92,13.56,25.34,22.31,41.21,28.82,35.37,14.53,72.12,16.67,109.4,10.53,43.05-7.08,80.17-25.4,108.04-60.02,2.89-3.6,5.57-7.37,8.55-11.35,19.01,13.13,37.44,25.63,55.64,38.48,59.98,42.3,119.39,85.45,180,126.85,36.07,24.66,74.56,45.49,116.63,58.62,23.41,7.32,47.19,12.17,71.83,7.26,43.26-8.6,82.4-41.33,82.22-102.33-.12-42.74-33.28-73.21-75.35-66.99-20.13,2.98-34.05,14.74-40.69,34.26-6.71,19.72-1.2,36.78,12.58,51.45,1.8,1.91,6.85,3.39,8.62,2.27,14.54-9.28,28.45-6.3,41.96,1.59,10.32,6.03,17.01,14.71,16.28,27.59-.73,12.81-8.16,20.63-19.06,25.75-15.74,7.41-32.61,8.74-49.61,7.8-28.2-1.59-53.65-12.21-78.15-25.29-44.28-23.61-83.82-54.15-123.55-84.41-57.68-43.96-114.2-89.52-176.5-127.01-5.89-3.55-3.5-6.87-1.71-10.99,19.1-43.74,32.41-89.14,38.58-136.52,1.55-11.89,2.98-23.79,4.75-37.83,9.07,13.94,16.99,26.09,24.91,38.24,46.4,71.19,92.85,142.38,139.15,213.66,2.89,4.43,6.3,8.12,11.31,5.89,2.53-1.11,4.32-5.68,4.98-8.98,3.36-16.86,6.03-33.87,9.32-50.75,15.69-80.81,35.12-160.53,69.08-236.02,11.69-26.02,25.22-50.92,42.58-73.81,47.95,18.61,96.21,33.98,145.82,45.01,49.97,11.1,100.46,17.88,151.59,20.17,68.58,3.09,136.61-.29,203.3-18.01,33.53-8.92,65.53-21.36,92.51-44.13,34.48-29.11,37.57-67.74,7.96-101.62Zm-391.69-200.91c23.75-5.03,47.7-5.62,71.65-1.75,17.24,2.78,25.81,10.3,28.25,23.9,2.2,12.17-2.2,22-14.17,25.15-13.03,3.43-26.73,5.59-40.21,5.89-45.26.98-89.94-4.35-135.9-15.7,29-18.2,58.52-30.73,90.37-37.48Zm-354.1,58.34c-23.74,3.82-47.7,1.62-69.4-9.55-7.57-3.89-14.38-11.55-18.6-19.11-5.35-9.64-2.66-18.6,7.35-23.43,13.15-6.34,27.23-12.03,41.53-14.44,39.39-6.64,76.93,3.55,115.18,15.79-21.67,23.7-43.71,45.54-76.06,50.74Zm-151.94,204.7c-39.81,5.87-79.36,4.6-118.43-5.32-14.79-3.77-28.88-9.55-40.01-20.45-13.92-13.65-20.34-33.37,4.48-48.58,23.4-14.33,49.47-19.11,76.04-22.97,56.2-8.14,106.68,10.08,156.3,32.77,16.38,7.51,32.57,15.47,50.92,24.22-42.96,19.67-84.95,33.78-129.3,40.33Zm-112.72,386.33c-39.49,28.73-84.31,37.49-131.74,31.64-19.13-2.36-37.82-9.28-56.27-15.38-7.05-2.34-13.4-7.66-19.26-12.58-25.02-20.97-23.97-53.56,2.25-73.01,20.2-14.99,43.85-19.99,68.17-23.5,49.27-7.1,91.25,12.58,132.51,35.1,12.44,6.82,24.45,14.42,37.08,21.93-8.6,14.97-19.74,26.32-32.75,35.8Zm1003.78-376c-19.17,18.6-43.53,27.27-68.48,34.39-38.14,10.87-77.26,15.65-116.71,17.88-15.13.86-30.27,1.29-45.42,1.87-78.51,3.11-155.03-8.94-229.95-31.46-32.91-9.89-65.21-21.83-97.76-32.87-1.87-.64-3.64-1.62-6.14-2.75,18.6-22.84,40.53-40.87,64.46-56.48,52.65-34.32,110.68-53.7,172.8-61.61,79.74-10.15,158.15-4.52,234.91,19.95,26.7,8.49,52.5,19.47,74.28,37.51,9.44,7.82,18.15,17.35,24.63,27.68,10.53,16.79,7.62,32.07-6.62,45.88Z"/>
      <path class="cls-1" d="m1286.95,1518.18c-17.03,10.65-36.14,12.49-55.52,13.81-30.53,2.07-54.27-11.58-76.08-31.07-17.06-15.22-34.32-30.39-52.74-43.9-39.62-29.11-84.13-44.29-133.74-44.47-44.01-.14-87.93-.14-132.58,7.01-.27-2.93-.54-5.62-.84-8.91,3.68-.75,6.76-1.71,9.9-1.96,20.08-1.59,34.76-12.1,41.83-30.09,7-17.79,11.85-36.64,15.67-55.41,13.67-67.41,26.48-135.01,39.6-202.52.2-1.05.02-2.18.02-5.3-6.23,10.87-11.51,20.08-16.78,29.29-50.92,89.3-101.78,178.61-152.87,267.82-1.78,3.12-5.62,5.07-8.51,7.55-2.18-3.05-5.41-5.82-6.39-9.23-23.06-79.47-45.86-158.99-68.73-238.51-.57-1.96-1.28-3.89-3.48-5.96-1.48,9.62-2.89,19.26-4.41,28.88-10.35,65.37-21.36,130.63-46.76,192.33-12.17,29.59-27.36,57.41-50.54,80.11-29.46,28.86-64.75,40.4-105.7,36.66-26.29-2.39-51.02-9.03-72.19-25.06-37.28-28.21-52.79-66.28-44.56-112.02,8.23-45.63,37.12-74.72,80.79-88.8,22.27-7.17,45.29-9.94,68.6-5.41,32.93,6.42,58.71,36.53,61.41,71.24,1.82,23.49-1.64,45.58-16.63,64.82-18.6,23.9-53.43,29.3-78.79,15.94-13.87-7.3-19.58-20.2-21.02-35.09-.2-1.95,2.89-5.71,4.96-6.14,22.09-4.46,32.94-16.31,31.98-35.67-.93-18.76-17.45-33.93-38.41-35.26-33.46-2.12-58.7,19.04-64.03,53.75-9.08,58.96,27.77,106.74,86.79,113.48,48.85,5.57,85.29-14.69,113.43-52.84,25.79-35.01,40.3-75.22,51.9-116.54,14.21-50.65,23.13-102.37,28.96-154.6,1.07-9.69,2.3-19.68,1.04-29.23-2.64-19.97-18.51-31.87-42.22-33.52-2.07-.14-4.18-.32-6.25-.18-7.62.52-9.49-3.07-6.92-10.69,2.89-.18,6.07-.52,9.24-.52,41.94-.04,83.88.16,125.8-.18,7.98-.07,11.21,2.61,13.38,10.35,18.58,65.62,37.64,131.12,56.57,196.63.8,2.77,1.77,5.5,3.32,10.33,17.22-30.07,33.3-58.14,49.34-86.23,24.31-42.56,48.49-85.22,73.06-127.62,1.86-3.19,6.35-6.87,9.65-6.91,44.31-.46,88.64-.3,132.95-.27,1.41.02,2.84.46,4.25.71.37.91.73,1.82,1.11,2.73-2.52,1.11-4.93,2.86-7.53,3.18-7.32.93-14.94.34-22.04,2.05-13.1,3.16-21.93,11.35-24.7,25.15-8.17,40.99-16.45,81.97-24.56,122.98-8.14,41.31-16.29,82.61-24,124.01-1.45,7.78-1.61,15.99-1.05,23.93.89,13.05,9.89,19.72,21.4,23.32,9.9,3.11,20.08,5.34,29.98,8.46,43.28,13.67,78.58,39.94,111.09,70.64,7.78,7.33,16.01,14.24,24.52,20.7,12.44,9.42,26.43,14.33,42.42,13.21,13.81-.98,22.58-6.73,26.43-18.56,5.34-16.37,2.68-28.61-8.16-37.3-1.39-1.12-2.86-2.14-4.37-3.07-13.51-8.26-14.15-11.85-7.19-26.47,11.21-23.54,54.27-35.89,75.99-7.41,22.16,29.07,14.44,72.1-17.11,91.84Z"/>
      <path class="cls-1" d="m1864.65,1999.51c-23.16-28.13-53.81-45.38-87.52-57.68-36.26-13.24-73.95-19.04-112.27-22.17-54.32-4.44-106.61,1.52-155.85,26.81-48.88,25.11-89.25,60.8-126.3,100.62-15.56,16.72-30.36,34.18-46.22,52.09-33.75-19.9-68.37-37.96-100.47-59.73-60.23-40.85-121.94-78.08-192.13-99.72-33.53-10.35-66.94-14.47-101.81-8.82-78.63,12.74-145.41,72.12-151.71,156.23-3.93,52.56,20.99,112.15,91.59,120.94,32.68,4.07,63.87-18.92,59.95-55.29-1.66-15.37-12.53-28.36-27.66-32.52-15.35-4.21-31.02.86-39.73,12.87-2.52,3.46-4.3,6.32-.57,10.87,9.05,11.06,6.55,30-4.59,39.08-6.01,4.91-13.03,6.87-19.79,2.43-7.89-5.16-16.19-10.42-22.34-17.38-23.16-26.2-27.73-57.5-19.86-90.25,22.38-93.25,108.97-128.74,183.44-119.64,37.16,4.53,70.56,20.92,102.38,39.49,64.66,37.74,128.6,76.67,192.86,115.07,8.6,5.14,17.28,10.17,25.79,15.17-.45,1.12-.5,1.46-.68,1.68-29.95,35.78-59.86,71.6-90.07,107.15-1.32,1.55-5.92,1.84-8.16.84-12.74-5.69-25.06-12.33-37.82-17.97-38.51-17.01-76.81-34.51-119.5-39.24-61.28-6.8-107.52,39.37-98.28,100.01,4.02,26.31,17.79,46.58,44.51,55.11,50.11,16.04,98.08,11.03,142.72-17.2,18.51-11.71,35.69-25.54,54.31-38.99,1.61.84,4.5,2.27,7.33,3.8,31.34,16.99,62.53,34.27,94.05,50.93,48.02,25.41,95.92,51.09,148,67.73,39.71,12.69,77.65,7.67,113.52-12.08,26.2-14.42,45.1-35.69,51.88-65.87,7.14-31.8-9.35-60.98-38.55-68.65-16.35-4.3-34.39,1.02-43.4,13.53-9.44,13.08-11.49,27.41-3.57,41.85,2.73,5,7.28,9.74,12.19,12.44,2.18,1.2,7.3-3,11.1-4.73,1.07-.48,2.21-1.41,3.27-1.32,5.35.46,12.03-.54,15.63,2.3,3.14,2.48,4.35,9.62,3.59,14.24-.86,5.21-3.78,11.26-7.78,14.51-8.6,7.01-17.77,14.28-27.96,18.22-23.47,9.07-48.11,9.89-72.74,4.71-33.53-7.03-64.12-21.58-93.3-38.87-46.77-27.7-93.05-56.27-139.5-84.5-.68-.41-1.07-1.27-1.82-2.18,1.14-1.48,2.16-2.91,3.28-4.23,27.52-32.8,55.25-65.42,82.38-98.55,5.39-6.59,8.96-7.51,16.6-3.37,94.51,51.34,192.58,92.3,301.21,102.49,40.83,3.82,81.4,4.37,121.19-6.59,50.86-13.99,92.84-40.83,119.71-87.7,27.29-47.58,23.08-107.18-10.51-147.96Zm-810.56,332.8c-13.42-.25-27.27-2.84-40.08-6.94-33.66-10.73-44.15-32.14-35.28-67.33,8.49-33.77,39.33-50.99,74.79-43.22,34.59,7.57,65.64,23.95,97.15,39.15,11.44,5.51,22.56,11.71,35.26,18.33-38.78,34.28-79.29,60.93-131.85,60.02Zm774.61-169.97c-28.73,26.59-63.26,40.37-101.56,45.45-63.44,8.41-124.67-3.43-185.37-20.52-66.16-18.61-127.92-47.38-188.24-79.67-1.52-.8-2.93-1.84-5.16-3.25,45.24-53.06,90.96-103.79,151.16-138.86,47.99-27.95,99.55-38.32,154.83-34.35,39.71,2.86,78.38,9.12,115.32,24.16,29.61,12.08,56.22,28.84,75.97,54.45,36.23,46.97,28.96,110.08-16.95,152.59Z"/>
      <path class="cls-1" d="m1836.9,1519.66c-6.57-34.14-29.02-53.86-61.16-60.96-54.91-12.14-110.25-10.39-165.4.46-72.47,14.24-142.57,36.67-210.8,64.26-105.9,42.85-210.94,87.82-316.36,131.9-3.44,1.45-6.92,2.8-11.6,4.69-4.23-44.12-8.33-86.98-12.49-130.4-31.14,6.1-60.94,7.64-90.8,1.96-5.68-1.09-6.23,3.11-7.58,6.59-23.75,61.12-47.44,122.26-71.38,183.3-1.32,3.36-4.5,7.58-7.58,8.39-44.85,11.67-89.87,22.34-136.76,21.31-24.86-.55-44.81-10.55-59.93-29.98-27.68-35.6-31.18-92.39-8.32-131.31,11.97-20.36,29.39-33.52,52.82-37.19,17.17-2.71,34.18-2.36,46.17,13.47,20.13,26.63,4.66,63.1-28.45,67.12-4.44.55-7.67,1.21-8.42,6.92-2.98,23,12.71,48.02,35.01,52,37.98,6.76,74.47-12.22,85.82-49.59,9.26-30.53-2.93-62.91-31.05-82.57-26.47-18.51-56.72-23.63-88.09-23.13-36.3.59-64.53,16.76-81.22,48.93-23.49,45.29-22.04,91.21,4,135.11,16.29,27.5,41.56,43.17,73.81,44.99,34.87,1.98,69.4-1.98,103.38-10.08,12.97-3.09,25.81-6.73,39.67-10.35-16.01,41.22-31.48,81.34-47.17,121.39-9.49,24.31-18.58,48.83-29.23,72.63-7.41,16.58-20.36,22.31-35.16,18.58-18.63-4.68-32.64-20.17-31.69-36.78.43-7.55-2.64-10.21-8.87-11.44-3.78-.73-7.58-1.86-11.37-1.86-22.2-.09-38.24,10.6-47.6,30.11-10.28,21.4-5,41.4,9.87,58.7,24.63,28.63,66.71,30.27,97.64,4.48,20.01-16.67,32.34-38.92,41.72-62.28,25.56-63.59,49.81-127.71,74.38-191.69,1.96-5.1,4.6-8.01,10.05-9.71,19.52-6.05,38.87-12.74,58.27-19.2,6.07-2.03,12.1-4.12,18.95-6.44.75,4.6,1.5,8.05,1.84,11.53,1.73,18.02,3.68,36.03,4.96,54.09,1.73,24.29,3.96,48.61,4.07,72.92.11,26.11-8.58,34.96-33.91,38.78-1.8,7.58,3.39,7.05,8.19,7.05,56.5-.02,113,0,169.52-.04,2.61,0,5.21-.34,7.85-.52,1.91-5.66,1.34-9.1-5.28-9.21-2.64-.04-5.34-.54-7.87-1.27-25.64-7.35-38.01-26.89-40.92-51.06-6.21-51.86-10.26-103.99-14.76-156.03-.2-2.44,3.37-6.53,6.09-7.69,103.04-43.62,205.68-88.23,309.45-129.97,89.78-36.12,181.16-68.46,278.67-76.63,22.83-1.91,46.24.55,69.12,3.14,7.03.8,15.4,7.41,19.43,13.72,11.44,17.94.54,46.79-19.42,54.16-4.55,1.68-5.87,3.93-5.64,8.42.75,15.29,7.5,27.34,19.67,36.3,17.88,13.15,41.17,13.87,59.3,2.16,19.24-12.42,30.89-39.64,26.54-62.19Zm-865.34,181.48c-21.08,6.98-41.97,14.49-62.94,21.77-1.57.54-3.28.73-6.89,1.5,21.31-55.13,42.06-108.83,62.82-162.51.55-.05,1.11-.11,1.66-.16,2.18,21.22,4.46,42.42,6.5,63.66,2.05,21.56,3.69,43.15,5.87,64.69.62,6.03-1.02,9.07-7.01,11.05Z"/>
      <path class="cls-1" d="m2064.31,1560.72c-28.39-35.19-82.45-52-126.69-38.37-27.7,8.55-51.56,23.63-65.41,50.2-14.88,28.63-2.16,63.39,26.45,74.54,16.01,6.23,31.16,4.23,43.97-7.6,11.67-10.78,16.97-24.02,12.87-40.19-1.59-6.26-4.09-9.28-11.55-8.91-13.37.66-26.7-12.72-29.23-27.72-1.89-11.26,5.19-22.15,19.02-26.5,42.99-13.56,81.82-5.53,114.7,25.47,31.73,29.91,41.81,85.68.09,125.41-17.24,16.4-37.12,28.63-58.34,38.9-39.53,19.11-81.49,30.89-124.05,40.74-3.09.71-7.01-.18-10.03-1.52-14.33-6.37-28.34-13.46-42.71-19.74-17.63-7.71-35.78-14.24-53.15-22.49-12.08-5.75-17.63-16.24-15.62-30.14,1.98-13.55,10.76-21.06,22.83-24.59,19.08-5.6,38.42-5.16,56.59,3.09,6.89,3.12,13.6,8.87,17.81,15.15,7.71,11.46,4.27,19.88-8.17,24.98-1.02,13.42,5.34,23.86,17.03,27.95,13.08,4.6,27.14.36,34.96-10.56,8.24-11.53,8.91-28.52-1.55-37.66-10.28-8.96-22.47-16.79-35.14-21.7-35.59-13.76-72.58-13.44-109.72-6.75-3.5.62-6.94,1.5-10.39,2.43-32.64,8.8-53.09,26.52-63.37,61.82-14.78,50.75-39.69,97.92-73.9,139.22-3,3.62-6.69,6.87-10.6,9.46-7.58,5.03-12.67,2.28-12.8-6.66-.07-4.43.21-8.94.95-13.3,8.49-50.31,17.19-100.58,25.64-150.89,2.71-16.12,2.48-16.15,17.6-17.86.52-.05.96-.61,1.57-1.02v-10.23c-4.89-.66-9.12-1.23-13.92-1.89,4.12-23.52,8.08-45.97,11.97-68.44,3.89-22.54,7.69-45.08,11.71-68.64-33.68,7.57-65.66,11.87-98.19,7.08-7.17-1.05-7.46,3.46-8.26,8.37-6.17,37.46-12.72,74.85-18.49,112.38-1.27,8.32-4.39,10.71-12.47,10.26-10.98-.62-11.65.84-8.49,12.03,5.09.34,10.32.68,16.1,1.07,0,2.59.27,4.64-.05,6.6-5.53,34.26-11.46,68.46-16.65,102.78-3.25,21.36-6.34,42.83-7.76,64.35-.91,13.72,3.87,27.13,15.78,35.21,21.47,14.56,45.03,17.22,69.51,8.14,15.22-5.66,26.61-16.65,37.01-28.55,31.12-35.62,50.99-77.79,69.48-120.73,1.53-3.59,3.16-7.16,5.41-12.21,5.19,31.5,27.73,46.61,51.58,61.68-8.26,2.62-15.19,3.85-21.18,6.91-13.9,7.12-28.84,13.33-40.65,23.16-18.31,15.24-16.29,39.12,3.03,53.27,6.8,4.98,14.94,8.94,23.06,11.14,34.26,9.23,69.26,11.24,104.15,5.05,26.59-4.71,51.24-15.08,71.88-33.34,23.91-21.18,32.07-53.22,20.29-79.92-1.87-4.23-4.27-8.19-6.53-12.47,21.7-6.21,42.96-11.69,63.78-18.42,38.89-12.55,76.24-28.39,108.79-53.91,56.34-44.15,52.2-105.42,19.47-145.95Zm-260.86,325.59c-11.69,9.85-25.93,14.06-40.56,13.56-13.74-.46-27.91-2.61-40.94-6.89-19.52-6.42-27.29-19.7-27.05-40.17.27-24.25,7.6-34.8,28.95-40.78,2.89-.8,6.64-.93,9.28.25,17.9,7.96,35.71,16.1,53.29,24.75,6.34,3.11,12.42,7.17,17.74,11.81,12.99,11.33,12.56,26.27-.7,37.46Z"/>
      <path class="cls-1" d="m1975.42,644.96c-49.22-20.54-109.54-11.62-150.87,37.28-23.56,27.88-39.76,59.86-51.54,94.01-11.6,33.64-21.49,67.85-32.85,101.56-5.68,16.79-12.33,33.35-20.02,49.31-2.18,4.52-9.58,9.07-14.56,9.05-8.07-.04-11.6-7.89-12.17-15.29-.64-8.23-.93-16.79.61-24.86,6.78-35.84,14.24-71.55,21.5-107.29,4.02-19.72,8.16-39.4,12.26-59.29-28.88,0-56.18-.13-83.48.23-2.28.02-6.16,2.98-6.57,5.09-2.48,13.33-3.64,26.93-6.28,40.24-8.01,40.4-15.79,80.88-25.23,120.94-3.05,12.96-10.21,25.22-17.11,36.82-2.41,4.03-9.67,7-14.79,7.14-7.14.18-11.9-5.96-12.85-12.8-1.25-8.99-2.5-18.51-.91-27.29,3.82-20.97,9.42-41.6,14.1-62.41,5.91-26.34,12.44-52.65,9.69-80.04-2.55-25.41-16.49-37.32-41.8-34.23-7.67.95-15.79,4.02-22.13,8.39-9.69,6.69-19.51,14.19-26.63,23.4-19.04,24.65-36.89,50.24-54.82,75.74-21.02,29.91-40.78,60.82-68.57,85.25-21.01,18.49-44.28,32.02-73.33,32.34-15.97.16-22.18-5.14-21.36-21.13.96-19.24,3.57-38.39,5.5-57.55.43-4.25,2.39-6.07,7.12-5.53,6.78.77,13.65.8,20.49.8,24.75,0,49.33-1.57,72.62-10.99,14.26-5.78,26.5-14.47,30.41-30.23,1.95-7.87,1.28-16.49,1.16-24.75-.43-28.8-17.42-53.09-44.9-61.02-41.15-11.85-80.2-6.41-114.59,20.24-41.06,31.8-58.41,92.32-41.3,142.54,11.49,33.8,34.21,54.82,70.71,59.34,28.18,3.52,52.61-6.14,75.45-21.13,23.86-15.67,44.21-35.48,61.07-58.21,23.16-31.25,44.69-63.71,66.99-95.58,2.43-3.46,5.34-6.57,8.03-9.85.91.3,1.82.61,2.73.91,0,3.93.54,7.92-.11,11.74-1.64,9.64-4.34,19.1-5.68,28.77-3.48,24.91-8.57,49.86-9.01,74.86-.48,25.82,9.23,49.31,35.25,60.07,26.57,11.01,53.98,11.37,77.4-7.66,9.85-8,15.94-20.63,22.7-29.77,5.98,7.64,12.71,18.22,21.34,26.93,26.63,26.82,88.48,18.47,110.5-12.47,10.53-14.76,19.08-31.55,25.29-48.61,12.67-34.82,22.43-70.67,34.69-105.65,13.46-38.39,31.61-74.28,61.25-103.33,31.78-31.16,72.56-29.3,105.15-10.89,24.72,13.97,36.35,41.3,30.84,67.44-8.53,40.6-48.67,52.72-75.92,50.24-12.21-1.11-19.95-11.67-20.02-24.5-.09-13.56,6.6-21.77,19.74-24.34,1.62-.32,3.18-1.07,4.62-1.57-1.41-17.83-10.56-29.02-26.56-33.02-17.04-4.25-32.82,1.61-42.12,15.65-16.95,25.54-6.53,60.62,21.84,72.42,20.88,8.69,42.83,9.19,64.87,6.37,20.99-2.69,39.53-11.1,53.43-27.47,32.69-38.53,17.6-95.98-31.27-116.36Zm-662.97,111.68c2.34-3.62,5.76-6.92,9.39-9.26,9.35-6.03,19.93-2.48,24.22,7.75,1.12,2.69,2.23,5.68,2.25,8.53.07,19.81,1.87,39.89-.8,59.34-2.96,21.5-16.04,29.7-37.67,29.07-8.23-.23-16.47-.04-26.07-.04,6.39-34.1,10.3-66.91,28.7-95.39Z"/>
      <path class="cls-1" d="m1462.7,1715.27c-3.02,29.84-21.43,51.84-47.92,57.22-27.82,5.64-51.4-7.73-57.09-32.23-1.59-6.78-1.8-11.06,7.23-13.33,18.35-4.6,28.71-22.33,25.98-41.3-1.48-10.35-12.08-15.85-22.52-10.73-6,2.96-11.94,7.05-16.35,12.03-9.83,11.08-19.97,22.27-27.43,34.92-4.71,8-5.16,18.65-6.92,28.2-8.12,44.03-16.04,88.07-23.99,132.12-.21,1.12.07,2.34.21,5.01,4.73,0,9.39.05,14.03,0,4.21-.05,7.64.39,7.71,6.01.07,5.92-3.27,6.62-8.03,6.6-35.39-.07-70.76.02-106.13.04-6.25,0-12.53-.43-18.72.11-8.32.7-11.9-2.02-8.69-12.56,4.73,0,10.33.71,15.62-.27,2.94-.54,7.26-3.48,7.76-6,12.81-64.23,25.2-128.55,37.64-192.85.05-.25-.18-.55-.62-1.89h-18.51v-12.03c43.94.25,86.34-8.66,127.98-23.16,2.61,7.46,2.16,12.42-6.3,14.46-2.11.5-4.55,3.52-5.12,5.8-1.95,7.94-3.14,16.06-4.71,24.63,10.19-9.67,19.27-19.49,29.54-27.8,17.42-14.08,36.91-22.72,60.18-17.81,30.39,6.39,48.45,32.28,45.19,64.82Z"/>
      <path class="cls-1" d="m1725.61,1117.42c-.05,36.71-38.55,69.19-74.56,62.87-24-4.19-41.12-26.98-38.96-53.09,2.43-29.27,30.46-65.71,71.8-60,25.82,3.57,41.76,22.36,41.72,50.22Z"/>
      <path class="cls-1" d="m1722.29,2081.22c-2.98,8.3-4.73,15.19-7.83,21.4-5.12,10.32-15.19,14.97-26.89,12.56-9.57-1.96-18.81-5.53-28.39-7.12-5.16-.86-10.76,1-16.67,1.7-.02-6.57,3.55-14.26,9.83-20.27,5.5-5.26,12.17-9.26,18.06-14.13,6.8-5.64,14.15-10.92,19.72-17.65,6.53-7.89,8.73-17.35,1.37-26.81.39-.82.79-1.64,1.16-2.44,8.41,2.62,17.54,3.94,25.04,8.19,9.55,5.39,9.8,20.04.34,27.52-6.25,4.93-14.47,7.75-22.18,10.35-7.5,2.52-15.51,3.57-23.29,5.28,15.94,1.45,31.48,15.28,49.74,1.43Z"/>
      <path class="cls-1" d="m1556.89,2083.92c-.82,23.43-15.1,35-36.82,30.2-7.8-1.71-15.38-4.43-23.15-6.28-5.91-1.41-12.35-3.62-16.49,4.21-.54-9.83,3.53-17.85,10.69-24.09,5.94-5.19,12.99-9.07,18.93-14.24,6.85-5.98,14.1-11.99,19.22-19.35,4.93-7.07,7.23-15.88-3.07-24.5,11.72.25,21.25.64,29.32,6.89,9.57,7.44,8.24,23.63-3.53,30.21-8.35,4.66-18.2,6.71-27.5,9.57-5.05,1.55-10.35,2.32-16.19,3.59,27.7,8.87,37.05,9.64,48.58,3.8Z"/>
      <path class="cls-1" d="m1792.14,2104.01c-7.62,7.82-25.91,12.88-35.53,10.89,3.48-7.98,8.66-15.97,10.39-24.68,2.87-14.6.84-16.42-16.33-22.45,20.49-.02,27.55-26.57,14.69-39.14,10.05,1.89,18.02,2.46,25.31,5,11.37,3.98,13.92,17.13,4.57,24.84-5.73,4.71-13.35,7.12-19.06,10.03,1.91.55,5.51,1.28,8.91,2.59,14.76,5.67,18.13,21.59,7.07,32.93Z"/>
      <path class="cls-1" d="m1646.71,2064.25c-.04,28.88-20.2,51.06-45.95,50.56,13.3-26.54,20.63-53.97,13.8-84.27,20.59.91,32.18,12.87,32.16,33.71Z"/>
      <path class="cls-1" d="m1593.71,2114.7c-10.24,1.46-22.59-4.39-27.82-14.9-12.76-25.61,3.66-69.73,41.6-69.05-13.72,26.95-20.04,54.25-13.78,83.95Z"/>
      <path class="cls-1" d="m1749.72,2097.23c-6.1,5.57-6.39,9.58-.29,19.08-6.53-1.27-12.1-1.7-17.19-3.5-9.99-3.5-13.47-12.1-9.37-21.31,4.27-9.53,15.99-14.08,24.54-9.51,6.89,3.68,7.87,10.17,2.3,15.24Z"/>
      <path class="cls-1" d="m1681.1,2050.47c.5.96.84,2.2.7,3.23-.89,6.55-12.39,13.12-19.92,11.47-8-1.73-11.69-8.6-9.24-17.01,2.39-8.28,8.64-12.62,16.19-15.08,5.43-1.78,11.21-2.48,16.85-3.68-9.82,9.71-9.99,10.48-4.57,21.06Z"/>
      <path class="cls-1" d="m1518.79,2051.08c.46.45.34,1.66.23,2.5-.82,6.53-12.22,13.19-19.81,11.62-8.14-1.68-12.05-8.58-9.57-16.9,3.32-11.12,16.38-18.17,34.35-17.47-8.37,6.32-14.03,11.97-5.21,20.26Z"/>
      <path class="cls-1" d="m1757.86,2049.56c2.77,2.94-4.52,10.69-11.31,12.31-7.16,1.71-15.17-2.09-14.76-8.39.36-5.55,2.57-12.85,6.6-15.88,6.16-4.6,14.56-6.19,22.02-9.05.41,1,.82,2.02,1.25,3.02-6.1,5.07-11.51,9.78-3.8,17.99Z"/>
    </g>
    <rect class="cls-2" x="2.5" y="2.5" width="2569.85" height="2569.85"/>
  </g>
</svg>