<?xml version="1.0" encoding="UTF-8"?>
<svg id="Layer_2" data-name="Layer 2" xmlns="http://www.w3.org/2000/svg" viewBox="0 0 1582.31 305.79">
  <g id="Layer_1-2" data-name="Layer 1">
    <path d="m1582.31,117.62c0,17.39-8.48,31.33-25.43,41.67-16.96,10.35-41.74,16.88-74.44,19.47,11.93,3.81,21.55,10.71,28.81,20.55,7.26,9.92,10.92,21.2,10.92,33.77,0,14.08-4.38,26.58-13.22,37.58-8.84,10.99-21.48,19.54-37.94,25.79-16.45,6.18-35.64,9.34-57.62,9.34-24.57,0-46.13-3.23-64.59-9.63-18.47-6.47-32.91-15.74-43.25-27.88-10.35-12.14-15.59-26.51-15.59-42.97s6.25-30.97,18.75-42.75c12.5-11.78,29.75-19.47,51.66-23.06-15.02-1.87-27.52-7.54-37.58-16.81-3.88-3.59-7.04-7.47-9.41-11.5-7.47,7.4-14.23,15.66-20.26,25,4.17-10.71,10.49-20.41,18.32-28.74-.5-1.15-1.01-2.3-1.44-3.52-11.21,1.94-22.27,5.17-33.19,9.99,9.63-6.75,20.62-11.35,32.12-13.94-.5-2.23-.86-4.45-1.01-6.83-13.08,1.72-25.94,5.25-38.73,10.85,11.5-8.05,24.86-13.08,38.73-15.16.14-2.66.43-5.17.93-7.62l-8.98-70.99,69.91,27.66c8.98-1.51,18.75-2.23,29.39-2.23,14.66,0,27.45,1.51,38.44,4.45l44.62-21.12-5.6,52.74c.65,2.66.93,5.39.93,8.33,0,11.42-3.88,20.41-11.64,26.8-7.76,6.47-18.54,9.63-32.4,9.63-12.14,0-22.06-2.73-29.67-8.19-7.62-5.46-11.42-12.5-11.42-21.12,0-7.4,2.8-13.22,8.41-17.53,5.6-4.31,13.44-6.54,23.42-6.83,1.44-1.65,2.16-3.45,2.16-5.39-.22-2.87-3.02-4.31-8.19-4.31-10.49,0-19.4,3.38-26.66,10.2s-10.92,15.09-10.92,24.86c0,11.93,5.39,21.27,16.09,28.09,10.71,6.83,25.51,10.2,44.33,10.2h11.06c2.87,0,4.31,1.22,4.31,3.59v7.18c0,1.22-.29,1.94-.86,2.3-.57.36-1.72.65-3.38.86-21.7,2.66-39.59,9.92-53.67,21.84s-21.12,26.01-21.12,42.25c0,17.67,6.04,31.76,18.03,42.39s27.95,15.95,47.78,15.95c17.39,0,32.04-4.89,43.97-14.66,11.93-9.77,17.89-21.7,17.89-35.78,0-8.33-2.08-15.95-6.25-22.92-4.17-6.9-9.99-12.43-17.53-16.67-7.54-4.17-15.95-6.25-25.22-6.25-8.62,0-16.6,1.65-24.14,5.03-7.54,3.31-13.58,7.98-18.25,13.94-4.67,5.96-6.97,12.65-6.97,20.05,0,8.33,3.02,15.59,9.12,21.63,6.11,6.11,13.08,9.12,20.91,9.12,5.75,0,8.62-1.8,8.62-5.39,0-1.22-.22-2.3-.72-3.23-8.62-.43-15.23-2.59-19.83-6.47-4.67-3.81-6.97-8.91-6.97-15.38,0-8.12,3.52-14.87,10.56-20.19,7.04-5.39,16.02-8.05,27.02-8.05s20.05,3.23,27.16,9.63c7.18,6.47,10.71,14.66,10.71,24.72,0,11.21-4.74,20.62-14.3,28.24-9.56,7.62-21.48,11.42-35.78,11.42-15.74,0-28.67-4.24-38.8-12.72-10.13-8.48-15.23-19.4-15.23-32.76s5.1-25,15.23-34.85c10.13-9.92,24.29-16.74,42.39-20.55,10.27-1.87,21.2-3.59,32.91-5.03,30.03-3.59,51.95-9.27,65.67-16.96,13.72-7.76,20.55-18.18,20.55-31.33,0-8.84-3.02-16.24-8.98-22.35s-13.08-9.12-21.48-9.12c-5.96,0-8.98,1.65-8.98,5.03,0,.5.14,1.08.36,1.8s.5,1.29.72,1.8c8.33.22,14.87,2.51,19.47,6.83,4.67,4.31,6.97,9.99,6.97,17.17,0,7.62-3.16,13.87-9.48,18.75-6.32,4.89-14.37,7.33-24.14,7.33-10.71,0-19.47-2.95-26.3-8.91-6.83-5.96-10.2-13.58-10.2-22.92,0-11.93,4.67-21.55,13.94-28.96,9.34-7.4,21.48-11.06,36.5-11.06s25.87,4.1,34.7,12.36c8.91,8.26,13.29,19.04,13.29,32.4Zm-88.17-81.05c0-.93.22-1.72.72-2.23s1.15-.86,1.94-.86c.65,0,1.37.14,2.08.5.79.36,1.65.72,2.66,1.22,1.01.43,2.3.86,3.74,1.22s3.23.5,5.32.5c3.02,0,5.96-.57,8.69-1.72s4.81-2.66,6.18-4.53c.29-.36.43-.57.5-.65s.14-.07.29-.07h1.37c.36,0,.65.14.72.5.14.36.22,1.01.22,2.08,0,6.9-1.65,12.36-4.96,16.38-3.31,4.02-7.76,6.04-13.36,6.04-3.45,0-6.47-.57-9.05-1.72s-5.03-2.95-7.18-5.39c-.5,0-.79.22-1.08.72-.22.5-.5,1.58-.79,3.16-.07.65-.22,1.15-.36,1.44s-.43.43-.86.43h-1.94c-.65,0-.93-.43-.93-1.29v-15.52c0-2.51.36-4.45,1.01-5.82.72-1.37,1.8-2.37,3.45-3.09,1.58-.72,3.88-1.22,6.75-1.51,4.02-.5,7.18-1.72,9.41-3.81,2.23-2.01,3.31-4.74,3.31-8.12,0-3.09-1.01-5.6-3.09-7.62s-4.67-2.95-7.83-2.95c-1.29,0-1.94.36-1.94,1.22,0,.43.14.79.5,1.08h.5c2.87,0,5.17.72,6.83,2.23,1.65,1.44,2.51,3.45,2.51,5.89,0,2.87-1.08,5.17-3.16,6.97-2.16,1.8-4.89,2.66-8.33,2.66-3.66,0-6.61-1.01-8.91-2.95-2.23-1.94-3.38-4.6-3.38-7.83,0-2.44.79-4.67,2.44-6.68s3.95-3.59,7.04-4.74c3.02-1.15,6.54-1.72,10.56-1.72,4.6,0,8.62.65,12.07,2.01,3.45,1.37,6.04,3.31,7.9,5.89s2.8,5.6,2.8,9.12c0,3.16-.72,6.04-2.23,8.69-1.44,2.66-3.59,4.74-6.32,6.32s-5.82,2.37-9.34,2.37c-1.8,0-3.45-.22-4.96-.57s-2.87-.79-4.02-1.29-2.23-.86-3.23-1.29c-.93-.36-1.8-.57-2.51-.57-1.37,0-2.44.57-3.16,1.65s-1.15,2.66-1.15,4.67v7.76c.22.22.5.29.93.29,1.08,0,1.65-.57,1.65-1.65v-6.83h0Zm-813.23,186.88c-11.98,0-13.41,2.99-15.1,9.76l-.65,2.6h-3.77l1.17-18.22h57.67v2.86l-40.22,69.38h23.56c11.98,0,13.28-2.99,15.1-9.89l.65-2.6h3.78l-1.17,18.35h-61.96v-3.12l39.83-69.12h-18.88Zm128.35-2.08v-3.77h31.89v3.77c-10.8,0-12.37,2.21-12.37,15.23v30.07c0,20.44-14.19,31.24-31.37,31.24s-31.24-10.8-31.24-31.24v-30.07c0-13.02-1.69-15.23-12.5-15.23v-3.77h41.27v3.77c-10.93,0-12.5,2.21-12.5,15.23v28.64c0,16.79,8.98,24.6,20.18,24.6s19.14-7.81,19.14-24.6v-28.64c0-13.02-1.56-15.23-12.5-15.23Zm132.52,15.23c0-13.02-1.69-15.23-12.5-15.23v-3.77h30.85v3.77c-10.93,0-12.5,2.21-12.5,15.23v61.31h-3.25l-53.89-64.31v43.09c0,13.02,1.69,15.23,12.5,15.23v3.78h-30.72v-3.78c10.8,0,12.37-2.21,12.37-15.23v-40.09c0-13.02-1.56-15.23-12.37-15.23v-3.77h26.03l43.48,51.81v-32.8Zm52.07,59.1v-3.78c10.8,0,12.37-2.21,12.37-15.23v-40.09c0-13.02-1.56-15.23-12.37-15.23v-3.77h41.13v3.77c-10.8,0-12.5,2.21-12.5,15.23v40.09c0,13.02,1.69,15.23,12.5,15.23v3.78h-41.13Zm123.93-28.51v-3.78h38.4v3.78c-10.8,0-12.37,2.08-12.37,15.1v8.85c-15.36,0-20.83,6.77-33.84,6.77-22,0-39.96-18.61-39.96-41.26s17.96-41.26,39.96-41.26c9.11,0,17.57,4.04,24.21,11.06,1.69-1.3,2.6-4.17,3.38-7.42h3.64v28.64h-3.77c-3.51-16.92-14.06-26.03-26.95-26.03-17.83,0-22.91,18.88-22.91,35.02s5.08,35.02,22.91,35.02c10.15,0,19.53-4.17,19.53-16.14,0-5.6-3.25-8.33-12.24-8.33Zm79.53,14.84c-2.99,7.03-1.04,9.89,9.76,9.89v3.78h-31.5v-3.78c8.98,0,11.98-2.21,16.01-11.46l28.25-65.09h2.73l28.38,65.09c3.64,8.33,5.47,11.46,15.88,11.46v3.78h-42.44v-3.78c11.46,0,12.76-2.99,9.76-9.89l-5.47-12.37h-26.04l-5.34,12.37Zm18.48-42.7l-10.54,24.47h20.96l-10.41-24.47ZM88.6,35.65c2.44,0,4.18.54,5.19,1.63,1.02,1.09,1.53,2.92,1.53,5.5v83.3c0,14.66-4.45,26.41-13.34,35.23-8.9,8.83-20.81,13.24-35.74,13.24-8.69,0-16.53-1.42-23.52-4.28-6.99-2.85-12.53-6.96-16.6-12.32-4.07-5.36-6.11-11.51-6.11-18.43,0-8.96,3.36-16.32,10.08-22.1,6.72-5.77,15.24-8.66,25.56-8.66s18.13,2.58,24.24,7.74c6.11,5.16,9.17,11.88,9.17,20.16,0,6.92-2.28,12.36-6.82,16.29-4.55,3.94-10.83,5.91-18.84,5.91-.81.81-1.22,1.7-1.22,2.65,0,2.17,1.63,3.26,4.89,3.26,8.42,0,15.34-2.68,20.77-8.05,5.43-5.36,8.15-12.25,8.15-20.67,0-7.74-2.44-14.39-7.33-19.96-4.89-5.57-11.95-9.64-21.18-12.22-2.58-.68-4.42-1.66-5.5-2.95-1.09-1.29-1.63-3.16-1.63-5.6v-36.66c0-3.53-.27-6.04-.81-7.54-.54-1.49-1.53-2.88-2.95-4.18-1.43-1.29-3.7-2.95-6.82-4.99-.68-.41-1.02-1.02-1.02-1.83v-2.45c0-1.35.81-2.04,2.44-2.04h57.43Zm65.58,88.39c0,3.12,2.65,6.01,7.94,8.66,5.3,2.65,11.2,3.97,17.72,3.97,12.9,0,23.49-4.34,31.77-13.04.81-.81,1.39-1.32,1.73-1.53.34-.2.85-.31,1.53-.31h2.45c.95,0,1.59.34,1.93,1.02.34.68.51,1.9.51,3.67,0,8.42-2.28,16.19-6.82,23.32-4.55,7.13-11,12.87-19.35,17.21-8.35,4.34-17.69,6.52-28,6.52-11,0-20.91-2.24-29.74-6.72-8.83-4.48-15.85-10.86-21.08-19.15-5.23-8.28-7.84-17.72-7.84-28.31s2.44-19.76,7.33-27.9c4.89-8.15,11.84-14.56,20.88-19.25,9.03-4.68,19.58-7.03,31.67-7.03,9.1,0,17.28,1.43,24.54,4.28,7.26,2.85,13,6.92,17.21,12.22,4.21,5.29,6.31,11.41,6.31,18.33,0,8.83-3.19,16.13-9.57,21.9-6.39,5.77-14.46,8.66-24.24,8.66s-17.72-3.26-23.83-9.78c-.82,0-1.53.31-2.14.92-.61.61-.92,1.39-.92,2.34Zm6.11-14.05c.81,1.09,1.9,1.63,3.26,1.63,2.44,0,3.67-1.36,3.67-4.07v-28.92c0-2.71-1.22-4.07-3.67-4.07-1.36,0-2.45.55-3.26,1.63v33.81Zm92.87-42.36c6.65,0,11.98,1.19,15.99,3.56,4,2.38,6.75,6.08,8.25,11.1,3.12-5.57,7.36-9.81,12.73-12.73,5.36-2.92,11.44-4.38,18.23-4.38,9.78,0,17.24,2.92,22.4,8.76,5.16,5.84,7.74,14.12,7.74,24.85v65.78c0,2.31-.51,3.97-1.53,4.99s-2.82,1.53-5.4,1.53h-36.66c-2.58,0-4.38-.51-5.4-1.53s-1.53-2.68-1.53-4.99v-70.06c0-1.49-.34-2.71-1.02-3.67-.68-.95-1.63-1.42-2.85-1.42-1.63,0-2.78.54-3.46,1.63v73.52c0,2.31-.51,3.97-1.53,4.99s-2.82,1.53-5.4,1.53h-36.66c-2.58,0-4.38-.51-5.4-1.53s-1.53-2.68-1.53-4.99v-71.9c0-4.75-.68-8.38-2.04-10.9-1.36-2.51-3.87-4.85-7.54-7.03-.95-.54-1.53-.98-1.73-1.32-.2-.34-.31-.78-.31-1.32v-2.44c0-1.36.81-2.04,2.44-2.04h32.18Zm125.05,0c6.65,0,11.98,1.19,15.99,3.56,4,2.38,6.75,6.08,8.25,11.1,3.12-5.57,7.36-9.81,12.73-12.73,5.36-2.92,11.44-4.38,18.23-4.38,9.78,0,17.24,2.92,22.4,8.76,5.16,5.84,7.74,14.12,7.74,24.85v65.78c0,2.31-.51,3.97-1.53,4.99s-2.82,1.53-5.4,1.53h-36.66c-2.58,0-4.38-.51-5.4-1.53s-1.53-2.68-1.53-4.99v-70.06c0-1.49-.34-2.71-1.02-3.67-.68-.95-1.63-1.42-2.85-1.42-1.63,0-2.78.54-3.46,1.63v73.52c0,2.31-.51,3.97-1.53,4.99s-2.82,1.53-5.4,1.53h-36.66c-2.58,0-4.38-.51-5.4-1.53s-1.53-2.68-1.53-4.99v-71.9c0-4.75-.68-8.38-2.04-10.9-1.36-2.51-3.87-4.85-7.54-7.03-.95-.54-1.53-.98-1.73-1.32-.2-.34-.31-.78-.31-1.32v-2.44c0-1.36.81-2.04,2.44-2.04h32.18Zm95.93,17.72c-.81-2.31-1.93-4.21-3.36-5.7-1.42-1.49-3.56-3.12-6.42-4.89-1.35-.81-2.04-1.7-2.04-2.65v-2.44c0-1.36.81-2.04,2.44-2.04h31.77c9.23,0,16.06.71,20.47,2.14,4.41,1.42,7.87,3.9,10.39,7.43,2.51,3.53,4.92,8.76,7.23,15.68l19.55,59.06c.68.68,1.49,1.02,2.45,1.02,2.04,0,3.05-1.15,3.05-3.46,0-1.36-.54-3.6-1.63-6.72l-18.33-56.01c-1.77-5.43-3.33-8.96-4.68-10.59-1.22-1.49-2-2.48-2.34-2.95-.34-.47-.51-1.05-.51-1.73v-1.83c0-1.36.82-2.04,2.45-2.04h57.64c4.89,0,7.33,1.77,7.33,5.29,0,3.26-3.46,14.39-10.39,33.4-6.93,19.01-16.36,43.18-28.31,72.51-4.35,10.72-8.62,19.04-12.83,24.95-4.21,5.91-8.86,10.11-13.95,12.63-5.09,2.51-11.1,3.77-18.02,3.77-10.05,0-18.16-2.24-24.34-6.72-6.18-4.48-9.27-10.39-9.27-17.72,0-6.38,2.51-11.54,7.54-15.48,5.02-3.94,11.54-5.91,19.55-5.91,7.47,0,13.58,1.8,18.33,5.4,4.75,3.6,7.13,8.25,7.13,13.95,0,4.34-1.46,7.7-4.38,10.08-2.92,2.37-7.03,3.56-12.32,3.56-.27.54-.41,1.15-.41,1.83,0,1.9,1.56,2.85,4.68,2.85,5.29,0,9.7-1.8,13.24-5.4,3.53-3.6,5.29-8.12,5.29-13.54,0-6.38-2.24-11.64-6.72-15.78-4.48-4.14-11-6.96-19.55-8.45-4.89-.81-8.08-1.9-9.57-3.26-1.5-1.36-3.06-4.34-4.68-8.96l-26.48-71.28Zm289.61-13.03c-.95-.68-1.9-1.02-2.85-1.02s-1.77.31-2.44.92c-.68.61-1.02,1.32-1.02,2.14,0,.95.34,2.72,1.02,5.29l19.35,79.84c.54,2.58.81,4.28.81,5.09,0,4.35-2.24,6.52-6.72,6.52h-36.05c-2.85,0-4.92-.61-6.21-1.83-1.29-1.22-2.41-3.67-3.36-7.33l-22.4-89.61c-.95-.68-2.04-1.02-3.26-1.02-.81,0-1.53.27-2.14.81-.61.54-.92,1.29-.92,2.24s.34,2.72,1.02,5.29l19.35,79.84c.81,3.13,1.22,5.3,1.22,6.52,0,3.4-2.11,5.09-6.31,5.09h-51.12c-2.72,0-4.79-.64-6.21-1.93-1.42-1.29-2.14-3.09-2.14-5.4,0-2.99,3.09-12.53,9.27-28.62,6.18-16.09,16.46-41.38,30.85-75.87.82-1.9,1.22-3.6,1.22-5.09,0-2.31-.58-4.28-1.73-5.91-1.15-1.63-3.29-3.46-6.41-5.5-1.36-.81-2.04-1.7-2.04-2.65v-2.45c0-1.35.81-2.04,2.44-2.04h39.11c5.43,0,9.6.85,12.53,2.54,2.92,1.7,5.26,4.58,7.03,8.66l7.94,18.33,3.46-7.54c1.22-2.85,1.83-4.95,1.83-6.31,0-1.63-.44-3.09-1.32-4.38-.88-1.29-2.41-2.68-4.58-4.18-1.36-.81-2.04-1.7-2.04-2.65v-2.45c0-1.35.81-2.04,2.44-2.04h36.66c8.83,0,14.59,3.74,17.31,11.2l36.25,103.46c2.58,7.33,3.87,12.09,3.87,14.26,0,4.35-2.24,6.52-6.72,6.52h-45.01c-2.85,0-4.92-.61-6.21-1.83-1.29-1.22-2.41-3.67-3.36-7.33l-22.4-89.61Zm176.78,101.22c-13.72,0-23.49-5.63-29.33-16.9-3.12,5.84-6.96,10.12-11.51,12.83-4.55,2.71-10.15,4.07-16.8,4.07-9.37,0-16.9-2.31-22.61-6.92-5.7-4.61-8.55-10.72-8.55-18.33,0-6.65,2.34-11.91,7.03-15.78,4.68-3.87,11.91-6.48,21.69-7.84,24.98-3.26,37.47-12.69,37.47-28.31,0-6.24-2.17-11.64-6.52-16.19-4.35-4.55-9.51-6.82-15.48-6.82-2.85,0-4.28.95-4.28,2.85,0,.68.2,1.36.61,2.04,5.7,0,10.39,1.7,14.05,5.09,3.67,3.39,5.5,7.74,5.5,13.03,0,6.25-2.61,11.41-7.84,15.48-5.23,4.07-11.91,6.11-20.06,6.11s-14.87-2.07-19.76-6.21c-4.89-4.14-7.33-9.6-7.33-16.4,0-9.09,4.41-16.4,13.24-21.89,8.82-5.5,20.5-8.25,35.03-8.25,17.38,0,30.58,4.21,39.61,12.63,9.03,8.42,13.54,20.77,13.54,37.07v25.46c0,2.31.2,3.87.61,4.68.41.81,1.08,1.22,2.04,1.22,1.22,0,2.1-.54,2.65-1.63.54-1.09,1.02-3.19,1.42-6.31.27-2.31.54-3.7.81-4.18.27-.47.81-.71,1.63-.71h3.46c.81,0,1.39.48,1.73,1.42.34.95.51,2.52.51,4.68,0,10.87-2.82,19.25-8.45,25.15-5.64,5.91-13.68,8.86-24.14,8.86Zm-32.79-43.99c-.81-1.09-1.9-1.63-3.26-1.63-2.31,0-3.46,1.36-3.46,4.07v13.04c0,2.72,1.15,4.07,3.46,4.07,1.36,0,2.45-.54,3.26-1.63v-17.92Zm79.84-61.91c11.68,0,19.62,3.46,23.83,10.39,3.94-4.34,8.35-7.57,13.24-9.68,4.89-2.1,10.52-3.16,16.9-3.16,9.91,0,18.06,2.72,24.44,8.15,6.38,5.43,9.57,12.36,9.57,20.77,0,7.06-2.58,12.8-7.74,17.21-5.16,4.41-11.81,6.62-19.96,6.62s-14.56-2.04-19.65-6.11c-5.09-4.07-7.64-9.23-7.64-15.48,0-5.29,1.83-9.64,5.5-13.03,3.67-3.39,8.35-5.09,14.05-5.09.41-.68.61-1.35.61-2.04,0-1.9-1.43-2.85-4.28-2.85-5.98,0-11.13,2.28-15.48,6.82-4.35,4.55-6.52,10.02-6.52,16.4,0,5.43,1.53,10.22,4.58,14.36,3.06,4.14,7.43,7.43,13.14,9.88,1.9.81,3.16,1.73,3.77,2.75.61,1.02.92,2.75.92,5.19v35.85c0,4.35-2.31,6.52-6.93,6.52h-41.34c-4.21,0-6.31-2.17-6.31-6.52v-71.9c0-4.75-.68-8.38-2.04-10.9-1.36-2.51-3.87-4.85-7.54-7.03-.95-.54-1.53-.98-1.73-1.32-.2-.34-.31-.78-.31-1.32v-2.44c0-1.36.81-2.04,2.44-2.04h14.46Zm140.53,0c2.58,0,4.38.51,5.4,1.53s1.53,2.68,1.53,4.99v66.19c0,2.31.2,3.87.61,4.68.41.81,1.09,1.22,2.04,1.22,1.22,0,2.07-.47,2.55-1.42.47-.95.98-3.12,1.53-6.52.27-2.31.54-3.7.81-4.18.27-.47.81-.71,1.63-.71h3.46c.81,0,1.39.48,1.73,1.42.34.95.51,2.58.51,4.89,0,10.87-2.92,19.22-8.76,25.05-5.84,5.84-14.19,8.76-25.05,8.76s-18.5-2.95-24.14-8.86c-5.64-5.91-8.45-14.36-8.45-25.36v-46.64c0-4.75-.68-8.38-2.04-10.9-1.36-2.51-3.87-4.85-7.54-7.03-.95-.54-1.53-.98-1.73-1.32-.2-.34-.31-.78-.31-1.32v-2.44c0-1.36.81-2.04,2.44-2.04h53.77Zm-46.84-28.51c0-6.11,2.37-11,7.13-14.66,4.75-3.67,11.13-5.5,19.15-5.5s14.43,1.83,19.25,5.5c4.82,3.67,7.23,8.55,7.23,14.66s-2.41,10.8-7.23,14.46c-4.82,3.67-11.24,5.5-19.25,5.5s-14.39-1.8-19.15-5.4c-4.75-3.6-7.13-8.45-7.13-14.56Zm120.16,84.93c0,3.12,2.65,6.01,7.94,8.66,5.3,2.65,11.2,3.97,17.72,3.97,12.9,0,23.49-4.34,31.77-13.04.81-.81,1.39-1.32,1.73-1.53.34-.2.85-.31,1.53-.31h2.45c.95,0,1.59.34,1.93,1.02.34.68.51,1.9.51,3.67,0,8.42-2.28,16.19-6.82,23.32-4.55,7.13-11,12.87-19.35,17.21-8.35,4.34-17.69,6.52-28,6.52-11,0-20.91-2.24-29.74-6.72-8.83-4.48-15.85-10.86-21.08-19.15-5.23-8.28-7.84-17.72-7.84-28.31s2.44-19.76,7.33-27.9c4.89-8.15,11.84-14.56,20.88-19.25,9.03-4.68,19.58-7.03,31.67-7.03,9.1,0,17.28,1.43,24.54,4.28,7.26,2.85,13,6.92,17.21,12.22,4.21,5.29,6.31,11.41,6.31,18.33,0,8.83-3.19,16.13-9.57,21.9-6.39,5.77-14.46,8.66-24.24,8.66s-17.72-3.26-23.83-9.78c-.82,0-1.53.31-2.14.92-.61.61-.92,1.39-.92,2.34Zm6.11-14.05c.81,1.09,1.9,1.63,3.26,1.63,2.44,0,3.67-1.36,3.67-4.07v-28.92c0-2.71-1.22-4.07-3.67-4.07-1.36,0-2.45.55-3.26,1.63v33.81Z"/>
  </g>
</svg>