<?xml version="1.0" encoding="UTF-8"?>
<svg id="Layer_2" data-name="Layer 2" xmlns="http://www.w3.org/2000/svg" viewBox="0 0 86.48 85.74">
  <defs>
    <style>
      .cls-1 {
        fill: #fff;
      }

      .cls-2 {
        fill: none;
      }

      .cls-3 {
        fill: #231f20;
      }
    </style>
  </defs>
  <g id="Layer_6" data-name="Layer 6">
    <g>
      <g>
        <path d="m26.13,67.97v-.06c.18,0,.3-.03.35-.1.05-.07.08-.18.08-.35v-4.72c0-.17-.02-.29-.06-.36s-.17-.11-.38-.12v-.06h1.55v.06c-.14,0-.24.02-.3.05-.06.04-.1.08-.11.13-.02.05-.03.16-.03.34v4.05c0,.35.08.59.25.73.17.14.45.21.86.21h.7c.34,0,.59-.08.75-.25.16-.17.25-.48.26-.94h.06v1.39h-3.98Z"/>
        <path d="m33.74,65.32h-1.69l-.87,2.18c-.06.16-.09.25-.09.29,0,.09.06.13.19.13v.06h-.86v-.06c.12,0,.21-.03.29-.08.08-.06.16-.2.26-.44l2.09-5.27h.1l2.06,5.09s.05.15.16.37.27.33.48.33v.06h-1.35v-.06c.12,0,.18-.05.18-.15,0-.06-.03-.17-.09-.31-.01-.01-.02-.03-.03-.05,0-.03,0-.04-.01-.04l-.83-2.05Zm-1.64-.16h1.56l-.78-1.97-.78,1.97Z"/>
        <path d="m38.55,62.26v-.06h1.64c.58,0,1.01.07,1.28.2.26.13.46.29.58.49.12.19.18.45.18.77,0,.49-.17.86-.51,1.1s-.79.36-1.37.35v-.06c.37,0,.66-.11.89-.34.23-.22.34-.52.34-.88,0-.28-.06-.54-.17-.76-.11-.22-.27-.39-.47-.5-.2-.12-.51-.17-.92-.17h-.41v4.94c0,.28.03.45.09.5.06.05.18.08.36.08v.06h-1.52v-.06c.27,0,.41-.12.41-.37v-4.77c0-.2-.03-.34-.08-.41-.05-.07-.16-.1-.33-.1Z"/>
        <path d="m42.8,62.27v-.07h3.63v.79h-.06c-.08-.29-.14-.47-.2-.52-.05-.05-.18-.08-.39-.08h-1.9v2.59h1.77c.17,0,.29-.02.33-.05s.07-.08.07-.14h.06v.54h-.06c-.01-.08-.04-.13-.09-.15-.05-.03-.14-.04-.27-.04h-1.81v1.78c0,.27.02.46.07.58.05.12.13.19.24.22.11.03.27.04.49.04h1.02c.32,0,.53-.01.62-.03.09-.02.17-.07.23-.13s.11-.21.14-.43h.06v.79h-3.94v-.06c.13,0,.23-.03.3-.08.07-.04.1-.16.1-.33v-4.66c0-.21-.02-.36-.05-.45-.04-.09-.15-.13-.35-.13Z"/>
        <path d="m47.15,62.26v-.06h1.64c.42,0,.72,0,.9.03.19.02.38.08.57.18.19.1.34.24.44.42.1.18.15.39.15.65,0,.29-.09.57-.26.84-.18.27-.42.49-.75.67l.41.63c.09.16.32.5.71,1.03.38.53.68.85.89.97s.41.17.61.17.42-.08.67-.22l.02.08c-.31.26-.72.38-1.22.38-.33,0-.62-.1-.86-.3-.24-.2-.66-.74-1.25-1.63,0,0,0,0,0-.02l-.58-.89-.51.02h-.47v2.21c0,.18.02.3.07.38.05.08.16.12.34.12v.06h-1.49v-.06c.19,0,.3-.05.35-.12.04-.07.07-.21.07-.43v-4.58c0-.15-.02-.27-.06-.37-.04-.1-.16-.15-.36-.15Zm1.08.09v2.71h.6c.48,0,.83-.11,1.06-.34.23-.22.35-.52.35-.88s-.11-.69-.34-1.01c-.23-.32-.62-.48-1.19-.48h-.47Z"/>
        <path d="m53.28,67.97v-.06c.18,0,.3-.03.35-.1.05-.07.08-.18.08-.35v-4.72c0-.17-.02-.29-.06-.36s-.17-.11-.38-.12v-.06h1.55v.06c-.14,0-.24.02-.3.05-.06.04-.1.08-.11.13-.02.05-.03.16-.03.34v4.05c0,.35.08.59.25.73.17.14.45.21.86.21h.7c.34,0,.59-.08.75-.25.16-.17.25-.48.26-.94h.06v1.39h-3.98Z"/>
        <path d="m60.89,65.32h-1.69l-.87,2.18c-.06.16-.09.25-.09.29,0,.09.06.13.19.13v.06h-.86v-.06c.12,0,.21-.03.29-.08.08-.06.16-.2.26-.44l2.09-5.27h.1l2.06,5.09s.05.15.16.37.27.33.48.33v.06h-1.35v-.06c.12,0,.18-.05.18-.15,0-.06-.03-.17-.09-.31-.01-.01-.02-.03-.03-.05,0-.03,0-.04-.01-.04l-.83-2.05Zm-1.64-.16h1.56l-.78-1.97-.78,1.97Z"/>
      </g>
      <g>
        <path d="m44.54,20.89s.7-2.49,3.52-2.81,3.56-1.22,3.56-1.22c0,0-1.42,2.44-3.25,2.66s-3.83,1.36-3.83,1.36Z"/>
        <path d="m41.94,20.89s-.7-2.49-3.52-2.81-3.56-1.22-3.56-1.22c0,0,1.42,2.44,3.25,2.66s3.83,1.36,3.83,1.36Z"/>
      </g>
      <g>
        <path class="cls-3" d="m63.39,34.97s.01.02.02.04c.01-.02.02-.04.03-.06-.02,0-.04,0-.05.02Z"/>
        <path class="cls-2" d="m51.6,23.91l-.81.86.82-.78v-.08Z"/>
        <path d="m86.26,30.65c-.1-.26-.35-.49-.35-.74v-.02c.04-.68-.11-1.25-.51-1.75-.4-.5-.28-.95.24-1.38q.86-.71.2-1.54c-.57-.7-.61-1.17-.16-2.01.13-.24.27-.46.4-.7,0,0,.71-1.25-.23-1.42-.95-.18-1.12-.77-1.11-.97.03-.19.24-1.95-.04-2.08-.28-.14-1.28-.25-1.46-.61-.17-.37-.18-1.37-.66-1.66-.49-.28-1.51-.31-1.7-.72-.05-.13-.1-.37-.14-.65.5-.07,1.15-.21,1.15-.21l.28-.17c.07-.07.12-.11.19-.16.27-.22.55-.42.83-.61.01,0,.02,0,.03-.01.13-.09.58-.46.58-1.09.01-.4-.04-.55-.1-.66v-.02c-.08-.13-.14-.28-.11-.42,0-.1.06-.2.16-.28.07-.05.13-.11.19-.16.02-.02.06-.04.08-.07.55-.5.33-.75.33-.75-.02-.02-.02-.04-.04-.05-.23-.2-.2-.42-.06-.65.21-.34.46-.65.65-1,.05-.11.03-.32-.04-.42-.17-.25-.41-.47-.59-.71-.05-.06-.08-.2-.06-.28.1-.28.2-.55.35-.8.2-.35.14-.53-.22-.66-.39-.14-.52-.41-.34-.79.19-.35.24-.68.18-1.08-.03-.14.11-.32.14-.49.04-.2.11-.46.03-.61-.07-.11-.35-.1-.53-.11-.16-.02-.34.07-.47.01h-.01c-.33-.18-.65-.23-1.01-.13-.37.1-.55-.07-.61-.45q-.1-.62-.7-.45c-.52.14-.76.05-1.05-.38-.08-.11-.15-.24-.23-.37,0,0-.41-.67-.77-.2-.37.47-.7.42-.8.37-.09-.06-.89-.57-1.04-.45-.15.1-.5.62-.73.63-.23,0-.73-.22-1.01-.03-.28.2-.59.74-.85.74-.26,0-1.15-.36-1.32-.08-.17.28-.13.53-.46.88-.32.33-.77.32-.89.59h0c-3.05,1.42-4.71,3.59-8.26,7.74-.14.16-.28.32-.42.48,0,.01,0,.02-.02.03-.26.3-.52.59-.79.88-1.48,1.65-2.99,3.15-4.48,4.51l-.05.05c-.82.81-1.66,1.63-2.48,2.44l-3.83,4.16h0s-2.14,1.92-2.14,1.92l-1.84,1.65s-.02-.02-.04-.03c-.23-.19-.38-.52-.38-.86h0c0-2.12-1.74-3.84-3.88-3.84s-3.88,1.72-3.88,3.83h0c0,.35-.14.68-.38.88-.01.01-.03.02-.04.04l-1.86-1.67-2.15-1.93-3.83-4.14h.01c-.82-.8-1.67-1.63-2.49-2.44l-.05-.05c-1.49-1.36-3-2.86-4.49-4.51-.26-.28-.52-.58-.79-.88,0-.01,0-.02-.02-.03-.14-.16-.28-.32-.41-.48-3.55-4.15-5.21-6.32-8.26-7.72h0c-.13-.29-.57-.28-.89-.61-.33-.34-.29-.6-.46-.88-.17-.28-1.06.09-1.32.08-.26,0-.57-.55-.85-.74-.29-.19-.79.03-1.01.03-.23-.01-.58-.53-.73-.63-.14-.12-.94.39-1.03.45-.1.05-.44.1-.8-.37-.35-.47-.76.2-.76.2-.08.13-.15.25-.23.37-.28.44-.52.52-1.04.38q-.6-.17-.7.45c-.06.38-.25.55-.61.45-.37-.1-.69-.05-1.02.13h0c-.13.05-.31-.03-.47-.01-.17.01-.45,0-.52.11-.08.15-.01.41.02.61.03.16.17.34.14.49-.07.39-.01.72.18,1.08.19.37.05.64-.34.79-.35.13-.41.31-.21.66.14.25.25.52.34.8.02.07,0,.22-.06.28-.18.24-.41.46-.59.71-.06.1-.08.31-.04.42.2.34.44.65.66,1,.14.23.17.44-.06.65-.02.02-.03.04-.05.05,0,0-.21.25.33.75.03.02.06.05.09.07.06.05.13.11.19.16.1.08.15.18.16.28.02.14-.04.29-.12.42v.02c-.05.11-.1.26-.1.66,0,.64.44,1,.58,1.09,0,.01.02.01.02.01.28.19.56.4.83.61.07.05.13.1.19.16l.28.17s.65.14,1.15.21c-.05.28-.09.52-.14.65-.19.41-1.21.44-1.7.72-.49.29-.49,1.29-.66,1.66-.18.37-1.19.47-1.47.61-.28.13-.06,1.89-.04,2.08.02.2-.15.79-1.11.97-.94.17-.23,1.42-.23,1.42.13.24.26.46.39.7.46.84.41,1.31-.16,2.01q-.67.82.2,1.54c.53.43.64.88.24,1.38-.39.5-.54,1.07-.5,1.75v.02c0,.25-.25.47-.35.74-.1.31-.31.74-.19.95.16.26.58.38.91.5.27.1.62.04.84.2.53.44,1.07.66,1.73.67.69.02,1,.47.93,1.24-.06.68.2.93.84.92.48-.01.96.07,1.44.16.13.02.32.19.38.32.23.51.4,1.08.66,1.58.1.19.4.42.58.43.67,0,1.32-.12,1.97-.17.44-.04.79.13.93.67,0,.05.02.07.04.13,0,0,.22.56,1.35.13.06-.02.13-.04.18-.07.13-.05.25-.11.35-.16.2-.1.38-.08.53-.02.23.09.42.32.55.56,0,.01,0,.02.02.03.09.11.22.26.49.46.02.09.02.16,0,.22-.05.43-1.05.73-1.44,1.12-.38.37-.09,1.3-.15,1.68-.05.38-1.02.76-1.24.94-.23.2.51,1.75.59,1.92.09.18.11.77-.77,1.18s.2,1.38.2,1.38c.19.19.41.35.61.53.7.64.79,1.08.45,1.88q-.41.92.66,1.35c.64.25.89.64.65,1.2-.23.56-.22,1.12.03,1.73v.03c.08.23-.1.5-.1.77,0,.31-.09.76.09.91.24.19.7.18,1.06.21.29.02.62-.14.87-.05.67.27,1.26.33,1.9.16.7-.18,1.14.16,1.3.88.15.64.47.8,1.11.62.46-.14.96-.21,1.46-.25.13,0,.37.09.48.2.38.41.71.88,1.12,1.27.16.14.52.26.7.23.64-.19,1.25-.45,1.87-.68.43-.14.81-.1,1.11.37.03.04.05.06.08.1,0,0,.39.47,1.36-.24.05-.04.11-.07.15-.11.1-.08.2-.16.3-.24.16-.14.34-.18.52-.16.25.02.5.18.7.36,0,0,0,0,.02.02.17.12.43.26,1.12.43,1.14.26,1.84-.34,2.03-.52,0-.02.02-.02.02-.03.38-.4.79-.78,1.23-1.15.09-.07.2-.16.3-.24l.36-.38s.7-1.98.76-2.59c0-.02,0-.02,0-.02,0-.03,0-.05,0-.07,0-.01,0-.02.01-.02.06-.46.23-.28.45-.38.02,0,.03-.02.04-.04.02-.05.02-.14-.02-.26.1-.31.2-.6.31-.89l.1-.71h0c.16-.9.53-2.03.95-3.07.11-.28.22-.54.34-.8.15-.34.3-.65.44-.94.01-.01.01-.02.02-.03.2-.43.42-.83.62-1.2.19-.33.36-.63.51-.89.02.07.04.13.04.2.22,1.86,1.53,3.27,3.12,3.27s2.9-1.42,3.12-3.27c0-.05.02-.11.04-.16.15.25.32.53.49.85.2.36.42.76.62,1.2.01.01.01.02.02.03.14.28.29.6.44.94.11.25.22.52.33.79.41,1.02.78,2.12.95,3h0s.11.78.11.78c.11.29.22.59.31.89-.04.11-.04.2-.02.26.01.02.02.04.04.04.22.11.4-.08.46.38,0,0,.02,0,0,.02.01.02.01.04.01.07-.01,0-.01,0-.01.02.07.62.77,2.59.77,2.59l.35.38c.1.08.22.17.31.24.44.37.83.75,1.22,1.15.01.01.02.01.03.03.19.17.89.77,2.03.52.68-.16.94-.31,1.11-.43.02-.01.03-.01.03-.02.19-.18.45-.34.7-.36.18-.02.35.02.52.16.1.08.2.16.31.24.04.04.1.08.15.11.97.71,1.36.24,1.36.24.02-.04.05-.05.08-.1.31-.46.68-.51,1.12-.37.62.23,1.23.5,1.87.68.19.04.55-.08.7-.23.41-.39.74-.86,1.12-1.27.12-.11.35-.21.49-.2.5.04,1,.11,1.46.25.63.17.96.02,1.11-.62.16-.72.61-1.06,1.3-.88.64.17,1.23.11,1.9-.16.25-.09.58.07.87.05.35-.03.82-.02,1.06-.21.17-.16.1-.6.08-.91,0-.27-.17-.55-.1-.77v-.03c.26-.61.28-1.17.04-1.73-.24-.56,0-.95.65-1.2q1.07-.42.66-1.35c-.34-.8-.24-1.24.46-1.88.19-.19.41-.35.61-.53,0,0,1.08-.97.19-1.38-.88-.41-.86-1-.77-1.18.08-.17.82-1.72.59-1.92-.22-.19-1.18-.56-1.24-.94-.06-.38.23-1.31-.15-1.68-.4-.4-1.39-.7-1.45-1.12,0-.05,0-.13.01-.22.28-.2.4-.35.49-.46.02-.01.03-.02.03-.03.13-.24.31-.47.54-.56.16-.06.34-.07.53.02.11.05.23.11.36.16.05.03.11.05.17.07,1.12.44,1.35-.13,1.35-.13.02-.05.04-.07.05-.13.14-.54.49-.7.92-.67.66.05,1.3.16,1.97.17.18,0,.48-.24.58-.43.26-.5.43-1.07.65-1.58.07-.14.26-.31.38-.32.48-.09.96-.17,1.45-.16.64,0,.89-.24.83-.92-.07-.77.24-1.23.94-1.24.66,0,1.2-.22,1.73-.67.21-.17.57-.11.83-.2.33-.11.76-.24.92-.5.11-.2-.09-.64-.19-.95ZM15.78,5.34l2.48.99,16.62,17.59.81.86.42.44-.74.74S17.23,9.17,16.78,8.88c-.45-.3-2.23-.89-2.1-1.87.13-.98,1.11-1.66,1.11-1.66Zm15.27,41.78c.13.23.37.47.37.68.04,1.39-.16,3.29-.16,4.67,0,.41.05.82,0,1.22-.04.27-.14.68-.33.71-.26.04-.64-.19-1.09-.35-.11-.51-.32-.99-.28-1.41.18-1.45.44-2.88.68-4.32.01-.07,0-.15.04-.18.18-.19.58-.87.77-1.03Zm.01-1.78c.12.55.4,1.12-.2,1.59-.35-.68,0-1.12.2-1.59Zm-.92,9.5l-1.08.48c-.06-.11-.13-.2-.19-.31.35-.17.69-.35,1.05-.52.07.11.14.24.22.35Zm-.2-8.19c-.08-.02-.17-.04-.26-.07l.53-1.51c.07.04.14.05.21.08l-.49,1.5Zm-.85-.27c-.07-.03-.14-.08-.22-.1-.09-.7.27-1.15.79-1.52l.14.09c-.23.51-.47,1.02-.71,1.53Zm-6.04,7.99c-.02-.08-.04-.17-.07-.25.38-.35.88-.28,1.41-.11.02.09.04.17.06.25-.47.02-.94.06-1.4.1Zm2.1,1.05c.07.92-.46,1.56-1.2,1.44-.05-.87.43-1.44,1.2-1.44Zm-.89-3.68c-.31.4-.94.58-1.49.72-.46.12-1.01.07-1.52.01-.12-.03-.28-.07-.41-.11-.17-.08-.33-.18-.4-.29-.13-.2-.08-.58.05-.77.26-.35.61-.62.95-.92.54-.47,1.09-.92,1.65-1.39.74-.64,1.47-1.26,2.22-1.88.14-.13.3-.31.5-.32.45-.02.94.04,1.41.05-.11.34-.14.7-.31.98-.73,1.12-1.44,2.26-2.23,3.35-.13.19-.26.38-.41.58Zm-3.57,2.73c-.16.09-.53.08-.68-.04-.36-.25-.46-1.3-.15-1.42.17-.07.44.05.52.07.61.64.7,1.15.31,1.39Zm-5.33-5.94c.02-.65.37-1.03,1.05-1.21-.05,1.09-.2,1.26-1.05,1.21Zm.94,4.38c-.05.49-.67.54-1.53.16.15-.74.7-1.19,1.15-.93.22.11.4.53.38.77Zm-.68-7.12c-.56.08-1.02.15-1.49.23-.04-.07-.05-.14-.08-.2.44-.59.84-.62,1.57-.04Zm-1.79-1.06c.02-.65.37-1.02,1.05-1.2-.05,1.09-.19,1.26-1.05,1.2Zm-1.62-12.15c1.36-1.71,2.74-3.39,4.13-5.06.13-.16.31-.22.48-.33.07.05.13.1.2.15-.11.39-.19.82-.37,1.18-.62,1.27-1.27,2.5-1.92,3.75-.39.79-1.4,1.26-2.23,1.05-.39-.09-.55-.44-.29-.74Zm.35,2.2c-.14.35-.22.72-.31.72-.25-.04-.59-.14-.73-.34-.09-.14.08-.48.14-.73.25.09.49.2.89.35Zm-3.12-1.68c-.4.62-.69.71-1.53.46.38-.76.49-.79,1.53-.46Zm-.76-.74c0-.1.02-.17.02-.28.46-.25.9-.03,1.35.29,0,.09,0,.17-.02.26-.45-.1-.89-.19-1.35-.27Zm1.64,1.62c-.21.94-.91,1.44-1.57,1.11.23-.89.85-1.32,1.57-1.11Zm-1.3-3.62c-.47-.01-.97-.22-1.43-.41-.11-.06-.24-.14-.35-.23-.13-.13-.25-.27-.28-.4-.06-.24.11-.61.28-.76.35-.29.77-.46,1.18-.66.66-.33,1.32-.63,1.98-.95.88-.41,1.76-.85,2.64-1.26.18-.09.4-.22.57-.2.44.11.86.3,1.3.44-.2.31-.35.66-.59.89-1.04.92-2.05,1.88-3.12,2.76-.19.15-.37.3-.57.45-.4.31-1.06.33-1.61.32Zm-7.65-3.68c.15-.65,1.15-1.02,1.93-.7-.2,1.05-1.12,1.38-1.93.7Zm1.44,2.35c-.2.47-.79.35-1.48-.26.37-.71,1.02-1,1.36-.61.17.17.2.63.11.88Zm2.91-16.92c.02-.11.19-.23.31-.25.82-.11,1.65-.19,2.47-.28.13-.02.26-.04.39-.02.24.02.48.07.71.11,0,.06,0,.13,0,.19-.17.05-.34.13-.5.18-.65.25-1.32.5-1.96.75-.16.07-.32.1-.46.1-.04,0-.06,0-.1-.01-.26,0-.5-.12-.71-.35-.1-.1-.18-.28-.15-.41Zm.04,1.07c-.42-.15-.46-.31-.21-.68.07.24.13.43.21.68Zm15.74,11.57c.26.11.45.55.67.85-.04.07-.33.6-.37.66l-1.03-.89c-.02-.07-.05-.14-.08-.2.28-.16.59-.49.8-.41Zm.2-2.44c.12-.09,11.73,6.57,11.73,6.57l-.5.17c-.49.17-10.29-4.41-11.16-4.86-.86-.44-.19-1.78-.07-1.88Zm6.05,20.88c-.44.29-.91.53-1.56.44-.04-.08-.07-.15-.11-.23.55-.16,1.12-.32,1.68-.48l.11-.02s.05.1.09.16c-.07.04-.13.1-.2.14Zm.81.46c-.28.23-.53.44-.79.67-.53.44-1.03.89-1.6,1.36-.07-.83.61-1.54,1.59-1.87.25-.08.53-.13.8-.16ZM6.64,19.85c-.31.2-.64.42-1.05.68-.08-.82.26-1.06,1.05-.68Zm-1.05,3.63c-.01.53-.1,1.03-.62,1.2-.06-.05-.13-.08-.19-.13.2-.41.4-.83.59-1.25.08.05.15.13.22.18Zm6.1-14.57l.04.07s-.07.02-.09.05c-.04-.04-.08-.07-.11-.11-.24-.22-.44-.47-.48-.85.04-.02.09-.05.13-.08.17.3.35.61.52.91Zm-.23-1.06s.07-.04.1-.05c.15.28.3.58.45.87-.04.02-.09.04-.13.06l-.42-.88Zm-.7,2.59s-.02.08-.02.12l-.96-.17c.01-.05.01-.1.02-.14.31.06.64.13.96.2Zm-.92-.55s.02-.09.04-.13c.39-.1.71.08,1,.34l-.04.09c-.33-.1-.66-.2-1-.31Zm.88,1.05c-.31.1-.61.29-.97-.02.36-.24.66-.07.97.02Zm.67.83c.15.12.78.08.8.22.02.13.53.65.47.79-.03.05-1.03-.15-1.05-.11-.05,0-.38.31-.44.31l-.62-.34-.35-1.02c-.31-.71,1.17.19,1.2.16Zm.16-.41s.05.13.07.18c-.02.02-.04.04-.05.07-.13-.11-.35-.2-.36-.29-.02-.43-.06-.88.35-1.21,0,0,.02-.01.02-.02,0,.01,0,.02,0,.04,0,.16.02.37-.06.44-.31.29-.25.53.03.79Zm1.09.55c-.14,0-.76-.55-.91-.69.02-.04.04-.08.07-.12h.74s.52.39.54.44c-.15.12-.29.37-.44.37Zm-.04-1.42c-.1-.11-.22-.21-.31-.32-.04-.04-.08-.09-.11-.14,0-.02,0-.05.03-.08.05-.08.15-.19.2-.26.04.02.08.04.11.05.07.22.13.44.19.66-.03.02-.07.05-.11.09Zm-.13.17c-.02.05-.02.11-.04.16-.22-.02-.44-.02-.77-.04.11-.19.22-.41.25-.41.2.07.38.19.57.29Zm-1.31-1.68c.08.13.16.28.2.44-.17-.14-.34-.27-.5-.41-.33-.26-.67-.52-1.02-.81.48-.09,1,.25,1.32.79Zm-.71.08c.26.2.5.43.77.64-.49,0-.98-.24-1.29-.58-.17-.17-.28-.38-.32-.59.32.13.58.32.83.52Zm-.68,3.26c-.04.12-.05.28-.13.34-.44.31-.9.63-1.37.91h-.01c-.35.23-.72.42-1.09.61-.19.1-.38.37-.6.07,0-.01-.02-.03-.02-.04-.17-.26-.13-.55.03-.86.28-.15.53-.3.83-.41h0c.35-.16.72-.28,1.08-.4.05-.02.11-.04.17-.06h0c.25-.09.49-.18.75-.25.1-.02.23.07.35.09Zm0,.61c-.11.75-.7,1.27-1.25,1.09.08-.41.82-1.06,1.25-1.09Zm-1.55,1.27c-.29.46-.79.62-1.3.41.14-.07.3-.16.4-.23.04-.02.06-.04.08-.05.01-.02.02-.02.02-.02h.01c.2-.13.43-.25.64-.38l.11.13v.13s.03.01.05.01Zm.29.52c-.21.43-.34.71-.53,1.11-.33-.76-.28-.91.53-1.11Zm-1.78.97c.18-.02.4.17.46.2.38.81.31,1.35-.14,1.48-.17.05-.52-.07-.62-.22-.26-.36-.02-1.44.31-1.47Zm1.9,4.21c1.48.31,2.98.58,4.46.89.28.06.56.25.83.38,0,.1-.02.2-.02.31-.4.04-.79.11-1.2.12-1.93.03-3.87.03-5.81.02-.2,0-.41-.16-.61-.25.05-.19.06-.41.17-.57.5-.77,1.21-1.12,2.17-.91Zm-1.8-1.8c.07.08.15.17.22.25-.28.26-.56.52-.86.77-.06-.08-.12-.15-.19-.23.08-.48.46-.62.83-.79Zm-.02,4.08c1.15-.11,2.32-.11,3.48-.13.91-.01,1.84-.01,2.76.06.37.02.75.22,1.11.35l.03.32-2.16.4c-1.45.26-2.9.53-4.36.77-.3.04-.7-.04-.97-.22-.24-.17-.52-.61-.49-.83.04-.29.34-.7.59-.71Zm6.47-1.84c-1.5-.28-3.01-.59-4.5-.98-.47-.11-.9-.55-1.36-.85.02-.46-.08-.85.06-1.02.13-.15.53-.16.77-.07,1.74.62,3.47,1.27,5.19,1.95.3.11.55.46.82.68-.32.1-.66.33-.97.28Zm.44-1.38c-1.11-.35-2.21-.78-3.32-1.18-.57-.22-1.15-.39-1.7-.66-.22-.09-.46-.37-.5-.58-.03-.2.15-.49.33-.62.62-.44,1.35-.45,2.07-.02,1.37.86,2.71,1.75,4.06,2.63.1.05,1.4,1.1,1.64,1.4-.56-.02-2.21-.85-2.58-.97Zm2.91,3.12h.12c0,.06.02.11.04.19-.08.02-.16.07-.24.09-.5.17-1.02.28-1.6.02-.01-.1-.02-.18-.04-.28.57-.01,1.15-.01,1.72-.02Zm-1.74-.56c-.01-.07-.01-.15-.02-.23.54.03,1.08.05,1.62.07,0,.09,0,.18,0,.26l-1.61-.09Zm.06-1.18c.67-.4,1.16.13,1.68.4-.55.09-1.1.16-1.68-.4Zm1.41,2.65c.27-.02.53,0,.8.04-.32.16-.63.31-.94.46-.62.31-1.24.61-1.93.94.2-.86,1.06-1.39,2.07-1.44Zm-2.07-5.28c-1.15-.73-2.3-1.43-3.44-2.18-.32-.22-.59-.55-.98-.94.05-.37.03-.76.13-1.09,0-.02,0-.04.02-.07.04-.1.08-.17.13-.24.01,0,.02,0,.02,0,.16-.16.39-.12.65.11,1.3,1.18,2.61,2.34,3.9,3.51.02.02.04.04.05.05.19.35,2.69,2.4,2.49,2.74-.24.43-2.64-1.69-2.97-1.9Zm-2.64-4.61c.59-.13,2.82,1.45,3.04,2.14.04.13.11.29.22.35.49.33,2.6,2.81,2.53,3.32-.85-.54-5.69-5.03-5.78-5.81Zm5.9,7.19c.04-.17.46-.25.68-.35.03.07.05.13.08.19-.07.09-.1.2-.17.26-.56.32-.67.72-.2,1.38.13.17.02.53-.08.79-.61-.74-.46-1.53-.32-2.26Zm.26-.86c.14-.4.28-.81.42-1.21.1,0,.19,0,.28,0,.1.35.35.79.25,1.01-.09.23-.55.26-.83.38-.04-.07-.08-.13-.13-.19Zm3.59,15.47c-.05.08-.16.14-.34.16-.16.01-.31,0-.44-.04-.32-.11-.61-.37-.88-.76-.02-.57-.07-1.14-.05-1.72.03-.7.11-1.39.17-2.08.05-.6.08-1.2.17-1.77.03-.2.19-2.82.31-2.99.14.17.44,2.82.47,2.99.17,1,.32,2.02.42,3.03.08.77.1,1.56.15,2.34,0,.28.14.63,0,.85Zm.31,1.92c-.05.05-.12.11-.16.16-.29-.13-.58-.25-.87-.38.2-.31.37-.61.45-.8.01-.01.01-.03.01-.04,0-.02,0-.04.02-.05,0-.01,0-.02.02-.03.04-.1.08-.17.12-.2.02.03.04.07.05.09.18.39.24.83.37,1.26Zm-3.8-1.31c-.07-.1-.14-.21-.23-.37.42.1.74.17,1.17.26-.11.13-.22.22-.31.27-.24.17-.42.11-.63-.16Zm.43,2.56c-.2-.07-.39-.15-.65-.24.12-.38.21-.71.33-1.12.55.46.48.86.32,1.36Zm-.38-3.41c-.21.07-.56.02-.74-.13-.15-.13-.22-.52-.16-.74.41-1.42.86-2.82,1.3-4.23.07-.22.12-.46.23-.65.2-.37.8-2.8,1.02-3.15.11.04.2.1.29.15-.04.32-.41,2.74-.44,3.08-.08,1.29-.15,2.56-.23,3.84-.07.91-.47,1.57-1.28,1.83Zm1.01-9.21c-.05.58.03,1.24-.68,1.55-.11-.79.35-1.13.68-1.55Zm-1.45,1.01c-.07-.05-.15-.1-.21-.14l.96-1.36c.05.05.11.1.17.13l-.92,1.38Zm1.89,10.53c.07.03.13.07.2.12-.14.28-.28.54-.44.91,0,.01-.01.03-.02.05-.01-.03-.02-.05-.03-.07-.31-.7-.24-.82.29-1.01Zm-.11-1.27s-.07-.11-.09-.16c.25-.01.47-.04.7-.04.05,0,.1,0,.15,0,.03,0,.07,0,.09,0,.07.01.22.31.2.35-.08.14-.19.29-.29.42-.07.1-.16.2-.23.31-.02.02-.04.04-.05.07-.02-.04-.04-.07-.05-.12-.15-.31-.28-.54-.41-.85Zm.59-10.73c-.66-.34-1.38-.68-1.56-1.68.22.19.61.32.68.53.23.76.62.87,1.2.65.09-.04.2.03.31.04.02.05.04.11.06.16-.23.1-.52.38-.68.29Zm-1.24-2.71c-.09,0-.23-.44-.37-.68.06-.04.11-.1.17-.13.37.09.75.17,1.12.28.02.09.03.17.05.26-.32.1-.64.26-.97.28Zm-.7,2.33c-.37.46-.76.89-1.14,1.35-.06-.07-.11-.13-.17-.18.13-.71.61-1.07,1.2-1.3l.11.13Zm-.59,3.45c.22-.13.46-.25.7-.37.05.26.2.58.13.79-.39,1.41-.83,2.79-1.26,4.18-.13.41-.22.85-.38,1.22-.11.26-.35.65-.53.63-.26-.02-.54-.36-.91-.65.05-.54,0-1.08.17-1.49.62-1.4,1.31-2.77,1.98-4.15.04-.06.04-.14.1-.17Zm-.32,8.13c.04-.14.13-.34.2-.34h.02c.43.02.68.34.88.8-.48.18-.83.04-1.11-.35-.01-.01-.01-.05,0-.1Zm.5,2.13c-.07.41-.11.7-.16,1.09,0,.02,0,.04,0,.06-.02-.02-.03-.02-.04-.04-.09-.09-.16-.17-.2-.25-.11-.14-.17-.25-.17-.35,0-.18.19-.31.57-.52Zm.57,2.55c1.89.11,3.78.23,5.68.4.33.02.68.26,1.01.41-.28.17-.54.47-.87.5-1.56.15-3.14.28-4.73.31-.5.02-1.04-.26-1.59-.4-.13-.43-.34-.77-.25-.95.07-.17.46-.28.74-.28Zm-.77,6.23c.15.5.22.96-.26,1.26-.07-.03-.14-.04-.22-.07.07-.43.14-.86.2-1.3.09.04.19.08.28.11Zm.42,1.66c.08-.02.39.2.39.29-.02.32-.13.62-.2.94-.08.02-.17.02-.25.04-.18-.32-.42-.62-.51-.94-.04-.1.34-.28.56-.34Zm-.38-3.77c0-.19-.05-.4,0-.57.26-.84.85-1.33,1.84-1.41,1.55-.11,3.11-.26,4.64-.38.31-.02.64.08.94.13.04.09.05.2.09.28-.38.16-.75.33-1.14.44-1.89.53-3.79,1.07-5.69,1.58-.2.04-.44-.05-.68-.07Zm6.56-4.19c-1.2-.02-2.41-.13-3.62-.2-.62-.04-1.25-.04-1.86-.13-.23-.05-.57-.22-.66-.4-.1-.18-.01-.48.13-.64.47-.58,1.18-.79,2.02-.58,1.59.41,3.18.86,4.77,1.31.11.02,2.41.67,2.74.9-.56.12-3.13-.24-3.53-.25Zm3.39.84c-.52.22-1.03.44-1.77.08.55-.53,1.18-.19,1.77-.08Zm.05.59c.04.08.07.16.09.24l-1.62.35c-.02-.07-.04-.13-.08-.2.53-.14,1.07-.25,1.6-.38Zm-3.26-2.72c-1.35-.36-2.69-.71-4.03-1.09-.18-.05-.35-.12-.53-.22l.04-.02s.46-.64.88-1.29c1.27.55,2.53,1.12,3.8,1.68.02.01.04.02.05.04.29.27,3.36,1.12,3.36,1.31-.1.47-3.17-.31-3.56-.4Zm-2.19-3.04c-.54-2.44.44-5.04,1.12-2.41.04.13.55.97.98,2.21.19.53.85,1.71.92,2.19-.72.04-2.7-1.29-3.02-1.98Zm0-3.89c-.15-.83-1-5.47-.74-6.19,1.05.85,3.03,6,.74,6.19Zm-.95-8.88c-.1.22-.56.25-.87.35-.05-.08-.09-.15-.13-.22l.52-1.2c.07.02.16.02.23.02.09.35.35.79.25,1.05Zm-1.56.08c-.22-.36-.5-.74-.46-.77.24-.26.55-.45.85-.65.06.07.13.14.2.2-.18.35-.35.7-.59,1.23Zm.38-2.5c-.42-.1-.83-.2-1.25-.3-.05-.08-.07-.15-.11-.22.26-.18.54-.55.77-.49.26.07.5.51.74.79-.05.07-.1.14-.16.22Zm-1.03-4.14c-.42-.89-2.11-3.05-1.64-2.62l4.56,4.08c-.32-.25-1.79.31-1.79.31-.64.2-.7-.87-1.13-1.77Zm-1.05-.1c.13.25.13.56.2.85l-.24.13c-.38-.41-1.8-1.96-2.17-2.38-.76-.86-1.53-1.7-2.29-2.58-.15-.19-.25-.47-.22-.71.01-.22.23-.55.41-.63.22-.08.62-.02.74.13.54.71,1.01,1.47,1.47,2.22.37.6,1.77,2.32,2.09,2.95Zm-4.02-8.53c-.12-.4.41-2.81.78-3.04.23.28.28.55,0,.83-.05.06-.11.13-.11.19-.02.34-.4,1.93-.67,2.02Zm.35.37s.05.1.08.15c-.14.13-.29.35-.43.37-.14,0-.29-.24-.43-.36.02-.04.04-.07.05-.11.24-.02.48-.04.73-.05Zm-.73,1c.05.15-.1.37-.17.57-.05-.01-.11-.02-.16-.04-.07-.24-.13-.48-.2-.72.02-.05.04-.09.07-.12.16.1.43.16.47.31Zm-.19-.53c-.05,0-.13,0-.17-.02-.33-.23-.56-.19-.74.2-.02.05-.08.08-.15.1-.08.03-.18.04-.26.04.05-.12.11-.22.18-.29.05-.06.1-.11.16-.14,0,0,.01-.01.02-.02.2-.13.43-.18.66-.24.1-.02.25.19.38.29-.03.02-.05.06-.07.08Zm-.55-.76c-.21-.27-.65-.55-.54-.97,1.41-.03.54.63.54.97Zm-.61-1.41c-.14-.14-.36-.26-.42-.44-.3-.87-.59-1.75-.83-2.63-.08-.28.01-.61.02-.92.23-.09.4-.23.52-.2.11.04.23.24.26.4.2,1.07.39,2.13.56,3.21.02.19-.07.4-.11.59Zm-1.26-4.22c-.21-.1-.42-.19-.62-.29.02-.05.04-.1.05-.16.26-.07.44.1.63.26-.02.05-.04.11-.06.18Zm-.29,1.18c.28.86.58,1.72.85,2.58.05.17.04.36.06.53-.05.02-.1.04-.16.07-.14-.2-.29-.4-.41-.61-.57-1.03-1.14-2.06-1.71-3.1-.06-.11-.04-.25-.06-.38.11-.01.22-.05.34-.04.53.09.9.39,1.08.94Zm-1.56-1.66s-.08-.06-.11-.1c0-.15-.02-.37.07-.46.08-.08.28-.04.43-.05,0,.14.02.31-.05.4-.07.1-.22.14-.34.2Zm-.18-1.26c.4-.04.65.13.86.5-.64.04-.77-.02-.86-.5Zm.08,2.47c.38.59.73,1.21,1.08,1.83.28.49.53.98.77,1.48.1.21.11.46.16.69l-.16.08-.83-1.05c-.54-.71-1.11-1.42-1.65-2.15-.11-.16-.19-.38-.18-.57.02-.16.15-.41.28-.45.15-.05.44.02.53.15Zm-1.56-2.1c.42-.08.79.32.83.88-.41.02-.7-.27-.83-.88Zm.06,2.76c.27.04.56.26.75.49.64.77,1.25,1.58,1.86,2.39.1.13.13.35.2.53-.2.04-.41.1-.6.08-.17-.02-.33-.14-.48-.25-.47-.37-.94-.75-1.4-1.12h0c-.44-.35-.91-.72-1.36-1.1-.12-.1-.23-.22-.32-.35-.19-.28-.1-.58.22-.63.38-.07.79-.11,1.15-.04Zm-.26-1.07v-.14c.26.02.53.03.79.04-.01.05-.02.12-.03.16-.26.11-.53.18-.76-.06Zm-1.38.79c-.05.04-.13,0-.17,0-.24-.17-.26-.9-.04-.98.11-.05.33.03.41.14.17.2.02.72-.2.84Zm-.32,1.33c.1-.09.33-.09.47-.03.24.12.44.31.65.47.36.28.71.56,1.05.84.47.38.94.74,1.4,1.12.1.08.23.16.26.27.08.25.12.53.16.79-.2-.04-.42-.04-.61-.11-.76-.34-1.53-.67-2.27-1.03-.13-.07-.27-.14-.39-.2-.28-.15-.47-.49-.64-.79-.13-.25-.17-.55-.21-.85,0-.07,0-.16,0-.24.03-.1.07-.2.11-.24Zm.38,2.32c.26.06.5.19.74.3.07.04.16.06.23.11.81.37,1.62.73,2.41,1.09.06.02.13.05.19.08.07.02.14.09.2.13,0,.05,0,.1-.01.15-.21.01-.44.08-.65.02-.31-.07-.62-.15-.94-.23l-.44.04-.11-.19c-.61-.17-1.23-.33-1.84-.5-.41-.11-.52-.31-.47-.65.05-.26.34-.45.69-.36Zm-.4,10.85c-.08.05-.28-.03-.4-.04,0-.07-.01-.14-.01-.22h0c0-.11.01-.2.05-.26.07-.11.14-.19.23-.25h0c.23-.21.53-.29.88-.26l.16.24c-.31.26-.61.53-.93.79Zm-.29,1.63c.1.21.05.49.06.73-.08.05-.16.08-.23.11-.22-.16-.56-.31-.62-.52-.06-.22.16-.5.23-.76.2.15.46.26.56.43Zm-.6,1.45c-.55-.07-1.01-.12-1.47-.17,0-.07,0-.14,0-.22.59-.46.98-.4,1.48.39Zm.07.62c-.24.69-.87.89-1.89.56.18-.74,1.04-.98,1.89-.56Zm.19,1.14c-.39,1.07-.58,1.2-1.35.92.22-.65.65-.92,1.35-.92Zm-1.07,3.65c.02-.22.29-.49.5-.55.42-.09,1.11.61,1.12,1.08,0,.1-.08.22-.11.28-.42.24-1.53-.38-1.51-.81Zm1.23,2.08c-.31.06-.44.16-.57.13-.24-.07-.48-.2-.71-.29.15-.25.25-.65.46-.71.24-.07.61.12.88.29.05.04-.04.43-.06.59Zm.21-2.63c-.07-.37-.2-.73-.19-1.08,0-.1.4-.17.62-.19.09,0,.31.32.29.4-.14.31-.32.59-.48.9-.09-.01-.17-.03-.25-.04Zm1.09,3.56c.18-.02.4.18.47.2.38.81.31,1.35-.16,1.48-.17.05-.5-.06-.61-.22-.26-.35-.02-1.42.3-1.46Zm.7-2.1c-.58.05-.96-.35-.8-.91.17-.65.38-1.36.74-1.89.26-.39.78-.67,1.25-.77,1.6-.35,3.23-.62,4.86-.88.28-.05.62.09.94.14-.1.34-.13.75-.29,1.03-.15.25-.44.41-.7.55-.88.44-1.77.86-2.65,1.27h0c-.86.42-1.72.85-2.59,1.24-.23.11-.5.19-.76.21Zm7.83-2.88c.42-.4.87-.66,1.36-.88.47-.23.98-.42,1.5-.68-.37.79-1.04,1.37-1.76,1.56-.37.11-.75.12-1.1,0Zm.42,9.22c.04.14.06.28.11.41l-1.17.19c-.02-.13-.05-.23-.09-.36.4-.08.77-.16,1.15-.24Zm.62,1.54c.07.08.13.14.2.21-.14.56-.64.74-1,1.08l-.26-.28c.35-.33.7-.67,1.05-1.02Zm1.45,1.5c.14,1.02-.67,1.57-1.67,1.17-.05-.64.82-1.25,1.67-1.17Zm-1.09,2.37s.04-.03.05-.04c.11-.05.29,0,.41.04.05,0,.09.02.11.02.62.65.71,1.15.31,1.4-.16.09-.53.07-.68-.04-.33-.23-.43-1.16-.2-1.38Zm1.18,2.32c-.2.3-.4.62-.61.92-.08-.04-.17-.11-.26-.15-.06-.46.26-.7.57-.95.1.05.2.11.29.18Zm-1.22-.47l.23.18c-.22.32-.43.66-.68.96-.06.07-.26.05-.4.06-.02-.06-.05-.12-.07-.19h0c-.03-.1-.05-.19-.03-.26.04-.11.08-.19.15-.28h0c.18-.27.45-.42.8-.47Zm-.91,2.46c.23.08.53.1.68.25.16.16.2.43.28.65-.06.06-.13.1-.19.16-.28-.09-.66-.13-.77-.31-.13-.17,0-.49,0-.74Zm.79,2.28c-.02.69-.58,1.03-1.67,1.02-.05-.73.71-1.17,1.67-1.02Zm1.41-2.8c-.25.28-.5.55-.82.89-.33-.72-.07-1.03.82-.89Zm-.48,6.78c.38-.2,1.27.26,1.42.68.04.1-.02.22-.02.28-.33.33-1.61.06-1.72-.34-.04-.2.13-.53.33-.62Zm.44,1.62c.22-.13.63-.05.95.02.06.02.08.4.11.55-.27.15-.38.26-.52.26-.26.01-.53-.04-.79-.07.07-.28.05-.65.23-.76Zm.54-5.51c-.04-.28.13-.72.37-.81,1.1-.41,2.24-.73,3.38-1.05.89-.25,1.8-.5,2.73-.68.36-.08.79,0,1.2.01l.11.29-1.99.94c-1.35.62-2.68,1.27-4.04,1.87-.29.11-.7.16-1.02.06-.28-.08-.68-.41-.74-.63Zm8.93-.25c.29-.48.66-.83,1.06-1.17.4-.34.83-.65,1.26-1.03-.1.83-.61,1.54-1.24,1.9-.33.2-.71.31-1.08.29Zm2.52-4.17c.04-.05.08-.13.12-.17.4-.02.79-.03,1.18-.05.05.08.09.16.13.22-.29.18-.55.41-.86.52-.09.02-.37-.34-.56-.52Zm1.72.29c.09.04.18.09.26.13-.06.37-.12.74-.2,1.27-.32-.26-.68-.52-.68-.58.16-.31.4-.56.62-.83Zm-.32-.97c-.43.02-.88.03-1.32.05-.07-.05-.11-.12-.18-.16.2-.24.37-.65.61-.67.29-.01.65.34.98.53-.02.08-.06.16-.09.25Zm-.56-1.73c.13.17-.71.08-.71.08.1-.17-.02-.73-.22-.88-.2-.15.8.13,1.02.04.23-.09-.22.6-.09.77Zm-.94,3.4c-.83-.53-.92-1.29-1.01-1.99-.02-.17.37-.34.57-.5.04.04.08.1.13.15-.03.09-.03.21-.08.28-.45.44-.43.85.23,1.31.17.13.17.48.17.75Zm-.84-2.71c-.06-.04-.11-.76-.17-.8,0-.4-2.59-.88-2.59-1.29.09-.02,2.82.7,2.91.67.2.29.57.62.55.85-.02.23-.45.38-.7.56Zm-2.9-2.73c-.51-.31-.97-2.19-.91-1.99.07.2,1.21,1.29,1.6,1.36.39.07,1.53,1.08,1.53,1.08,0,0-1.71-.13-2.22-.44Zm.55-1.45c-.64-.14-2.01-1.62-1.92-1.78.08-.16,5.95-.97,5.95-.97,0,0,.49.5.35.73-.13.22-2.28.74-2.61.94-.34.19-1.13,1.23-1.77,1.09Zm-2.4-2.29c-.27-.46-.55-1.15-.47-1.37.08-.23.23-1.03.32-1.06.08-.03,7.54.53,7.54.53,0,0,.13.89-.05.93-.19.04-7.06,1.44-7.33.97Zm-.16-2.83c-.1-.17-.19-1.97-.38-2.37-.19-.4.72-.08.91,0,.19.08,7.58,1.81,7.58,1.81,0,0-.35.94-.52,1.15-.17.2-7.48-.4-7.59-.58Zm-.74-3.29c-.19-.22-.68-.9-.44-1.55.23-.64.71-.77.89-.68.18.08,10.12,4.04,10.12,4.04,0,0,.5.58.24.82-.26.25-10.62-2.41-10.81-2.63Zm-1.93-6.71c-2.53-1.72,1.44-2.2,1.74-2.11.31.08,12.2,9.56,12.2,9.56,0,0,.46.26.25.38-.22.11-.77-.04-.77-.04,0,0-10.88-6.07-13.42-7.79Zm13.73,6.67c-1.13-.88-17.77-13.9-18.35-14.8-.61-.92-2.08-2.63-1.54-3.51.55-.88,2.77.76,2.77.76l17.59,16.13s-.77,1.09-.46,1.42ZM14.6,3.46c.03-.1.04-.19.04-.29h.01s.79,1.08.79,1.08c-.29-.22-.67-.32-.65-.39.05-.22-.22-.24-.19-.37,0-.01,0-.02,0-.04Zm-.11.64s.05-.05.1-.07c.06-.02.14-.02.17,0,.13.08.16.21.39.28.02,0,.02.02.04.04,0,0,0,0,0,0,0,0,.02.02.03.03.08.09.1.18.07.25-.03.09.21.39.13.44-.21.13-.24.49-.47.58-.04-.02-.62-.58-.66-.6.07-.31.11-.64.2-.95Zm-.47-.69c.1,0,.17.02.23.07h0c.07.07.09.17.06.32h0c-.2.97-.4,1.93-.59,2.89-.01,0-.01.02-.02.03-.12.18-.26,1.45-.37,1.45-.29-.02-.2-1.28-.2-1.51.04-.77.05-1.55.08-2.34.02-.21.1-.43.17-.74.2-.06.41-.17.62-.18Zm-1.47-1.66c.37-.07.85.37.92.86-.58.13-1.02-.28-.92-.86Zm.4,1.15c-.27,0-.45-.02-.7-.02.28-.35.37-.35.7.02Zm-.6.29c.41.22.62.62.62,1.11-.02.91-.07,1.84-.11,2.76,0,.07-.05.13-.14.34-.16-.3-.3-.5-.35-.74-.15-.68-.26-1.35-.38-2.04-.06-.35-.14-.7-.17-1.05-.02-.14.05-.33.13-.4.1-.06.29-.02.4.04Zm-.4-1.02c.07.08.03.25.04.29-.29.39-.58.47-.77.26-.07-.08-.11-.29-.07-.38.1-.21.7-.34.81-.17Zm-.46-.86c.11.12.12.35.12.53,0,.04-.23.07-.31.1-.13-.14-.22-.2-.23-.28-.03-.14-.04-.29-.06-.44.17.02.39-.02.48.08Zm-.87-.37c.13,0,.19.05.23.13.07.11.02.31.05.54-.3-.13-.57-.17-.74-.31-.11-.1.22-.4.46-.35Zm-.5.85s.08-.04.11-.04h.02c.08.02.13.04.2.07h0c.17.08.29.23.37.43l-.07.13c-.23-.1-.44-.19-.65-.32-.06-.03-.07-.14-.1-.22.04-.02.07-.04.11-.05Zm-.25,1.3c-.19-.13-.39-.25-.63-.4.37-.24.59-.11.63.4Zm-1.36-2.26c.07-.02.13-.06.2-.1h.01c.09-.05.17-.08.24-.09.13-.02.21-.02.29-.02h0c.25,0,.4.09.44.23l-.2.16c-.32,0-.65,0-.95-.02-.08,0-.03-.11-.05-.17Zm-.42.59c.4.22.49.44.24.88-.13-.31-.23-.57-.34-.82.04-.02.07-.04.1-.06Zm-.55-.94c.4.22.49.44.23.88-.13-.31-.23-.56-.34-.82.04-.02.07-.04.1-.06Zm-.57.28c.12-.04.2-.04.25.02.11.1.15.3.28.5-.3.02-.55.1-.76.04-.13-.05.02-.49.23-.55Zm.57,2.08c-.64.04-.76-.02-.85-.51.38-.02.64.14.85.51Zm-.94.57c.05-.02.2.17.28.28.02.05-.07.25-.11.25-.2,0-.38-.04-.59-.05-.02-.05-.04-.09-.05-.13.16-.13.3-.29.48-.35Zm-.17-1.48c.02.1,0,.26-.07.32s-.25.04-.32-.02c-.19-.19-.36-.43-.57-.68.57-.22.86-.1.96.38Zm-1.44-.1c.36-.07.85.38.91.86-.58.14-1.01-.28-.91-.86Zm-.04,1.77c.1.11.11.36.11.53,0,.04-.22.08-.31.1-.12-.14-.21-.19-.23-.27-.04-.14-.05-.29-.07-.44.17.02.4-.01.49.08Zm-.27,7.48s-.06.07-.1.11c-.29-.01-.49-.17-.6-.44-.04-.07,0-.19,0-.28.08.02.19,0,.23.05.16.17.31.37.46.56Zm-.37-4.05c.05-.01.1-.03.14-.05.26.2.28.48.25.79-.05.02-.08.04-.13.05-.09-.26-.18-.53-.27-.79Zm.23,2.46c.17.16.34.32.55.52-.46.12-.64-.03-.55-.52Zm.21-2.75c-.13-.09-.32-.2-.34-.33-.03-.13.11-.29.19-.46.04.01.09.01.13.02.07.19.16.38.2.58.02.04-.16.2-.18.19Zm-.06-2.01s-.02,0-.04.01h-.12c-.17.02-.33.04-.47,0-.08-.03-.09-.31-.14-.47.16,0,.29,0,.46,0,.07,0,.13,0,.22-.01.04.23.07.34.1.47Zm-.75-2.43c.45.04.79.32.71.59-.05.13-.26.26-.4.26-.31,0-.41-.34-.31-.85Zm-.08,3.03c.1-.22.7-.34.81-.18.06.09.03.26.04.3-.29.4-.58.47-.77.26-.07-.08-.11-.29-.07-.38Zm-.88,2.36c.51-.07.9.15,1.02.59-.53.1-.98-.17-1.02-.59Zm.93.92c-.31.38-.51.36-.85.02,0-.04,0-.09.01-.13.26.04.52.05.83.1Zm-.42-1.71c.48.04.53.08.67.71-.42-.07-.55-.21-.67-.71Zm-.2-4.49s.06-.06.1-.09c.06.09.11.13.13.19.03.14.05.28.08.43.02.07.02.14.04.22-.15-.08-.32-.12-.44-.25-.2-.22-.08-.35.08-.51Zm-.71,1.21s-.04-.1-.05-.14c.11-.11.22-.34.31-.33.2.05.39.19.59.29-.02.07-.05.16-.07.23-.26-.02-.52-.04-.78-.05Zm.94.94c0,.05-.21.15-.32.13-.32-.02-.47-.26-.55-.68.28,0,.53-.04.76.04.08.03.12.34.11.51Zm-.96.75c.16-.07.38-.17.49-.11.29.16.5.43.57.76-.02.05-.06.1-.09.16-.3-.16-.61-.31-.9-.49-.07-.04-.08-.32-.07-.32Zm.65.98c.07.04.13.21.11.28-.04.09-.16.19-.27.2-.43.04-.66-.26-.62-.88.29.14.55.26.79.4Zm-1.05,1.35c.02-.16.26-.26.4-.38.07.22.13.46.18.68-.04.02-.09.04-.14.07-.17-.1-.5-.01-.43-.38Zm-.01.79c-.02-.07.05-.16.08-.25.16.11.32.21.48.35.04.04.04.13.08.24-.07.04-.11.06-.16.07-.28.02-.41-.16-.48-.41Zm.4,1.29c.07-.04.14-.13.2-.13.23.02.46.07.68.1,0,.06-.01.13-.02.2-.22,0-.46.04-.68.02-.07,0-.13-.12-.19-.2Zm.15.49c.23.02.46.02.7.06.07.02.11.17.17.26-.08.05-.15.13-.23.13-.28.02-.5-.05-.64-.44Zm.25,1.68s-.01-.02-.01-.04c.02-.05-.04-.14,0-.26,0,0,0-.02.02-.04.05-.07.1-.14.15-.14.11-.04.25.1.49.2-.23.18-.35.31-.5.38-.02,0-.08-.04-.13-.1t0-.01Zm.52,1.33c-.09-.11-.17-.22-.26-.33,0,0-.17-.5-.13-.52h0l.53.74s-.1.08-.15.11Zm.28-4.02c.05-.09.26-.07.4-.1.02.16.04.31.08.55-.21.01-.41.05-.43.01-.07-.14-.11-.35-.05-.46Zm0,2.24l.06-.19c.27.11.53.22.8.33-.02.05-.03.1-.05.15-.31.05-.55-.17-.82-.29Zm.55,2.05c-.03-.13-.05-.24-.08-.4.23-.04.42-.05.66-.08-.17-.2-.19-.4-.09-.6.02-.05.26-.05.29,0,.13.24.04.44-.13.66-.02-.02-.05-.04-.07-.06-.07.4-.29.46-.58.48Zm.83.46c-.17-.02-.37-.02-.61-.03.28-.34.36-.34.61-.1.01.04,0,.08,0,.13Zm-.13-2.91l-.43-.58c.05-.04.1-.08.15-.13.16.19.31.37.46.55-.06.05-.11.1-.18.16Zm-.07-1.75c-.07-.22.06-.38.28-.32,1.24.33,2.48.68,3.71,1.03.11.04.2.13.31.19-.01.05-.01.1-.02.15-.23.02-.46.08-.7.07-.8-.04-1.6-.1-2.41-.15-.5-.04-1.03-.47-1.17-.95Zm.48,1.51c.28-.09.53-.24.78-.24.88,0,1.76.06,2.63.11.04,0,.09-.01.11.02.14.09.26.19.38.28-.11.09-.22.24-.35.26-.8.1-1.62.19-2.43.28-.25.03-.48.09-.72.08-.16,0-.42-.04-.46-.14-.07-.14.02-.37.05-.64Zm-.03,3.13c.16-.2.24-.35.4-.55.04.08.08.15.13.22.05.09.11.18.15.27.02.04-.08.19-.11.19-.05,0-.09-.02-.13-.02-.14-.02-.27-.07-.43-.11Zm-.28,1.75c.25-.07.61.11.88.29.05.02-.04.41-.07.58-.29.08-.43.17-.56.13-.25-.06-.48-.19-.71-.29.15-.25.25-.65.46-.7Zm-1.17,1.09c.11-.19.23-.28.36-.26.22,0,.48.25.85.38-.4.39-.64.79-.98.93-.22.1-.44-.71-.23-1.05Zm.47,2.43c-.4,1.07-.58,1.21-1.36.93.22-.66.66-.93,1.36-.93Zm-2.09.45c0-.18.01-.36.05-.47.04-.22.11-.37.17-.48v-.02c.18-.41.4-.57.65-.51l.11.46c-.24.52-.46,1.05-.7,1.53-.07.13-.19-.05-.29-.07v-.43Zm.29,2.09c-.56-.08-1.01-.13-1.47-.17,0-.08,0-.16,0-.23.59-.46.98-.4,1.48.4Zm-1.27.37c.22-.09.55.02.94,0-.19.52-.24.98-.48,1.25-.15.17-.7-.46-.66-.86.02-.22.09-.33.2-.38Zm-.05,3.53c.05-1.12.46-1.47,1.23-1.23.17.05.4.25.44.41.04.16-.13.43-.26.48-.43.14-.89.21-1.41.33Zm.47,4.85c-.47.14-.6-.19-.71-.58-.02-.08-.04-.16-.06-.25.17-.02.26-.07.37-.04.24.08.47.15.71.24.13.05.24.09.37.14-.22.16-.42.4-.67.48Zm.35,1.59c-.1-.26-.35-.67-.28-.78.2-.29.55-.47.86-.68.09.08.19.19.29.29-.22.4-.41.82-.62,1.22-.07-.02-.16-.03-.25-.05Zm2.29,0c-.26.47-.71.53-1.42.26.21-.43.33-.89.59-1.18.1-.11.59.11.84.29.08.05.07.46-.02.64Zm-.12-1.57c.09-.23.18-.47.29-.73.05-.12.09-.23.14-.36.35.13.56.19.77.26-.01.03-.02.05-.03.07-.02.07-.04.14-.07.2-.09.28-.17.56-.34.76-.09.11-.5-.13-.77-.2Zm.59,3.12c.03-.31.01-.76.19-.89.43-.31.98-.41,1.54-.22.05.08.11.18.16.28-.44.35-.88.71-1.36,1.02-.11.07-.53-.15-.53-.17Zm2.54.5c-.24.74-.85.83-1.75.22.41-.34.76-.65,1.14-.91.11-.07.41-.02.5.09.11.14.17.43.11.6Zm-.16-3.21c.04-.07.07-.14.11-.2.34.04.68.07,1.02.17.08.02.19.44.16.46-.23.13-.52.35-.73.27-.22-.08-.37-.44-.55-.7Zm1.71,5.04c-.27.2-.37.82-.88.38-.2-.19-.19-.66-.28-1,.39.11.77.22,1.16.33v.28Zm1.27.69c-.16.47-.53.53-.95.41-.11-.03-.2-.22-.31-.34.28-.17.55-.34.85-.48.08-.04.24.05.42.08,0,.16.02.25,0,.33Zm-.03-.88c-.06-.05-.13-.1-.18-.16.23-.38.46-.76.73-1.24.36.82.2,1.14-.55,1.39Zm.57-3.59c-.37-.32-.46-.97-.08-1.45.28-.35.64-.62.97-.92.11-.09.22-.2.32-.28,1.11-.99,2.21-1.97,3.32-2.94.08-.08.17-.15.25-.22.1-.09.23-.13.35-.21.07.05.13.1.2.16-.13.36-.19.79-.4,1.07-.34.44-.68.88-1.03,1.3l-.22.76-.37.02c-.66.84-1.34,1.69-2.02,2.53-.45.55-.82.59-1.29.19Zm1.13,5.25c-.05.11-.26.09-.41.13-.02-.16-.11-.35-.05-.46.19-.35.41-.67.61-1,.11.06.2.13.31.2-.14.38-.27.76-.45,1.12Zm1.53-.31c-.16.46-.43.76-1.11.62.18-.36.34-.74.57-1.06.07-.11.34-.04.51-.04.02.16.07.35.02.48Zm-.92-2.98c.36-.14.73-.26,1.16-.43-.13.84-.49.99-1.16.43Zm1.5,2.03c-.14,0-.28-.16-.42-.26.08-.11.13-.29.23-.32.4-.1.8-.18,1.19-.26.02.08.05.17.08.26-.2.45-.59.63-1.08.58Zm.72,2.56c-.05-.03-.11-.07-.16-.11-.02-.04-.04-.05-.06-.09-.07-.14-.13-.28-.12-.38.03-.11.13-.19.27-.3.11-.07.25-.16.39-.28.11.51.22.82.22,1.12,0,.04-.11.1-.24.13h-.02s-.04,0-.06,0c-.04-.05-.13-.05-.22-.09Zm-.22,1.39c.21-.13.62-.05.94.03.06.02.09.39.11.55-.26.14-.37.26-.52.26-.26.01-.52-.05-.78-.08.07-.27.04-.66.24-.77Zm-.82,1.31c.05-.21.14-.31.27-.34.22-.05.54.1.94.13-.26.46-.39.89-.68,1.11-.17.16-.64-.53-.53-.9Zm-.8,2.11c.06-.42.23-.62.49-.63l.25.39c-.07.55-.13,1.09-.22,1.58-.02.12-.2,0-.3,0-.05-.13-.09-.24-.13-.38h0c-.05-.19-.11-.34-.11-.45-.02-.2-.01-.37.02-.49v-.02Zm-.5,3.02c-.03-.08-.05-.13-.08-.2.46-.58.85-.61,1.58-.04-.56.09-1.03.15-1.5.24Zm.28.85c-.04-.2,0-.33.09-.4.18-.14.54-.13.91-.26-.02.53.07.97-.08,1.27-.1.2-.84-.22-.92-.61Zm1.95,1.38c.17.01.47.13.55.27.08.12,0,.41-.12.5-.37.24-.79.43-1.27.68-.28-1.03,0-1.47.84-1.45Zm-.45,2.36c-.04-.63.82-1.24,1.68-1.17.14,1.02-.67,1.58-1.68,1.17Zm1.54,3.41c-.42.25-.64-.02-.87-.35-.04-.07-.09-.13-.14-.2.16-.07.24-.14.35-.14.26.01.51.02.77.04.14.01.27.02.4.03-.17.2-.28.48-.52.63Zm1.11,1.32c-.08.02-.17.02-.26.02-.18-.2-.56-.5-.52-.63.11-.33.4-.58.63-.86.12.06.24.13.38.19-.09.43-.16.86-.23,1.29Zm1.98-.59c-.1.52-.53.68-1.31.61.07-.44.05-.9.23-1.24.06-.11.61-.04.9.04.1.04.21.41.17.59Zm.34-2.41c-.01.07-.01.13-.01.2,0,.28,0,.55-.1.77-.05.13-.53.03-.81.04.01-.24.03-.49.06-.76,0-.11.02-.23.02-.35.38.02.61.02.84.02-.01.04-.01.05,0,.07Zm-.29-2.59c-.02-.65-.04-1.33.16-1.92.14-.43.56-.82.98-1.04,1.47-.76,2.98-1.44,4.51-2.11.26-.11.63-.09.96-.11,0,.34.11.71.04,1-.07.28-.31.51-.53.71-.72.64-1.47,1.25-2.2,1.87h0c-.72.61-1.44,1.23-2.17,1.81-.2.17-.44.31-.68.4-.55.2-1.03-.06-1.06-.62Zm1.47,6.32c-.09.09-.57,0-.57-.02-.08-.29-.23-.68-.1-.85.33-.41.84-.64,1.45-.62l.23.2c-.33.43-.64.89-1.01,1.3Zm.41.44c.3-.43.54-.81.85-1.14.09-.1.4-.13.52-.06.15.1.29.35.28.52,0,.74-.58,1-1.65.68Zm1.27-3.08c-.23,0-.49-.31-.74-.49,0-.08.02-.16.04-.22.35-.05.68-.13,1.05-.13.08.01.31.35.28.38-.17.18-.39.46-.63.44Zm2.04.9c-.19.68-.46.84-1.36.83.16-.79.25-.85,1.36-.83Zm-.32,3.34c-.26-.12-.39-.55-.59-.83.42,0,.83,0,1.24-.02.03.1.05.18.1.28-.22.25-.13.85-.75.58Zm1.38.33c-.11.01-.26-.14-.41-.22.23-.23.43-.46.68-.67.07-.06.25-.02.44-.04.05.13.08.22.08.29,0,.48-.35.63-.8.63Zm.51-1.44c-.07-.02-.16-.05-.22-.08.11-.41.2-.83.33-1.33.61.66.55.99-.11,1.41Zm-.53-3.43c-.47-.19-.74-.74-.52-1.3.15-.4.44-.75.67-1.1.07-.11.16-.23.22-.34.79-1.21,1.58-2.4,2.37-3.59.06-.09.12-.17.17-.26.07-.11.19-.19.28-.28.08.02.16.04.25.08-.02.37.05.77-.07,1.09-.2.48-.39.98-.59,1.46v.75s-.36.11-.36.11c-.39.95-.8,1.91-1.21,2.85-.26.64-.62.77-1.2.52Zm1.53-.02c.82-1.92,1.66-3.85,2.49-5.75.08-.17.25-.28.38-.43.08.04.16.06.24.08.01.4.07.81,0,1.2-.22,1.32-.48,2.63-.73,3.95-.15.82-.99,1.51-1.86,1.56-.41.02-.67-.26-.52-.6Zm.02,1.82c.28.02.55.06.98.09-.02.35.01.71-.08.74-.26.04-.61.04-.81-.11-.13-.11-.07-.46-.09-.71Zm1.16,2.7c-.02.1-.24.16-.37.23-.07-.13-.22-.29-.19-.4.07-.37.19-.72.29-1.08.11.02.24.06.35.11-.02.38-.02.76-.09,1.14Zm-.41-3.18c.31-.22.62-.44,1-.7.13.8-.17,1.05-1,.7Zm.91,3.34c.07-.37.11-.76.24-1.11.05-.11.31-.13.48-.17.07.14.18.29.18.43-.02.46-.2.8-.9.85Zm1.17-1.88c-.14.03-.32-.08-.49-.13.05-.12.04-.3.14-.35.34-.2.71-.37,1.08-.54.05.07.11.13.16.2-.07.47-.38.74-.89.82Zm1.55-.73c.1.05.19.1.26.14.05.55-.4.85-.64,1.26l-.34-.19c.25-.4.48-.8.71-1.21Zm.26,2.88s0,0-.02,0c-.04.01-.04.01-.06,0-.09-.04-.25.04-.44-.08-.02-.02-.05-.04-.08-.06-.11-.11-.2-.23-.22-.31-.02-.2.23-.38.46-.71.26.44.47.7.56.98,0,.04-.09.11-.2.18Zm-1.48-15.03c.28.1.7.12.82.3.47.63.88.63,1.37.27.08-.05.22-.03.32-.05.05.04.07.09.12.13-.2.16-.4.5-.59.46-.75-.13-1.56-.26-2.04-1.11Zm1.78.04l.15-1.24s.09-.02.13-.03c.03,0,.07,0,.1,0,.19.28.58.62.55.88-.01.09-.07.15-.17.21-.16.13-.41.22-.57.34-.07-.05-.13-.11-.19-.16Zm.16,9.87c-.02-1.4,0-2.8,0-4.21,0-.22-.02-.45.04-.66.09-.38.29-3.2.41-3.57.11.01.22.04.34.07.06.29.05,3.04.12,3.34.31,1.19.64,2.38.95,3.57.22.86.02,1.55-.7,2.01-.19.13-.55.18-.77.09-.17-.07-.37-.42-.38-.63Zm1.93-11c.04.14-.56.77-.56.77.04-.04-.41-.64-.43-.92-.03-.28.06-.79.43-.76.34.04.74-.09.8-.11-.03.1-.29.88-.25,1.01Zm.59,2.11c-.02.08-.05.16-.08.22l-1.26-.05h-.11c-.05-.07-.09-.12-.14-.17.05-.04.08-.08.12-.13.19-.22.35-.47.54-.46.29.03.61.38.92.58Zm-1.5,9.97c.44-.02.77-.05,1.23-.09-.35.64-.61.65-1.23.09Zm.91,1.25c-.41.28-.8.26-1.18-.03-.07-.05-.02-.44.06-.47.45-.12.8.11,1.12.5Zm-.63,2.78s-.92.08-.94,0h0s1.39-.6,1.39-.6c.07.1.13.21.2.31-.22.11-.43.2-.64.29Zm.55-1.59c-.01-.38-.02-.71-.03-1.12.68.27.74.67.73,1.16-.22,0-.42-.02-.7-.04Zm1.5-.18c-.55-.59-.53-.73-.06-1.05.08.02.15.04.23.05-.05.3-.11.61-.17,1Zm.19-1.42c-.33-.34-.55-.55-.89-.88.32-.11.61-.22.92-.28.07-.02.31.22.3.27-.07.28-.2.55-.33.88Zm.79-1.83c-.49.2-.99.03-1.54-.37-.2-.52-.41-1.03-.56-1.56-.19-.65-.32-1.3-.48-1.95-.12-.56-.28-1.11-.35-1.66-.02-.19.22-2.91.28-3.08.2.1.47.19.55.34.47.86.86,4.29,1.27,5.19.32.68.58,1.4.86,2.1.13.35.55.78-.02,1Zm.76-.94c-.7-.29-2.59-6.82-2.56-7.55,1.3.49,2.97,6.71,2.56,7.55Zm-2.53-8.98h1.53s-.83.85-1.09.77c-.26-.08-.17-.44-.44-.77Zm2.98,6.51c-.02.08-.04.16-.06.23-.31-.84-1.05-2.94-1-3.09.06-.19.14-.41.14-.41,0,0,1.03,1.12,1.43,1.59-.22.66-.39,1.26-.51,1.69Zm1.89-5.12c-.33.63-.64,1.34-.91,2.04-.07.21-.15.43-.22.64-.03.08-.05.17-.08.25l-.05-.05c-.49-.59-1.37-1.62-1.9-2.1-.73-.69-.11-1.48.26-1.89.38-.39.55-1.06-.15-.76-.7.31-1.92.12-1.82-.37.09-.47-.38-.82.71-1.43,1.1-.62,1.65-1.99,1.03-2.19-.61-.19-.8.39-1.24,1.2-.46.81-2.53.76-2.74,1.44-.13.39-.49-.88-.52-2.08-.6-.01-1.09-.11-.89-.17.43-.16.28-1.28.77-1.56.5-.29.88-.42.71-.75-.16-.31-1.02.06-1.36.68-.34.62-.59.38-.88.46-.3.09-.49-.55-.33-.95.16-.39-.26-.26-.5-.04-.23.22-.71.61-1.2.24-.35-.28-1.17-.76-1.53-.96-.04-.02-.05-.03-.08-.05.04-.02.07-.04.13-.07.34-.24,1.09-.77,1.42-1.08.44-.39.96-.05,1.22.16.25.21.7.31.49-.08-.2-.39-.09-1.03.22-.98.31.04.53-.2.94.4.4.59,1.3.9,1.42.57.12-.33-.28-.44-.79-.69-.52-.24-.5-1.37-.94-1.5-.22-.06.38-.2,1.07-.25-.08-1.17.13-2.33.29-1.96.29.67,2.36.46,2.89,1.22.52.78.78,1.35,1.37,1.12.59-.24-.11-1.57-1.28-2.1-1.16-.55-.73-.91-.86-1.38-.16-.47,1.04-.74,1.77-.5.72.25.48-.41.05-.77-.41-.37-1.12-1.11-.46-1.84.3-.34.74-.94,1.12-1.48.01-.01.02-.03.03-.04l.07.07.22.2,1.75,1.68c-.98,1.08-1.58,2.5-1.58,4.05,0,.72.13,1.18.36,1.65.61,1.23.61,3.27,0,4.49-.23.46-.36.93-.36,1.65,0,1.33.43,2.56,1.18,3.57.43.6.98,1.12,1.62,1.53-.13.22-.27.47-.43.78Zm44.67-19.71c-.13-.05-.29-.32-.26-.48.04-.16.26-.37.44-.41.77-.25,1.17.11,1.23,1.23-.52-.12-.98-.19-1.41-.33Zm-6.04,9.75c-.66.33-1.36-.17-1.58-1.11.72-.22,1.35.22,1.58,1.11Zm-1.3-2.71c.44-.32.88-.53,1.35-.29,0,.1.02.18.02.28-.45.08-.89.17-1.35.27,0-.09,0-.17-.02-.26Zm.61.73c1.05-.33,1.15-.29,1.53.46-.83.25-1.13.16-1.53-.46Zm.42-2.74c-.55,0-1.21-.02-1.62-.32-.19-.15-.38-.3-.57-.45-1.07-.88-2.08-1.84-3.12-2.76-.25-.23-.4-.58-.59-.89.43-.14.86-.34,1.3-.44.18-.02.39.11.57.2.88.41,1.77.85,2.65,1.26.66.32,1.32.62,1.98.95.41.2.83.37,1.18.66.18.15.35.52.29.76-.04.13-.16.27-.29.4-.11.09-.24.17-.35.23-.46.2-.96.4-1.42.41Zm-3.48,2.97c-.83.2-1.84-.26-2.23-1.05-.64-1.25-1.29-2.49-1.92-3.75-.18-.36-.26-.79-.38-1.18.07-.05.14-.1.2-.15.17.11.36.17.49.33,1.38,1.68,2.76,3.36,4.13,5.06.25.31.1.65-.29.74Zm.83,1.11c.07.25.23.59.14.73-.14.2-.48.3-.73.34-.09,0-.16-.37-.3-.72.4-.15.64-.26.89-.35Zm-3.39,7.92c.03.07,0,.16-.02.25h0c-.03.07-.05.13-.07.19-.13-.01-.34.01-.4-.06-.25-.3-.45-.64-.68-.96l.23-.18c.35.05.61.2.79.46h0c.07.1.11.19.15.29Zm1,3.48c-.02.06-.04.13-.08.2-.46-.08-.92-.16-1.49-.23.73-.59,1.12-.55,1.57.04Zm-.82-2.3c.67.18,1.03.55,1.05,1.2-.86.05-.99-.11-1.05-1.2Zm-1.53,3.8c.68.18,1.02.55,1.04,1.21-.85.05-.98-.12-1.04-1.21Zm.49,4.82c.46-.26,1,.19,1.15.93-.86.38-1.48.33-1.53-.16-.02-.24.17-.66.38-.77Zm-4.53-.07c-.07.11-.22.2-.4.29-.13.04-.28.08-.41.11-.51.05-1.05.11-1.51-.01-.55-.14-1.19-.32-1.49-.72-.15-.19-.28-.38-.42-.58-.78-1.09-1.5-2.23-2.23-3.35-.17-.28-.2-.64-.31-.98.47-.02.95-.08,1.41-.05.19.01.35.2.5.32.75.62,1.48,1.24,2.22,1.88.55.46,1.11.92,1.65,1.39.34.29.7.56.96.92.13.2.17.57.04.77Zm.59.94c.3.12.2,1.17-.15,1.42-.15.12-.52.13-.68.04-.4-.24-.31-.74.3-1.39.08-.01.36-.13.53-.07Zm-4.6,1.26c.02-.08.05-.16.07-.25.52-.17,1.02-.25,1.41.11-.02.08-.04.16-.07.25-.46-.04-.92-.08-1.4-.1Zm.51,2.58c-.74.13-1.27-.52-1.2-1.44.77,0,1.24.56,1.2,1.44Zm-5.88-2.78c-.46.16-.83.39-1.1.35-.19-.04-.29-.44-.33-.71-.05-.4,0-.81,0-1.22,0-1.38-.2-3.28-.16-4.67,0-.21.24-.45.36-.68.2.16.6.85.77,1.03.05.03.03.11.04.18.24,1.44.51,2.87.69,4.32.04.41-.17.89-.28,1.41Zm.96.94c-.06.1-.13.2-.2.31l-1.08-.48c.08-.11.15-.23.22-.35.35.17.7.35,1.05.52Zm-2.19-9.67c.2.46.55.9.2,1.59-.61-.46-.33-1.04-.2-1.59Zm.63-.19c.07-.03.14-.05.22-.08l.53,1.51c-.09.03-.18.05-.26.07l-.49-1.5Zm.62-.31l.14-.09c.52.37.87.82.78,1.52-.07.02-.14.07-.21.1-.24-.52-.48-1.02-.71-1.53Zm26.88-23.35c-.46.05-.92.1-1.47.17.5-.79.88-.85,1.48-.39-.01.07-.01.14-.01.22Zm.35,1.35c-1.01.33-1.65.13-1.89-.56.85-.42,1.71-.18,1.89.56Zm-1.62-2.31c-.06.2-.4.35-.62.52-.07-.03-.15-.06-.23-.11,0-.24-.04-.52.06-.73.1-.17.37-.28.56-.43.08.26.29.53.23.76Zm-21.99,23.06c-.65.1-1.12-.14-1.56-.44-.07-.04-.13-.1-.2-.14.04-.07.06-.12.09-.16l.11.02c.55.16,1.12.32,1.68.48-.05.08-.07.16-.12.23Zm.03,2.05c-.57-.47-1.08-.92-1.6-1.36-.27-.22-.52-.43-.79-.67.28.04.55.08.8.16.98.33,1.67,1.04,1.6,1.87Zm4.66-20.92c.22-.08.53.26.8.41-.03.06-.05.13-.08.2l-1.02.89c-.05-.06-.33-.59-.38-.66.22-.29.41-.74.68-.85Zm-11.44,4.3l-.49-.17s11.61-6.66,11.72-6.57c.12.1.79,1.44-.07,1.88-.86.44-10.66,5.03-11.16,4.86Zm14.15-11.86c-.42.89-.49,1.97-1.12,1.77,0,0-1.47-.56-1.8-.31l4.56-4.08c.48-.43-1.21,1.72-1.64,2.62Zm.56,1.07c.14.4.28.81.41,1.21-.04.07-.08.13-.12.19-.29-.12-.74-.16-.83-.38-.1-.22.15-.65.25-1.01.1,0,.19,0,.29,0Zm-.99,2.05c.23-.06.52.31.77.49-.04.07-.07.14-.11.22-.42.1-.83.2-1.25.3-.05-.08-.11-.15-.16-.22.25-.28.48-.73.75-.79Zm.68,15.39c-.1-.05-.2-.14-.31-.27.43-.08.74-.16,1.17-.26-.08.16-.15.27-.22.37-.22.27-.39.33-.63.16Zm.52,1.03c.13.41.22.74.33,1.12-.26.09-.44.17-.65.24-.16-.5-.23-.91.32-1.36Zm.05-2.05c-.81-.26-1.21-.91-1.27-1.83-.08-1.29-.15-2.56-.23-3.84-.02-.33-.41-2.75-.44-3.08.1-.05.19-.11.29-.15.22.35.82,2.79,1.03,3.15.11.19.17.43.23.65.44,1.41.89,2.81,1.3,4.23.06.22-.01.61-.16.74-.17.15-.52.2-.74.13Zm-3.1.4c-.18-.02-.29-.08-.34-.16-.13-.22,0-.57.01-.85.04-.77.06-1.56.15-2.34.1-1.01.25-2.02.42-3.03.04-.17.33-2.82.47-2.99.13.17.29,2.79.31,2.99.1.58.13,1.17.18,1.77.06.7.14,1.39.17,2.08.02.58-.02,1.15-.05,1.72-.26.4-.55.65-.87.76-.14.04-.29.05-.44.04Zm.39,1.54c-.29.13-.59.26-.87.38-.05-.05-.11-.11-.16-.16.13-.43.19-.86.37-1.26,0-.02.02-.06.04-.09.04.04.08.1.13.2,0,.01.02.02.02.03,0,.02.02.04.02.05,0,0,0,.02,0,.04.08.19.25.49.46.8Zm.1-11.9c.02-.05.04-.11.07-.16.11,0,.22-.07.31-.04.57.22.96.11,1.19-.65.07-.22.46-.35.68-.53-.17,1-.9,1.33-1.56,1.68-.16.09-.46-.2-.69-.29Zm.43,10.83s.06,0,.08,0c.05,0,.1,0,.16,0,.23,0,.45.02.7.04-.03.05-.05.11-.09.16-.14.31-.27.53-.42.85-.02.05-.04.08-.05.12-.02-.03-.04-.05-.05-.07-.08-.11-.16-.21-.23-.31-.11-.13-.22-.28-.29-.42-.03-.05.13-.34.2-.35Zm.74,1.46c.52.19.59.31.28,1.01,0,.02-.02.04-.02.07-.01-.02-.02-.04-.02-.05-.17-.37-.31-.63-.44-.91.07-.05.13-.09.2-.12Zm1.12-9.99c-.71-.31-.64-.97-.69-1.55.34.42.79.76.69,1.55Zm-.16-1.92c.05-.04.12-.08.17-.13l.96,1.36c-.07.04-.14.1-.22.14l-.92-1.38Zm-.21-2.8c-.33-.02-.65-.18-.97-.28.02-.08.04-.17.05-.26.37-.1.74-.19,1.11-.28.05.04.11.09.17.13-.14.23-.28.68-.37.68Zm-1.16.09c.29.2.61.4.85.65.04.04-.24.41-.46.77-.24-.52-.41-.87-.59-1.23.07-.07.14-.14.2-.2Zm-.17,1.48c-.05.07-.08.14-.14.22-.3-.11-.76-.13-.87-.35-.1-.25.16-.7.25-1.05.08,0,.16,0,.23-.02l.53,1.2Zm-1.21,2.56c.26.72-.59,5.36-.75,6.19-2.28-.19-.3-5.34.75-6.19Zm-.75,10.08c-.32.7-2.3,2.02-3.02,1.98.08-.48.74-1.65.93-2.19.43-1.24.94-2.08.98-2.21.67-2.62,1.66-.02,1.11,2.41Zm-2.38,2.13s.04-.02.05-.04c1.26-.56,2.53-1.12,3.8-1.68.41.64.87,1.29.87,1.29l.04.02c-.19.1-.35.17-.53.22-1.33.38-2.68.73-4.02,1.09-.4.09-3.47.88-3.57.4,0-.19,3.07-1.04,3.36-1.31Zm-3.15,3.87c.02-.08.05-.16.09-.24.53.13,1.07.25,1.6.38-.04.07-.05.13-.08.2l-1.61-.35Zm.14-.83c.59-.11,1.22-.45,1.76.08-.74.36-1.24.14-1.76-.08Zm-.14-.59c.32-.23,2.62-.88,2.73-.9,1.6-.44,3.18-.9,4.78-1.31.83-.21,1.55,0,2.02.58.14.16.23.46.13.64-.09.18-.43.35-.66.4-.61.09-1.24.1-1.86.13-1.21.08-2.41.18-3.62.2-.4.01-2.97.37-3.53.25Zm10.1.08c.09.18-.13.52-.25.95-.54.14-1.09.41-1.59.4-1.59-.03-3.16-.16-4.72-.31-.33-.04-.59-.33-.88-.5.34-.15.69-.39,1.02-.41,1.9-.16,3.78-.29,5.68-.4.28,0,.67.1.74.28Zm-7.44,1.62c.31-.04.64-.14.94-.13,1.54.12,3.09.27,4.64.38,1,.07,1.59.56,1.85,1.41.05.17,0,.38,0,.57-.23.02-.49.11-.68.07-1.91-.51-3.81-1.05-5.69-1.58-.4-.11-.76-.28-1.14-.44.04-.08.05-.19.08-.28Zm7.46,4.34c.09-.03.19-.07.28-.11.07.44.14.87.2,1.3-.07.03-.14.04-.22.07-.47-.29-.41-.76-.26-1.26Zm.14,1.99c-.09.32-.33.62-.5.94-.08-.02-.16-.02-.25-.04-.07-.32-.17-.62-.2-.94,0-.09.31-.31.4-.29.22.06.59.24.56.34Zm-.17-9.63s0-.04,0-.06c-.05-.38-.09-.67-.16-1.09.37.21.56.34.57.52,0,.1-.05.2-.17.35-.05.08-.11.16-.2.25l-.04.04Zm-.77-2.82c.2-.46.44-.78.87-.8h.03c.07,0,.17.2.2.34,0,.05,0,.09,0,.1-.28.39-.62.53-1.11.35Zm-.05-8.16c-.07-.22.08-.53.13-.79.24.11.48.24.7.37.05.02.07.11.1.17.67,1.38,1.36,2.75,1.98,4.15.18.41.13.95.18,1.49-.37.29-.65.62-.92.65-.18.02-.41-.37-.52-.63-.17-.37-.25-.81-.38-1.22-.42-1.39-.86-2.77-1.26-4.18Zm.25-3.88l.1-.13c.6.23,1.07.59,1.21,1.3-.05.05-.11.11-.17.18-.38-.46-.76-.89-1.14-1.35Zm.08-2.05c-.1-.26-.2-.62-.08-.79.47-.66.36-1.06-.2-1.38-.07-.05-.11-.17-.17-.26.02-.06.05-.11.08-.19.23.11.65.18.68.35.14.73.29,1.52-.32,2.26Zm.19-4.52l-.24-.13c.07-.29.07-.61.19-.85.32-.63,1.72-2.35,2.09-2.95.47-.75.94-1.51,1.47-2.22.12-.15.53-.21.75-.13.19.08.4.41.41.63.04.24-.07.52-.22.71-.75.88-1.53,1.72-2.28,2.58-.38.41-1.8,1.96-2.17,2.38Zm6-9.13c.17-.29.35-.61.52-.91.04.02.08.05.13.08-.04.37-.25.62-.49.85-.02.04-.07.07-.1.11-.03-.03-.07-.05-.09-.05l.04-.07Zm-.19-.18s-.09-.04-.14-.06c.15-.29.31-.59.46-.87.04.01.07.03.1.05l-.41.88Zm4.83,9.63c.06-.08.14-.17.21-.25.38.17.75.31.83.79-.06.08-.12.16-.19.23-.29-.26-.58-.52-.85-.77Zm.58,2.45c.11.16.13.38.18.57-.2.09-.41.25-.62.25-1.93.01-3.87.01-5.81-.02-.4,0-.79-.08-1.2-.12,0-.11-.02-.22-.02-.31.28-.14.55-.32.84-.38,1.48-.31,2.97-.58,4.46-.89.96-.21,1.66.13,2.16.91Zm.04-3.65c-.11.15-.44.28-.62.22-.45-.14-.52-.67-.14-1.48.06-.04.28-.23.46-.2.32.03.56,1.11.3,1.47Zm-1.79-2.96s.02-.01.04-.01v-.13l.11-.13c.22.14.44.25.64.38h0s.01,0,.02.02c.02.01.05.03.08.05.1.07.26.16.4.23-.52.22-1.02.05-1.3-.41Zm.23,1.63c-.19-.39-.32-.67-.52-1.11.8.19.85.34.52,1.11Zm1.44-1.61s0,.02-.02.04c-.21.3-.41.04-.59-.07-.37-.19-.74-.38-1.1-.61h0c-.47-.28-.92-.59-1.38-.91-.08-.07-.08-.22-.12-.34.11-.02.25-.11.35-.09.26.07.5.16.74.25h.01c.05.02.11.04.17.06.35.13.73.24,1.08.4h.01c.29.11.55.26.83.41.15.31.2.6.02.86Zm-4.95-3.64c-.08-.08-.04-.32-.06-.48.44.32.39.79.37,1.23,0,.1-.23.19-.35.29-.02-.03-.04-.05-.05-.07.02-.05.02-.14.07-.18.28-.25.34-.49.02-.79Zm.14,1.2s1.5-.87,1.19-.16l-.35,1.02-.61.34c-.05,0-.38-.31-.44-.31-.02-.04-1.03.17-1.05.11-.07-.14.44-.66.46-.79.02-.13.65-.1.8-.22Zm.55-1.57l-.04-.09c.28-.26.61-.44,1-.34,0,.04.02.08.04.13-.34.1-.67.2-1,.31Zm1.02.04s.01.09.02.14l-.95.17s0-.08-.02-.12c.32-.07.64-.14.95-.2Zm-.91.7c.3-.09.61-.26.96-.02-.35.31-.66.11-.96.02Zm2.18,3.08c-.55.18-1.14-.34-1.24-1.09.43.03,1.17.68,1.24,1.09Zm-1.41-4.89c-.31.34-.8.57-1.29.58.28-.22.52-.44.77-.64.25-.2.51-.39.83-.52-.05.21-.15.41-.32.59Zm-.93-.12c-.16.14-.33.27-.5.41.05-.16.13-.31.2-.44.32-.53.84-.88,1.32-.79-.36.29-.7.55-1.03.81Zm-.78,1.78c-.33.02-.55.02-.77.04-.02-.05-.03-.11-.05-.16.19-.11.37-.23.57-.29.04,0,.13.22.25.41Zm-.95-.29s-.08-.07-.11-.09c.06-.22.13-.44.19-.66.04-.02.08-.04.11-.05.08.11.26.29.23.35-.11.17-.28.29-.42.46Zm.07.61h.74s.05.07.07.11c-.14.14-.77.69-.91.69s-.29-.25-.44-.37c.02-.05.53-.4.55-.44Zm-2.37,4.5c.1-.06.17-.22.22-.35.22-.69,2.45-2.28,3.04-2.14-.09.77-4.94,5.27-5.78,5.81-.07-.5,2.04-2.98,2.53-3.32Zm.14,1.28s.02-.04.04-.05c1.3-1.17,2.6-2.34,3.9-3.51.26-.23.49-.27.65-.11,0,0,.01,0,.02,0,.05.07.1.14.14.24,0,.03.02.05.02.07.1.33.08.72.12,1.09-.39.38-.65.72-.98.94-1.14.75-2.29,1.45-3.44,2.18-.32.22-2.73,2.34-2.97,1.9-.19-.35,2.31-2.39,2.5-2.74Zm-1.74,4.74c0-.08.01-.17.01-.26.54-.02,1.08-.04,1.62-.07-.01.08-.01.16-.02.23l-1.62.09Zm1.59.49c-.02.1-.03.17-.04.28-.58.26-1.1.16-1.6-.02-.08-.02-.16-.07-.24-.09.02-.07.02-.13.04-.19h.11c.57,0,1.15,0,1.72.02Zm-1.71-1.37c.52-.26,1-.79,1.68-.4-.58.56-1.12.49-1.68.4Zm.26,2.26c1.01.04,1.87.57,2.07,1.44-.68-.33-1.3-.62-1.92-.94-.31-.14-.62-.29-.94-.46.26-.04.53-.06.8-.04Zm.05-3.06c.24-.3,1.54-1.35,1.64-1.4,1.36-.88,2.69-1.77,4.07-2.63.71-.43,1.44-.43,2.07.02.18.13.35.42.33.62-.04.21-.29.49-.5.58-.55.27-1.14.44-1.71.66-1.11.4-2.2.83-3.32,1.18-.37.13-2.01.95-2.58.97Zm2.87-.55c1.72-.68,3.45-1.33,5.18-1.95.25-.09.65-.08.78.07.14.17.04.55.06,1.02-.46.29-.89.73-1.36.85-1.5.39-3,.7-4.51.98-.31.05-.65-.17-.97-.28.27-.22.52-.58.82-.68Zm-.73,3.08c.37-.13.75-.33,1.12-.35.91-.07,1.84-.07,2.75-.06,1.17.02,2.34.02,3.48.13.26.02.56.43.6.71.02.23-.25.67-.49.83-.26.18-.67.25-.97.22-1.46-.23-2.91-.51-4.35-.77l-2.16-.4.02-.32Zm7.53-2.61c.78-.38,1.13-.14,1.04.68-.4-.26-.73-.47-1.04-.68Zm1.27,3.45c.19.41.39.84.59,1.25-.05.05-.13.07-.19.13-.52-.17-.61-.66-.62-1.2.07-.05.14-.13.22-.18Zm.49-4.98c0,.07,0,.14,0,.22-.13.01-.31.1-.4.04-.32-.25-.61-.53-.92-.79l.16-.24c.35-.04.65.05.88.25h.01c.09.07.16.15.23.26.05.06.05.15.05.25h0Zm-1.7-5.48s-.06.01-.1.01c-.14,0-.31-.03-.47-.1-.65-.25-1.31-.5-1.96-.75-.17-.05-.34-.13-.51-.18,0-.06,0-.13.01-.19.23-.04.47-.09.71-.11.13-.02.26,0,.39.02.82.09,1.65.17,2.47.28.11.02.29.14.31.25.02.13-.05.32-.15.41-.22.23-.46.34-.71.35Zm-2.88-3.39c.06-.04.12-.11.19-.13.07-.03.13-.07.19-.08.8-.36,1.61-.73,2.42-1.09.07-.05.16-.07.23-.11.24-.11.48-.24.74-.3.35-.09.64.1.7.36.05.35-.06.54-.47.65-.61.17-1.23.33-1.84.5l-.11.19-.43-.04c-.32.08-.64.16-.95.23-.2.07-.43,0-.65-.02,0-.05,0-.1,0-.15Zm4.06-2.71c-.16.3-.35.64-.63.79-.13.06-.26.13-.39.2-.74.36-1.51.69-2.28,1.03-.19.08-.4.07-.61.11.05-.26.08-.54.16-.79.03-.11.16-.19.26-.27.46-.37.94-.74,1.4-1.12.35-.28.7-.56,1.05-.84.22-.17.42-.35.66-.47.13-.06.37-.06.46.03.05.04.09.14.11.24.01.08.01.17.01.24-.04.29-.08.59-.22.85Zm-.06-2.65s-.11.03-.17,0c-.23-.12-.38-.64-.2-.84.08-.11.3-.19.41-.14.22.08.2.82-.04.98Zm-.46.94c-.09.13-.2.26-.32.35-.46.38-.92.74-1.36,1.1h-.01c-.46.37-.92.76-1.4,1.12-.15.11-.31.22-.48.25-.19.02-.39-.05-.59-.08.07-.18.1-.4.2-.53.61-.81,1.21-1.62,1.86-2.39.19-.23.48-.44.74-.49.37-.07.77-.03,1.15.04.32.05.41.35.21.63Zm-1.89-1.84c.26,0,.52-.02.79-.04v.14c-.23.24-.5.17-.77.06,0-.04-.02-.11-.02-.16Zm.26-.35c.2-.37.46-.53.85-.51-.08.49-.2.55-.85.51Zm-.5-.35c.04-.55.41-.95.83-.88-.14.61-.42.9-.83.88Zm.07,1.52c.01.19-.07.41-.17.57-.55.73-1.11,1.44-1.65,2.15l-.83,1.05-.15-.08c.04-.23.05-.48.15-.69.24-.5.5-.98.77-1.48.35-.61.7-1.23,1.08-1.83.09-.13.37-.2.52-.15.13.04.26.29.28.45Zm-.85-2.07c.09.08.06.31.07.46-.04.04-.07.06-.11.1-.12-.06-.27-.11-.34-.2-.07-.09-.04-.26-.05-.4.16.02.35-.02.44.05Zm-.72-.2c.2-.37.46-.53.85-.5-.09.47-.21.54-.85.5Zm.53,1.51c-.02.13,0,.28-.07.38-.56,1.04-1.13,2.07-1.7,3.1-.13.2-.26.4-.41.61-.05-.03-.11-.05-.16-.07.02-.17.01-.36.06-.53.28-.86.58-1.72.86-2.58.18-.55.55-.85,1.08-.94.12-.02.23.02.34.04Zm-1.71-.28c-.03-.07-.04-.13-.06-.18.19-.16.37-.33.63-.26.02.05.04.1.05.16-.2.1-.42.19-.62.29Zm-.03.22c.01.32.1.64.02.92-.24.88-.52,1.76-.83,2.63-.06.18-.28.3-.41.44-.04-.19-.14-.4-.11-.59.17-1.08.35-2.14.56-3.21.03-.16.14-.37.26-.4.12-.04.29.11.52.2Zm-1.3,4.44c.11.43-.33.7-.55.97,0-.34-.86-1,.55-.97Zm-.79,1.37c.4.1.83.2,1.03.7-.16,0-.37-.04-.42-.14-.18-.4-.41-.43-.74-.2-.04.02-.11.01-.17.02-.03-.02-.05-.05-.07-.08.13-.1.28-.31.37-.29Zm-.02.59s.04.07.07.12c-.07.24-.14.48-.2.72-.05.02-.11.02-.16.04-.07-.2-.22-.42-.18-.57.05-.14.31-.2.47-.31Zm-.85-.17c-.14-.01-.29-.24-.43-.37.02-.05.05-.11.08-.15.24,0,.48.02.72.05.02.04.04.07.05.11-.14.12-.29.36-.43.36Zm0-.88c-.28-.08-.65-1.68-.68-2.02,0-.06-.05-.13-.11-.19-.28-.28-.23-.55,0-.83.37.23.9,2.64.79,3.04Zm-.82.82c.55.88-.92,2.59-1.53,3.51-.59.9-17.23,13.92-18.36,14.8.31-.34-.46-1.42-.46-1.42l17.59-16.13s2.22-1.64,2.77-.76Zm-20.11,19.09s11.9-9.47,12.2-9.56c.31-.09,4.28.38,1.74,2.11-2.53,1.72-13.42,7.79-13.42,7.79,0,0-.56.15-.77.04s.25-.38.25-.38Zm1.45,1.08s9.94-3.95,10.13-4.04c.18-.09.66.04.89.68.23.65-.26,1.33-.45,1.55-.19.22-10.55,2.88-10.8,2.63-.26-.25.23-.82.23-.82Zm9.3-.89c.19-.08,1.09-.4.9,0-.19.4-.27,2.2-.38,2.37-.1.18-7.41.79-7.58.58-.17-.2-.53-1.15-.53-1.15,0,0,7.4-1.72,7.59-1.81Zm-7.01,3.3s7.46-.56,7.54-.53c.08.03.24.83.32,1.06.08.22-.2.91-.47,1.37-.27.47-7.15-.92-7.33-.97-.19-.04-.05-.93-.05-.93Zm6.91,2.41c.08.16-1.28,1.64-1.92,1.78-.64.14-1.44-.89-1.77-1.09-.33-.2-2.47-.71-2.61-.94-.13-.22.35-.73.35-.73,0,0,5.86.82,5.95.97Zm-2.08,2.59c.39-.07,1.54-1.17,1.6-1.36.07-.19-.39,1.69-.91,1.99-.51.31-2.22.44-2.22.44,0,0,1.14-1,1.52-1.08Zm.56,1.27c0,.4-2.59.88-2.59,1.29-.06.04-.1.77-.17.8-.25-.18-.67-.33-.7-.56-.02-.23.35-.56.55-.85.1.02,2.82-.69,2.91-.67Zm-3.43,4.05c.66-.46.68-.86.22-1.31-.05-.07-.05-.19-.08-.28.04-.05.09-.11.13-.15.2.16.58.33.56.5-.08.7-.17,1.46-1,1.99-.01-.27-.01-.62.17-.75Zm-.17-3.45c-.2.15-.32.71-.22.88,0,0-.85.1-.72-.08.13-.17-.31-.86-.09-.77.23.09,1.22-.19,1.03-.04Zm-.61,1.75c.24.02.4.43.61.67-.06.04-.11.11-.17.16-.44-.02-.88-.03-1.32-.05-.02-.09-.06-.17-.09-.25.33-.2.7-.55.98-.53Zm-.91,1.47c.04-.07.08-.14.12-.22.4.02.79.03,1.18.05.04.04.08.11.13.17-.2.18-.47.54-.56.52-.32-.1-.58-.34-.86-.52Zm.33,1.12c0,.05-.37.32-.69.58-.08-.53-.14-.91-.2-1.27.09-.04.18-.09.27-.13.22.26.46.52.62.83Zm1.28.85c.43.38.86.7,1.27,1.03.4.33.76.68,1.06,1.17-.37.02-.74-.09-1.08-.29-.64-.36-1.14-1.08-1.25-1.9Zm3.59-.08c.41,0,.83-.1,1.2-.01.92.19,1.84.43,2.73.68,1.14.32,2.28.64,3.38,1.05.24.09.41.53.37.81-.05.22-.45.55-.74.63-.32.1-.73.05-1.02-.06-1.36-.6-2.7-1.25-4.05-1.87l-1.99-.94.12-.29Zm7.26,7.38c-.01-.06-.06-.19-.02-.28.15-.42,1.03-.88,1.41-.68.2.1.38.42.33.62-.11.4-1.39.67-1.72.34Zm1.18,1.42c-.26.03-.52.08-.78.07-.14,0-.25-.11-.52-.26.02-.15.05-.53.11-.55.32-.07.73-.15.96-.02.19.11.16.49.23.76Zm-.28-9.17c.89-.14,1.15.17.82.89-.31-.34-.57-.61-.82-.89Zm.07-1.47c.09-.07.19-.13.29-.18.31.26.63.49.57.95-.09.04-.18.11-.26.15-.21-.3-.41-.62-.61-.92Zm1.35,4.27c.96-.16,1.72.28,1.66,1.02-1.09.02-1.65-.32-1.66-1.02Zm.78-1.54c-.11.18-.5.22-.77.31-.05-.05-.13-.1-.19-.16.09-.23.13-.49.29-.65.14-.15.44-.17.67-.25.01.26.14.57,0,.74Zm-1.15-3.68c-.16.11-.53.13-.68.04-.4-.25-.31-.75.3-1.4.03,0,.07-.02.11-.02.12-.04.29-.09.41-.04.02,0,.04.02.05.04.23.22.13,1.15-.2,1.38Zm-.9-3.75c.86-.08,1.72.52,1.68,1.17-1,.4-1.81-.15-1.68-1.17Zm1.25-1.29c.07-.07.13-.13.2-.21.35.34.7.68,1.05,1.02l-.26.28c-.35-.34-.86-.52-1-1.08Zm.83-1.75c.38.08.76.16,1.15.24-.04.13-.07.23-.09.36l-1.17-.19c.04-.14.07-.28.11-.41Zm-2.44-10.78c.52.26,1.03.44,1.5.68.49.22.94.49,1.36.88-.35.12-.73.11-1.1,0-.72-.19-1.4-.77-1.77-1.56Zm9.93,4.23c-.87-.4-1.73-.82-2.59-1.23h0c-.88-.43-1.76-.84-2.64-1.29-.26-.14-.55-.3-.71-.55-.16-.28-.19-.69-.28-1.03.31-.05.65-.19.94-.14,1.64.26,3.26.53,4.86.88.46.11.98.38,1.25.77.35.53.56,1.23.74,1.89.15.56-.22.97-.8.91-.26-.02-.52-.1-.76-.21Zm.99,2.51c.06-.02.28-.23.46-.2.32.04.56,1.11.31,1.46-.11.16-.45.27-.62.22-.46-.13-.53-.67-.15-1.48Zm.83-4.62c-.03-.08.2-.4.28-.4.22.01.62.08.62.19.02.35-.11.71-.19,1.08-.07,0-.15.02-.24.04-.16-.31-.35-.59-.48-.9Zm1.66.86c.2.05.48.33.5.55.03.43-1.09,1.05-1.5.81-.03-.05-.12-.17-.11-.28,0-.47.7-1.17,1.11-1.08Zm-.79,2.04c.28-.17.64-.36.88-.29.22.05.31.46.46.71-.23.1-.47.22-.71.29-.13.03-.27-.07-.57-.13-.02-.16-.11-.55-.07-.59Zm.22-5.14c.7,0,1.14.28,1.36.92-.77.28-.96.14-1.36-.92Zm3.29,3.23c-.81.68-1.74.34-1.93-.7.79-.32,1.78.05,1.93.7Zm-1.33,1.47c.35-.39,1-.1,1.36.61-.68.62-1.29.73-1.48.26-.09-.25-.05-.71.11-.88Zm.9-4.77c-.24-.27-.29-.73-.48-1.25.38.02.72-.09.93,0,.12.05.19.17.21.38.04.4-.51,1.04-.66.86Zm.67-2.02c0,.07,0,.14,0,.23-.47.04-.91.1-1.47.17.5-.8.88-.86,1.48-.4Zm-2.07-3.17c.25-.06.47.1.65.51v.02c.07.11.13.26.18.48.04.11.04.29.04.47v.43c-.1.02-.22.2-.28.07-.25-.47-.46-1.01-.71-1.53l.12-.46Zm.14,1.96c-.77.28-.96.14-1.35-.93.7,0,1.13.27,1.35.93Zm-.89-3.36c.22.34,0,1.15-.22,1.05-.34-.14-.59-.54-.98-.93.37-.14.62-.38.85-.38.13-.01.25.07.35.26Zm-1.17-1.09c.2.05.3.46.45.7-.23.1-.46.23-.71.29-.13.04-.27-.05-.56-.13-.02-.16-.11-.55-.06-.58.26-.17.63-.36.88-.29Zm-.71-1.65s-.09.02-.13.02c-.04,0-.13-.15-.12-.19.05-.09.1-.18.16-.27.04-.07.09-.14.13-.22.15.2.24.35.39.55-.16.04-.29.09-.43.11Zm.06-.88c.08-.25.14-.44.22-.68.25.37.2.53-.22.68Zm.4-1.71c-.05.11-.31.14-.46.14-.25,0-.47-.05-.73-.08-.8-.09-1.62-.17-2.42-.28-.13-.02-.24-.17-.36-.26.13-.1.25-.19.38-.28.03-.03.07-.02.11-.02.88-.05,1.76-.1,2.63-.11.25,0,.5.15.79.24.02.27.11.5.05.64Zm-.74-1.2c-.81.05-1.62.11-2.42.15-.23.02-.46-.05-.69-.07-.01-.05-.01-.1-.02-.15.11-.06.19-.15.3-.19,1.23-.35,2.47-.7,3.71-1.03.23-.06.35.1.29.32-.14.49-.67.92-1.17.95Zm1.53-2.43s-.08-.04-.13-.05c-.04-.31,0-.59.25-.79.04.02.08.04.14.05-.09.26-.17.52-.26.79Zm.37,2.71c.04-.05.15-.04.23-.05,0,.09.04.2,0,.28-.11.28-.31.43-.59.44-.04-.04-.07-.07-.1-.11.16-.19.31-.38.47-.56Zm-.88-.52c.21-.2.38-.36.55-.52.08.49-.1.64-.55.52Zm.34-3.27s-.2-.14-.18-.19c.05-.2.14-.39.21-.58.04,0,.08,0,.13-.02.07.16.21.32.19.46-.02.13-.22.24-.35.33Zm.02,3.6c.05.05.1.09.15.13l-.43.58c-.06-.05-.11-.1-.18-.16.16-.19.31-.36.46-.55Zm-.4,3.62s0-.09,0-.13c.25-.24.33-.24.61.1-.24.01-.43.01-.61.03Zm.84-.46c-.29-.02-.51-.08-.58-.48-.02.02-.04.04-.06.06-.17-.22-.26-.42-.13-.66.02-.05.26-.05.28,0,.11.2.08.4-.09.6.24.04.44.05.66.08-.04.16-.05.27-.08.4Zm-.27-1.77s-.02-.1-.04-.15c.26-.11.53-.22.8-.33l.07.19c-.27.12-.51.34-.82.29Zm.77-2.07s-.22,0-.44-.01c.04-.24.05-.39.08-.55.14.03.35.01.4.1.07.11.02.32-.04.46Zm-.2-1.38c.11-.44.51-.66,1.01-.59-.04.41-.48.68-1.01.59Zm.94.35c-.34.34-.55.35-.85-.02.31-.05.57-.07.83-.1.01.04.01.08.02.13Zm-1.09-1.03c.13-.63.19-.67.67-.71-.12.5-.25.64-.67.71Zm.93,5.29c-.08.11-.17.22-.26.33-.04-.04-.1-.08-.15-.11l.53-.74h.01s-.14.52-.14.52Zm.28-1.03s0,.01,0,.04t-.01.01c-.05.06-.11.1-.13.1-.15-.07-.28-.2-.5-.38.23-.11.37-.24.48-.2.05,0,.11.07.15.14.02.02.02.04.03.04.04.11-.03.2-.01.26Zm-.39-1.2c-.08,0-.15-.07-.23-.13.05-.09.1-.24.17-.26.23-.04.46-.04.69-.06-.13.39-.35.47-.63.44Zm.59-.74c-.22.02-.45-.01-.67-.02-.01-.07-.02-.14-.02-.2.22-.04.44-.08.67-.1.07,0,.14.08.21.13-.07.08-.12.2-.19.2Zm.11-1.07s-.09-.03-.16-.07c.03-.11.03-.2.08-.24.15-.14.32-.23.48-.35.04.09.1.18.08.25-.06.25-.19.44-.48.41Zm.47-1.21c.07.37-.27.28-.44.38-.05-.03-.1-.05-.14-.07.05-.22.12-.46.18-.68.14.11.37.22.4.38Zm-.89-.87c-.1-.01-.23-.11-.26-.2-.02-.07.04-.24.11-.28.23-.14.49-.26.78-.4.04.62-.19.92-.62.88Zm.49-1.46s0,.28-.07.32c-.28.19-.59.33-.9.49-.02-.05-.06-.1-.08-.16.07-.34.28-.61.56-.76.12-.07.33.04.49.11Zm-.95-.75c0-.17.03-.48.11-.51.22-.08.48-.04.76-.04-.07.43-.22.67-.54.68-.11.02-.31-.08-.32-.13Zm.69-1.41c.08-.01.2.22.31.33-.02.05-.04.1-.05.14-.27.02-.53.03-.79.05-.02-.08-.04-.16-.06-.23.19-.1.38-.25.59-.29Zm-.77-.2c.02-.15.05-.29.08-.43.02-.07.07-.1.14-.19.04.03.06.07.1.09.16.16.28.29.08.51-.11.13-.28.17-.43.25.02-.08.02-.15.04-.22Zm-.27,2.38c.05.08,0,.3-.07.38-.2.22-.49.14-.77-.26,0-.04-.03-.21.03-.3.12-.16.71-.04.81.18Zm-.83-.6c.03-.13.05-.25.1-.47.08.01.15.01.21.01.16,0,.31,0,.46,0-.04.16-.05.44-.13.47-.14.04-.31.02-.47,0h-.11s-.03-.01-.05-.01Zm.75-2.43c.11.51,0,.85-.3.85-.14,0-.36-.14-.4-.26-.09-.27.26-.55.7-.59Zm-1,1.31c.09-.09.31-.05.48-.08-.02.15-.02.3-.06.44-.02.08-.11.13-.23.27-.08-.02-.3-.07-.3-.1,0-.17,0-.42.11-.53Zm-.04-1.77c.1.59-.34,1-.92.86.07-.49.55-.94.92-.86Zm-1.44.1c.1-.48.39-.61.96-.38-.22.25-.38.49-.57.68-.07.06-.25.08-.32.02-.07-.05-.1-.22-.07-.32Zm.31,1.83s-.04.08-.05.13c-.2.02-.4.06-.59.05-.05,0-.14-.19-.12-.25.07-.11.23-.31.28-.28.18.06.32.22.49.35Zm-1.11-2.98c.05-.05.13-.05.25-.02.2.06.35.5.23.55-.2.06-.46-.02-.76-.04.12-.2.17-.4.28-.5Zm-.32-.29s.07.04.11.06c-.11.26-.22.51-.34.82-.25-.44-.17-.66.23-.88Zm-.55.94s.07.04.11.06c-.11.25-.22.51-.35.82-.24-.44-.16-.67.24-.88Zm-1.18-.79h.01c.08,0,.17,0,.29.02.06,0,.15.04.24.08h0c.07.05.14.08.2.11-.02.05.04.16-.04.17-.3.02-.63.02-.95.02l-.19-.16c.04-.14.19-.23.43-.23Zm.03,2.06c-.24.15-.44.28-.64.4.04-.51.26-.64.64-.4Zm-.77-.84c-.03.07-.04.19-.1.22-.21.13-.43.22-.65.32l-.07-.13c.08-.2.2-.35.37-.42h.01c.06-.04.11-.05.2-.07h.02s.07.02.11.04c.04.01.07.04.11.05Zm-.84-.78c.04-.07.11-.12.23-.13.24-.04.57.26.46.35-.18.14-.44.19-.75.31.04-.23,0-.43.05-.54Zm-.64.25c.09-.1.31-.05.48-.08-.02.14-.02.29-.06.44-.02.08-.11.13-.23.28-.08-.03-.3-.07-.3-.1,0-.19.01-.41.11-.53Zm-.46.86c.11-.17.71-.04.81.17.05.09,0,.31-.07.38-.19.22-.48.13-.77-.26.01-.04-.02-.21.04-.29Zm0,.98c.09.07.15.26.13.4-.02.35-.1.7-.17,1.05-.13.69-.23,1.36-.38,2.04-.05.23-.19.44-.35.74-.08-.2-.13-.26-.13-.34-.04-.92-.09-1.84-.11-2.76,0-.49.2-.88.61-1.11.12-.06.31-.1.4-.04Zm-.3-.28c-.25,0-.43.02-.7.02.33-.38.42-.37.7-.02Zm-.29-1.12c.1.59-.34,1-.92.86.07-.49.55-.94.92-.86Zm-1.47,1.66c.2.01.41.12.61.18.08.31.16.53.18.74.04.79.04,1.56.08,2.34,0,.23.09,1.5-.19,1.51-.11,0-.25-1.27-.37-1.45-.01,0-.01-.02-.02-.03-.2-.97-.39-1.93-.59-2.89-.06-.28.07-.41.29-.4Zm-.47.69c.09.31.14.64.2.95-.04.02-.62.58-.65.6-.23-.08-.27-.45-.47-.58-.09-.05.15-.35.13-.44-.03-.07-.01-.16.07-.25.02-.02.04-.05.07-.07.23-.07.27-.2.4-.28.06-.05.25,0,.26.07Zm-.15-.94c0,.1.02.2.04.29,0,.02.01.02.01.04.02.13-.24.15-.2.37.02.07-.35.17-.65.39l.79-1.09Zm-21.06,21.61l.81-.86,16.63-17.59,2.47-.99s.98.68,1.11,1.66-1.65,1.57-2.1,1.87c-.46.29-18.6,17.08-18.6,17.08l-.74-.74.42-.44Zm-2.22,23.17c-.02-.08-.05-.17-.08-.25-.06-.21-.14-.43-.22-.64-.27-.7-.58-1.41-.91-2.04-.16-.29-.29-.55-.42-.76.64-.41,1.2-.94,1.64-1.55.74-1.02,1.18-2.25,1.18-3.57,0-.72-.13-1.19-.36-1.65-.61-1.22-.61-3.26,0-4.49.23-.46.36-.92.36-1.65,0-1.56-.6-2.98-1.59-4.07l1.73-1.66.22-.2.07-.07s.02.03.03.04c.37.54.82,1.14,1.12,1.48.65.74-.05,1.48-.46,1.84-.43.37-.67,1.03.05.77.73-.25,1.92.03,1.77.5-.14.46.29.83-.86,1.38-1.17.53-1.87,1.86-1.29,2.1.59.23.85-.34,1.38-1.12.53-.76,2.6-.55,2.89-1.22.16-.37.37.79.28,1.96.69.04,1.3.19,1.08.25-.44.13-.42,1.26-.95,1.5-.52.25-.91.36-.79.69.13.33,1.03.02,1.43-.57.41-.61.62-.36.93-.4.31-.05.42.59.22.98-.2.38.25.29.49.08.26-.21.79-.55,1.22-.16.33.3,1.08.83,1.42,1.08.05.03.09.05.13.07-.02.02-.04.03-.08.05-.37.2-1.18.68-1.54.96-.49.37-.97-.02-1.2-.24-.23-.22-.65-.35-.5.04.16.4-.02,1.05-.33.95-.29-.07-.54.17-.88-.46-.34-.62-1.2-1-1.35-.68-.16.33.21.46.71.75.49.28.34,1.4.77,1.56.2.07-.29.16-.89.17-.03,1.21-.4,2.47-.52,2.08-.22-.68-2.29-.62-2.74-1.44-.44-.8-.62-1.38-1.24-1.2-.61.2-.06,1.57,1.03,2.19,1.1.61.62.96.71,1.43.1.49-1.11.67-1.82.37-.7-.3-.52.37-.15.76.38.4.99,1.2.26,1.89-.52.48-1.41,1.51-1.9,2.1-.02.02-.04.04-.05.06Zm6.37-4.35c-.07.05-.13.11-.2.16-.16-.12-.41-.22-.57-.34-.1-.06-.16-.12-.17-.21-.02-.26.35-.6.55-.88.04,0,.07,0,.1,0,.05.01.09.02.14.03l.15,1.24Zm-1.53-.36s-.6-.64-.56-.77c.04-.13-.22-.91-.25-1.01.07.02.46.14.8.11.38-.04.46.48.44.76-.03.28-.48.88-.44.92Zm.43,1.33c-.04.05-.09.11-.13.17h-.11l-1.26.05c-.02-.07-.05-.14-.08-.22.31-.2.64-.55.92-.58.19-.02.36.24.55.46.04.04.07.09.11.13Zm-1.61-.95c-.27.32-.17.68-.44.77-.26.08-1.09-.77-1.09-.77h1.53Zm-2.91,6.73c-.02-.07-.04-.14-.06-.22-.12-.43-.3-1.03-.52-1.69.4-.47,1.44-1.59,1.44-1.59,0,0,.07.22.13.41.05.15-.68,2.23-.99,3.09Zm.38,2.25c-.41-.83,1.27-7.06,2.56-7.55.04.73-1.85,7.26-2.56,7.55Zm.77.94c-.57-.22-.15-.65-.02-1,.28-.7.53-1.42.85-2.1.41-.89.79-4.32,1.27-5.19.08-.15.35-.23.55-.34.07.17.31,2.89.29,3.08-.08.55-.23,1.11-.36,1.66-.16.65-.28,1.3-.48,1.95-.15.53-.37,1.05-.56,1.56-.55.4-1.06.57-1.54.37Zm2.06.9c.45.04.79.07,1.23.09-.62.56-.88.55-1.23-.09Zm1.44.84c.09.02.13.42.06.47-.38.29-.77.31-1.18.03.33-.38.68-.62,1.12-.5Zm-2.53,1.51c-.07-.39-.12-.7-.17-1,.08-.01.16-.04.23-.05.47.32.49.46-.06,1.05Zm-.19-1.42c-.13-.33-.26-.6-.32-.88-.01-.05.23-.29.3-.27.31.05.59.17.92.28-.34.32-.56.53-.89.88Zm.98,1.65c-.01-.49.04-.89.73-1.16,0,.41-.02.74-.02,1.12-.29.02-.48.04-.7.04Zm2.18,1.54c-.02.08-.94,0-.94,0-.21-.09-.41-.19-.64-.29.07-.1.13-.2.19-.31l1.39.59h-.01Zm.37-5.11c0,.21-.2.56-.38.63-.22.09-.58.04-.76-.09-.71-.46-.92-1.15-.7-2.01.31-1.2.63-2.38.94-3.57.07-.3.07-3.05.13-3.34.11-.03.22-.05.34-.07.12.38.32,3.2.41,3.57.05.21.04.44.04.66,0,1.41.02,2.81-.01,4.21Zm-.1-8.8c-.19.04-.38-.3-.59-.46.04-.04.07-.09.11-.13.11.02.24,0,.32.05.49.36.89.36,1.37-.27.13-.18.55-.2.82-.3-.49.85-1.3.98-2.04,1.11Zm1.17,13.79s-.06.04-.08.06c-.2.11-.36.04-.44.08-.02.01-.03.01-.07,0t-.02,0c-.11-.07-.2-.14-.19-.18.1-.28.3-.54.56-.98.23.34.49.52.46.71-.02.08-.11.2-.22.31Zm.04-1.35c-.24-.41-.68-.7-.64-1.26.08-.04.17-.09.27-.14.23.41.46.81.71,1.21l-.34.19Zm1.18-.67c-.51-.08-.82-.35-.89-.82.05-.07.11-.14.16-.2.37.17.74.34,1.08.54.1.05.09.23.13.35-.16.05-.35.16-.48.13Zm.26,1.03c0-.14.12-.29.18-.43.17.04.44.06.48.17.13.35.18.74.24,1.11-.69-.04-.88-.39-.9-.85Zm.81-3.19c.38.26.69.48,1,.7-.83.35-1.14.11-1-.7Zm.97,4.11c-.14-.07-.35-.13-.38-.23-.06-.38-.07-.76-.08-1.14.11-.05.24-.08.35-.11.11.35.22.7.29,1.08.02.11-.11.27-.19.4Zm.69-2.22c-.19.15-.55.16-.81.11-.08-.02-.05-.38-.08-.74.44-.03.7-.07.98-.09-.02.25.05.61-.09.71Zm-.4-1.93c-.88-.05-1.71-.74-1.86-1.56-.25-1.32-.52-2.62-.73-3.95-.07-.38-.02-.79-.01-1.2.08-.02.16-.04.24-.08.14.15.31.26.38.43.84,1.9,1.68,3.83,2.5,5.75.15.34-.11.62-.52.6Zm.83-1.1c-.41-.94-.82-1.9-1.21-2.85l-.36-.11v-.75c-.2-.48-.4-.98-.59-1.46-.13-.32-.05-.72-.07-1.09.09-.04.17-.06.25-.08.09.09.2.17.28.28.05.09.12.17.18.26.79,1.19,1.58,2.38,2.36,3.59.07.1.15.22.22.34.23.35.52.7.67,1.1.22.55-.05,1.11-.52,1.3-.58.25-.93.12-1.2-.52Zm.56,2.54c.12.5.22.92.33,1.33-.07.03-.14.05-.22.08-.67-.41-.73-.74-.11-1.41Zm.62,2.84c-.46,0-.8-.15-.8-.63,0-.08.04-.16.08-.29.2.01.38-.02.45.04.25.2.45.44.68.67-.14.08-.29.23-.41.22Zm1.38-.33c-.62.27-.53-.32-.74-.58.04-.1.07-.18.1-.28.41.01.82.01,1.24.02-.19.28-.32.71-.59.83Zm-.32-3.34c1.12-.02,1.21.04,1.36.83-.9.01-1.17-.15-1.36-.83Zm1.41-1.35s.19-.37.28-.38c.35,0,.7.07,1.05.13.02.06.04.13.04.22-.25.17-.51.48-.74.49-.24.01-.46-.26-.63-.44Zm.25,2.83c0-.17.13-.42.29-.52.11-.07.43-.04.52.06.3.33.54.71.85,1.14-1.07.31-1.64.05-1.65-.68Zm2.63.22s-.48.11-.57.02c-.37-.41-.68-.86-1.02-1.3l.23-.2c.62-.02,1.12.21,1.45.62.13.17-.02.56-.1.85Zm-.17-5.67c-.25-.09-.49-.23-.69-.4-.73-.58-1.44-1.21-2.16-1.81h0c-.73-.63-1.48-1.24-2.2-1.88-.21-.2-.45-.44-.52-.71-.07-.29.02-.67.04-1,.33.02.69,0,.96.11,1.53.68,3.04,1.36,4.51,2.11.41.22.83.61.98,1.04.19.58.18,1.27.15,1.92-.02.56-.52.83-1.06.62Zm.89,2.95c-.11-.22-.1-.5-.11-.77,0-.07,0-.14,0-.2,0-.02,0-.04,0-.07.23,0,.45,0,.83-.02.01.13.02.25.03.35.02.27.04.52.06.76-.28,0-.76.09-.81-.04Zm.22,1.43c-.04-.18.08-.55.18-.59.29-.08.83-.15.9-.04.17.34.16.79.23,1.24-.77.07-1.2-.1-1.31-.61Zm2.24.61c-.09,0-.18,0-.26-.02-.08-.42-.14-.86-.23-1.29.13-.05.26-.13.37-.19.23.28.53.53.64.86.04.13-.34.43-.52.63Zm1.72-1.7c-.23.34-.46.61-.88.35-.23-.15-.34-.43-.52-.63.14-.01.27-.02.4-.03.27-.02.52-.02.77-.04.11,0,.19.07.35.14-.04.07-.1.13-.13.2Zm-1.01-4.22c.86-.08,1.72.53,1.68,1.17-1,.41-1.81-.15-1.68-1.17Zm2.07.26c-.48-.25-.91-.44-1.27-.68-.12-.09-.19-.38-.11-.5.08-.14.37-.26.55-.27.83-.02,1.12.42.83,1.45Zm1.11-2.83c-.08.38-.82.81-.91.61-.16-.3-.07-.74-.08-1.27.37.13.73.12.91.26.1.07.13.2.08.4Zm.37-1.05c-.04.07-.05.13-.08.2-.47-.09-.94-.15-1.5-.24.73-.58,1.12-.54,1.57.04Zm-1.07-3.45c.26,0,.43.21.49.63v.02c.02.13.04.29.02.49,0,.11-.05.26-.11.44h0c-.04.15-.09.26-.13.39-.1,0-.28.11-.31,0-.09-.49-.14-1.03-.21-1.58l.25-.39Zm-.58-1.83c.13.04.22.13.26.34.11.37-.35,1.06-.53.9-.28-.22-.41-.65-.67-1.11.4-.03.72-.18.94-.13Zm-.55-.97c.19.11.17.5.24.77-.26.02-.53.09-.79.08-.14,0-.25-.12-.52-.26.03-.16.05-.53.12-.55.32-.08.73-.16.94-.03Zm0-1.59s-.05.05-.07.09c-.05.05-.1.08-.16.11-.1.04-.19.04-.22.09-.02,0-.03,0-.07,0h-.02c-.13-.04-.24-.09-.24-.13.01-.31.11-.61.22-1.12.14.11.28.2.4.28.14.11.24.19.26.3.01.1-.04.23-.11.38Zm.5-2.35c-.49.05-.88-.13-1.08-.58.03-.09.05-.17.08-.26.39.08.79.16,1.18.26.1.02.15.2.23.32-.14.1-.28.25-.42.26Zm.34-2.46c.44.17.8.29,1.16.43-.67.56-1.02.41-1.16-.43Zm.24,3.42c-.04-.13.01-.32.03-.48.17,0,.43-.07.5.04.23.32.4.7.57,1.06-.67.13-.94-.16-1.11-.62Zm1.95.44c-.15-.04-.37-.02-.42-.13-.18-.36-.3-.74-.44-1.12.1-.07.2-.14.3-.2.2.32.43.65.62,1,.05.1-.04.29-.05.46Zm-.58-5.57c-.67-.84-1.35-1.69-2.01-2.53l-.37-.02-.22-.76c-.35-.43-.69-.86-1.03-1.3-.22-.28-.27-.71-.4-1.07.07-.06.14-.1.2-.16.12.08.25.12.35.21.08.07.17.14.25.22,1.11.97,2.21,1.95,3.32,2.94.11.08.21.19.32.28.33.29.7.57.97.92.37.49.29,1.13-.08,1.45-.47.4-.84.37-1.3-.19Zm1.32,2.38c.26.47.49.86.72,1.24-.05.05-.11.1-.18.16-.74-.25-.91-.57-.54-1.39Zm1.47,2.68c-.43.13-.8.06-.96-.41-.02-.08,0-.17,0-.33.17-.04.34-.13.41-.08.31.14.57.31.85.48-.1.13-.19.31-.3.34Zm1.18-.71c-.5.44-.61-.19-.87-.38v-.28c.38-.11.76-.22,1.16-.33-.09.34-.08.8-.29,1Zm.29-4.72c-.22.08-.51-.14-.73-.27-.04-.02.07-.44.15-.46.34-.1.68-.13,1.01-.17.04.06.07.13.11.2-.18.26-.33.62-.54.7Zm.38,2.5c-.05-.17,0-.46.12-.6.08-.11.38-.16.5-.09.38.26.73.57,1.14.91-.9.61-1.52.52-1.76-.22Zm2.01-.32c-.47-.3-.91-.67-1.35-1.02.05-.1.11-.2.16-.28.56-.19,1.12-.09,1.54.22.18.13.16.58.19.89,0,.02-.43.25-.53.17Zm.36-3.1c-.17-.2-.25-.48-.34-.76-.02-.07-.04-.13-.07-.2,0-.02-.02-.04-.02-.07.22-.07.42-.13.77-.26.04.13.09.24.13.36.12.26.2.5.29.73-.26.07-.68.31-.76.2Zm.65,1.37c-.09-.17-.1-.59-.02-.64.25-.17.74-.4.83-.29.27.29.38.75.6,1.18-.7.28-1.16.22-1.42-.26Zm2.29,0c-.09.02-.17.03-.25.05-.22-.4-.41-.82-.62-1.22.11-.1.2-.21.29-.29.3.21.65.39.85.68.08.11-.17.52-.28.78Zm1.07-2.17c-.11.4-.24.73-.71.58-.25-.08-.45-.32-.67-.48.13-.05.24-.09.37-.14.24-.09.47-.16.71-.24.1-.04.2.02.37.04-.02.09-.05.17-.07.25Z"/>
        <polygon class="cls-3" points="51.6 23.99 50.79 24.77 51.6 23.91 51.6 23.99"/>
        <polygon class="cls-1" points="51.6 23.99 50.79 24.77 51.6 23.91 51.6 23.99"/>
      </g>
      <path class="cls-3" d="m12.15,9.25s-.01.03-.01.05c.01-.02.02-.04.03-.07,0,0-.01.01-.02.02Z"/>
      <path class="cls-1" d="m14.31,3.8c-.01-.07-.04-.19-.06-.32.07.07.09.17.06.32Z"/>
      <path class="cls-1" d="m11.57,10.09s0,.02,0,.04l-.02-.02s.02-.01.02-.02Z"/>
      <path class="cls-1" d="m12.29,10.17s0,0-.02,0c-.04-.04-.08-.09-.11-.14,0-.02,0-.05.03-.08.05.13.1.22.1.22Z"/>
      <path class="cls-1" d="m21.54,9.89c.27.3.53.6.79.88-.27-.29-.49-.53-.66-.72-.05-.06-.1-.12-.13-.16Z"/>
      <path class="cls-3" d="m23.05,34.95s.02.04.02.06c.01-.02.02-.04.02-.04,0-.01-.02-.02-.04-.02Z"/>
      <polygon class="cls-3" points="35.69 24.77 34.88 23.99 34.88 23.91 35.69 24.77"/>
    </g>
  </g>
</svg>