<?xml version="1.0" encoding="UTF-8"?>
<svg id="Layer_2" data-name="Layer 2" xmlns="http://www.w3.org/2000/svg" viewBox="0 0 56.49 67.38">
  <defs>
    <style>
      .cls-1 {
        font-family: SuperiorTitle-Light, 'Superior Title';
        font-size: 9.64px;
        font-weight: 300;
      }

      .cls-2 {
        letter-spacing: .04em;
      }

      .cls-3 {
        letter-spacing: .02em;
      }

      .cls-4 {
        letter-spacing: .02em;
      }

      .cls-5 {
        letter-spacing: 0em;
      }
    </style>
  </defs>
  <g id="Layer_3" data-name="Layer 3">
    <g>
      <g>
        <path d="m53.57,37.5c0,6.87-12.24,17.13-22.94,18.19,1.71-.57,3.17-1.67,4.21-3.09,1.7-1.58,3.14-3.44,4.54-5.26,3.4-4.4,6.9-8.93,14.19-9.83Z"/>
        <path d="m19.1,48.33c.05.26.12.52.19.77-.66-.79-1.3-1.62-1.94-2.46-3.63-4.7-7.37-9.55-15.48-10.34-.7-2.41-1.87-4.88-1.87-7.52,0-2.15,1.04-4.31,1.52-6.32,6.7.57,15.33,16.54,17.79,21.6-.25.8-.38,1.66-.38,2.53,0,.59.06,1.17.17,1.73Z"/>
        <path d="m21.82,40.15s-.08.06-.11.09c-.69.65-1.29,1.41-1.75,2.25-.02.04-.04.08-.07.13-2.94-5.95-11.15-20.41-18.09-21.27,0-4.94,1.41-8.51,7.75-12.6,6.65,6.78,10.96,25.14,12.27,31.39Z"/>
        <path d="m25.06,55.68c-10.65-1.11-23.25-11.11-22.81-18.18,7.29.91,10.79,5.44,14.19,9.83,1.33,1.72,2.68,3.47,4.26,5,1.04,1.54,2.56,2.73,4.36,3.34Z"/>
        <path d="m34.83,2.49c-1.49,8.9-3.92,25.72-5.1,35.77-.13-.04-.28-.07-.42-.1-.57-.12-1.17-.19-1.78-.19-.46,0-.89.04-1.33.11-.91-9.9-2.72-26.3-3.96-35.9,2.08-1.37,4.35-2.18,6.29-2.18,2.39,0,4.62.87,6.29,2.49Z"/>
        <path d="m45.41,8c-6.91,7.14-11.2,25.42-12.52,31.83-.14-.11-.29-.22-.44-.33-.5-.34-1.03-.64-1.59-.87,1.17-9.92,3.62-26.93,5.08-35.84,4-.35,7.68,1.35,9.48,5.2Z"/>
        <path d="m24.99,38.36c-.05.02-.1.03-.15.05-.7.23-1.36.54-1.96.94-1.44-6.81-5.68-24.38-12.42-31.34,1.8-3.85,6.17-5.6,10.17-5.25,1.46,8.83,3.22,25.64,4.36,35.6Z"/>
        <path d="m54.01,21.35c-7.28.91-15.93,16.74-18.46,22.07-.11-.28-.24-.56-.38-.82-.35-.67-.79-1.29-1.3-1.84,1.14-5.58,5.52-24.98,12.39-32,5.65,1.32,8.77,6.34,7.75,12.59Z"/>
        <path d="m56.49,28.96c0,2.26-.7,4.48-2.54,7.35-8.1.79-11.85,5.63-15.47,10.33-.74.95-1.46,1.88-2.2,2.77.14-.61.21-1.24.21-1.88,0-.9-.14-1.76-.39-2.58,1.68-3.63,11.05-21.87,18.21-22.48,1.53,1.97,2.18,4.6,2.18,6.49Z"/>
      </g>
      <text class="cls-1" transform="translate(10.37 64.31)"><tspan class="cls-2" x="0" y="0">L</tspan><tspan class="cls-4" x="6.03" y="0">a </tspan><tspan class="cls-5" x="12.65" y="0">P</tspan><tspan class="cls-4" x="18.69" y="0">e</tspan><tspan class="cls-5" x="23.16" y="0">r</tspan><tspan class="cls-3" x="27.1" y="0">la</tspan></text>
    </g>
  </g>
</svg>