<?xml version="1.0" encoding="UTF-8"?>
<svg id="Layer_2" data-name="Layer 2" xmlns="http://www.w3.org/2000/svg" viewBox="0 0 845.23 230.47">
  <g id="Layer_1-2" data-name="Layer 1">
    <path d="m845.23,88.65c0,13.1-6.39,23.61-19.17,31.41-12.78,7.8-31.46,12.73-56.1,14.68,8.99,2.87,16.25,8.07,21.72,15.49,5.47,7.47,8.23,15.97,8.23,25.45,0,10.61-3.3,20.04-9.96,28.32s-16.19,14.73-28.59,19.44c-12.4,4.66-26.86,7.04-43.43,7.04-18.52,0-34.77-2.44-48.68-7.26-13.92-4.87-24.8-11.86-32.6-21.01-7.8-9.15-11.75-19.98-11.75-32.38s4.71-23.34,14.13-32.22,22.42-14.68,38.94-17.38c-11.32-1.41-20.74-5.69-28.32-12.67-2.92-2.71-5.31-5.63-7.09-8.66-5.63,5.58-10.72,11.81-15.27,18.85,3.14-8.07,7.91-15.38,13.81-21.66-.38-.87-.76-1.73-1.08-2.65-8.45,1.46-16.79,3.9-25.02,7.53,7.26-5.09,15.54-8.56,24.21-10.51-.38-1.68-.65-3.36-.76-5.14-9.86,1.3-19.55,3.95-29.19,8.18,8.66-6.07,18.74-9.86,29.19-11.43.11-2,.32-3.9.7-5.74l-6.77-53.5,52.69,20.85c6.77-1.14,14.13-1.68,22.15-1.68,11.05,0,20.69,1.14,28.97,3.36l33.63-15.92-4.22,39.75c.49,2,.7,4.06.7,6.28,0,8.61-2.92,15.38-8.77,20.2-5.85,4.87-13.97,7.26-24.42,7.26-9.15,0-16.62-2.06-22.36-6.17-5.74-4.12-8.61-9.42-8.61-15.92,0-5.58,2.11-9.96,6.34-13.21s10.13-4.93,17.65-5.14c1.08-1.25,1.62-2.6,1.62-4.06-.16-2.17-2.27-3.25-6.17-3.25-7.91,0-14.62,2.55-20.09,7.69s-8.23,11.37-8.23,18.74c0,8.99,4.06,16.03,12.13,21.17,8.07,5.14,19.22,7.69,33.41,7.69h8.34c2.17,0,3.25.92,3.25,2.71v5.42c0,.92-.22,1.46-.65,1.73-.43.27-1.3.49-2.55.65-16.35,2-29.84,7.47-40.45,16.46s-15.92,19.6-15.92,31.84c0,13.32,4.55,23.94,13.59,31.95s21.07,12.02,36.01,12.02c13.1,0,24.15-3.68,33.14-11.05,8.99-7.36,13.48-16.35,13.48-26.97,0-6.28-1.57-12.02-4.71-17.27-3.14-5.2-7.53-9.37-13.21-12.56-5.69-3.14-12.02-4.71-19.01-4.71-6.5,0-12.51,1.25-18.2,3.79-5.69,2.49-10.23,6.01-13.75,10.51s-5.25,9.53-5.25,15.11c0,6.28,2.27,11.75,6.88,16.3,4.6,4.6,9.86,6.88,15.76,6.88,4.33,0,6.5-1.35,6.5-4.06,0-.92-.16-1.73-.54-2.44-6.5-.32-11.48-1.95-14.95-4.87-3.52-2.87-5.25-6.71-5.25-11.59,0-6.12,2.65-11.21,7.96-15.22,5.31-4.06,12.08-6.07,20.36-6.07s15.11,2.44,20.47,7.26c5.42,4.87,8.07,11.05,8.07,18.63,0,8.45-3.57,15.54-10.78,21.28-7.2,5.74-16.19,8.61-26.97,8.61-11.86,0-21.61-3.19-29.24-9.58-7.64-6.39-11.48-14.62-11.48-24.69s3.84-18.84,11.48-26.26c7.64-7.47,18.3-12.62,31.95-15.49,7.74-1.41,15.97-2.71,24.8-3.79,22.64-2.71,39.15-6.99,49.5-12.78,10.34-5.85,15.49-13.7,15.49-23.61,0-6.66-2.27-12.24-6.77-16.84s-9.86-6.88-16.19-6.88c-4.49,0-6.77,1.25-6.77,3.79,0,.38.11.81.27,1.35s.38.97.54,1.35c6.28.16,11.21,1.9,14.68,5.14,3.52,3.25,5.25,7.53,5.25,12.94,0,5.74-2.38,10.45-7.15,14.13-4.77,3.68-10.83,5.52-18.2,5.52-8.07,0-14.68-2.22-19.82-6.71-5.14-4.49-7.69-10.23-7.69-17.27,0-8.99,3.52-16.25,10.51-21.82,7.04-5.58,16.19-8.34,27.51-8.34s19.49,3.09,26.16,9.31c6.71,6.23,10.02,14.35,10.02,24.42Zm-66.45-61.08c0-.7.16-1.3.54-1.68s.87-.65,1.46-.65c.49,0,1.03.11,1.57.38.6.27,1.25.54,2,.92.76.32,1.73.65,2.82.92s2.44.38,4.01.38c2.27,0,4.49-.43,6.55-1.3s3.63-2,4.66-3.41c.22-.27.32-.43.38-.49s.11-.05.22-.05h1.03c.27,0,.49.11.54.38.11.27.16.76.16,1.57,0,5.2-1.25,9.31-3.74,12.35-2.49,3.03-5.85,4.55-10.07,4.55-2.6,0-4.87-.43-6.82-1.3s-3.79-2.22-5.42-4.06c-.38,0-.6.16-.81.54-.16.38-.38,1.19-.6,2.38-.05.49-.16.87-.27,1.08s-.32.32-.65.32h-1.46c-.49,0-.7-.32-.7-.97v-11.7c0-1.9.27-3.36.76-4.39.54-1.03,1.35-1.79,2.6-2.33,1.19-.54,2.92-.92,5.09-1.14,3.03-.38,5.42-1.3,7.09-2.87,1.68-1.52,2.49-3.57,2.49-6.12,0-2.33-.76-4.22-2.33-5.74s-3.52-2.22-5.9-2.22c-.97,0-1.46.27-1.46.92,0,.32.11.6.38.81h.38c2.17,0,3.9.54,5.14,1.68,1.25,1.08,1.9,2.6,1.9,4.44,0,2.17-.81,3.9-2.38,5.25-1.62,1.35-3.68,2-6.28,2-2.76,0-4.98-.76-6.71-2.22-1.68-1.46-2.55-3.47-2.55-5.9,0-1.84.6-3.52,1.84-5.04s2.98-2.71,5.31-3.57c2.27-.87,4.93-1.3,7.96-1.3,3.47,0,6.5.49,9.1,1.52,2.6,1.03,4.55,2.49,5.96,4.44s2.11,4.22,2.11,6.88c0,2.38-.54,4.55-1.68,6.55-1.08,2-2.71,3.57-4.77,4.77s-4.39,1.79-7.04,1.79c-1.35,0-2.6-.16-3.74-.43s-2.17-.6-3.03-.97-1.68-.65-2.44-.97c-.7-.27-1.35-.43-1.9-.43-1.03,0-1.84.43-2.38,1.25s-.87,2-.87,3.52v5.85c.16.16.38.22.7.22.81,0,1.25-.43,1.25-1.25v-5.14h0ZM20.96,148.14c-11.98,0-13.41,2.99-15.1,9.76l-.65,2.6H1.43l1.17-18.22h57.67v2.86l-40.22,69.38h23.56c11.98,0,13.28-2.99,15.1-9.89l.65-2.6h3.78l-1.17,18.35H0v-3.12l39.83-69.12h-18.88Zm128.35-2.08v-3.77h31.89v3.77c-10.8,0-12.37,2.21-12.37,15.23v30.07c0,20.44-14.19,31.24-31.37,31.24s-31.24-10.8-31.24-31.24v-30.07c0-13.02-1.69-15.23-12.5-15.23v-3.77h41.27v3.77c-10.93,0-12.5,2.21-12.5,15.23v28.64c0,16.79,8.98,24.6,20.18,24.6s19.14-7.81,19.14-24.6v-28.64c0-13.02-1.56-15.23-12.5-15.23Zm132.52,15.23c0-13.02-1.69-15.23-12.5-15.23v-3.77h30.85v3.77c-10.93,0-12.5,2.21-12.5,15.23v61.31h-3.25l-53.89-64.31v43.09c0,13.02,1.69,15.23,12.5,15.23v3.78h-30.72v-3.78c10.8,0,12.37-2.21,12.37-15.23v-40.09c0-13.02-1.56-15.23-12.37-15.23v-3.77h26.03l43.48,51.81v-32.8Zm52.07,59.1v-3.78c10.8,0,12.37-2.21,12.37-15.23v-40.09c0-13.02-1.56-15.23-12.37-15.23v-3.77h41.13v3.77c-10.8,0-12.5,2.21-12.5,15.23v40.09c0,13.02,1.69,15.23,12.5,15.23v3.78h-41.13Zm123.93-28.51v-3.78h38.4v3.78c-10.8,0-12.37,2.08-12.37,15.1v8.85c-15.36,0-20.83,6.77-33.84,6.77-22,0-39.96-18.61-39.96-41.26s17.96-41.26,39.96-41.26c9.11,0,17.57,4.04,24.21,11.06,1.69-1.3,2.6-4.17,3.38-7.42h3.64v28.64h-3.77c-3.51-16.92-14.06-26.03-26.95-26.03-17.83,0-22.91,18.88-22.91,35.02s5.08,35.02,22.91,35.02c10.15,0,19.53-4.17,19.53-16.14,0-5.6-3.25-8.33-12.24-8.33Zm79.53,14.84c-2.99,7.03-1.04,9.89,9.76,9.89v3.78h-31.5v-3.78c8.98,0,11.98-2.21,16.01-11.46l28.25-65.09h2.73l28.38,65.09c3.64,8.33,5.47,11.46,15.88,11.46v3.78h-42.44v-3.78c11.46,0,12.76-2.99,9.76-9.89l-5.47-12.37h-26.04l-5.34,12.37Zm18.48-42.7l-10.54,24.47h20.96l-10.41-24.47Z"/>
  </g>
</svg>