<?xml version="1.0" encoding="UTF-8"?>
<svg id="Layer_2" data-name="Layer 2" xmlns="http://www.w3.org/2000/svg" viewBox="0 0 1539.28 884.95">
  <defs>
    <style>
      .cls-1, .cls-2, .cls-3, .cls-4 {
        fill: #fff;
      }

      .cls-5, .cls-6, .cls-2, .cls-7, .cls-3, .cls-8, .cls-9 {
        stroke-linecap: round;
      }

      .cls-5, .cls-6, .cls-7, .cls-10, .cls-11, .cls-8, .cls-9, .cls-12 {
        fill: none;
      }

      .cls-5, .cls-10, .cls-3, .cls-4, .cls-11, .cls-12 {
        stroke: #4d4d4d;
      }

      .cls-5, .cls-10, .cls-4, .cls-11, .cls-12 {
        stroke-miterlimit: 10;
      }

      .cls-6, .cls-2, .cls-7, .cls-3, .cls-8, .cls-9 {
        stroke-linejoin: round;
      }

      .cls-6, .cls-7, .cls-8, .cls-9 {
        stroke: #ccc;
        stroke-width: 2px;
      }

      .cls-13 {
        fill: #4d4d4d;
      }

      .cls-14 {
        font-size: 13.6px;
        letter-spacing: 0em;
      }

      .cls-2 {
        stroke: #666;
      }

      .cls-15 {
        fill: gray;
        font-family: MyriadPro-Regular, 'Myriad Pro';
      }

      .cls-7 {
        stroke-dasharray: 0 0 0 5.79;
      }

      .cls-16 {
        font-size: 16.99px;
      }

      .cls-4 {
        stroke-width: .75px;
      }

      .cls-11 {
        stroke-dasharray: 0 0 6 6;
      }

      .cls-8 {
        stroke-dasharray: 0 0 0 5.84;
      }

      .cls-9 {
        stroke-dasharray: 0 0 0 6.31;
      }

      .cls-12 {
        stroke-dasharray: 0 0 5.96 5.96;
      }
    </style>
  </defs>
  <g id="Layer_1-2" data-name="Layer 1">
    <g>
      <polygon class="cls-2" points="887 353.76 878.44 357.52 878.44 91.64 1014.82 130.39 887 353.76"/>
      <rect class="cls-2" x="607.97" y="91.64" width="270.47" height="271.51"/>
      <polygon class="cls-3" points="983.91 408.23 713.23 408.23 607.97 363.15 878.65 363.15 983.91 408.23"/>
      <polygon class="cls-3" points="983.91 661.02 712.87 678.91 712.87 408.23 983.91 408.23 983.91 661.02"/>
      <polygon class="cls-3" points="712.87 678.91 607.97 607.54 607.97 363.15 712.87 408.23 712.87 678.91"/>
      <polygon class="cls-2" points="616.53 353.76 607.97 357.52 607.97 91.64 746.24 130.39 616.53 353.76"/>
      <polygon class="cls-2" points="878.44 91.64 607.97 91.64 746.24 130.39 1014.82 130.39 878.44 91.64"/>
      <polygon class="cls-3" points="923.42 375.17 904.59 375.17 896.03 371.5 914.87 371.5 872.48 352.97 607.97 363.15 713.23 408.23 983.91 401.07 923.42 375.17"/>
    </g>
  </g>
  <g id="Layer_3" data-name="Layer 3">
    <g>
      <line class="cls-5" x1="262.2" y1="363.1" x2="262.2" y2="506.78"/>
      <polygon class="cls-13" points="257.21 505.32 262.2 513.96 267.19 505.32 257.21 505.32"/>
    </g>
    <g>
      <g>
        <polygon class="cls-3" points="1481.56 423.05 1187.63 425.71 1187.59 128.54 1481.56 131.19 1481.56 423.05"/>
        <polygon class="cls-3" points="1187.63 425.71 1071.2 343.01 1070.99 75.37 1187.59 128.54 1187.63 425.71"/>
        <polygon class="cls-3" points="1082.16 95.5 1082.44 80.59 1187.59 128.54 1187.63 424.18 1082.16 95.5"/>
        <polygon class="cls-3" points="1481.56 131.19 1187.59 128.54 1070.99 75.37 1370.48 78.02 1481.56 131.19"/>
      </g>
      <g>
        <line class="cls-6" x1="1518.16" y1="424.18" x2="1518.16" y2="424.18"/>
        <line class="cls-8" x1="1512.32" y1="424.18" x2="1486.04" y2="424.18"/>
        <line class="cls-6" x1="1483.12" y1="424.18" x2="1483.12" y2="424.18"/>
      </g>
      <g>
        <line class="cls-6" x1="1518.16" y1="131.19" x2="1518.16" y2="131.19"/>
        <line class="cls-8" x1="1512.32" y1="131.19" x2="1486.04" y2="131.19"/>
        <line class="cls-6" x1="1483.12" y1="131.19" x2="1483.12" y2="131.19"/>
      </g>
      <g>
        <line class="cls-6" x1="1410.57" y1="78.09" x2="1410.57" y2="78.09"/>
        <line class="cls-8" x1="1404.73" y1="78.09" x2="1378.46" y2="78.09"/>
        <line class="cls-6" x1="1375.54" y1="78.09" x2="1375.54" y2="78.09"/>
      </g>
      <line class="cls-6" x1="1518.16" y1="131.19" x2="1518.16" y2="424.18"/>
      <line class="cls-6" x1="1410.57" y1="78.09" x2="1518.16" y2="131.19"/>
      <g>
        <line class="cls-6" x1="1187.63" y1="465.78" x2="1187.63" y2="465.78"/>
        <line class="cls-9" x1="1187.63" y1="459.47" x2="1187.63" y2="431.09"/>
        <line class="cls-6" x1="1187.63" y1="427.94" x2="1187.63" y2="427.94"/>
      </g>
      <g>
        <line class="cls-6" x1="1481.56" y1="456.88" x2="1481.56" y2="456.88"/>
        <line class="cls-7" x1="1481.56" y1="451.1" x2="1481.56" y2="430.83"/>
        <line class="cls-6" x1="1481.56" y1="427.94" x2="1481.56" y2="427.94"/>
      </g>
      <line class="cls-6" x1="1480.99" y1="462.57" x2="1187.89" y2="465.61"/>
      <g>
        <rect class="cls-1" x="1313.52" y="449.86" width="34.5" height="28.11"/>
        <text class="cls-15" transform="translate(1314.68 469.56)"><tspan class="cls-16" x="0" y="0">10</tspan><tspan class="cls-14" x="17.44" y="0">in.</tspan></text>
      </g>
      <g>
        <rect class="cls-1" x="1504.78" y="263.63" width="34.5" height="28.11"/>
        <text class="cls-15" transform="translate(1505.94 283.32)"><tspan class="cls-16" x="0" y="0">10</tspan><tspan class="cls-14" x="17.44" y="0">in.</tspan></text>
      </g>
      <g>
        <rect class="cls-1" x="1447.11" y="82.93" width="34.5" height="28.11"/>
        <text class="cls-15" transform="translate(1448.27 102.63)"><tspan class="cls-16" x="0" y="0">10</tspan><tspan class="cls-14" x="17.44" y="0">in.</tspan></text>
      </g>
    </g>
    <g>
      <polygon class="cls-4" points="169.71 285.14 169.71 373.37 82.55 317.57 82.55 229.35 111.8 248.07 169.71 285.14"/>
      <polygon class="cls-4" points="438.4 278.14 339.6 280.71 259.23 282.81 186.44 284.7 173.4 285.04 169.71 285.14 111.8 248.07 82.55 229.35 339.6 224.24 438.4 278.14"/>
      <polygon class="cls-4" points="438.4 278.14 438.4 366.37 169.71 373.37 169.71 285.14 173.4 285.04 186.44 284.7 259.23 282.81 339.6 280.71 438.4 278.14"/>
    </g>
    <g>
      <polygon class="cls-4" points="169.71 175.01 169.71 263.24 82.55 207.44 82.55 119.22 111.8 137.94 169.71 175.01"/>
      <polygon class="cls-4" points="438.4 168.01 339.6 170.58 259.23 172.68 186.44 174.57 173.4 174.91 169.71 175.01 111.8 137.94 82.55 119.22 339.6 114.11 438.4 168.01"/>
      <polygon class="cls-4" points="438.4 168.01 438.4 256.24 169.71 263.24 169.71 175.01 173.4 174.91 186.44 174.57 259.23 172.68 339.6 170.58 438.4 168.01"/>
    </g>
    <g>
      <polygon class="cls-4" points="169.71 61.28 169.71 149.51 82.55 93.71 82.55 5.49 111.8 24.21 169.71 61.28"/>
      <polygon class="cls-4" points="438.4 54.28 339.6 56.85 259.23 58.95 186.44 60.84 173.4 61.18 169.71 61.28 111.8 24.21 82.55 5.49 339.6 .38 438.4 54.28"/>
      <polygon class="cls-4" points="438.4 54.28 438.4 142.51 169.71 149.51 169.71 61.28 173.4 61.18 186.44 60.84 259.23 58.95 339.6 56.85 438.4 54.28"/>
    </g>
    <g>
      <polygon class="cls-2" points="58.52 691.83 272.03 598.01 250.13 542.98 .5 549.27 58.52 691.83"/>
      <g>
        <g>
          <polygon class="cls-2" points="335.17 563.1 82.5 570.23 58.52 691.83 317.94 691.83 335.17 563.1"/>
          <polygon class="cls-3" points="440.12 607.13 170.77 615.08 82.5 570.23 335.38 563.1 440.12 607.13"/>
          <polygon class="cls-2" points="73.54 567.42 79.45 585.72 58.52 691.83 .5 549.27 73.54 567.42"/>
          <polygon class="cls-2" points="323.17 561.13 329.08 579.43 308.15 685.53 250.13 542.98 323.17 561.13"/>
          <polygon class="cls-3" points="335.74 816.01 82.5 823.13 82.5 570.23 335.74 563.1 335.74 816.01"/>
          <polygon class="cls-3" points="440.12 876.5 170.41 883.62 170.41 614.26 440.12 607.13 440.12 876.5"/>
          <polygon class="cls-3" points="170.41 884.45 82.5 823.13 82.5 570.23 170.41 614.26 170.41 884.45"/>
          <path class="cls-3" d="M440.12,607.13l-104.39-44.03,91.79-144.44,49.72-3.84-3.9,8.57,15.97-.12s4.26-9.72,4.28-9.72c24.14-1.86,48.28-3.73,72.41-5.59l-125.88,199.16Z"/>
          <line class="cls-2" x1=".5" y1="549.06" x2="250.13" y2="542.98"/>
          <polygon class="cls-3" points="128.9 407.97 81.82 403.44 86.19 420.75 74.05 417.55 69.53 401.91 32.34 397.29 82.5 570.75 170.41 614.26 128.9 407.97"/>
        </g>
        <g>
          <polyline class="cls-10" points="437.49 785.63 440.12 787.07 437.13 787.14"/>
          <polyline class="cls-11" points="431.12 787.3 171.43 794.07 89.33 741.51"/>
          <polyline class="cls-10" points="86.8 739.89 84.27 738.27 87.27 738.21"/>
          <polyline class="cls-12" points="93.23 738.09 341.32 733.16 434.87 784.2"/>
        </g>
        <g>
          <polyline class="cls-10" points="437.49 700.93 440.12 702.37 437.13 702.44"/>
          <polyline class="cls-11" points="431.12 702.6 171.43 709.37 89.33 656.81"/>
          <polyline class="cls-10" points="86.8 655.19 84.27 653.57 87.27 653.51"/>
          <polyline class="cls-12" points="93.23 653.39 341.32 648.46 434.87 699.5"/>
        </g>
      </g>
    </g>
  </g>
</svg>