<?xml version="1.0" encoding="utf-8"?>
<!-- Generator: Adobe Illustrator 26.5.1, SVG Export Plug-In . SVG Version: 6.00 Build 0)  -->
<svg version="1.1" id="Layer_1" xmlns="http://www.w3.org/2000/svg" xmlns:xlink="http://www.w3.org/1999/xlink" x="0px" y="0px"
	 viewBox="0 0 500 500" style="enable-background:new 0 0 500 500;" xml:space="preserve">
<style type="text/css">
	.st0{fill:#FFFFFF;}
</style>
<g>
	<path class="st0" d="M111.83,410.75c-10.55,0-18.67-4.21-22.74-8.15l1.35-6.89l0.1,0.1c5.67,5.54,13.62,8.84,21.29,8.84
		c9.38,0,16.19-5.89,16.19-14c0-8.71-4.82-13.26-17.78-16.79c-12.4-3.41-19.23-10.85-19.23-20.95c0-10.59,9.27-18.28,22.04-18.28
		c7.05,0,14.23,3.05,18.23,6.08l-1.45,5.89l-0.09-0.06c-4.97-3.48-11.68-5.81-16.7-5.81c-9.17,0-15.09,4.78-15.09,12.18
		c0,6.96,4.8,11.49,15.11,14.24c14.73,3.92,21.89,11.32,21.89,22.64C134.95,403.55,123.32,410.75,111.83,410.75z"/>
	<path class="st0" d="M113.05,334.72c7.04,0,14.19,3.04,18.19,6.06l-1.45,5.71c-4.85-3.39-11.53-5.83-16.74-5.83
		c-9.47,0-15.16,5.1-15.16,12.26c0,5.95,3.39,11.17,15.16,14.31c14.19,3.77,21.83,10.8,21.83,22.57c0,13.84-11.77,20.87-23.05,20.87
		c-10.55,0-18.67-4.25-22.69-8.13l1.34-6.68c4.6,4.5,12.26,8.86,21.34,8.86c8.98,0,16.27-5.46,16.27-14.07
		c0-8.13-4.01-13.1-17.83-16.86c-12.37-3.41-19.17-10.93-19.17-20.87C91.09,342.96,99.7,334.72,113.05,334.72 M113.05,334.57
		c-12.81,0-22.11,7.72-22.11,18.35c0,10.13,6.85,17.59,19.28,21.02c12.92,3.52,17.72,8.05,17.72,16.72
		c0,8.07-6.78,13.92-16.12,13.92c-7.65,0-15.59-3.3-21.24-8.82l-0.2-0.19l-0.05,0.27l-1.34,6.68l-0.02,0.08l0.06,0.06
		c4.08,3.95,12.21,8.17,22.79,8.17c11.53,0,23.2-7.22,23.2-21.02c0-11.36-7.18-18.79-21.94-22.71
		c-10.27-2.74-15.05-7.24-15.05-14.17c0-7.36,5.89-12.11,15.01-12.11c5,0,11.69,2.33,16.65,5.8l0.18,0.12l0.05-0.21l1.45-5.71
		l0.02-0.1l-0.08-0.06C127.32,337.63,120.11,334.57,113.05,334.57L113.05,334.57z"/>
</g>
<g>
	<path class="st0" d="M123.95,160.62c-20.24,0-34.92-14.97-34.92-35.6s14.69-35.6,34.92-35.6c8.07,0,16.86,2.68,22.4,6.82l0.03,6.8
		l-0.12-0.09c-6.58-5.1-13.88-7.59-22.31-7.59c-16.67,0-28.3,12.2-28.3,29.66c0,17.47,11.64,29.66,28.3,29.66
		c8.43,0,15.73-2.48,22.31-7.59l0.12-0.09v6.73C140.82,157.94,132.02,160.62,123.95,160.62z"/>
	<path class="st0" d="M123.95,89.5c8.06,0,16.9,2.72,22.36,6.8v6.59c-5.56-4.31-12.72-7.6-22.36-7.6
		c-16.46,0-28.38,11.92-28.38,29.74c0,17.82,11.91,29.74,28.38,29.74c9.64,0,16.79-3.29,22.36-7.6v6.58
		c-5.46,4.09-14.29,6.81-22.36,6.81c-18.96,0-34.85-13.51-34.85-35.53S104.99,89.5,123.95,89.5 M123.95,89.35
		c-9.52,0-18.27,3.39-24.64,9.55c-6.78,6.55-10.36,15.58-10.36,26.13s3.58,19.58,10.36,26.13c6.37,6.16,15.12,9.55,24.64,9.55
		c8.09,0,16.9-2.69,22.45-6.84l0.06-0.04v-0.08v-6.58v-0.31l-0.24,0.19c-6.57,5.09-13.85,7.57-22.26,7.57
		c-16.62,0-28.23-12.17-28.23-29.59c0-17.42,11.61-29.59,28.23-29.59c8.41,0,15.7,2.48,22.26,7.57l0.24,0.19v-0.31V96.3v-0.08
		l-0.06-0.04C140.84,92.03,132.03,89.35,123.95,89.35L123.95,89.35z"/>
</g>
<g>
	<polygon class="st0" points="115.46,282.33 115.46,254.89 89.86,214.07 97.14,214.07 118.82,248.96 140.43,214.11 147.44,214.07 
		121.83,254.93 121.84,282.33 	"/>
	<path class="st0" d="M147.31,214.15l-25.54,40.75v27.36h-6.23v-27.36l-25.54-40.75h7.14l21.69,34.96l21.67-34.96H147.31
		 M147.58,214h-0.27h-6.81h-0.08l-0.04,0.07l-21.55,34.75l-21.56-34.75L97.22,214h-0.08h-7.14h-0.27l0.14,0.23l25.52,40.71v27.31
		v0.15h0.15h6.23h0.15v-0.15v-27.31l25.52-40.71L147.58,214L147.58,214z"/>
</g>
<g>
	<polygon class="st0" points="222.91,409.17 222.91,373.87 179.64,373.87 179.64,409.17 172.81,409.17 172.81,336.22 179.64,336.22 
		179.64,367.77 222.91,367.77 222.91,336.22 229.73,336.22 229.73,409.17 	"/>
	<path class="st0" d="M229.66,336.29v72.8h-6.67v-35.3h-43.42v35.3h-6.68v-72.8h6.68v31.55h43.42v-31.55H229.66 M229.81,336.14
		h-0.15h-6.67h-0.15v0.15v31.4h-43.12v-31.4v-0.15h-0.15h-6.68h-0.15v0.15v72.8v0.15h0.15h6.68h0.15v-0.15v-35.15h43.12v35.15v0.15
		h0.15h6.67h0.15v-0.15v-72.8V336.14L229.81,336.14z"/>
</g>
<g>
	<g>
		<path class="st0" d="M208.11,284.02c-20.24,0-34.93-15.07-34.93-35.84c0-20.76,14.69-35.84,34.93-35.84
			c20.24,0,34.93,15.07,34.93,35.84C243.04,268.94,228.35,284.02,208.11,284.02z M208.11,218.29c-16.67,0-28.31,12.29-28.31,29.89
			s11.64,29.89,28.31,29.89s28.31-12.29,28.31-29.89S224.77,218.29,208.11,218.29z"/>
		<path class="st0" d="M208.11,212.42c19.99,0,34.86,14.98,34.86,35.76c0,20.89-14.87,35.76-34.86,35.76
			c-20.1,0-34.86-14.87-34.86-35.76C173.25,227.4,188,212.42,208.11,212.42 M208.11,278.14c16.22,0,28.38-12.01,28.38-29.96
			c0-17.92-12.16-29.96-28.38-29.96c-16.45,0-28.38,12.05-28.38,29.96C179.72,266.14,191.66,278.14,208.11,278.14 M208.11,212.27
			c-20.28,0-35.01,15.1-35.01,35.91s14.72,35.91,35.01,35.91s35.01-15.1,35.01-35.91c0-10.06-3.54-19.21-9.98-25.78
			C226.73,215.87,217.84,212.27,208.11,212.27L208.11,212.27z M208.11,277.99c-16.62,0-28.23-12.26-28.23-29.81
			c0-17.55,11.61-29.81,28.23-29.81c16.62,0,28.23,12.26,28.23,29.81C236.34,265.73,224.73,277.99,208.11,277.99L208.11,277.99z"/>
	</g>
</g>
<g>
	<g>
		<path class="st0" d="M232.46,159.16l-8.24-19.81l-31.81,0.05l-7.99,19.72l-6.66,0.05l28.2-68.2l5.19-0.05l28.23,68.25H232.46z
			 M221.92,133.67l-13.63-33.19l-13.52,33.19H221.92z"/>
		<path class="st0" d="M211.15,90.98l28.12,68.1h-6.81l-8.17-19.76h-31.88l-8.06,19.76h-6.47l28.16-68.1H211.15 M194.67,133.75
			h27.37l-13.74-33.46L194.67,133.75 M211.26,90.83h-0.1h-5.12h-0.1l-0.04,0.09l-28.16,68.1l-0.09,0.21h0.22h6.47h0.1l0.04-0.09
			l8.02-19.67h31.68l8.13,19.67l0.04,0.09h0.1h6.81h0.22l-0.09-0.21l-28.12-68.1L211.26,90.83L211.26,90.83z M194.89,133.6
			l13.4-32.92l13.52,32.92H194.89L194.89,133.6z"/>
	</g>
</g>
<g>
	<polygon class="st0" points="271.51,159.15 271.51,90.9 277.9,90.9 277.9,153.44 310.25,153.44 310.25,159.15 	"/>
	<path class="st0" d="M277.83,90.97v62.54h32.35v5.56h-38.6v-68.1H277.83 M277.98,90.82h-0.15h-6.25h-0.15v0.15v68.1v0.15h0.15h38.6
		h0.15v-0.15v-5.56v-0.15h-0.15h-32.2V90.97V90.82L277.98,90.82z"/>
</g>
<g>
	<path class="st0" d="M297.5,284.04c-18.21,0-28.23-11.84-28.23-33.34v-36.63h6.4v36.73c0,17.59,7.75,27.28,21.83,27.28
		c14.15,0,21.94-9.69,21.94-27.28v-36.73h6.4v36.63C325.84,272.2,315.77,284.04,297.5,284.04z"/>
	<path class="st0" d="M325.76,214.15v36.55c0,22.92-11.35,33.26-28.26,33.26c-16.91,0-28.16-10.34-28.16-33.26v-36.55h6.25v36.66
		c0,18.85,8.75,27.36,21.91,27.36c13.16,0,22.01-8.51,22.01-27.36v-36.66H325.76 M325.91,214h-0.15h-6.25h-0.15v0.15v36.66
		c0,17.54-7.76,27.21-21.86,27.21c-14.03,0-21.76-9.66-21.76-27.21v-36.66V214h-0.15h-6.25h-0.15v0.15v36.55
		c0,21.55,10.05,33.41,28.31,33.41c18.32,0,28.41-11.87,28.41-33.41v-36.55V214L325.91,214z"/>
</g>
<g>
	<path class="st0" d="M402.78,159.01v-46.39c0-2.11,0.02-5.67,0.1-10.72c-0.06,0.15-0.13,0.33-0.21,0.55
		c-0.74,1.9-2.47,6.36-4.06,9.98l-20.66,46.53l-5.05,0.04l-20.73-46.58c-1.52-3.45-3.01-7.27-3.8-9.32
		c-0.21-0.53-0.37-0.94-0.48-1.22c0.09,4.97,0.11,8.58,0.11,10.74v46.39h-6.17V90.75h7.12l26.67,59.71l26.6-59.67l6.96-0.04v68.25
		H402.78z"/>
	<path class="st0" d="M409.1,90.83v68.1h-6.25v-46.31c0-5.34,0.11-11.01,0.11-11.13c-0.11,0.22-2.38,6.25-4.42,10.9l-20.66,46.53
		h-4.98l-20.66-46.53c-2.16-4.89-4.21-10.44-4.43-10.9c0,0.12,0.12,5.67,0.12,11.13v46.31h-6.02v-68.1h7.05l26.67,59.82l26.67-59.82
		H409.1 M409.25,90.68h-0.15h-6.81h-0.1l-0.04,0.09l-26.53,59.51l-26.53-59.51l-0.04-0.09h-0.1h-7.05h-0.15v0.15v68.1v0.15h0.15
		h6.02h0.15v-0.15v-46.31c0-2.1-0.02-5.57-0.1-10.32c0.09,0.24,0.2,0.52,0.33,0.84c0.8,2.05,2.28,5.87,3.8,9.32l20.66,46.53
		l0.04,0.09h0.1h4.98h0.1l0.04-0.09l20.66-46.53c1.59-3.63,3.32-8.09,4.06-9.99c0.02-0.05,0.04-0.1,0.06-0.15
		c-0.08,4.83-0.09,8.25-0.09,10.3v46.31v0.15h0.15h6.25h0.15v-0.15v-68.1V90.68L409.25,90.68z"/>
</g>
<g>
	<g>
		<path class="st0" d="M403.36,282.32l-19.6-28.19l-14.17,0.03v28.16h-6.36v-68.25h21.15c15.54,0,21.08,10.36,21.08,20.06
			c0,10.12-5.58,17.34-14.93,19.32l20.34,28.86H403.36z M384.39,248.48c13.25,0,14.68-10.03,14.68-14.34s-1.43-14.34-14.68-14.34
			h-14.79v28.68H384.39z"/>
		<path class="st0" d="M384.39,214.15c14.64,0,21,9.3,21,19.99c0,9.18-4.63,17.13-14.98,19.27l20.33,28.83h-7.38l-19.54-28.16h-14.3
			v28.16h-6.21v-68.1H384.39 M369.52,248.56h14.87c11.26,0,14.76-7.3,14.76-14.42c0-7.08-3.5-14.42-14.76-14.42h-14.87V248.56
			 M384.39,214h-21.08h-0.15v0.15v68.1v0.15h0.15h6.21h0.15v-0.15v-28.01h14.08l19.49,28.09l0.04,0.06h0.08h7.38h0.29l-0.17-0.24
			l-20.2-28.65c9.32-2.03,14.88-9.25,14.88-19.37C405.54,224.4,399.98,214,384.39,214L384.39,214z M369.67,219.87h14.72
			c13.18,0,14.61,9.98,14.61,14.27c0,4.29-1.42,14.27-14.61,14.27h-14.72V219.87L369.67,219.87z"/>
	</g>
</g>
<g>
	<polygon class="st0" points="385.44,407.7 384.35,340.85 359.56,340.85 358.36,334.75 417.05,334.75 418.25,340.85 391.17,340.85 
		392.26,407.7 	"/>
	<path class="st0" d="M417.05,334.82l1.1,5.96h-27.06l1.09,66.84h-6.67l-1.09-66.84h-24.87l-1.1-5.96H417.05 M417.18,334.67h-0.12
		h-58.6h-0.18l0.03,0.18l1.1,5.96l0.02,0.12h0.12h24.72l1.09,66.69l0,0.15h0.15h6.67h0.15l0-0.15l-1.09-66.69h26.91h0.18l-0.03-0.18
		l-1.1-5.96L417.18,334.67L417.18,334.67z"/>
</g>
<g>
	<polygon class="st0" points="343.2,468.82 342.15,463.47 463.73,463.47 463.73,36.53 36.27,36.53 36.27,463.47 296.44,463.47 
		296.44,399.3 301.78,399.3 301.78,468.82 30.92,468.82 30.92,31.18 469.08,31.18 469.08,468.82 	"/>
	<path class="st0" d="M469,31.26v437.48H343.2l-0.96-5.2h121.56V36.45H36.19v427.09h260.32v-64.17h5.19v69.37H31V31.26H469
		 M469.15,31.11H469H31h-0.15v0.15v437.48v0.15H31h270.71h0.15v-0.15v-69.37v-0.15h-0.15h-5.19h-0.15v0.15v64.02H36.34V36.6h427.31
		V463.4H342.24h-0.18l0.03,0.18l0.96,5.2l0.02,0.12h0.12H469h0.15v-0.15V31.26V31.11L469.15,31.11z"/>
</g>
<g>
	<path class="st0" d="M321.72,371.39c0.03,0.26-0.03,0.5-0.15,0.7c-0.12,0.21-0.32,0.38-0.55,0.46c-1.22,0.49-3.75,1.29-6.53,0.9
		c-1.02-0.14-2.07-0.44-3.11-0.97c-2.22-1.14-4.04-4.08-5.62-6.78c-0.14-0.24-0.67-0.87-0.76-0.94c-0.15-0.18-1.57-2.04-4.46-4.25
		c-0.32-0.26-0.67-0.52-1.04-0.78c0.08,1.07,0.2,2.03,0.33,2.86c0,0.03,0.02,0.06,0.02,0.09c0.44,2.62,1.04,4.16,1.1,4.34
		c0.03,0.12,0.27,0.91,0.43,1.16c1.46,2.76,3.05,5.82,2.86,8.31c-0.03,0.52-0.11,1.02-0.23,1.49c-0.81,3.5-3.44,5.83-4.7,6.79
		c-0.2,0.15-0.44,0.23-0.67,0.23c-0.24,0-0.49-0.08-0.69-0.23c-1.25-0.94-3.81-3.21-4.66-6.62c-0.14-0.53-0.23-1.08-0.27-1.66
		c-0.18-2.5,1.4-5.56,2.86-8.31c0.15-0.24,0.4-1.04,0.43-1.16c0.06-0.2,0.73-1.89,1.16-4.75c0.12-0.76,0.21-1.61,0.29-2.54
		c-0.5,0.37-0.97,0.72-1.42,1.07c-2.63,2.09-3.94,3.79-4.08,3.96c-0.09,0.08-0.62,0.7-0.76,0.94c-1.58,2.7-3.4,5.63-5.62,6.78
		c-1.04,0.53-2.1,0.84-3.12,0.97c-2.77,0.4-5.3-0.41-6.52-0.9c-0.23-0.08-0.43-0.24-0.55-0.46c-0.12-0.2-0.18-0.44-0.15-0.7
		c0.17-1.75,0.93-5.85,4.31-8.36c0.06-0.06,0.14-0.11,0.2-0.15c2.04-1.45,5.48-1.69,8.6-1.87c0.29,0,1.08-0.18,1.2-0.23
		c0.17-0.05,1.51-0.27,3.56-1.05c0.05,0,0.09-0.02,0.14-0.05c0.97-0.37,2.1-0.85,3.33-1.48l0.06-0.05l-0.11-0.06
		c-1.32-0.67-2.53-1.19-3.53-1.55c-0.02,0-0.03-0.02-0.03-0.02c-1.98-0.73-3.26-0.94-3.43-0.99c-0.12-0.03-0.91-0.23-1.2-0.23
		c-3.12-0.17-6.56-0.43-8.6-1.87c-0.09-0.06-0.18-0.14-0.27-0.21c-3.32-2.51-4.07-6.56-4.23-8.3c-0.03-0.24,0.03-0.5,0.15-0.7
		c0.12-0.2,0.32-0.37,0.55-0.46c1.23-0.5,3.79-1.31,6.61-0.9c1,0.15,2.03,0.46,3.03,0.97c2.22,1.14,4.03,4.08,5.62,6.78
		c0.14,0.24,0.67,0.87,0.76,0.96c0.09,0.09,0.56,0.72,1.46,1.63c0.73,0.73,1.74,1.66,3.03,2.65c0.32,0.24,0.65,0.49,1.01,0.75
		c-0.08-0.96-0.18-1.83-0.29-2.6c-0.44-2.83-1.1-4.51-1.16-4.71c-0.03-0.12-0.27-0.9-0.43-1.14c-1.46-2.76-3.05-5.83-2.86-8.33
		c0.05-0.56,0.12-1.1,0.26-1.61c0.85-3.43,3.43-5.73,4.67-6.66c0.2-0.15,0.44-0.24,0.69-0.24c0.23,0,0.47,0.09,0.67,0.24
		c1.25,0.93,3.85,3.24,4.69,6.7v0.02c0.12,0.5,0.2,1.02,0.24,1.55c0.18,2.5-1.4,5.57-2.86,8.33c-0.15,0.24-0.4,1.02-0.43,1.14
		c-0.05,0.12-0.32,0.85-0.62,2.1c-0.15,0.61-0.32,1.32-0.46,2.18c-0.02,0.02-0.02,0.05-0.02,0.06c-0.15,0.87-0.27,1.86-0.35,2.97
		c0.33-0.24,0.65-0.47,0.96-0.7c2.94-2.27,4.39-4.16,4.54-4.32c0.09-0.09,0.62-0.72,0.76-0.96c1.58-2.7,3.4-5.63,5.62-6.78
		c1.04-0.53,2.09-0.84,3.11-0.97c2.79-0.4,5.31,0.41,6.53,0.9c0.23,0.09,0.43,0.26,0.55,0.46c0.12,0.2,0.18,0.46,0.15,0.7
		c-0.17,1.74-0.93,5.83-4.28,8.35c-0.08,0.06-0.15,0.11-0.23,0.17c-2.04,1.45-5.48,1.71-8.6,1.87c-0.29,0-1.08,0.2-1.2,0.23
		c-0.15,0.05-1.31,0.24-3.12,0.88c-0.03,0.02-0.06,0.03-0.11,0.05c-1.05,0.37-2.33,0.9-3.76,1.63l-0.11,0.06l0.06,0.05
		c1.39,0.72,2.65,1.23,3.7,1.61c0.05,0.02,0.09,0.05,0.14,0.06c1.86,0.65,3.05,0.85,3.2,0.9c0.12,0.05,0.91,0.23,1.2,0.23
		c3.12,0.18,6.56,0.43,8.6,1.87c0.09,0.06,0.18,0.12,0.26,0.2C320.81,365.6,321.56,369.65,321.72,371.39z"/>
</g>
</svg>
