<?xml version="1.0" encoding="utf-8"?>
<!-- Generator: Adobe Illustrator 26.4.1, SVG Export Plug-In . SVG Version: 6.00 Build 0)  -->
<svg version="1.1" id="Layer_1" xmlns="http://www.w3.org/2000/svg" xmlns:xlink="http://www.w3.org/1999/xlink" x="0px" y="0px"
	 viewBox="0 0 500 500" style="enable-background:new 0 0 500 500;" xml:space="preserve">
<path d="M470.15,192.96c0,24.24-11.79,43.57-35.36,58.01c-23.57,14.44-58.09,23.49-103.56,27.14c16.59,5.31,29.95,14.86,40.08,28.63
	c10.12,13.77,15.19,29.46,15.19,47.05c0,19.59-6.15,37.02-18.43,52.28c-12.28,15.27-29.87,27.23-52.78,35.85
	c-22.9,8.63-49.63,12.95-80.17,12.95c-34.19,0-64.15-4.48-89.87-13.44c-25.73-8.96-45.81-21.91-60.25-38.84
	c-14.44-16.93-21.66-36.85-21.66-59.75c0-23.23,8.72-43.07,26.14-59.51c17.43-16.43,41.41-27.13,71.95-32.11
	c-20.91-2.65-38.34-10.46-52.28-23.41c-5.43-5.04-9.81-10.37-13.12-15.97c-10.43,10.26-19.85,21.8-28.21,34.77
	c5.8-14.89,14.59-28.39,25.46-39.99c-0.74-1.6-1.4-3.23-1.98-4.88c-15.56,2.69-30.95,7.25-46.25,13.88
	c13.44-9.4,28.7-15.83,44.65-19.39c-0.74-3.09-1.19-6.25-1.37-9.49c-18.16,2.43-36.1,7.34-53.9,15.07
	c16.01-11.21,34.59-18.19,53.87-21.12c0.15-3.67,0.6-7.22,1.35-10.65L77.01,71.38l97.33,38.51c12.49-2.05,26.12-3.07,40.87-3.07
	c20.41,0,38.24,2.06,53.48,6.19l62.07-29.4l-7.84,73.38c0.89,3.68,1.34,7.54,1.34,11.57c0,15.94-5.41,28.38-16.19,37.34
	c-10.79,8.97-25.81,13.45-45.06,13.45c-16.93,0-30.71-3.81-41.33-11.45c-10.63-7.63-15.94-17.43-15.94-29.38
	c0-10.29,3.91-18.42,11.71-24.39c7.79-5.98,18.67-9.14,32.61-9.47c1.99-2.31,2.99-4.81,2.99-7.47c-0.33-3.98-4.16-5.97-11.45-5.97
	c-14.62,0-26.98,4.73-37.1,14.19c-10.13,9.46-15.19,21-15.19,34.61c0,16.6,7.47,29.62,22.41,39.08s35.52,14.19,61.74,14.19h15.44
	c3.99,0,5.98,1.67,5.98,4.98v9.96c0,1.67-0.42,2.74-1.25,3.23c-0.83,0.5-2.41,0.92-4.73,1.25c-30.21,3.66-55.11,13.78-74.69,30.37
	c-19.59,16.61-29.38,36.19-29.38,58.76c0,24.57,8.39,44.24,25.15,59.01s38.91,22.16,66.47,22.16c24.23,0,44.65-6.81,61.25-20.42
	c16.6-13.61,24.9-30.2,24.9-49.79c0-11.62-2.91-22.24-8.72-31.87c-5.81-9.62-13.94-17.34-24.4-23.16
	c-10.45-5.8-22.16-8.71-35.1-8.71c-11.95,0-23.15,2.33-33.61,6.97c-10.46,4.65-18.92,11.13-25.4,19.42
	c-6.47,8.31-9.7,17.6-9.7,27.88c0,11.63,4.22,21.66,12.69,30.13c8.47,8.46,18.18,12.7,29.13,12.7c7.96,0,11.95-2.49,11.95-7.47
	c0-1.66-0.33-3.16-0.99-4.49c-11.96-0.65-21.17-3.64-27.64-8.96c-6.48-5.3-9.71-12.44-9.71-21.41c0-11.28,4.9-20.66,14.69-28.13
	c9.78-7.47,22.32-11.2,37.6-11.2c15.26,0,27.87,4.48,37.84,13.44c9.96,8.96,14.93,20.42,14.93,34.36c0,15.6-6.64,28.71-19.91,39.34
	c-13.29,10.63-29.88,15.93-49.8,15.93c-21.9,0-39.92-5.89-54.02-17.68c-14.11-11.78-21.16-26.96-21.16-45.56
	c0-18.58,7.05-34.77,21.16-48.55c14.1-13.77,33.77-23.31,59-28.63c14.27-2.65,29.54-4.97,45.81-6.97
	c41.83-4.98,72.28-12.86,91.37-23.65c19.09-10.78,28.64-25.31,28.64-43.57c0-12.27-4.16-22.65-12.46-31.12
	c-8.3-8.46-18.25-12.7-29.87-12.7c-8.3,0-12.45,2.33-12.45,6.98c0,0.67,0.17,1.49,0.5,2.48c0.33,1,0.66,1.83,1,2.49
	c11.61,0.34,20.66,3.49,27.13,9.47c6.47,5.97,9.71,13.94,9.71,23.9c0,10.62-4.4,19.34-13.19,26.13
	c-8.8,6.81-20.01,10.22-33.62,10.22c-14.93,0-27.13-4.15-36.59-12.45c-9.46-8.29-14.19-18.93-14.19-31.87
	c0-16.6,6.47-30.04,19.41-40.33c12.95-10.29,29.88-15.44,50.8-15.44c19.91,0,36.01,5.72,48.29,17.18
	C464,159.35,470.15,174.37,470.15,192.96z"/>
<g>
	<path d="M382.34,80.21c0-1.32,0.33-2.36,0.99-3.13c0.66-0.77,1.57-1.15,2.74-1.15c0.88,0,1.85,0.24,2.91,0.71
		c1.06,0.48,2.31,1.03,3.73,1.65c1.43,0.62,3.16,1.17,5.21,1.65c2.05,0.48,4.5,0.71,7.35,0.71c4.24,0,8.29-0.8,12.13-2.41
		c3.84-1.61,6.71-3.69,8.61-6.26c0.36-0.51,0.6-0.8,0.71-0.88c0.11-0.07,0.24-0.11,0.39-0.11h1.86c0.51,0,0.86,0.24,1.04,0.71
		c0.18,0.48,0.27,1.45,0.27,2.91c0,9.59-2.29,17.19-6.86,22.83c-4.57,5.63-10.77,8.45-18.6,8.45c-4.76,0-8.96-0.79-12.62-2.36
		c-3.66-1.57-6.99-4.08-9.99-7.52c-0.66,0-1.15,0.35-1.48,1.04c-0.33,0.7-0.71,2.18-1.15,4.44c-0.15,0.95-0.33,1.61-0.55,1.98
		c-0.22,0.37-0.62,0.55-1.21,0.55h-2.74c-0.88,0-1.32-0.58-1.32-1.76V80.53c0-3.51,0.47-6.22,1.43-8.12
		c0.95-1.9,2.54-3.35,4.77-4.33c2.23-0.99,5.36-1.7,9.38-2.14c5.63-0.66,9.99-2.41,13.06-5.27c3.07-2.85,4.61-6.62,4.61-11.3
		c0-4.32-1.43-7.85-4.28-10.59s-6.48-4.12-10.87-4.12c-1.83,0-2.74,0.55-2.74,1.65c0,0.59,0.22,1.1,0.66,1.54h0.66
		c4.02,0,7.19,1.03,9.49,3.07c2.31,2.05,3.46,4.79,3.46,8.23c0,3.95-1.48,7.17-4.44,9.66c-2.96,2.49-6.82,3.73-11.58,3.73
		c-5.12,0-9.24-1.37-12.35-4.12c-3.11-2.74-4.67-6.38-4.67-10.92c0-3.44,1.13-6.55,3.4-9.33c2.27-2.78,5.52-4.97,9.77-6.59
		c4.24-1.61,9.15-2.41,14.71-2.41c6.44,0,12.03,0.93,16.79,2.8c4.76,1.87,8.43,4.59,11.03,8.18c2.6,3.59,3.9,7.83,3.9,12.73
		c0,4.39-1.03,8.42-3.07,12.07c-2.05,3.66-4.98,6.59-8.78,8.78c-3.8,2.19-8.12,3.29-12.95,3.29c-2.49,0-4.78-0.26-6.86-0.77
		c-2.09-0.51-3.95-1.1-5.6-1.76c-1.65-0.66-3.13-1.24-4.45-1.76c-1.32-0.51-2.49-0.77-3.51-0.77c-1.9,0-3.38,0.77-4.44,2.31
		c-1.06,1.54-1.59,3.7-1.59,6.47v10.76c0.29,0.29,0.73,0.44,1.32,0.44c1.54,0,2.31-0.77,2.31-2.3V80.21z"/>
</g>
</svg>
