<?xml version="1.0" encoding="utf-8"?>
<!-- Generator: Adobe Illustrator 27.3.1, SVG Export Plug-In . SVG Version: 6.00 Build 0)  -->
<svg version="1.1" id="Layer_1" xmlns="http://www.w3.org/2000/svg" xmlns:xlink="http://www.w3.org/1999/xlink" x="0px" y="0px"
	 viewBox="0 0 500 500" style="enable-background:new 0 0 500 500;" xml:space="preserve">
<style type="text/css">
	.st0{fill:#21B5A6;}
</style>
<path class="st0" d="M470.1,193c0,24.2-11.8,43.6-35.4,58s-58.1,23.5-103.6,27.1c16.6,5.3,30,14.9,40.1,28.6
	c10.1,13.8,15.2,29.5,15.2,47c0,19.6-6.1,37-18.4,52.3s-29.9,27.2-52.8,35.9c-22.9,8.6-49.6,13-80.2,13c-34.2,0-64.2-4.5-89.9-13.4
	c-25.7-9-45.8-21.9-60.2-38.8s-21.7-36.9-21.7-59.8c0-23.2,8.7-43.1,26.1-59.5s41.4-27.1,71.9-32.1c-20.9-2.6-38.3-10.5-52.3-23.4
	c-5.4-5-9.8-10.4-13.1-16c-10.4,10.3-19.8,21.8-28.2,34.8c5.8-14.9,14.6-28.4,25.5-40c-0.7-1.6-1.4-3.2-2-4.9
	c-15.6,2.7-31,7.2-46.2,13.9c13.4-9.4,28.7-15.8,44.7-19.4c-0.7-3.1-1.2-6.2-1.4-9.5c-18.2,2.4-36.1,7.3-53.9,15.1
	c16-11.2,34.6-18.2,53.9-21.1c0.2-3.7,0.6-7.2,1.3-10.6L77,71.4l97.3,38.5c12.5-2.1,26.1-3.1,40.9-3.1c20.4,0,38.2,2.1,53.5,6.2
	l62.1-29.4L323,157c0.9,3.7,1.3,7.5,1.3,11.6c0,15.9-5.4,28.4-16.2,37.3c-10.8,9-25.8,13.4-45.1,13.4c-16.9,0-30.7-3.8-41.3-11.4
	c-10.6-7.6-15.9-17.4-15.9-29.4c0-10.3,3.9-18.4,11.7-24.4s18.7-9.1,32.6-9.5c2-2.3,3-4.8,3-7.5c-0.3-4-4.2-6-11.4-6
	c-14.6,0-27,4.7-37.1,14.2s-15.2,21-15.2,34.6c0,16.6,7.5,29.6,22.4,39.1s35.5,14.2,61.7,14.2h15.4c4,0,6,1.7,6,5v10
	c0,1.7-0.4,2.7-1.2,3.2c-0.8,0.5-2.4,0.9-4.7,1.2c-30.2,3.7-55.1,13.8-74.7,30.4s-29.4,36.2-29.4,58.8c0,24.6,8.4,44.2,25.1,59
	s38.9,22.2,66.5,22.2c24.2,0,44.6-6.8,61.2-20.4s24.9-30.2,24.9-49.8c0-11.6-2.9-22.2-8.7-31.9c-5.8-9.6-13.9-17.3-24.4-23.2
	c-10.5-5.8-22.2-8.7-35.1-8.7c-12,0-23.1,2.3-33.6,7c-10.5,4.6-18.9,11.1-25.4,19.4s-9.7,17.6-9.7,27.9c0,11.6,4.2,21.7,12.7,30.1
	c8.5,8.5,18.2,12.7,29.1,12.7c8,0,12-2.5,12-7.5c0-1.7-0.3-3.2-1-4.5c-12-0.6-21.2-3.6-27.6-9c-6.5-5.3-9.7-12.4-9.7-21.4
	c0-11.3,4.9-20.7,14.7-28.1c9.8-7.5,22.3-11.2,37.6-11.2c15.3,0,27.9,4.5,37.8,13.4c10,9,14.9,20.4,14.9,34.4
	c0,15.6-6.6,28.7-19.9,39.3c-13.3,10.6-29.9,15.9-49.8,15.9c-21.9,0-39.9-5.9-54-17.7c-14.1-11.8-21.2-27-21.2-45.6
	s7.1-34.8,21.2-48.5c14.1-13.8,33.8-23.3,59-28.6c14.3-2.6,29.5-5,45.8-7c41.8-5,72.3-12.9,91.4-23.6c19.1-10.8,28.6-25.3,28.6-43.6
	c0-12.3-4.2-22.6-12.5-31.1S416.6,149,404.9,149c-8.3,0-12.5,2.3-12.5,7c0,0.7,0.2,1.5,0.5,2.5s0.7,1.8,1,2.5
	c11.6,0.3,20.7,3.5,27.1,9.5c6.5,6,9.7,13.9,9.7,23.9c0,10.6-4.4,19.3-13.2,26.1c-8.8,6.8-20,10.2-33.6,10.2
	c-14.9,0-27.1-4.1-36.6-12.4c-9.5-8.3-14.2-18.9-14.2-31.9c0-16.6,6.5-30,19.4-40.3c13-10.3,29.9-15.4,50.8-15.4
	c19.9,0,36,5.7,48.3,17.2C464,159.4,470.1,174.4,470.1,193z"/>
<g>
	<path class="st0" d="M382.3,80.2c0-1.3,0.3-2.4,1-3.1s1.6-1.2,2.7-1.2c0.9,0,1.9,0.2,2.9,0.7c1.1,0.5,2.3,1,3.7,1.7
		c1.4,0.6,3.2,1.2,5.2,1.7s4.5,0.7,7.4,0.7c4.2,0,8.3-0.8,12.1-2.4s6.7-3.7,8.6-6.3c0.4-0.5,0.6-0.8,0.7-0.9s0.2-0.1,0.4-0.1h1.9
		c0.5,0,0.9,0.2,1,0.7c0.2,0.5,0.3,1.4,0.3,2.9c0,9.6-2.3,17.2-6.9,22.8c-4.6,5.6-10.8,8.4-18.6,8.4c-4.8,0-9-0.8-12.6-2.4
		s-7-4.1-10-7.5c-0.7,0-1.1,0.3-1.5,1c-0.3,0.7-0.7,2.2-1.1,4.4c-0.1,0.9-0.3,1.6-0.5,2s-0.6,0.6-1.2,0.6h-2.7
		c-0.9,0-1.3-0.6-1.3-1.8V80.5c0-3.5,0.5-6.2,1.4-8.1c1-1.9,2.5-3.3,4.8-4.3c2.2-1,5.4-1.7,9.4-2.1c5.6-0.7,10-2.4,13.1-5.3
		c3.1-2.8,4.6-6.6,4.6-11.3c0-4.3-1.4-7.8-4.3-10.6s-6.5-4.1-10.9-4.1c-1.8,0-2.7,0.5-2.7,1.7c0,0.6,0.2,1.1,0.7,1.5h0.7
		c4,0,7.2,1,9.5,3.1c2.3,2,3.5,4.8,3.5,8.2c0,4-1.5,7.2-4.4,9.7c-3,2.5-6.8,3.7-11.6,3.7c-5.1,0-9.2-1.4-12.4-4.1
		c-3.1-2.7-4.7-6.4-4.7-10.9c0-3.4,1.1-6.5,3.4-9.3s5.5-5,9.8-6.6c4.2-1.6,9.1-2.4,14.7-2.4c6.4,0,12,0.9,16.8,2.8
		c4.8,1.9,8.4,4.6,11,8.2s3.9,7.8,3.9,12.7c0,4.4-1,8.4-3.1,12.1c-2,3.7-5,6.6-8.8,8.8s-8.1,3.3-13,3.3c-2.5,0-4.8-0.3-6.9-0.8
		s-4-1.1-5.6-1.8s-3.1-1.2-4.5-1.8c-1.3-0.5-2.5-0.8-3.5-0.8c-1.9,0-3.4,0.8-4.4,2.3s-1.6,3.7-1.6,6.5v10.8c0.3,0.3,0.7,0.4,1.3,0.4
		c1.5,0,2.3-0.8,2.3-2.3L382.3,80.2L382.3,80.2z"/>
</g>
</svg>
