<?xml version="1.0" encoding="utf-8"?>
<!-- Generator: Adobe Illustrator 27.4.0, SVG Export Plug-In . SVG Version: 6.00 Build 0)  -->
<svg version="1.1" id="Layer_1" xmlns="http://www.w3.org/2000/svg" xmlns:xlink="http://www.w3.org/1999/xlink" x="0px" y="0px"
	 viewBox="0 0 936 500" style="enable-background:new 0 0 936 500;" xml:space="preserve">
<path d="M638.1-276.8c0,13.1-6.4,23.6-19.2,31.4s-31.5,12.7-56.1,14.7c9,2.9,16.2,8.1,21.7,15.5c5.5,7.5,8.2,16,8.2,25.5
	c0,10.6-3.3,20-10,28.3s-16.2,14.7-28.6,19.4c-12.4,4.7-26.9,7-43.4,7c-18.5,0-34.8-2.4-48.7-7.3c-13.9-4.9-24.8-11.9-32.6-21
	c-7.8-9.2-11.8-20-11.8-32.4c0-12.6,4.7-23.3,14.1-32.2c9.4-8.9,22.4-14.7,38.9-17.4c-11.3-1.4-20.7-5.7-28.3-12.7
	c-2.9-2.7-5.3-5.6-7.1-8.7c-5.6,5.6-10.7,11.8-15.3,18.8c3.1-8.1,7.9-15.4,13.8-21.7c-0.4-0.9-0.8-1.7-1.1-2.7
	c-8.4,1.5-16.8,3.9-25,7.5c7.3-5.1,15.5-8.6,24.2-10.5c-0.4-1.7-0.6-3.4-0.8-5.1c-9.9,1.3-19.5,4-29.2,8.2
	c8.7-6.1,18.7-9.9,29.2-11.4c0.1-2,0.3-3.9,0.7-5.7l-6.8-53.5l52.7,20.8c6.8-1.1,14.1-1.7,22.1-1.7c11,0,20.7,1.1,29,3.4l33.6-15.9
	l-4.2,39.7c0.5,2,0.7,4.1,0.7,6.3c0,8.6-2.9,15.4-8.8,20.2c-5.8,4.9-14,7.3-24.4,7.3c-9.2,0-16.6-2.1-22.4-6.2
	c-5.7-4.1-8.6-9.4-8.6-15.9c0-5.6,2.1-10,6.3-13.2c4.2-3.2,10.1-4.9,17.7-5.1c1.1-1.2,1.6-2.6,1.6-4.1c-0.2-2.2-2.3-3.2-6.2-3.2
	c-7.9,0-14.6,2.5-20.1,7.7s-8.2,11.4-8.2,18.7c0,9,4.1,16,12.1,21.2s19.2,7.7,33.4,7.7h8.3c2.2,0,3.2,0.9,3.2,2.7v5.4
	c0,0.9-0.2,1.5-0.6,1.7c-0.4,0.3-1.3,0.5-2.5,0.6c-16.4,2-29.8,7.5-40.5,16.5c-10.6,9-15.9,19.6-15.9,31.8
	c0,13.3,4.5,23.9,13.6,31.9c9,8,21.1,12,36,12c13.1,0,24.2-3.7,33.1-11c9-7.4,13.5-16.4,13.5-27c0-6.3-1.6-12-4.7-17.3
	c-3.1-5.2-7.5-9.4-13.2-12.6c-5.7-3.1-12-4.7-19-4.7c-6.5,0-12.5,1.2-18.2,3.8c-5.7,2.5-10.2,6-13.8,10.5c-3.5,4.5-5.3,9.5-5.3,15.1
	c0,6.3,2.3,11.8,6.9,16.3c4.6,4.6,9.9,6.9,15.8,6.9c4.3,0,6.5-1.4,6.5-4.1c0-0.9-0.2-1.7-0.5-2.4c-6.5-0.3-11.5-1.9-14.9-4.9
	c-3.5-2.9-5.3-6.7-5.3-11.6c0-6.1,2.7-11.2,8-15.2c5.3-4.1,12.1-6.1,20.4-6.1c8.3,0,15.1,2.4,20.5,7.3c5.4,4.9,8.1,11,8.1,18.6
	c0,8.4-3.6,15.5-10.8,21.3c-7.2,5.7-16.2,8.6-27,8.6c-11.9,0-21.6-3.2-29.2-9.6c-7.6-6.4-11.5-14.6-11.5-24.7
	c0-10.1,3.8-18.8,11.5-26.3c7.6-7.5,18.3-12.6,31.9-15.5c7.7-1.4,16-2.7,24.8-3.8c22.6-2.7,39.2-7,49.5-12.8
	c10.3-5.8,15.5-13.7,15.5-23.6c0-6.7-2.3-12.2-6.8-16.8c-4.5-4.6-9.9-6.9-16.2-6.9c-4.5,0-6.8,1.2-6.8,3.8c0,0.4,0.1,0.8,0.3,1.4
	c0.2,0.5,0.4,1,0.5,1.4c6.3,0.2,11.2,1.9,14.7,5.1c3.5,3.2,5.3,7.5,5.3,12.9c0,5.7-2.4,10.5-7.1,14.1c-4.8,3.7-10.8,5.5-18.2,5.5
	c-8.1,0-14.7-2.2-19.8-6.7c-5.1-4.5-7.7-10.2-7.7-17.3c0-9,3.5-16.2,10.5-21.8c7-5.6,16.2-8.3,27.5-8.3c10.8,0,19.5,3.1,26.2,9.3
	C634.8-295,638.1-286.9,638.1-276.8z"/>
<g>
	<path d="M571.6-337.9c0-0.7,0.2-1.3,0.5-1.7c0.4-0.4,0.9-0.6,1.5-0.6c0.5,0,1,0.1,1.6,0.4c0.6,0.3,1.2,0.5,2,0.9
		c0.8,0.3,1.7,0.6,2.8,0.9c1.1,0.3,2.4,0.4,4,0.4c2.3,0,4.5-0.4,6.6-1.3c2.1-0.9,3.6-2,4.7-3.4c0.2-0.3,0.3-0.4,0.4-0.5
		c0.1-0.1,0.1-0.1,0.2-0.1h1c0.3,0,0.5,0.1,0.5,0.4c0.1,0.3,0.2,0.8,0.2,1.6c0,5.2-1.2,9.3-3.7,12.3c-2.5,3-5.8,4.5-10.1,4.5
		c-2.6,0-4.9-0.4-6.8-1.3c-1.9-0.9-3.8-2.2-5.4-4.1c-0.4,0-0.6,0.2-0.8,0.5c-0.2,0.4-0.4,1.2-0.6,2.4c-0.1,0.5-0.2,0.9-0.3,1.1
		c-0.1,0.2-0.3,0.3-0.6,0.3h-1.5c-0.5,0-0.7-0.3-0.7-1v-11.7c0-1.9,0.3-3.4,0.8-4.4c0.5-1,1.4-1.8,2.6-2.3c1.2-0.5,2.9-0.9,5.1-1.1
		c3-0.4,5.4-1.3,7.1-2.9c1.7-1.5,2.5-3.6,2.5-6.1c0-2.3-0.8-4.2-2.3-5.7c-1.6-1.5-3.5-2.2-5.9-2.2c-1,0-1.5,0.3-1.5,0.9
		c0,0.3,0.1,0.6,0.4,0.8h0.4c2.2,0,3.9,0.5,5.1,1.7c1.2,1.1,1.9,2.6,1.9,4.4c0,2.2-0.8,3.9-2.4,5.3c-1.6,1.4-3.7,2-6.3,2
		c-2.8,0-5-0.8-6.7-2.2c-1.7-1.5-2.5-3.5-2.5-5.9c0-1.8,0.6-3.5,1.8-5s3-2.7,5.3-3.6c2.3-0.9,4.9-1.3,8-1.3c3.5,0,6.5,0.5,9.1,1.5
		s4.5,2.5,6,4.4s2.1,4.2,2.1,6.9c0,2.4-0.5,4.5-1.7,6.6c-1.1,2-2.7,3.6-4.8,4.8c-2.1,1.2-4.4,1.8-7,1.8c-1.4,0-2.6-0.2-3.7-0.4
		c-1.1-0.3-2.2-0.6-3-1s-1.7-0.6-2.4-1c-0.7-0.3-1.4-0.4-1.9-0.4c-1,0-1.8,0.4-2.4,1.2c-0.5,0.8-0.9,2-0.9,3.5v5.8
		c0.2,0.2,0.4,0.2,0.7,0.2c0.8,0,1.2-0.4,1.2-1.2V-337.9L571.6-337.9z"/>
</g>
<text transform="matrix(1 0 0 1 -212.7614 -145.066)" style="font-family:'MrsEavesOT-Bold'; font-size:130.1734px; letter-spacing:24;">ZUNIGA</text>
<text transform="matrix(1 0 0 1 593.4167 -87.1623)" style="font-family:'Blenny-Black'; font-size:58px;">Jenny Marie</text>
<path d="M929.8,176.1c0,17.4-8.5,31.3-25.4,41.7c-17,10.3-41.7,16.9-74.4,19.5c11.9,3.8,21.6,10.7,28.8,20.5
	c7.3,9.9,10.9,21.2,10.9,33.8c0,14.1-4.4,26.6-13.2,37.6c-8.8,11-21.5,19.5-37.9,25.8c-16.5,6.2-35.6,9.3-57.6,9.3
	c-24.6,0-46.1-3.2-64.6-9.6c-18.5-6.5-32.9-15.7-43.3-27.9c-10.3-12.1-15.6-26.5-15.6-43c0-16.7,6.3-31,18.8-42.8
	c12.5-11.8,29.7-19.5,51.7-23.1c-15-1.9-27.5-7.5-37.6-16.8c-3.9-3.6-7-7.5-9.4-11.5c-7.5,7.4-14.2,15.7-20.3,25
	c4.2-10.7,10.5-20.4,18.3-28.7c-0.5-1.1-1-2.3-1.4-3.5c-11.2,1.9-22.3,5.2-33.2,10c9.6-6.8,20.6-11.4,32.1-13.9
	c-0.5-2.2-0.9-4.5-1-6.8c-13.1,1.7-25.9,5.2-38.7,10.8c11.5-8,24.9-13.1,38.7-15.2c0.1-2.7,0.4-5.2,0.9-7.6l-9-71l69.9,27.7
	c9-1.5,18.8-2.2,29.4-2.2c14.7,0,27.4,1.5,38.4,4.5l44.6-21.1l-5.6,52.7c0.6,2.7,0.9,5.4,0.9,8.3c0,11.4-3.9,20.4-11.6,26.8
	c-7.8,6.5-18.5,9.6-32.4,9.6c-12.1,0-22.1-2.7-29.7-8.2c-7.6-5.5-11.4-12.5-11.4-21.1c0-7.4,2.8-13.2,8.4-17.5
	c5.6-4.3,13.4-6.5,23.4-6.8c1.4-1.7,2.2-3.4,2.2-5.4c-0.2-2.9-3-4.3-8.2-4.3c-10.5,0-19.4,3.4-26.7,10.2
	c-7.3,6.8-10.9,15.1-10.9,24.9c0,11.9,5.4,21.3,16.1,28.1c10.7,6.8,25.5,10.2,44.3,10.2h11.1c2.9,0,4.3,1.2,4.3,3.6v7.2
	c0,1.2-0.3,1.9-0.9,2.3c-0.6,0.4-1.7,0.6-3.4,0.9c-21.7,2.7-39.6,9.9-53.7,21.8c-14.1,11.9-21.1,26-21.1,42.2c0,17.7,6,31.8,18,42.4
	c12,10.6,27.9,16,47.8,16c17.4,0,32-4.9,44-14.7c11.9-9.8,17.9-21.7,17.9-35.8c0-8.3-2.1-16-6.3-22.9c-4.2-6.9-10-12.4-17.5-16.7
	c-7.5-4.2-16-6.3-25.2-6.3c-8.6,0-16.6,1.7-24.1,5c-7.5,3.3-13.6,8-18.2,13.9c-4.7,6-7,12.6-7,20c0,8.3,3,15.6,9.1,21.6
	c6.1,6.1,13.1,9.1,20.9,9.1c5.7,0,8.6-1.8,8.6-5.4c0-1.2-0.2-2.3-0.7-3.2c-8.6-0.4-15.2-2.6-19.8-6.5c-4.7-3.8-7-8.9-7-15.4
	c0-8.1,3.5-14.9,10.6-20.2c7-5.4,16-8,27-8s20,3.2,27.2,9.6c7.2,6.5,10.7,14.7,10.7,24.7c0,11.2-4.7,20.6-14.3,28.2
	c-9.6,7.6-21.5,11.4-35.8,11.4c-15.7,0-28.7-4.2-38.8-12.7s-15.2-19.4-15.2-32.8s5.1-25,15.2-34.8c10.1-9.9,24.3-16.7,42.4-20.5
	c10.3-1.9,21.2-3.6,32.9-5c30-3.6,51.9-9.3,65.7-17c13.7-7.8,20.5-18.2,20.5-31.3c0-8.8-3-16.2-9-22.3s-13.1-9.1-21.5-9.1
	c-6,0-9,1.7-9,5c0,0.5,0.1,1.1,0.4,1.8c0.2,0.7,0.5,1.3,0.7,1.8c8.3,0.2,14.9,2.5,19.5,6.8c4.7,4.3,7,10,7,17.2
	c0,7.6-3.2,13.9-9.5,18.8c-6.3,4.9-14.4,7.3-24.1,7.3c-10.7,0-19.5-2.9-26.3-8.9c-6.8-6-10.2-13.6-10.2-22.9
	c0-11.9,4.7-21.6,13.9-29c9.3-7.4,21.5-11.1,36.5-11.1c14.3,0,25.9,4.1,34.7,12.4C925.4,152,929.8,162.8,929.8,176.1z M841.6,95.1
	c0-0.9,0.2-1.7,0.7-2.2c0.5-0.5,1.1-0.9,1.9-0.9c0.6,0,1.4,0.1,2.1,0.5c0.8,0.4,1.7,0.7,2.7,1.2c1,0.4,2.3,0.9,3.7,1.2
	c1.4,0.4,3.2,0.5,5.3,0.5c3,0,6-0.6,8.7-1.7c2.7-1.1,4.8-2.7,6.2-4.5c0.3-0.4,0.4-0.6,0.5-0.6c0.1-0.1,0.1-0.1,0.3-0.1h1.4
	c0.4,0,0.6,0.1,0.7,0.5c0.1,0.4,0.2,1,0.2,2.1c0,6.9-1.7,12.4-5,16.4c-3.3,4-7.8,6-13.4,6c-3.4,0-6.5-0.6-9.1-1.7
	c-2.6-1.1-5-2.9-7.2-5.4c-0.5,0-0.8,0.2-1.1,0.7c-0.2,0.5-0.5,1.6-0.8,3.2c-0.1,0.6-0.2,1.1-0.4,1.4c-0.1,0.3-0.4,0.4-0.9,0.4h-1.9
	c-0.6,0-0.9-0.4-0.9-1.3V95.3c0-2.5,0.4-4.5,1-5.8c0.7-1.4,1.8-2.4,3.4-3.1c1.6-0.7,3.9-1.2,6.8-1.5c4-0.5,7.2-1.7,9.4-3.8
	c2.2-2,3.3-4.7,3.3-8.1c0-3.1-1-5.6-3.1-7.6c-2.1-2-4.7-2.9-7.8-2.9c-1.3,0-1.9,0.4-1.9,1.2c0,0.4,0.1,0.8,0.5,1.1h0.5
	c2.9,0,5.2,0.7,6.8,2.2c1.7,1.4,2.5,3.4,2.5,5.9c0,2.9-1.1,5.2-3.2,7c-2.2,1.8-4.9,2.7-8.3,2.7c-3.7,0-6.6-1-8.9-2.9
	c-2.2-1.9-3.4-4.6-3.4-7.8c0-2.4,0.8-4.7,2.4-6.7c1.7-2,4-3.6,7-4.7c3-1.1,6.5-1.7,10.6-1.7c4.6,0,8.6,0.6,12.1,2
	c3.4,1.4,6,3.3,7.9,5.9C875,69,876,72,876,75.5c0,3.2-0.7,6-2.2,8.7c-1.4,2.7-3.6,4.7-6.3,6.3c-2.7,1.6-5.8,2.4-9.3,2.4
	c-1.8,0-3.4-0.2-5-0.6c-1.5-0.4-2.9-0.8-4-1.3s-2.2-0.9-3.2-1.3c-0.9-0.4-1.8-0.6-2.5-0.6c-1.4,0-2.4,0.6-3.2,1.7s-1.1,2.7-1.1,4.7
	v7.8c0.2,0.2,0.5,0.3,0.9,0.3c1.1,0,1.7-0.6,1.7-1.7V95.1L841.6,95.1z M28.4,282c-12,0-13.4,3-15.1,9.8l-0.7,2.6H8.9l1.2-18.2h57.7
	v2.9l-40.2,69.4h23.6c12,0,13.3-3,15.1-9.9l0.7-2.6h3.8l-1.2,18.4h-62v-3.1L47.3,282H28.4z M156.8,279.9v-3.8h31.9v3.8
	c-10.8,0-12.4,2.2-12.4,15.2v30.1c0,20.4-14.2,31.2-31.4,31.2c-17.3,0-31.2-10.8-31.2-31.2v-30.1c0-13-1.7-15.2-12.5-15.2v-3.8h41.3
	v3.8c-10.9,0-12.5,2.2-12.5,15.2v28.6c0,16.8,9,24.6,20.2,24.6s19.1-7.8,19.1-24.6v-28.6C169.3,282.1,167.7,279.9,156.8,279.9z
	 M289.3,295.1c0-13-1.7-15.2-12.5-15.2v-3.8h30.9v3.8c-10.9,0-12.5,2.2-12.5,15.2v61.3h-3.3L238,292.1v43.1c0,13,1.7,15.2,12.5,15.2
	v3.8h-30.7v-3.8c10.8,0,12.4-2.2,12.4-15.2v-40.1c0-13-1.6-15.2-12.4-15.2v-3.8h26l43.5,51.8V295.1z M341.3,354.2v-3.8
	c10.8,0,12.4-2.2,12.4-15.2v-40.1c0-13-1.6-15.2-12.4-15.2v-3.8h41.1v3.8c-10.8,0-12.5,2.2-12.5,15.2v40.1c0,13,1.7,15.2,12.5,15.2
	v3.8H341.3z M465.3,325.7v-3.8h38.4v3.8c-10.8,0-12.4,2.1-12.4,15.1v8.9c-15.4,0-20.8,6.8-33.8,6.8c-22,0-40-18.6-40-41.3
	s18-41.3,40-41.3c9.1,0,17.6,4,24.2,11.1c1.7-1.3,2.6-4.2,3.4-7.4h3.6v28.6h-3.8c-3.5-16.9-14.1-26-26.9-26
	c-17.8,0-22.9,18.9-22.9,35s5.1,35,22.9,35c10.2,0,19.5-4.2,19.5-16.1C477.5,328.4,474.2,325.7,465.3,325.7z M544.8,340.5
	c-3,7-1,9.9,9.8,9.9v3.8h-31.5v-3.8c9,0,12-2.2,16-11.5l28.2-65.1h2.7l28.4,65.1c3.6,8.3,5.5,11.5,15.9,11.5v3.8h-42.4v-3.8
	c11.5,0,12.8-3,9.8-9.9l-5.5-12.4h-26L544.8,340.5z M563.3,297.8l-10.5,24.5h21L563.3,297.8z M-563.9,94.2c2.4,0,4.2,0.5,5.2,1.6
	c1,1.1,1.5,2.9,1.5,5.5v83.3c0,14.7-4.4,26.4-13.3,35.2c-8.9,8.8-20.8,13.2-35.7,13.2c-8.7,0-16.5-1.4-23.5-4.3
	c-7-2.9-12.5-7-16.6-12.3c-4.1-5.4-6.1-11.5-6.1-18.4c0-9,3.4-16.3,10.1-22.1c6.7-5.8,15.2-8.7,25.6-8.7c10,0,18.1,2.6,24.2,7.7
	c6.1,5.2,9.2,11.9,9.2,20.2c0,6.9-2.3,12.4-6.8,16.3c-4.6,3.9-10.8,5.9-18.8,5.9c-0.8,0.8-1.2,1.7-1.2,2.6c0,2.2,1.6,3.3,4.9,3.3
	c8.4,0,15.3-2.7,20.8-8c5.4-5.4,8.1-12.3,8.1-20.7c0-7.7-2.4-14.4-7.3-20c-4.9-5.6-11.9-9.6-21.2-12.2c-2.6-0.7-4.4-1.7-5.5-3
	c-1.1-1.3-1.6-3.2-1.6-5.6v-36.7c0-3.5-0.3-6-0.8-7.5c-0.5-1.5-1.5-2.9-3-4.2c-1.4-1.3-3.7-3-6.8-5c-0.7-0.4-1-1-1-1.8v-2.4
	c0-1.4,0.8-2,2.4-2H-563.9z M-498.3,182.5c0,3.1,2.6,6,7.9,8.7c5.3,2.6,11.2,4,17.7,4c12.9,0,23.5-4.3,31.8-13
	c0.8-0.8,1.4-1.3,1.7-1.5c0.3-0.2,0.8-0.3,1.5-0.3h2.4c0.9,0,1.6,0.3,1.9,1c0.3,0.7,0.5,1.9,0.5,3.7c0,8.4-2.3,16.2-6.8,23.3
	c-4.6,7.1-11,12.9-19.3,17.2c-8.4,4.3-17.7,6.5-28,6.5c-11,0-20.9-2.2-29.7-6.7c-8.8-4.5-15.9-10.9-21.1-19.1
	c-5.2-8.3-7.8-17.7-7.8-28.3c0-10.5,2.4-19.8,7.3-27.9c4.9-8.1,11.8-14.6,20.9-19.2c9-4.7,19.6-7,31.7-7c9.1,0,17.3,1.4,24.5,4.3
	c7.3,2.9,13,6.9,17.2,12.2c4.2,5.3,6.3,11.4,6.3,18.3c0,8.8-3.2,16.1-9.6,21.9c-6.4,5.8-14.5,8.7-24.2,8.7c-9.8,0-17.7-3.3-23.8-9.8
	c-0.8,0-1.5,0.3-2.1,0.9C-498,180.8-498.3,181.6-498.3,182.5z M-492.2,168.5c0.8,1.1,1.9,1.6,3.3,1.6c2.4,0,3.7-1.4,3.7-4.1v-28.9
	c0-2.7-1.2-4.1-3.7-4.1c-1.4,0-2.4,0.5-3.3,1.6V168.5z M-399.4,126.1c6.7,0,12,1.2,16,3.6c4,2.4,6.8,6.1,8.2,11.1
	c3.1-5.6,7.4-9.8,12.7-12.7c5.4-2.9,11.4-4.4,18.2-4.4c9.8,0,17.2,2.9,22.4,8.8c5.2,5.8,7.7,14.1,7.7,24.8v65.8c0,2.3-0.5,4-1.5,5
	c-1,1-2.8,1.5-5.4,1.5h-36.7c-2.6,0-4.4-0.5-5.4-1.5c-1-1-1.5-2.7-1.5-5V153c0-1.5-0.3-2.7-1-3.7c-0.7-0.9-1.6-1.4-2.9-1.4
	c-1.6,0-2.8,0.5-3.5,1.6v73.5c0,2.3-0.5,4-1.5,5c-1,1-2.8,1.5-5.4,1.5h-36.7c-2.6,0-4.4-0.5-5.4-1.5c-1-1-1.5-2.7-1.5-5v-71.9
	c0-4.8-0.7-8.4-2-10.9c-1.4-2.5-3.9-4.9-7.5-7c-0.9-0.5-1.5-1-1.7-1.3c-0.2-0.3-0.3-0.8-0.3-1.3v-2.4c0-1.4,0.8-2,2.4-2H-399.4z
	 M-274.3,126.1c6.7,0,12,1.2,16,3.6c4,2.4,6.8,6.1,8.2,11.1c3.1-5.6,7.4-9.8,12.7-12.7c5.4-2.9,11.4-4.4,18.2-4.4
	c9.8,0,17.2,2.9,22.4,8.8c5.2,5.8,7.7,14.1,7.7,24.8v65.8c0,2.3-0.5,4-1.5,5c-1,1-2.8,1.5-5.4,1.5h-36.7c-2.6,0-4.4-0.5-5.4-1.5
	c-1-1-1.5-2.7-1.5-5V153c0-1.5-0.3-2.7-1-3.7c-0.7-0.9-1.6-1.4-2.9-1.4c-1.6,0-2.8,0.5-3.5,1.6v73.5c0,2.3-0.5,4-1.5,5
	c-1,1-2.8,1.5-5.4,1.5h-36.7c-2.6,0-4.4-0.5-5.4-1.5c-1-1-1.5-2.7-1.5-5v-71.9c0-4.8-0.7-8.4-2-10.9c-1.4-2.5-3.9-4.9-7.5-7
	c-0.9-0.5-1.5-1-1.7-1.3c-0.2-0.3-0.3-0.8-0.3-1.3v-2.4c0-1.4,0.8-2,2.4-2H-274.3z M-178.4,143.8c-0.8-2.3-1.9-4.2-3.4-5.7
	c-1.4-1.5-3.6-3.1-6.4-4.9c-1.4-0.8-2-1.7-2-2.6v-2.4c0-1.4,0.8-2,2.4-2h31.8c9.2,0,16.1,0.7,20.5,2.1c4.4,1.4,7.9,3.9,10.4,7.4
	c2.5,3.5,4.9,8.8,7.2,15.7l19.6,59.1c0.7,0.7,1.5,1,2.4,1c2,0,3.1-1.2,3.1-3.5c0-1.4-0.5-3.6-1.6-6.7l-18.3-56
	c-1.8-5.4-3.3-9-4.7-10.6c-1.2-1.5-2-2.5-2.3-3c-0.3-0.5-0.5-1-0.5-1.7v-1.8c0-1.4,0.8-2,2.4-2h57.6c4.9,0,7.3,1.8,7.3,5.3
	c0,3.3-3.5,14.4-10.4,33.4c-6.9,19-16.4,43.2-28.3,72.5c-4.3,10.7-8.6,19-12.8,24.9c-4.2,5.9-8.9,10.1-14,12.6
	c-5.1,2.5-11.1,3.8-18,3.8c-10.1,0-18.2-2.2-24.3-6.7c-6.2-4.5-9.3-10.4-9.3-17.7c0-6.4,2.5-11.5,7.5-15.5c5-3.9,11.5-5.9,19.6-5.9
	c7.5,0,13.6,1.8,18.3,5.4c4.8,3.6,7.1,8.2,7.1,14c0,4.3-1.5,7.7-4.4,10.1c-2.9,2.4-7,3.6-12.3,3.6c-0.3,0.5-0.4,1.2-0.4,1.8
	c0,1.9,1.6,2.9,4.7,2.9c5.3,0,9.7-1.8,13.2-5.4c3.5-3.6,5.3-8.1,5.3-13.5c0-6.4-2.2-11.6-6.7-15.8c-4.5-4.1-11-7-19.6-8.5
	c-4.9-0.8-8.1-1.9-9.6-3.3c-1.5-1.4-3.1-4.3-4.7-9L-178.4,143.8z M111.2,130.8c-1-0.7-1.9-1-2.9-1c-1,0-1.8,0.3-2.4,0.9
	c-0.7,0.6-1,1.3-1,2.1c0,1,0.3,2.7,1,5.3l19.3,79.8c0.5,2.6,0.8,4.3,0.8,5.1c0,4.3-2.2,6.5-6.7,6.5h-36c-2.9,0-4.9-0.6-6.2-1.8
	c-1.3-1.2-2.4-3.7-3.4-7.3l-22.4-89.6c-1-0.7-2-1-3.3-1c-0.8,0-1.5,0.3-2.1,0.8c-0.6,0.5-0.9,1.3-0.9,2.2c0,1,0.3,2.7,1,5.3
	L65.4,218c0.8,3.1,1.2,5.3,1.2,6.5c0,3.4-2.1,5.1-6.3,5.1H9.2c-2.7,0-4.8-0.6-6.2-1.9c-1.4-1.3-2.1-3.1-2.1-5.4
	c0-3,3.1-12.5,9.3-28.6c6.2-16.1,16.5-41.4,30.9-75.9c0.8-1.9,1.2-3.6,1.2-5.1c0-2.3-0.6-4.3-1.7-5.9c-1.2-1.6-3.3-3.5-6.4-5.5
	c-1.4-0.8-2-1.7-2-2.6v-2.4c0-1.4,0.8-2,2.4-2h39.1c5.4,0,9.6,0.8,12.5,2.5c2.9,1.7,5.3,4.6,7,8.7l7.9,18.3l3.5-7.5
	c1.2-2.9,1.8-5,1.8-6.3c0-1.6-0.4-3.1-1.3-4.4c-0.9-1.3-2.4-2.7-4.6-4.2c-1.4-0.8-2-1.7-2-2.6v-2.4c0-1.4,0.8-2,2.4-2h36.7
	c8.8,0,14.6,3.7,17.3,11.2l36.3,103.5c2.6,7.3,3.9,12.1,3.9,14.3c0,4.3-2.2,6.5-6.7,6.5h-45c-2.9,0-4.9-0.6-6.2-1.8
	c-1.3-1.2-2.4-3.7-3.4-7.3L111.2,130.8z M288,232c-13.7,0-23.5-5.6-29.3-16.9c-3.1,5.8-7,10.1-11.5,12.8c-4.6,2.7-10.2,4.1-16.8,4.1
	c-9.4,0-16.9-2.3-22.6-6.9c-5.7-4.6-8.6-10.7-8.6-18.3c0-6.7,2.3-11.9,7-15.8c4.7-3.9,11.9-6.5,21.7-7.8c25-3.3,37.5-12.7,37.5-28.3
	c0-6.2-2.2-11.6-6.5-16.2c-4.3-4.5-9.5-6.8-15.5-6.8c-2.9,0-4.3,1-4.3,2.9c0,0.7,0.2,1.4,0.6,2c5.7,0,10.4,1.7,14.1,5.1
	c3.7,3.4,5.5,7.7,5.5,13c0,6.2-2.6,11.4-7.8,15.5c-5.2,4.1-11.9,6.1-20.1,6.1c-8.3,0-14.9-2.1-19.8-6.2c-4.9-4.1-7.3-9.6-7.3-16.4
	c0-9.1,4.4-16.4,13.2-21.9c8.8-5.5,20.5-8.2,35-8.2c17.4,0,30.6,4.2,39.6,12.6c9,8.4,13.5,20.8,13.5,37.1v25.5
	c0,2.3,0.2,3.9,0.6,4.7c0.4,0.8,1.1,1.2,2,1.2c1.2,0,2.1-0.5,2.6-1.6c0.5-1.1,1-3.2,1.4-6.3c0.3-2.3,0.5-3.7,0.8-4.2
	c0.3-0.5,0.8-0.7,1.6-0.7h3.5c0.8,0,1.4,0.5,1.7,1.4c0.3,1,0.5,2.5,0.5,4.7c0,10.9-2.8,19.2-8.5,25.2C306.5,229.1,298.5,232,288,232
	z M255.2,188c-0.8-1.1-1.9-1.6-3.3-1.6c-2.3,0-3.5,1.4-3.5,4.1v13c0,2.7,1.2,4.1,3.5,4.1c1.4,0,2.4-0.5,3.3-1.6V188z M335.1,126.1
	c11.7,0,19.6,3.5,23.8,10.4c3.9-4.3,8.4-7.6,13.2-9.7c4.9-2.1,10.5-3.2,16.9-3.2c9.9,0,18.1,2.7,24.4,8.1c6.4,5.4,9.6,12.4,9.6,20.8
	c0,7.1-2.6,12.8-7.7,17.2c-5.2,4.4-11.8,6.6-20,6.6c-8,0-14.6-2-19.7-6.1c-5.1-4.1-7.6-9.2-7.6-15.5c0-5.3,1.8-9.6,5.5-13
	c3.7-3.4,8.4-5.1,14.1-5.1c0.4-0.7,0.6-1.4,0.6-2c0-1.9-1.4-2.9-4.3-2.9c-6,0-11.1,2.3-15.5,6.8c-4.3,4.6-6.5,10-6.5,16.4
	c0,5.4,1.5,10.2,4.6,14.4c3.1,4.1,7.4,7.4,13.1,9.9c1.9,0.8,3.2,1.7,3.8,2.8c0.6,1,0.9,2.8,0.9,5.2v35.8c0,4.3-2.3,6.5-6.9,6.5
	h-41.3c-4.2,0-6.3-2.2-6.3-6.5v-71.9c0-4.8-0.7-8.4-2-10.9c-1.4-2.5-3.9-4.9-7.5-7c-0.9-0.5-1.5-1-1.7-1.3c-0.2-0.3-0.3-0.8-0.3-1.3
	v-2.4c0-1.4,0.8-2,2.4-2H335.1z M475.6,126.1c2.6,0,4.4,0.5,5.4,1.5c1,1,1.5,2.7,1.5,5v66.2c0,2.3,0.2,3.9,0.6,4.7
	c0.4,0.8,1.1,1.2,2,1.2c1.2,0,2.1-0.5,2.5-1.4c0.5-0.9,1-3.1,1.5-6.5c0.3-2.3,0.5-3.7,0.8-4.2c0.3-0.5,0.8-0.7,1.6-0.7h3.5
	c0.8,0,1.4,0.5,1.7,1.4c0.3,1,0.5,2.6,0.5,4.9c0,10.9-2.9,19.2-8.8,25.1c-5.8,5.8-14.2,8.8-25.1,8.8c-10.5,0-18.5-3-24.1-8.9
	c-5.6-5.9-8.5-14.4-8.5-25.4v-46.6c0-4.8-0.7-8.4-2-10.9c-1.4-2.5-3.9-4.9-7.5-7c-0.9-0.5-1.5-1-1.7-1.3c-0.2-0.3-0.3-0.8-0.3-1.3
	v-2.4c0-1.4,0.8-2,2.4-2H475.6z M428.8,97.6c0-6.1,2.4-11,7.1-14.7c4.8-3.7,11.1-5.5,19.1-5.5c8,0,14.4,1.8,19.2,5.5
	c4.8,3.7,7.2,8.6,7.2,14.7c0,6-2.4,10.8-7.2,14.5c-4.8,3.7-11.2,5.5-19.2,5.5c-8,0-14.4-1.8-19.1-5.4
	C431.1,108.6,428.8,103.7,428.8,97.6z M548.9,182.5c0,3.1,2.6,6,7.9,8.7c5.3,2.6,11.2,4,17.7,4c12.9,0,23.5-4.3,31.8-13
	c0.8-0.8,1.4-1.3,1.7-1.5c0.3-0.2,0.8-0.3,1.5-0.3h2.4c0.9,0,1.6,0.3,1.9,1c0.3,0.7,0.5,1.9,0.5,3.7c0,8.4-2.3,16.2-6.8,23.3
	c-4.6,7.1-11,12.9-19.3,17.2c-8.4,4.3-17.7,6.5-28,6.5c-11,0-20.9-2.2-29.7-6.7c-8.8-4.5-15.9-10.9-21.1-19.1
	c-5.2-8.3-7.8-17.7-7.8-28.3c0-10.5,2.4-19.8,7.3-27.9c4.9-8.1,11.8-14.6,20.9-19.2c9-4.7,19.6-7,31.7-7c9.1,0,17.3,1.4,24.5,4.3
	c7.3,2.9,13,6.9,17.2,12.2c4.2,5.3,6.3,11.4,6.3,18.3c0,8.8-3.2,16.1-9.6,21.9c-6.4,5.8-14.5,8.7-24.2,8.7c-9.8,0-17.7-3.3-23.8-9.8
	c-0.8,0-1.5,0.3-2.1,0.9C549.2,180.8,548.9,181.6,548.9,182.5z M555,168.5c0.8,1.1,1.9,1.6,3.3,1.6c2.4,0,3.7-1.4,3.7-4.1v-28.9
	c0-2.7-1.2-4.1-3.7-4.1c-1.4,0-2.4,0.5-3.3,1.6V168.5z"/>
</svg>
