<?xml version="1.0" encoding="UTF-8"?>
<svg id="Layer_2" data-name="Layer 2" xmlns="http://www.w3.org/2000/svg" viewBox="0 0 145.84 132.13">
  <defs>
    <style>
      .cls-1 {
        fill: #deb5b9;
      }

      .cls-2 {
        fill: #d39ea3;
      }

      .cls-3 {
        fill: #e9cdd0;
      }

      .cls-4 {
        fill: #e9cdcf;
      }

      .cls-5 {
        fill: #7a6569;
      }

      .cls-6 {
        fill: #3d3935;
      }
    </style>
  </defs>
  <g id="Layer_7" data-name="Layer 7">
    <g>
      <g>
        <path class="cls-6" d="M79.5,50.85c-.06-.11-.13-.22-.19-.31,2.82-2.1,2.63-5.88,.7-7.78-.82-.8-1.77-1.3-2.84-1.44-.23-.04-.46-.06-.7-.06-1.96-.02-3.41,.91-4.46,2.51-.02,.03-.03,.05-.05,.09-.06-.05-.1-.08-.11-.1-.09-.11-.17-.23-.26-.35-1.04-1.42-2.43-2.27-4.19-2.1-.21,.02-.39,.02-.55,.01-.72-.06-1.22-.42-1.71-.95-.01-.01-.02-.02-.03-.03-2.43-2.5-4.86-5-7.29-7.51-4.27-4.41-8.54-8.81-12.81-13.23-2.41-2.49-4.81-4.98-7.21-7.47-1.62-1.68-3.16-3.46-4.9-4.99-1.86-1.64-3.96-3.03-5.89-4.59-.72-.58-1.42-.77-2.27-.43-.46,.18-.81,.02-1.1-.35-.09-.11-.19-.21-.28-.32-.36-.46-.82-.66-1.37-.46-.61,.21-1.02-.02-1.39-.48-.42-.5-.62-.51-1.18-.19-.13,.06-.25,.15-.37,.23-.72,.46-1.04,.42-1.63-.21-.43-.45-.8-.44-1.18,.06-.25,.34-.46,.7-.73,1.03-.29,.36-.67,.52-1.16,.37q-1.05-.35-1.33,.7c-.15,.61-.36,.7-.97,.63-.36-.05-.73-.01-1.11,.02-.41,.04-.81,.16-1.22,.17-.8,.03-.97,.26-.78,1.03,.12,.5,.17,1.02,.26,1.52,.06,.31,.11,.63,.23,.92,.26,.65,.17,1.13-.48,1.32-.42,.12-.53,.44-.41,.82,.12,.39,.26,.78,.45,1.12,.23,.4,.15,.71-.12,1.03-.11,.13-.23,.26-.35,.39-.59,.61-.62,.97-.12,1.68,.23,.34,.49,.65,.71,.98,.22,.34,.22,.69-.06,1.01-.24,.26-.21,.54-.01,.79,.18,.25,.42,.48,.66,.68,.4,.35,.61,.8,.27,1.3-.15,.23-.18,.58-.15,.86,.05,.7,.22,1.38,.82,1.85,.31,.24,.69,.42,.98,.69,.7,.64,1.49,1.03,2.44,1.08,.16,.01,.31,.06,.45,.1,.11,.65-.15,1.16-.76,1.42-.4,.17-.84,.31-1.28,.4-.76,.14-1.18,.63-1.43,1.3-.09,.23-.18,.48-.19,.71-.03,.85-.53,1.3-1.3,1.52-.22,.08-.44,.14-.67,.19-.61,.15-.76,.3-.76,.95,.01,.58,.09,1.18,.15,1.76,.14,1.15-.25,1.76-1.35,2.07-.1,.03-.21,.05-.3,.08-.66,.21-.94,.71-.76,1.38,.08,.26,.18,.52,.3,.77,.27,.53,.57,1.04,.81,1.58,.53,1.18,.45,2.09-.58,2.91-.03,.02-.06,.05-.1,.09-.56,.59-.57,1.07,.01,1.65,.3,.31,.64,.58,.93,.91,.51,.57,.54,1.1,.05,1.68-.45,.55-.66,1.18-.75,1.86-.1,.82-.25,1.61-.66,2.36-.61,1.09-.31,1.69,.88,2.05,.06,.02,.14,.05,.21,.06,.76,.06,1.42,.39,2.05,.77,.69,.41,1.39,.67,2.23,.64,.65-.03,1.03,.31,1.15,.95,.09,.46,.11,.95,.17,1.42,.1,.72,.43,.99,1.17,1.02,.65,.02,1.29,.11,1.93,.16,.55,.04,.92,.35,1.13,.82,.22,.45,.38,.94,.54,1.42,.45,1.29,1.1,1.68,2.45,1.46,.61-.09,1.2-.19,1.8-.25,.76-.08,1.25,.25,1.51,.9,.25,.64,.46,.83,1.16,.77,.49-.04,.99-.18,1.44-.4,.93-.45,1.56-.31,2.1,.55,.13,.21,.29,.4,.48,.56,.51,.48,.52,.81-.06,1.22-.37,.26-.76,.5-1.16,.69-.62,.3-.88,.81-.93,1.45-.03,.28-.05,.57,.01,.82,.22,.83-.18,1.33-.83,1.73-.18,.11-.37,.23-.56,.32-.57,.31-.65,.46-.49,1.09,.09,.3,.22,.59,.35,.89,.16,.38,.36,.72,.5,1.11,.24,.63,.1,1.11-.43,1.55-.21,.16-.45,.29-.69,.44-.61,.4-.73,.94-.28,1.51,.3,.38,.69,.69,1.03,1.06,.43,.48,.91,.94,1.28,1.46,.38,.54,.34,1.16,.01,1.73-.13,.22-.27,.42-.37,.65-.25,.56-.13,.93,.41,1.23,.38,.22,.79,.36,1.18,.55,.88,.43,1.02,.9,.71,1.8-.15,.43-.24,.94-.17,1.39,.14,.96,.27,1.89,.05,2.87-.17,.79,.18,1.18,.99,1.3,.27,.04,.56,.1,.82,.04,.73-.13,1.44,0,2.15,.16,.8,.18,1.58,.26,2.39-.01,.65-.22,1.13,.02,1.45,.63,.22,.41,.38,.84,.59,1.25,.31,.57,.71,.73,1.35,.57,.18-.04,.36-.12,.54-.15,2.28-.45,2.37-.54,3.76,1.29,.86,1.13,1.53,1.3,2.86,.76,.56-.24,1.11-.49,1.69-.69,.91-.34,1.42-.16,2.04,.55,.17,.19,.52,.36,.78,.35,.32-.02,.65-.19,.95-.37,.44-.25,.83-.56,1.28-.81,.59-.34,1.15-.24,1.69,.19,.35,.27,.75,.5,1.17,.64,.86,.29,1.77,.3,2.65,.08,.4-.1,.81-.28,1.11-.54,.72-.63,1.4-1.3,2.07-1.97,.44-.44,.94-.85,1.26-1.36,3.59-5.55,5.95-11.62,7.48-18.04,.19-.82,.36-1.64,.54-2.46,.04,0,.06,0,.08,.01,.04,.03,.09,.08,.13,.11,.69,.67,1.48,.97,2.35,.93,.28,0,.57-.05,.86-.14,1.22-.37,1.98-1.22,2.23-2.47,.05-.27,.19-.38,.43-.48,1.3-.51,2.01-1.9,1.62-3.21-.11-.36-.01-.5,.26-.69,1.55-1.06,2.06-3.04,1.22-4.69-.16-.31-.11-.45,.14-.67,1.71-1.5,2-3.87,.73-5.77Z"/>
        <path class="cls-6" d="M138.1,48.05c-.41-.75-.56-1.53-.66-2.36-.09-.68-.29-1.31-.75-1.86-.49-.57-.45-1.1,.05-1.68,.29-.32,.63-.59,.93-.91,.58-.58,.57-1.06,.01-1.65-.03-.03-.06-.06-.1-.09-1.04-.82-1.11-1.73-.58-2.91,.24-.54,.54-1.05,.81-1.58,.12-.25,.23-.51,.3-.77,.18-.67-.1-1.18-.76-1.38-.1-.02-.21-.04-.3-.08-1.1-.31-1.49-.93-1.35-2.07,.06-.58,.14-1.18,.15-1.76,0-.65-.15-.8-.76-.95-.23-.05-.45-.12-.67-.19-.77-.23-1.26-.67-1.3-1.52-.01-.24-.11-.49-.19-.71-.25-.67-.67-1.16-1.43-1.3-.43-.09-.88-.23-1.28-.4-.61-.26-.86-.77-.76-1.42,.14-.03,.29-.09,.45-.1,.95-.05,1.74-.44,2.44-1.08,.29-.27,.67-.45,.98-.69,.61-.46,.77-1.15,.82-1.85,.03-.28,0-.64-.15-.86-.34-.5-.13-.95,.27-1.3,.24-.21,.48-.43,.66-.68,.19-.25,.23-.53-.01-.79-.28-.31-.28-.67-.06-1.01,.23-.34,.49-.65,.71-.98,.5-.7,.48-1.07-.12-1.68-.12-.13-.24-.26-.35-.39-.27-.31-.35-.63-.12-1.03,.19-.35,.34-.73,.45-1.12,.12-.38,.01-.7-.41-.82-.65-.18-.73-.67-.48-1.32,.12-.29,.16-.61,.23-.92,.09-.51,.14-1.03,.26-1.52,.19-.77,.02-.99-.78-1.03-.41-.01-.81-.13-1.22-.17-.38-.03-.76-.08-1.11-.02-.62,.08-.82-.02-.97-.63q-.28-1.05-1.33-.7c-.49,.15-.86-.01-1.16-.37-.27-.32-.49-.69-.73-1.03-.38-.51-.75-.52-1.18-.06-.59,.63-.91,.67-1.63,.21-.12-.08-.24-.16-.37-.23-.56-.31-.76-.3-1.18,.19-.38,.45-.79,.68-1.39,.48-.55-.19-1.02,0-1.37,.46-.09,.12-.19,.22-.28,.32-.29,.37-.64,.53-1.1,.35-.85-.34-1.55-.15-2.27,.43-1.93,1.57-4.03,2.95-5.89,4.59-1.74,1.53-3.27,3.32-4.9,4.99-2.4,2.49-4.8,4.98-7.21,7.47-4.27,4.42-8.54,8.82-12.81,13.23-2.43,2.51-4.86,5.01-7.29,7.51-.01,.01-.02,.02-.03,.03-.49,.53-.98,.89-1.71,.95-.16,.01-.35,.01-.55-.01-1.76-.17-3.16,.68-4.19,2.1-.09,.12-.17,.24-.26,.35-.01,.02-.04,.04-.11,.1-.02-.03-.03-.05-.05-.09-1.05-1.6-2.51-2.53-4.46-2.51-.24,0-.48,.02-.7,.06-1.07,.14-2.02,.64-2.84,1.44-1.92,1.9-2.12,5.68,.7,7.78-.06,.1-.13,.21-.19,.31-1.26,1.9-.97,4.27,.73,5.77,.25,.22,.3,.36,.14,.67-.84,1.65-.32,3.63,1.22,4.69,.27,.19,.37,.34,.26,.69-.39,1.31,.32,2.7,1.62,3.21,.24,.1,.38,.21,.43,.48,.25,1.25,1.01,2.11,2.23,2.47,.29,.09,.58,.14,.86,.14,.86,.04,1.65-.26,2.35-.93,.04-.03,.09-.08,.13-.11,.01-.01,.03-.01,.08-.01,.18,.82,.35,1.64,.54,2.46,1.52,6.42,3.89,12.48,7.48,18.04,.32,.51,.82,.92,1.26,1.36,.67,.67,1.35,1.34,2.07,1.97,.3,.26,.71,.44,1.11,.54,.88,.23,1.78,.22,2.65-.08,.42-.14,.82-.37,1.17-.64,.54-.43,1.09-.53,1.69-.19,.44,.25,.83,.56,1.28,.81,.3,.17,.63,.35,.95,.37,.26,.01,.61-.15,.78-.35,.63-.71,1.13-.89,2.04-.55,.57,.21,1.12,.45,1.69,.69,1.33,.54,2,.38,2.86-.76,1.39-1.83,1.48-1.74,3.76-1.29,.18,.03,.36,.11,.54,.15,.64,.16,1.04,0,1.35-.57,.22-.41,.38-.84,.59-1.25,.31-.61,.8-.84,1.45-.63,.81,.27,1.59,.19,2.39,.01,.71-.16,1.42-.29,2.15-.16,.26,.05,.55,0,.82-.04,.81-.12,1.17-.51,.99-1.3-.22-.98-.09-1.91,.05-2.87,.06-.45-.02-.96-.17-1.39-.3-.91-.16-1.37,.71-1.8,.39-.19,.8-.34,1.18-.55,.54-.3,.66-.67,.41-1.23-.1-.23-.24-.43-.37-.65-.32-.57-.37-1.19,.01-1.73,.37-.52,.84-.98,1.28-1.46,.34-.37,.72-.68,1.03-1.06,.45-.57,.32-1.11-.28-1.51-.24-.15-.49-.28-.69-.44-.53-.43-.67-.92-.43-1.55,.14-.39,.34-.73,.5-1.11,.13-.29,.26-.58,.35-.89,.16-.63,.09-.78-.49-1.09-.19-.1-.38-.22-.56-.32-.65-.4-1.05-.9-.83-1.73,.06-.25,.04-.54,.01-.82-.05-.64-.31-1.15-.93-1.45-.4-.19-.79-.43-1.16-.69-.58-.41-.57-.75-.06-1.22,.18-.16,.35-.36,.48-.56,.54-.86,1.17-1.01,2.1-.55,.44,.22,.95,.36,1.44,.4,.69,.06,.91-.13,1.16-.77,.26-.65,.76-.97,1.51-.9,.61,.05,1.2,.16,1.8,.25,1.35,.22,2-.17,2.45-1.46,.16-.48,.32-.96,.54-1.42,.22-.48,.58-.78,1.13-.82,.65-.05,1.29-.14,1.93-.16,.73-.02,1.07-.29,1.17-1.02,.06-.46,.09-.95,.17-1.42,.12-.64,.5-.98,1.15-.95,.83,.03,1.53-.23,2.23-.64,.64-.38,1.3-.7,2.05-.77,.06-.01,.14-.04,.21-.06,1.19-.37,1.48-.96,.88-2.05Z"/>
        <path class="cls-6" d="M77.22,40.78c-2.04-.28-3.75,.29-5.17,1.76-1.42-1.46-3.11-2.04-5.15-1.75-.03-1.98,.75-3.52,2.38-4.6,1.73-1.13,4.02-1.1,5.73,.11,1.53,1.08,2.25,2.58,2.22,4.48Z"/>
        <path class="cls-6" d="M87.3,28.98c-1.29,1.89-2.63,3.59-4.9,4.02-1.84,.35-3.59,.9-5.26,1.7-.3,.14-.59,.29-.96,.48,.25-.82,.65-1.47,1.13-2.07,1.26-1.56,2.95-2.19,4.88-2.4,1.42-.15,2.81-.44,4.08-1.11,.31-.16,.61-.36,1.02-.61Z"/>
        <path class="cls-6" d="M67.93,35.12c-1.19-.49-2.36-1.02-3.57-1.44-.79-.27-1.64-.36-2.44-.59-.64-.19-1.31-.41-1.87-.76-1.29-.79-2.2-1.95-3.1-3.3,.39,.24,.67,.42,.96,.57,1.46,.75,3.04,1.05,4.64,1.22,2.5,.28,4.75,2.07,5.38,4.29Z"/>
      </g>
      <g>
        <path class="cls-5" d="M2.37,124.97v-.22c.67,0,1.1-.12,1.3-.38,.2-.25,.3-.68,.3-1.29v-17.47c0-.62-.08-1.06-.23-1.34s-.62-.42-1.39-.44v-.22h5.73v.22c-.53,0-.9,.07-1.12,.2-.21,.14-.35,.29-.42,.48s-.1,.6-.1,1.25v14.99c0,1.29,.31,2.19,.93,2.72,.62,.53,1.67,.79,3.17,.79h2.61c1.25,0,2.17-.31,2.76-.93s.91-1.78,.98-3.49h.22v5.13H2.37Z"/>
        <path class="cls-5" d="M30.54,115.14h-6.27l-3.23,8.06c-.22,.58-.33,.94-.33,1.07,0,.32,.24,.48,.71,.48v.22h-3.17v-.22c.42,0,.78-.1,1.07-.31,.29-.21,.61-.75,.96-1.62l7.74-19.52h.38l7.61,18.86c0,.1,.2,.55,.58,1.37,.39,.82,.99,1.23,1.79,1.23v.22h-4.99v-.22c.45,0,.68-.18,.68-.54,0-.24-.11-.63-.33-1.16-.04-.04-.07-.1-.1-.19-.02-.1-.03-.15-.04-.15l-3.05-7.58Zm-6.06-.59h5.77l-2.88-7.28-2.89,7.28Z"/>
        <path class="cls-5" d="M48.35,103.84v-.22h6.09c2.16,0,3.74,.24,4.72,.73,.98,.48,1.7,1.09,2.15,1.81s.67,1.67,.67,2.85c0,1.81-.62,3.17-1.87,4.08-1.25,.91-2.94,1.35-5.07,1.31v-.22c1.35,0,2.45-.42,3.3-1.25s1.27-1.92,1.27-3.28c0-1.05-.21-1.99-.62-2.8-.41-.82-.99-1.44-1.73-1.86-.75-.42-1.88-.64-3.41-.64h-1.52v18.26c0,1.03,.12,1.65,.35,1.85,.23,.2,.67,.3,1.32,.3v.22h-5.64v-.22c1,0,1.51-.46,1.51-1.38v-17.67c0-.75-.1-1.25-.29-1.5s-.6-.37-1.22-.37Z"/>
        <path class="cls-5" d="M64.67,103.87v-.25h13.42v2.94h-.22c-.29-1.09-.53-1.73-.73-1.93-.2-.19-.68-.29-1.46-.29h-7.04v9.58h6.54c.65,0,1.06-.06,1.23-.18,.17-.12,.27-.3,.28-.53h.22v2.01h-.22c-.05-.28-.16-.47-.34-.57s-.51-.15-.99-.15h-6.71v6.6c0,1,.09,1.71,.28,2.15s.48,.71,.88,.83,1.01,.17,1.82,.17h3.76c1.2,0,1.96-.04,2.29-.12,.33-.08,.62-.24,.85-.49s.41-.78,.54-1.61h.22v2.93h-14.6v-.22c.49-.03,.87-.12,1.12-.28,.26-.16,.38-.57,.38-1.24v-17.24c0-.78-.07-1.33-.2-1.65-.13-.32-.57-.48-1.3-.48Z"/>
        <path class="cls-5" d="M81.94,103.84v-.22h6.06c1.54,0,2.65,.03,3.33,.1,.69,.07,1.39,.29,2.11,.67s1.26,.9,1.63,1.55c.37,.65,.55,1.45,.55,2.4,0,1.08-.33,2.12-.98,3.1-.65,.98-1.57,1.81-2.76,2.49l1.51,2.32c.33,.58,1.2,1.85,2.62,3.81s2.51,3.16,3.28,3.58,1.52,.64,2.25,.64,1.54-.28,2.46-.83l.09,.29c-1.16,.95-2.66,1.42-4.52,1.42-1.24,0-2.3-.37-3.19-1.1-.89-.73-2.43-2.74-4.64-6.02-.02-.02-.03-.04-.03-.06l-2.15-3.3-1.9,.06h-1.73v8.16c0,.66,.09,1.13,.26,1.41,.17,.29,.59,.43,1.25,.43v.22h-5.51v-.22c.69-.03,1.11-.17,1.28-.43,.17-.26,.25-.79,.25-1.59v-16.96c0-.55-.07-1.01-.22-1.37-.14-.36-.58-.55-1.32-.56Zm4,.35v10.02h2.24c1.76,0,3.07-.42,3.92-1.25,.85-.83,1.28-1.92,1.28-3.28s-.42-2.56-1.26-3.73c-.84-1.17-2.31-1.76-4.42-1.76h-1.76Z"/>
        <path class="cls-5" d="M105.84,124.97v-.22c.67,0,1.1-.12,1.3-.38,.2-.25,.3-.68,.3-1.29v-17.47c0-.62-.08-1.06-.23-1.34s-.62-.42-1.39-.44v-.22h5.73v.22c-.53,0-.9,.07-1.12,.2-.21,.14-.35,.29-.42,.48s-.1,.6-.1,1.25v14.99c0,1.29,.31,2.19,.93,2.72,.62,.53,1.67,.79,3.17,.79h2.61c1.25,0,2.17-.31,2.76-.93s.91-1.78,.98-3.49h.22v5.13h-14.71Z"/>
        <path class="cls-5" d="M134.01,115.14h-6.27l-3.23,8.06c-.22,.58-.33,.94-.33,1.07,0,.32,.24,.48,.71,.48v.22h-3.17v-.22c.42,0,.78-.1,1.07-.31,.29-.21,.61-.75,.96-1.62l7.74-19.52h.38l7.61,18.86c0,.1,.2,.55,.58,1.37,.39,.82,.99,1.23,1.79,1.23v.22h-4.99v-.22c.45,0,.68-.18,.68-.54,0-.24-.11-.63-.33-1.16-.04-.04-.07-.1-.1-.19-.02-.1-.03-.15-.04-.15l-3.05-7.58Zm-6.06-.59h5.77l-2.88-7.28-2.89,7.28Z"/>
      </g>
      <path d="M29.65,5.7c-.23,.24-.43,.46-.69,.73-.09-.41-.16-.79-.27-1.31,.41,.25,.71,.42,.96,.57Z"/>
      <g>
        <path class="cls-4" d="M59.89,56.1c-2.87-.01-5.76-.03-8.65-.03-.9,0-1.79,.02-2.68,.06-1.76,.1-3.11-.63-4.14-2.01-.19-.26-.38-.53-.66-.92,.49-.03,.85-.1,1.21-.06,4.41,.38,8.82,.78,13.24,1.17,1.75,.16,3.51,.31,5.27,.45,.25,.02,.38,.1,.49,.34,.15,.34,.35,.65,.54,1.01h-4.63Z"/>
        <path class="cls-4" d="M41.99,50.71c-.22-.4-.58-.71-.86-1.08-.14-.18-.25-.41-.43-.75,.44,0,.76-.04,1.06,0,3.93,.67,7.87,1.34,11.8,2.02,3.27,.56,6.55,1.12,9.83,1.69,.05,.01,.11,.03,.19,.04v1.04c-.54-.04-1.05-.08-1.56-.12-3.49-.3-6.98-.63-10.47-.92-2.12-.17-4.24-.3-6.35-.48-.61-.05-1.21-.17-1.78-.34-.61-.18-1.11-.51-1.43-1.11Z"/>
        <path class="cls-4" d="M79.49,56.1c.19-.36,.39-.67,.54-1.01,.11-.24,.24-.31,.49-.34,1.76-.14,3.52-.29,5.27-.45,4.42-.39,8.83-.79,13.24-1.17,.36-.03,.72,.03,1.21,.06-.28,.39-.46,.66-.66,.92-1.03,1.38-2.38,2.11-4.14,2.01-.89-.04-1.78-.06-2.68-.06-2.89,0-5.77,.02-8.65,.03h-4.63Z"/>
        <path class="cls-4" d="M102.87,49.63c-.28,.37-.65,.68-.86,1.08-.31,.61-.82,.93-1.43,1.11-.57,.16-1.18,.28-1.78,.34-2.12,.17-4.24,.3-6.35,.48-3.49,.29-6.98,.62-10.47,.92-.51,.04-1.02,.08-1.56,.12v-1.04c.09-.01,.14-.03,.19-.04,3.29-.56,6.56-1.12,9.83-1.69,3.93-.68,7.87-1.35,11.8-2.02,.3-.04,.62,0,1.06,0-.18,.34-.29,.56-.43,.75Z"/>
      </g>
      <g>
        <g>
          <path class="cls-1" d="M61.96,65.5c.11-.41,.24-.8,.32-1.21,.08-.36,.23-.58,.67-.64-.1,.76-.17,1.48-.27,2.2-.08,.57-.63,.62-1.05,.84,.11-.4,.21-.8,.32-1.2Z"/>
          <path class="cls-1" d="M54.11,59.28q.28,.61-.25,.91c-1.1,.62-2.19,1.23-3.3,1.85-.13,.08-.27,.14-.52,.27,.15-.56,.26-1.02,.41-1.47,.04-.12,.21-.24,.35-.29,1.09-.43,2.2-.84,3.31-1.26Z"/>
          <path class="cls-1" d="M51.05,59.28c.04-.73,.28-.99,.95-1.12s1.33-.28,2.02-.43c.1,.27,.05,.43-.22,.53-.92,.34-1.83,.68-2.76,1.03Z"/>
          <path class="cls-1" d="M50.06,63.57c.03-.15,.18-.3,.32-.38,1.42-.79,2.84-1.56,4.3-2.35,.09,.14,.16,.26,.26,.41-1.7,1.25-3.37,2.47-5.04,3.71-.04-.02-.08-.04-.11-.06,.08-.44,.14-.9,.26-1.33Z"/>
          <path class="cls-1" d="M56.73,63.17s.06,.05,.09,.08c-.04,.08-.09,.16-.14,.24-1.31,1.66-2.63,3.34-3.93,5.01-.24,.3-.54,.48-.94,.43-.31-.03-.63-.05-1.1-.1,2.06-1.93,4.05-3.8,6.03-5.66Z"/>
          <path class="cls-1" d="M50.06,68.1c0-.53-.05-.94,.01-1.33,.04-.25,.21-.53,.41-.68,1.68-1.23,3.37-2.43,5.06-3.64,.08-.05,.21-.04,.3-.06,.01,.03,.02,.08,.04,.11-1.92,1.85-3.84,3.7-5.82,5.61Z"/>
          <path class="cls-1" d="M53.67,68.76c.54-.67,1.02-1.28,1.49-1.87,.77-.97,1.55-1.95,2.31-2.93,.18-.24,.34-.29,.61-.06-.08,.14-.15,.28-.24,.43-.64,1.1-1.36,2.16-1.9,3.31-.46,1.01-1.23,1.13-2.27,1.12Z"/>
          <path class="cls-1" d="M56.6,68.38c.91-1.42,1.74-2.72,2.59-4.02,.09-.13,.36-.13,.55-.19,.02,.04,.04,.09,.06,.13-.27,.62-.55,1.22-.81,1.85-.24,.54-.45,1.09-.69,1.63-.05,.11-.14,.25-.25,.27-.43,.13-.89,.22-1.46,.34Z"/>
          <path class="cls-1" d="M59.32,67.75c.09-.23,.12-.35,.16-.45,.42-.94,.83-1.87,1.26-2.8,.08-.16,.26-.27,.39-.4,.04,.03,.09,.08,.14,.12-.27,.94-.53,1.89-.8,2.82-.16,.53-.69,.44-1.16,.71Z"/>
          <path class="cls-1" d="M64.05,63.06c.05-.24,.34-.42,.51-.64,.04,.01,.08,.03,.11,.04,0,.62,.09,1.24-.03,1.83-.06,.35-.46,.63-.72,.94-.05-.02-.11-.05-.16-.09,.1-.69,.15-1.4,.3-2.09Z"/>
          <path class="cls-1" d="M65.65,61.35c1.06,.83,1.05,1.39,0,2.04v-2.04Z"/>
        </g>
        <g>
          <path class="cls-1" d="M82.36,66.7c-.42-.23-.97-.27-1.05-.84-.1-.72-.17-1.45-.27-2.2,.44,.05,.59,.28,.67,.64,.09,.41,.22,.8,.32,1.21,.12,.4,.22,.8,.32,1.2Z"/>
          <path class="cls-1" d="M78.35,61.35v2.04c-1.05-.65-1.06-1.21,0-2.04Z"/>
          <path class="cls-1" d="M79.34,62.47s.06-.03,.11-.04c.17,.22,.45,.4,.51,.64,.15,.68,.21,1.39,.3,2.09-.05,.03-.11,.06-.16,.09-.26-.31-.66-.59-.72-.94-.12-.58-.03-1.21-.03-1.83Z"/>
          <path class="cls-1" d="M87.27,63.17c1.98,1.86,3.97,3.73,6.03,5.66-.48,.04-.79,.06-1.1,.1-.4,.04-.7-.13-.94-.43-1.31-1.68-2.63-3.35-3.93-5.01-.05-.08-.1-.16-.14-.24,.02-.02,.05-.04,.09-.08Z"/>
          <path class="cls-1" d="M88.11,62.49s.03-.08,.04-.11c.1,.02,.23,.01,.3,.06,1.69,1.21,3.38,2.41,5.06,3.64,.21,.15,.37,.43,.41,.68,.06,.39,.01,.8,.01,1.33-1.99-1.91-3.9-3.76-5.82-5.61Z"/>
          <path class="cls-1" d="M89.05,61.26c.1-.15,.17-.27,.26-.41,1.46,.79,2.89,1.56,4.3,2.35,.14,.08,.29,.23,.32,.38,.12,.43,.18,.89,.26,1.33-.03,.02-.06,.04-.11,.06-1.66-1.23-3.34-2.45-5.04-3.71Z"/>
          <path class="cls-1" d="M93.19,60.54c.14,.05,.3,.17,.35,.29,.15,.45,.26,.91,.41,1.47-.25-.13-.39-.19-.52-.27-1.1-.62-2.19-1.23-3.3-1.85q-.53-.3-.25-.91c1.1,.42,2.22,.83,3.31,1.26Z"/>
          <path class="cls-1" d="M89.98,57.72c.69,.15,1.35,.3,2.02,.43s.91,.39,.95,1.12c-.93-.35-1.84-.69-2.76-1.03-.27-.1-.31-.26-.22-.53Z"/>
          <path class="cls-1" d="M82.72,64.22c.05-.04,.1-.09,.14-.12,.13,.13,.31,.24,.39,.4,.43,.93,.84,1.86,1.26,2.8,.04,.11,.08,.23,.16,.45-.46-.27-.99-.18-1.16-.71-.27-.93-.53-1.88-.8-2.82Z"/>
          <path class="cls-1" d="M85,66.14c-.26-.63-.54-1.23-.81-1.85,.02-.04,.04-.09,.06-.13,.19,.06,.46,.06,.55,.19,.85,1.3,1.69,2.6,2.59,4.02-.57-.12-1.03-.21-1.46-.34-.11-.02-.19-.16-.25-.27-.24-.54-.45-1.09-.69-1.63Z"/>
          <path class="cls-1" d="M86.16,64.33c-.09-.15-.16-.29-.24-.43,.27-.23,.42-.17,.61,.06,.77,.98,1.55,1.96,2.31,2.93,.48,.59,.95,1.2,1.49,1.87-1.04,.01-1.8-.12-2.27-1.12-.54-1.15-1.26-2.2-1.9-3.31Z"/>
        </g>
      </g>
      <g>
        <g>
          <path class="cls-2" d="M48.4,64.74c-.53,.15-1.05,.36-1.6,.54,.13-.86,.26-1.01,1.05-1.16,.32-.05,.65-.11,.98-.16,.11,.45-.03,.67-.43,.78Z"/>
          <path class="cls-2" d="M48.48,66.44c-.77,.38-1.51,.8-2.31,1.22,.06-.72,.31-1.22,1.04-1.4,.53-.13,1.04-.35,1.58-.54,.12,.37,.02,.56-.3,.72Z"/>
          <path class="cls-2" d="M47.53,63.14c.17-.77,.26-.83,1.44-.91,.01,.08,.03,.15,.03,.23,.01,.09,0,.17-.01,.29-.49,.13-.96,.25-1.46,.39Z"/>
          <path class="cls-2" d="M48.2,61.35c.37-.48,.55-1.08,1.3-.93q-.22,.86-1.3,.93Z"/>
          <path class="cls-2" d="M46.82,68.36c.71-.29,1.37-.69,2.17-.99-.04,.15-.03,.37-.13,.44-.91,.66-1.83,1.29-2.82,1.99,.01-.69,.12-1.18,.78-1.44Z"/>
          <path class="cls-2" d="M46.86,70.64c.76-.43,1.44-.97,2.16-1.45,.11-.06,.27-.05,.4-.09-.05,.12-.08,.26-.16,.35-.99,.92-2,1.84-3.06,2.82-.08-.75,.01-1.26,.66-1.63Z"/>
          <path class="cls-2" d="M50.46,69.76s.1,.1,.15,.15c-.24,.28-.46,.56-.7,.85-.5,.62-1.01,1.22-1.5,1.85-.36,.45-.7,.53-1.48,.29,1.19-1.06,2.37-2.11,3.53-3.14Z"/>
          <path class="cls-2" d="M50.62,72.56c-.21,.27-.73,.29-1.1,.42-.03-.04-.05-.09-.09-.13,.05-.09,.11-.18,.16-.26,.66-.79,1.31-1.58,1.98-2.36,.13-.15,.37-.23,.56-.34,.03,.04,.06,.09,.1,.13-.53,.84-1.01,1.74-1.61,2.53Z"/>
          <path class="cls-2" d="M51.89,72.46c.55-.82,1.1-1.65,1.68-2.46,.11-.16,.32-.24,.5-.36,.04,.04,.08,.09,.12,.13-.39,.82-.77,1.64-1.17,2.45-.25,.49-.76,.39-1.23,.5,.04-.12,.06-.19,.11-.26Z"/>
          <path class="cls-2" d="M54.3,71.76c.31-.65,.64-1.31,.95-1.95,.17-.35,.21-.36,.69-.31-.23,.7-.43,1.4-.67,2.1-.18,.51-.69,.49-1.2,.68,.1-.23,.16-.38,.23-.52Z"/>
          <path class="cls-2" d="M57.68,69.38c-.16,.85-.01,1.87-1.31,2.03,.17-.5,.37-.99,.5-1.5,.1-.45,.36-.57,.81-.53Z"/>
          <path class="cls-2" d="M58.68,69.37q.12-.61,.79-.62c.16,.85-.04,1.22-.97,1.64,.06-.38,.12-.7,.18-1.03Z"/>
          <path class="cls-2" d="M61.42,67.97c-.02,.55-.48,.73-.83,1.08-.04-.83,0-.89,.83-1.08Z"/>
        </g>
        <g>
          <path class="cls-2" d="M95.8,61.35q-1.08-.06-1.3-.93c.75-.15,.93,.45,1.3,.93Z"/>
          <path class="cls-2" d="M95.03,62.23c1.18,.08,1.26,.14,1.44,.91-.5-.14-.97-.26-1.46-.39-.01-.12-.02-.21-.01-.29,0-.08,.02-.15,.03-.23Z"/>
          <path class="cls-2" d="M95.17,63.96c.34,.05,.66,.11,.98,.16,.79,.15,.92,.29,1.05,1.16-.55-.18-1.07-.39-1.6-.54-.4-.11-.54-.32-.43-.78Z"/>
          <path class="cls-2" d="M95.21,65.72c.54,.19,1.05,.41,1.58,.54,.72,.18,.97,.68,1.04,1.4-.8-.42-1.55-.84-2.31-1.22-.32-.16-.42-.36-.3-.72Z"/>
          <path class="cls-2" d="M83.41,69.05c-.36-.35-.81-.53-.83-1.08,.83,.19,.88,.25,.83,1.08Z"/>
          <path class="cls-2" d="M84.54,68.76q.67,.01,.79,.62c.06,.32,.12,.65,.18,1.03-.93-.42-1.13-.79-.97-1.64Z"/>
          <path class="cls-2" d="M87.13,69.91c.13,.51,.32,1.01,.5,1.5-1.3-.16-1.15-1.18-1.31-2.03,.45-.04,.71,.08,.81,.53Z"/>
          <path class="cls-2" d="M88.75,69.82c.31,.64,.64,1.3,.95,1.95,.06,.14,.13,.29,.23,.52-.51-.19-1.02-.17-1.2-.68-.24-.69-.44-1.39-.67-2.1,.49-.04,.52-.03,.69,.31Z"/>
          <path class="cls-2" d="M89.82,69.77s.08-.09,.12-.13c.17,.12,.39,.19,.5,.36,.57,.81,1.12,1.64,1.68,2.46,.04,.06,.06,.14,.11,.26-.48-.11-.98-.01-1.23-.5-.4-.81-.78-1.63-1.17-2.45Z"/>
          <path class="cls-2" d="M91.77,70.03s.06-.09,.1-.13c.19,.11,.43,.18,.56,.34,.67,.78,1.32,1.57,1.98,2.36,.05,.08,.11,.17,.16,.26-.03,.04-.05,.09-.09,.13-.37-.13-.9-.15-1.1-.42-.61-.79-1.08-1.69-1.61-2.53Z"/>
          <path class="cls-2" d="M95.59,72.61c-.5-.63-1.01-1.23-1.5-1.85-.24-.29-.46-.57-.7-.85,.05-.05,.11-.11,.15-.15,1.17,1.04,2.35,2.09,3.53,3.14-.78,.24-1.12,.16-1.48-.29Z"/>
          <path class="cls-2" d="M94.74,69.45c-.09-.09-.11-.23-.16-.35,.13,.03,.29,.02,.4,.09,.72,.48,1.4,1.02,2.16,1.45,.65,.37,.73,.89,.66,1.63-1.06-.98-2.06-1.9-3.06-2.82Z"/>
          <path class="cls-2" d="M95.14,67.81c-.1-.08-.09-.29-.13-.44,.8,.3,1.46,.7,2.17,.99,.66,.26,.77,.75,.78,1.44-.99-.7-1.91-1.33-2.82-1.99Z"/>
        </g>
      </g>
      <g>
        <path class="cls-1" d="M63.03,51.6c-5.85-1.08-11.7-2.17-17.56-3.22-1.48-.27-2.97-.43-4.46-.64-.8-.11-1.42-.43-1.75-1.22-.18-.44-.49-.82-.71-1.24-.13-.24-.22-.5-.38-.89,.49,.08,.85,.1,1.2,.18,2.68,.64,5.37,1.25,8.04,1.93,5.57,1.43,11.12,2.89,16.69,4.33,.05,.01,.11,.02,.19,.04q-.38,.88-1.25,.71Z"/>
        <path class="cls-1" d="M34.53,38.11c-.15-.35-.17-.76-.23-1.13-.04-.31,.14-.5,.43-.45,.54,.09,1.1,.15,1.6,.36,2.56,1.04,5.1,2.13,7.65,3.2,5.03,2.11,10.06,4.23,15.1,6.34,1.13,.49,2.26,1.01,3.38,1.51,.1,.05,.21,.13,.25,.22,.29,.52,.56,1.04,.86,1.6-1.53-.39-3.05-.77-4.55-1.16-2.19-.56-4.38-1.11-6.56-1.69-2.23-.58-4.45-1.21-6.69-1.77-2.36-.61-4.72-1.16-7.08-1.74-.28-.06-.55-.16-.83-.26-.76-.27-1.35-.7-1.7-1.49-.52-1.19-1.11-2.35-1.64-3.53Z"/>
        <path class="cls-1" d="M105.46,45.27c-.23,.42-.53,.8-.71,1.24-.34,.79-.95,1.11-1.75,1.22-1.49,.21-2.98,.37-4.46,.64-5.86,1.05-11.71,2.14-17.56,3.22q-.88,.16-1.25-.71c.09-.02,.14-.03,.19-.04,5.57-1.45,11.12-2.91,16.69-4.33,2.67-.68,5.36-1.3,8.04-1.93,.35-.09,.71-.11,1.2-.18-.16,.39-.25,.65-.38,.89Z"/>
        <path class="cls-1" d="M106.13,43.13c-.28,.1-.55,.19-.83,.26-2.36,.58-4.72,1.13-7.08,1.74-2.24,.56-4.46,1.19-6.69,1.77-2.18,.57-4.37,1.12-6.56,1.69-1.5,.39-3.02,.77-4.55,1.16,.3-.56,.57-1.08,.86-1.6,.04-.09,.15-.16,.25-.22,1.12-.51,2.25-1.03,3.38-1.51,5.04-2.12,10.07-4.24,15.1-6.34,2.55-1.07,5.09-2.16,7.65-3.2,.5-.21,1.06-.27,1.6-.36,.29-.04,.48,.14,.43,.45-.05,.38-.08,.79-.23,1.13-.53,1.19-1.12,2.35-1.64,3.53-.35,.79-.94,1.22-1.7,1.49Z"/>
      </g>
      <path d="M116.57,20.97c.02,.09-.17,.34-.25,.32-.24-.02-.45-.14-.68-.22,.08-.21,.15-.42,.24-.63,.04-.09,.13-.15,.28-.34,.16,.34,.32,.58,.41,.85Z"/>
      <g>
        <g>
          <path class="cls-1" d="M28.25,13.11c-.28-.04-.93-.86-1.3-1.63,1.17-.03,1.51,.41,1.3,1.63Z"/>
          <path class="cls-1" d="M24.13,15.43c-.69-.42-1.37-.82-2.03-1.26-.48-.31-.38-.81-.38-1.38,.46,.41,.86,.76,1.25,1.11,.39,.35,.77,.69,1.17,1.03,.21,.17,.22,.31-.01,.51Z"/>
          <path class="cls-1" d="M22.57,17.61c.63,.29,1.38,.44,1.33,1.36-.96-.11-1.26-.41-1.33-1.36Z"/>
          <path class="cls-1" d="M22.09,15.24c.57,.37,1.11,.69,1.6,1.08,.11,.09,.02,.42,.02,.65-1.5-.52-1.51-.55-1.62-1.73Z"/>
          <path class="cls-1" d="M24.62,21.16c-.76-.08-1.06-.54-1.21-1.34,.61,.29,1.15,.51,1.64,.79,.5,.29,.95,.64,1.49,1.01-.31-.08-.57-.14-.83-.21-.36-.09-.72-.22-1.09-.25Z"/>
          <path class="cls-1" d="M26.11,13.1c-.42-.49-.85-.97-1.34-1.51,.68-.1,1.18-.04,1.49,.58,.18,.37,.45,.69,.69,1.05q-.51,.25-.84-.12Z"/>
          <path class="cls-1" d="M25.41,14.14c-.26,.03-.46,.13-.54,.06-.84-.7-1.65-1.42-2.51-2.15,.82-.27,1.11-.19,1.6,.39,.44,.53,.9,1.06,1.45,1.7Z"/>
        </g>
        <g>
          <path class="cls-1" d="M115.75,13.11c-.22-1.22,.13-1.66,1.3-1.63-.37,.77-1.02,1.59-1.3,1.63Z"/>
          <path class="cls-1" d="M119.87,15.43c-.23-.19-.22-.34-.01-.51,.4-.34,.78-.68,1.17-1.03,.39-.36,.79-.7,1.25-1.11,0,.57,.1,1.07-.38,1.38-.66,.44-1.34,.84-2.03,1.26Z"/>
          <path class="cls-1" d="M120.28,16.97c0-.23-.09-.56,.02-.65,.49-.39,1.03-.71,1.6-1.08-.11,1.18-.12,1.21-1.62,1.73Z"/>
          <path class="cls-1" d="M121.43,17.61c-.06,.95-.37,1.25-1.33,1.36-.05-.92,.7-1.07,1.33-1.36Z"/>
          <path class="cls-1" d="M121.63,12.05c-.85,.73-1.66,1.45-2.51,2.15-.08,.06-.28-.03-.54-.06,.55-.64,1.01-1.17,1.45-1.7,.49-.58,.78-.66,1.6-.39Z"/>
          <path class="cls-1" d="M117.89,13.1q-.34,.37-.84,.12c.24-.36,.51-.68,.69-1.05,.31-.63,.81-.68,1.49-.58-.49,.54-.92,1.03-1.34,1.51Z"/>
          <path class="cls-1" d="M118.94,20.61c.5-.28,1.04-.5,1.64-.79-.15,.8-.45,1.26-1.21,1.34-.37,.03-.73,.16-1.09,.25-.26,.06-.52,.13-.83,.21,.54-.37,.99-.71,1.49-1.01Z"/>
        </g>
      </g>
      <g>
        <g>
          <path class="cls-2" d="M25.66,36.88c.69-.02,1.37-.2,2.1-.32,.03,.13,.07,.26,.1,.44-1.13,.33-2.24,.65-3.44,1,.25-.64,.5-1.1,1.24-1.12Z"/>
          <path class="cls-2" d="M25.27,36.01c.3-.78,.81-1.1,1.58-1.01,.31,.03,.61,.01,.93,.01v.59c-.84,.14-1.66,.27-2.51,.41Z"/>
          <path class="cls-2" d="M27.61,33.88c-.41,.03-.83,.05-1.27,.09,.53-.91,.74-.99,1.95-.77-.07,.59-.12,.64-.68,.69Z"/>
          <path class="cls-2" d="M28.17,32c.44-.39,.75-.9,1.43-.62-.49,.76-.59,.81-1.43,.62Z"/>
          <path class="cls-2" d="M25.11,39.01c.91-.19,1.8-.48,2.7-.72,.13-.03,.26-.05,.42-.09-.1,.32-3.41,1.87-4.42,2.12,.09-.81,.56-1.17,1.3-1.32Z"/>
          <path class="cls-2" d="M28.81,39.27s.04,.09,.08,.14c-.1,.06-.18,.15-.28,.21-.96,.61-1.93,1.21-2.9,1.82-.39,.24-.65,.19-1.44-.25,1.55-.66,3.04-1.29,4.54-1.91Z"/>
          <path class="cls-2" d="M29.51,40.15c.11,.11,.21,.19,.35,.31-.66,.55-1.26,1.13-1.96,1.57-.29,.18-.79,.03-1.19,.03-.02-.05-.03-.12-.04-.17,.94-.57,1.89-1.16,2.84-1.74Z"/>
          <path class="cls-2" d="M30.22,30.48s-.01-.07-.01-.1c.16-.11,.33-.22,.53-.36,.08,.13,.14,.25,.25,.46h-.77Z"/>
          <path class="cls-2" d="M28.88,42.54c.63-.49,1.17-.93,1.76-1.32,.12-.08,.4,.08,.63,.12-.67,1.15-1.19,1.42-2.39,1.2Z"/>
          <path class="cls-2" d="M33.25,42.01c-.32,.73-.56,.85-1.63,.76,.62-.9,.9-1.02,1.63-.76Z"/>
          <path class="cls-2" d="M34.53,42.06c.12-.1,.35-.15,.5-.12,.11,.02,.26,.3,.22,.37-.08,.13-.26,.24-.42,.28-.23,.06-.46,.06-.8,.1,.21-.26,.32-.48,.51-.63Z"/>
        </g>
        <g>
          <path class="cls-2" d="M108.97,41.95c.15-.03,.38,.02,.5,.12,.18,.15,.3,.37,.51,.63-.34-.03-.57-.03-.8-.1-.16-.04-.35-.15-.42-.28-.04-.06,.11-.35,.22-.37Z"/>
          <path class="cls-2" d="M112.38,42.77c-1.07,.1-1.31-.02-1.63-.76,.73-.26,1.02-.14,1.63,.76Z"/>
          <path class="cls-2" d="M113.03,30.48c.11-.21,.17-.32,.25-.45,.21,.14,.37,.25,.53,.36,0,.03-.01,.06-.01,.1h-.77Z"/>
          <path class="cls-2" d="M116.39,33.85c-.55-.04-.61-.1-.67-.68,1.2-.22,1.4-.14,1.93,.77-.44-.03-.85-.05-1.26-.09Z"/>
          <path class="cls-2" d="M118.72,35.96c-.84-.14-1.65-.27-2.49-.41v-.58c.31,0,.62,.02,.92-.01,.77-.09,1.26,.23,1.57,1.01Z"/>
          <path class="cls-2" d="M116.24,36.51c.72,.12,1.4,.29,2.09,.31,.73,.02,.98,.48,1.23,1.11-1.19-.35-2.29-.67-3.41-.99,.03-.17,.06-.3,.1-.43Z"/>
          <path class="cls-2" d="M115.83,31.98c-.83,.18-.93,.14-1.42-.62,.67-.28,.98,.23,1.42,.62Z"/>
          <path class="cls-2" d="M114.49,40.15c.95,.58,1.9,1.17,2.84,1.74-.01,.05-.02,.12-.04,.17-.4,0-.9,.15-1.19-.03-.69-.43-1.3-1.02-1.96-1.57,.14-.12,.24-.21,.35-.31Z"/>
          <path class="cls-2" d="M115.4,39.61c-.1-.05-.18-.14-.28-.21,.03-.05,.05-.1,.08-.14,1.5,.63,2.99,1.25,4.54,1.91-.79,.44-1.05,.49-1.44,.25-.96-.61-1.93-1.21-2.9-1.82Z"/>
          <path class="cls-2" d="M115.77,38.14c.16,.03,.29,.05,.42,.09,.9,.24,1.77,.53,2.68,.71,.73,.15,1.2,.51,1.29,1.31-1.01-.25-4.29-1.79-4.39-2.11Z"/>
          <path class="cls-2" d="M113.36,41.22c.59,.39,1.13,.83,1.76,1.32-1.2,.22-1.72-.05-2.39-1.2,.23-.04,.51-.19,.63-.12Z"/>
        </g>
      </g>
      <g>
        <g>
          <path class="cls-2" d="M17.05,7.76c1.42,1.12,2.8,2.27,4.17,3.39-.16,.38-.29,.69-.44,1.05-2.29-1.34-4.61-2.59-6.88-3.97,.01-.08,.02-.15,.03-.22,.77-.18,1.55-.41,2.32-.54,.25-.03,.58,.11,.8,.28Z"/>
          <path class="cls-2" d="M20.66,24.14c-.48-.21-.94-.42-1.42-.63v-.13c1.23-.49,2.45-.97,3.73-1.48,.15,.34,.28,.62,.41,.9-.84,.45-1.66,.89-2.49,1.32-.06,.03-.17,.04-.24,.02Z"/>
          <path class="cls-2" d="M22.59,21.03c-.23,.1-.46,.19-.7,.29-.96,.37-1.95,.72-2.91,1.11-.59,.24-1.11,.22-1.62-.19-.28-.23-.58-.42-.88-.63,0-.04,.01-.09,.02-.14,.81-.16,1.62-.34,2.44-.51,.91-.18,1.82-.36,2.72-.54q.69-.13,.92,.61Z"/>
          <path class="cls-2" d="M22.32,10.75c-.11,.01-.25-.04-.34-.12-1.22-1.02-2.43-2.05-3.64-3.08-.43-.38-.62-.85-.53-1.44,.06-.46,.1-.94,.14-1.4,.05-.02,.11-.04,.16-.06,1.72,1.96,3.44,3.92,5.2,5.92-.38,.08-.68,.15-.99,.18Z"/>
          <path class="cls-2" d="M13.97,9.41c2.1,1.19,4.19,2.4,6.3,3.58,.45,.25,.59,.56,.52,1.08-.37-.11-.72-.19-1.08-.31-1.53-.49-3.08-.98-4.61-1.47-.83-.26-1.36-.77-1.5-1.66-.08-.48-.22-.94-.36-1.55,.34,.15,.54,.23,.73,.34Z"/>
          <path class="cls-2" d="M14.43,13.37c.27-.1,.64-.03,.93,.05,1.76,.51,3.51,1.05,5.27,1.56,.56,.16,.29,.64,.55,1.04-2.94-.42-5.73-.83-8.53-1.23,0-.04-.01-.1-.02-.14,.55-.5,1.07-1.04,1.79-1.28Z"/>
          <path class="cls-2" d="M12.5,15.74c.53,.06,1.06,.13,1.59,.21,2.12,.3,4.25,.62,6.38,.92,.09,.01,.17,.03,.26,.03,.54-.01,.77,.27,.75,.86-1.34,0-2.68,.01-4.03,0-1.01,0-2.02,.01-3.04,0-.43,0-.77-.22-1.03-.56-.31-.44-.63-.89-.95-1.33,.02-.04,.05-.09,.08-.13Z"/>
          <path class="cls-2" d="M14.96,18.79c2.06-.03,4.14-.05,6.21-.09q.68-.01,.8,.73c-1.57,.31-3.13,.54-4.65,.95-1.22,.32-2.09-.01-2.81-.95-.13-.16-.28-.32-.5-.57,.38-.03,.66-.08,.94-.08Z"/>
          <path class="cls-2" d="M27.16,4.58c.25,.16,.45,.5,.54,.8,.29,1.01,.58,2.02,.75,3.06,.1,.64-.04,1.32-.16,2.02-.9-2.13-1.8-4.26-2.7-6.39,.04-.03,.08-.08,.12-.11,.49,.19,1.02,.35,1.46,.62Z"/>
          <path class="cls-2" d="M24.23,3.97c.23,.08,.44,.38,.55,.63,.83,1.92,1.64,3.85,2.45,5.78,.02,.03,0,.08,0,.12-.41,.08-.68-.06-.92-.43-1.21-1.9-2.44-3.79-3.67-5.68-.17-.27-.37-.53-.55-.8,.03-.05,.05-.1,.08-.14,.69,.16,1.39,.29,2.06,.53Z"/>
          <path class="cls-2" d="M21.93,4.98c1.09,1.72,2.2,3.43,3.31,5.13,.08,.12,.15,.25,.25,.4-.62,.12-1.03-.02-1.42-.49-1.58-1.85-3.2-3.66-4.8-5.5-.14-.16-.27-.36-.41-.55,1.2-.41,2.44,.02,3.07,1.01Z"/>
        </g>
        <g>
          <path class="cls-2" d="M126.95,7.76c.22-.17,.55-.31,.8-.28,.78,.13,1.56,.36,2.32,.54,.01,.06,.02,.14,.03,.22-2.27,1.37-4.59,2.63-6.88,3.97-.15-.36-.28-.67-.44-1.05,1.37-1.12,2.76-2.27,4.17-3.39Z"/>
          <path class="cls-2" d="M126.64,22.24c-.51,.41-1.03,.43-1.62,.19-.96-.39-1.95-.75-2.91-1.11-.24-.1-.48-.19-.7-.29q.23-.73,.92-.61c.91,.18,1.82,.36,2.72,.54,.82,.17,1.63,.35,2.44,.51,.01,.05,.02,.1,.02,.14-.29,.21-.59,.4-.88,.63Z"/>
          <path class="cls-2" d="M121.03,21.9c1.28,.51,2.5,.99,3.73,1.48v.13c-.48,.21-.94,.42-1.42,.63-.06,.02-.17,.01-.24-.02-.82-.43-1.64-.86-2.49-1.32,.13-.28,.26-.56,.41-.9Z"/>
          <path class="cls-2" d="M126.67,20.39c-1.51-.41-3.08-.64-4.65-.95q.12-.75,.8-.73c2.07,.03,4.15,.05,6.21,.09,.28,0,.56,.04,.94,.08-.22,.25-.37,.41-.5,.57-.72,.94-1.59,1.28-2.81,.95Z"/>
          <path class="cls-2" d="M129.6,17.76c-1.02,.01-2.03,0-3.04,0-1.35,.01-2.69,0-4.03,0-.02-.59,.21-.88,.75-.86,.09,0,.17-.02,.26-.03,2.13-.3,4.26-.62,6.38-.92,.53-.08,1.06-.14,1.59-.21,.02,.04,.05,.09,.08,.13-.32,.44-.64,.89-.95,1.33-.26,.35-.59,.56-1.03,.56Z"/>
          <path class="cls-2" d="M131.36,14.65s-.02,.1-.02,.14c-2.8,.4-5.59,.81-8.53,1.23,.26-.4-.01-.88,.55-1.04,1.76-.51,3.51-1.05,5.27-1.56,.29-.09,.66-.15,.93-.05,.72,.24,1.24,.78,1.79,1.28Z"/>
          <path class="cls-2" d="M130.41,10.62c-.14,.9-.67,1.4-1.5,1.66-1.53,.49-3.08,.98-4.61,1.47-.36,.12-.71,.21-1.08,.31-.08-.52,.06-.83,.52-1.08,2.11-1.18,4.2-2.39,6.3-3.58,.19-.11,.4-.18,.73-.34-.14,.61-.28,1.07-.36,1.55Z"/>
          <path class="cls-2" d="M125.66,7.55c-1.21,1.03-2.42,2.06-3.64,3.08-.09,.08-.23,.13-.34,.12-.31-.03-.62-.11-.99-.18,1.76-2,3.48-3.97,5.2-5.92,.05,.02,.11,.04,.16,.06,.04,.46,.08,.94,.14,1.4,.09,.58-.1,1.06-.53,1.44Z"/>
          <path class="cls-2" d="M125.14,3.97c-.14,.19-.27,.39-.41,.55-1.6,1.84-3.22,3.65-4.8,5.5-.39,.46-.8,.61-1.42,.49,.1-.15,.17-.28,.25-.4,1.1-1.71,2.22-3.41,3.31-5.13,.63-.98,1.87-1.42,3.07-1.01Z"/>
          <path class="cls-2" d="M119.77,3.97c.67-.24,1.37-.37,2.06-.53,.02,.04,.04,.09,.08,.14-.18,.27-.38,.53-.55,.8-1.23,1.89-2.46,3.78-3.67,5.68-.24,.37-.51,.51-.92,.43,0-.04-.02-.09,0-.12,.81-1.93,1.62-3.86,2.45-5.78,.11-.25,.32-.55,.55-.63Z"/>
          <path class="cls-2" d="M115.55,8.43c.16-1.04,.45-2.05,.75-3.06,.09-.3,.29-.64,.54-.8,.44-.27,.97-.42,1.46-.62,.04,.03,.08,.08,.12,.11-.9,2.13-1.8,4.26-2.7,6.39-.12-.7-.26-1.38-.16-2.02Z"/>
        </g>
      </g>
      <path d="M115.31,5.13c-.11,.52-.18,.9-.27,1.31-.26-.27-.46-.5-.69-.73,.25-.15,.55-.32,.96-.57Z"/>
      <g>
        <path class="cls-2" d="M29.93,23.28c-.12-1.34-.24-2.68-.34-4.02-.02-.27,.02-.55,.09-.82,.12-.56,.38-.73,.9-.48,.66,.32,1.31,.69,1.89,1.13,1.53,1.17,3.04,2.38,4.55,3.57,2.65,2.1,5.3,4.19,7.94,6.27,6,4.7,12,9.4,17.98,14.09,.13,.1,.25,.21,.38,.31-.22,.4-.42,.8-.65,1.22-.12-.06-.25-.13-.37-.21-5.57-3.3-11.13-6.6-16.71-9.88-4.24-2.5-8.5-4.94-12.76-7.41-.34-.19-.67-.4-.99-.63-1.1-.77-1.78-1.79-1.91-3.16Z"/>
        <path class="cls-2" d="M32.76,28.11c.94,.48,1.87,.99,2.78,1.52,3.14,1.85,6.28,3.72,9.41,5.58,5.71,3.36,11.42,6.72,17.13,10.08,.28,.16,.4,.31,.35,.64-.05,.29-.01,.61-.01,.91-.77-.34-1.48-.66-2.2-.96-4.85-2.07-9.7-4.17-14.57-6.21-3.38-1.44-6.8-2.81-10.19-4.21-.42-.17-.84-.37-1.25-.58-.88-.49-1.48-1.21-1.73-2.18-.29-1.16-.55-2.31-.81-3.46-.03-.12-.04-.24-.04-.35-.06-.97,.27-1.21,1.15-.77Z"/>
        <path class="cls-2" d="M30.76,6.72c.75,.49,1.48,1.03,2.11,1.65,3.19,3.26,6.33,6.56,9.5,9.84,.86,.9,1.72,1.8,2.58,2.7,2.16,2.22,4.34,4.41,6.49,6.64,3.51,3.63,7.01,7.28,10.51,10.93,1.06,1.09,2.12,2.18,3.18,3.29-.4,.28-.77,.55-1.16,.83-1.58-1.24-3.16-2.49-4.74-3.73-4.55-3.58-9.09-7.18-13.65-10.74-4.3-3.37-8.61-6.71-12.92-10.06-.64-.5-1.28-.99-1.87-1.53-1.13-1.03-1.65-2.32-1.59-3.85,.06-1.4,.13-2.81,.24-4.2,.03-.46,.17-.94,.34-1.38,.18-.52,.53-.68,.98-.38Z"/>
        <path class="cls-2" d="M112.34,29.23c-.26,1.15-.52,2.3-.81,3.46-.25,.97-.85,1.7-1.73,2.18-.41,.22-.83,.41-1.25,.58-3.39,1.4-6.81,2.78-10.19,4.21-4.86,2.04-9.72,4.14-14.57,6.21-.72,.3-1.44,.63-2.2,.96,0-.3,.04-.62-.01-.91-.05-.32,.06-.48,.35-.64,5.71-3.36,11.42-6.72,17.13-10.08,3.13-1.86,6.27-3.73,9.41-5.58,.91-.53,1.84-1.05,2.78-1.52,.88-.44,1.21-.21,1.15,.77,0,.11-.01,.23-.04,.35Z"/>
        <path class="cls-2" d="M112.16,26.44c-.32,.23-.66,.43-.99,.63-4.26,2.47-8.53,4.92-12.76,7.41-5.58,3.27-11.14,6.58-16.71,9.88-.12,.08-.25,.14-.37,.21-.23-.42-.43-.82-.65-1.22,.13-.11,.25-.22,.38-.31,5.99-4.69,11.98-9.39,17.98-14.09,2.65-2.07,5.3-4.17,7.94-6.27,1.51-1.19,3.02-2.4,4.55-3.57,.58-.44,1.23-.81,1.89-1.13,.52-.26,.78-.09,.9,.48,.06,.27,.11,.55,.09,.82-.1,1.34-.22,2.68-.34,4.02-.13,1.36-.81,2.39-1.91,3.16Z"/>
        <path class="cls-2" d="M82.04,38.48c3.5-3.64,7-7.29,10.51-10.93,2.15-2.23,4.33-4.42,6.49-6.64,.86-.9,1.72-1.8,2.58-2.7,3.17-3.29,6.31-6.58,9.5-9.84,.63-.63,1.36-1.17,2.11-1.65,.45-.3,.8-.14,.98,.38,.16,.44,.3,.92,.34,1.38,.11,1.39,.17,2.8,.24,4.2,.06,1.52-.45,2.82-1.59,3.85-.59,.54-1.23,1.04-1.87,1.53-4.31,3.35-8.62,6.69-12.92,10.06-4.56,3.57-9.1,7.16-13.65,10.74-1.59,1.24-3.17,2.49-4.74,3.73-.39-.28-.76-.55-1.16-.83,1.06-1.1,2.12-2.19,3.18-3.29Z"/>
      </g>
      <g>
        <g>
          <path class="cls-3" d="M44.59,84.67c-.29-.72-.57-1.45-.83-2.19-.19-.55-.16-1.13,.14-1.63,.44-.72,.96-1.39,1.43-2.11,.48-.69,.93-1.39,1.38-2.1,.48-.72,.95-1.45,1.42-2.19,.14-.24,.31-.32,.59-.31,.64,.02,1.29,.01,1.96,.01-.16,.35-.34,.72-.51,1.1-1.37,2.95-2.73,5.89-4.12,8.84-.14,.31-.3,.62-.51,.91-.11,.16-.29,.27-.5,.44-.18-.3-.36-.52-.45-.77Z"/>
          <path class="cls-3" d="M35.83,59.34c.64-1.01,1.57-1.22,2.67-1.15,2.59,.17,5.2,.32,7.8,.48,.63,.04,1.26,.1,1.99,.14-.18,.39-.32,.72-.52,1.04-.04,.09-.23,.11-.35,.13-3.78,.4-7.56,.81-11.36,1.21-.45,.04-.93,0-1.5,0,.19-.35,.3-.57,.44-.78,.27-.37,.58-.69,.82-1.07Z"/>
          <path class="cls-3" d="M32.57,65.66c.41-.84,.82-1.69,1.29-2.5,.37-.64,1.03-.91,1.72-.98,2.18-.26,4.37-.49,6.55-.71,1.55-.16,3.08-.32,4.63-.49,.15-.02,.31-.03,.55-.04-.15,.4-.25,.75-.41,1.06-.06,.13-.26,.23-.41,.27-2.25,.67-4.51,1.33-6.75,1.99-1.79,.52-3.59,1.02-5.38,1.53-.41,.12-.81,.3-1.23,.41-.18,.05-.39,0-.58,0,.01-.18-.03-.39,.04-.54Z"/>
          <path class="cls-3" d="M48.79,57.79c-.06,.09-.27,.12-.41,.11-1.9-.12-3.81-.25-5.72-.38-1.34-.1-2.68-.19-4.02-.31-.26-.02-.52-.12-.78-.18-.01-.05-.02-.1-.04-.15,.27-.28,.53-.57,.81-.83,.32-.31,.67-.59,1.01-.9,.53-.49,1.15-.65,1.85-.51,.83,.17,1.66,.37,2.49,.57,.12,.02,.26,.1,.34,.18,1.05,1.29,2.49,1.63,4.06,1.65,.23,0,.46-.01,.69-.01,.01,0,.03,.01,.1,.03-.12,.25-.21,.51-.37,.72Z"/>
          <path class="cls-3" d="M32.77,72.94c-.19-.09-.36-.23-.66-.42,.43-.28,.78-.54,1.16-.72,2.71-1.24,5.44-2.47,8.16-3.72,1.17-.53,2.33-1.06,3.51-1.59,.14-.06,.28-.11,.39-.15-.15,.72-.29,1.42-.45,2.1-.03,.12-.15,.24-.26,.31-2.43,1.58-4.86,3.13-7.29,4.71-.89,.58-1.78,.69-2.76,.24-.58-.27-1.2-.49-1.79-.76Z"/>
          <path class="cls-3" d="M33.01,70.86c-.31,.14-.65,.24-.98,.34-.31,.09-.51-.04-.4-.38,.34-.99,.66-2,1.07-2.97,.28-.64,.93-.9,1.57-1.08,1.16-.34,2.33-.65,3.5-.98,2.73-.79,5.47-1.59,8.2-2.39,.12-.03,.25-.05,.5-.11-.28,.66-.51,1.22-.76,1.78-.04,.08-.15,.13-.25,.17-4.14,1.87-8.29,3.75-12.45,5.62Z"/>
          <path class="cls-3" d="M35.66,80.14c-.04-.67-.06-1.35-.09-2.03-.01-.14,.03-.28,.01-.43-.12-1.34,.51-2.26,1.59-2.96,2.02-1.32,4.04-2.65,6.06-3.98,.5-.32,1.02-.65,1.56-.99,.09,.78,.17,1.48,.23,2.18,.01,.14-.06,.31-.16,.4-2.6,2.49-5.2,4.96-7.81,7.42-.26,.24-.57,.43-.88,.64-.29,.19-.48,.08-.51-.25Z"/>
          <path class="cls-3" d="M39.66,82.03c-.66-.08-1.33-.09-2-.12-.09-.01-.17-.02-.25-.04-.61-.13-.66-.26-.29-.77,.19-.26,.41-.49,.64-.71,2.41-2.29,4.82-4.58,7.24-6.87,.13-.13,.29-.23,.5-.37,.36,.79,1.1,.71,1.78,.93-.3,.46-.57,.92-.88,1.35-1.28,1.78-2.56,3.57-3.84,5.34-.72,.99-1.7,1.39-2.91,1.26Z"/>
          <path class="cls-3" d="M49.06,85.37c-.68,.19-1.35,.43-2.03,.64-.15,.05-.32,.03-.65,.06,.14-.46,.21-.83,.36-1.17,1.65-3.58,3.32-7.15,4.98-10.72,.06-.14,.25-.28,.4-.32,.56-.14,1.13-.25,1.73-.37-.01,.09,0,.16-.02,.24-.95,3.21-1.9,6.43-2.85,9.64-.29,1.01-.89,1.71-1.91,2Z"/>
          <path class="cls-3" d="M54.66,83.75c-.76,.4-1.5,.8-2.28,1.16-.5,.23-.69,.08-.55-.46,.3-1.26,.65-2.52,1.01-3.77,.67-2.36,1.36-4.71,2.02-7.08,.1-.34,.25-.51,.58-.58,.42-.11,.82-.27,1.3-.43-.15,1.64-.29,3.21-.45,4.78-.15,1.57-.3,3.13-.49,4.7-.09,.75-.46,1.33-1.13,1.7Z"/>
          <path class="cls-3" d="M58.88,81.39c-.43,.31-.83,.67-1.26,.99-.21,.15-.44,.26-.78,.45-.02-.44-.08-.76-.04-1.06,.27-2.98,.55-5.97,.82-8.95,.03-.46,.17-.77,.65-.91,.31-.09,.59-.27,.96-.44,.05,.71,.12,1.37,.16,2.03,.14,1.98,.27,3.96,.4,5.92,.05,.82-.26,1.46-.91,1.96Z"/>
          <path class="cls-3" d="M62.84,77.69c-.38,.42-.73,.86-1.11,1.28-.19,.21-.43,.38-.73,.64-.1-.4-.22-.7-.24-1.01-.22-2.42-.41-4.84-.62-7.25-.03-.28,.04-.45,.29-.61,.48-.29,.93-.63,1.47-.98,.18,.82,.36,1.6,.54,2.37,.28,1.23,.58,2.47,.86,3.71,.16,.69,.01,1.32-.46,1.86Z"/>
          <path class="cls-3" d="M66.06,73.74c-.36,.54-.71,1.09-1.07,1.63-.1,.16-.19,.31-.29,.48-.06-.03-.14-.06-.21-.1-.12-.32-.28-.65-.37-.98-.45-1.8-.89-3.62-1.32-5.44-.03-.14,.01-.35,.1-.44,.43-.48,.89-.92,1.37-1.42,.09,.18,.15,.32,.22,.45,.55,1.2,1.1,2.39,1.65,3.59,.36,.76,.38,1.5-.09,2.23Z"/>
          <path class="cls-3" d="M68.34,68.52c-.22,.78-.58,1.5-.91,2.25-.06,.13-.18,.25-.34,.45-.23-.39-.44-.69-.59-1.03-.49-1.07-.95-2.14-1.4-3.22-.05-.15-.03-.39,.05-.54,.34-.54,.71-1.05,1.05-1.59,.19-.3,.39-.29,.56-.02,.5,.77,1.04,1.53,1.44,2.37,.19,.38,.25,.92,.14,1.33Z"/>
        </g>
        <g>
          <path class="cls-3" d="M100.24,82.48c-.26,.75-.54,1.47-.83,2.19-.1,.25-.27,.46-.45,.77-.21-.17-.39-.28-.5-.44-.21-.29-.37-.59-.51-.91-1.38-2.95-2.74-5.89-4.12-8.84-.17-.38-.35-.76-.51-1.1,.67,0,1.32,.01,1.96-.01,.28-.01,.45,.08,.59,.31,.46,.75,.94,1.47,1.42,2.19,.45,.7,.91,1.4,1.38,2.1,.46,.71,.98,1.38,1.43,2.11,.3,.5,.34,1.08,.14,1.63Z"/>
          <path class="cls-3" d="M102.52,54.63c.7-.14,1.32,.02,1.85,.51,.34,.3,.68,.58,1.01,.9,.28,.26,.54,.55,.81,.83-.02,.05-.03,.1-.04,.15-.26,.06-.52,.16-.78,.18-1.34,.12-2.68,.22-4.02,.31-1.9,.13-3.81,.26-5.72,.38-.14,.01-.35-.02-.41-.11-.16-.22-.25-.48-.37-.72,.06-.02,.09-.03,.1-.03,.23,0,.46,.01,.69,.01,1.58-.02,3.02-.37,4.06-1.65,.08-.09,.22-.16,.34-.18,.82-.21,1.65-.4,2.49-.57Z"/>
          <path class="cls-3" d="M97.11,61.99c-.16-.31-.26-.66-.41-1.06,.24,.01,.4,.02,.55,.04,1.55,.16,3.08,.32,4.63,.49,2.18,.23,4.37,.45,6.55,.71,.69,.08,1.35,.35,1.72,.98,.46,.81,.88,1.65,1.29,2.5,.08,.15,.03,.36,.04,.54-.19,0-.4,.05-.58,0-.42-.11-.82-.29-1.23-.41-1.79-.52-3.59-1.02-5.38-1.53-2.25-.66-4.51-1.32-6.75-1.99-.15-.04-.35-.14-.41-.27Z"/>
          <path class="cls-3" d="M109.43,61.19c-.57,0-1.05,.04-1.5,0-3.79-.4-7.58-.81-11.36-1.21-.12-.02-.3-.04-.35-.13-.19-.31-.34-.65-.52-1.04,.72-.04,1.36-.1,1.99-.14,2.6-.15,5.21-.3,7.8-.48,1.1-.08,2.03,.14,2.67,1.15,.24,.38,.55,.7,.82,1.07,.14,.21,.25,.43,.44,.78Z"/>
          <path class="cls-3" d="M97.54,63.29c.25,.05,.38,.08,.5,.11,2.73,.8,5.47,1.6,8.2,2.39,1.17,.34,2.35,.65,3.5,.98,.64,.18,1.29,.44,1.57,1.08,.41,.97,.73,1.98,1.07,2.97,.11,.34-.09,.46-.4,.38-.34-.1-.67-.19-.98-.34-4.16-1.87-8.31-3.75-12.45-5.62-.1-.04-.21-.1-.25-.17-.25-.56-.48-1.12-.76-1.78Z"/>
          <path class="cls-3" d="M99.06,66.49c1.18,.53,2.35,1.06,3.51,1.59,2.72,1.24,5.45,2.47,8.16,3.72,.38,.18,.72,.44,1.16,.72-.3,.19-.46,.34-.66,.42-.59,.27-1.21,.49-1.79,.76-.97,.45-1.87,.35-2.76-.24-2.43-1.58-4.86-3.13-7.29-4.71-.11-.08-.23-.19-.26-.31-.16-.68-.3-1.37-.45-2.1,.11,.04,.25,.09,.39,.15Z"/>
          <path class="cls-3" d="M76.91,71.22c-.15-.21-.27-.32-.34-.45-.32-.75-.69-1.47-.91-2.25-.11-.41-.05-.95,.14-1.33,.4-.83,.94-1.6,1.44-2.37,.17-.27,.37-.28,.56,.02,.34,.54,.71,1.05,1.05,1.59,.09,.15,.11,.39,.05,.54-.45,1.08-.92,2.15-1.4,3.22-.15,.34-.37,.64-.59,1.03Z"/>
          <path class="cls-3" d="M79.51,75.75c-.06,.03-.14,.06-.21,.1-.1-.16-.19-.31-.29-.48-.36-.54-.71-1.09-1.07-1.63-.46-.72-.44-1.47-.09-2.23,.55-1.2,1.1-2.39,1.65-3.59,.06-.13,.13-.27,.22-.45,.49,.5,.94,.94,1.37,1.42,.09,.1,.13,.3,.1,.44-.43,1.82-.86,3.63-1.32,5.44-.09,.34-.25,.66-.37,.98Z"/>
          <path class="cls-3" d="M82.28,78.97c-.38-.41-.73-.85-1.11-1.28-.48-.54-.63-1.17-.46-1.86,.28-1.23,.58-2.47,.86-3.71,.18-.77,.36-1.55,.54-2.37,.54,.36,.99,.69,1.47,.98,.25,.15,.32,.32,.29,.61-.21,2.41-.4,4.83-.62,7.25-.02,.3-.14,.61-.24,1.01-.3-.26-.54-.43-.73-.64Z"/>
          <path class="cls-3" d="M84.21,79.43c.13-1.97,.26-3.94,.4-5.92,.04-.66,.11-1.32,.16-2.03,.37,.17,.65,.36,.96,.44,.48,.14,.62,.44,.65,.91,.27,2.98,.55,5.97,.82,8.95,.03,.3-.02,.62-.04,1.06-.34-.19-.57-.3-.78-.45-.43-.32-.83-.68-1.26-.99-.65-.5-.96-1.13-.91-1.96Z"/>
          <path class="cls-3" d="M88.21,82.05c-.18-1.57-.34-3.13-.49-4.7-.16-1.57-.3-3.13-.45-4.78,.48,.16,.88,.32,1.3,.43,.34,.08,.49,.25,.58,.58,.66,2.37,1.35,4.72,2.02,7.08,.36,1.25,.7,2.51,1.01,3.77,.14,.54-.05,.69-.55,.46-.78-.36-1.52-.76-2.28-1.16-.67-.37-1.05-.95-1.13-1.7Z"/>
          <path class="cls-3" d="M94.94,85.37c-1.03-.29-1.62-.99-1.91-2-.95-3.21-1.9-6.43-2.85-9.64-.02-.08-.01-.15-.02-.24,.59,.12,1.17,.23,1.73,.37,.15,.04,.34,.18,.4,.32,1.66,3.57,3.33,7.14,4.98,10.72,.15,.34,.22,.7,.36,1.17-.32-.03-.5-.01-.65-.06-.68-.21-1.35-.44-2.03-.64Z"/>
          <path class="cls-3" d="M101.44,80.76c-1.28-1.77-2.56-3.56-3.84-5.34-.3-.43-.57-.89-.88-1.35,.68-.22,1.43-.14,1.78-.93,.21,.14,.37,.24,.5,.37,2.42,2.29,4.83,4.58,7.24,6.87,.23,.23,.44,.45,.64,.71,.37,.51,.31,.64-.29,.77-.08,.02-.16,.03-.25,.04-.67,.03-1.34,.04-2,.12-1.21,.13-2.18-.27-2.91-1.26Z"/>
          <path class="cls-3" d="M108.34,80.14c-.03,.32-.22,.44-.51,.25-.3-.21-.62-.4-.88-.64-2.62-2.46-5.21-4.94-7.81-7.42-.1-.09-.17-.26-.16-.4,.05-.7,.14-1.4,.23-2.18,.54,.35,1.06,.67,1.56,.99,2.02,1.33,4.04,2.66,6.06,3.98,1.08,.7,1.71,1.62,1.59,2.96-.02,.15,.02,.29,.01,.43-.02,.68-.04,1.36-.09,2.03Z"/>
        </g>
      </g>
      <g>
        <g>
          <path class="cls-2" d="M13.54,44.71c-.35-.23-.31-.44,.08-.59,.81-.31,1.63-.57,2.46-.81,1.97-.55,3.94-1.08,5.93-1.6,.21-.05,.48,0,.67,.09,.84,.39,1.66,.81,2.53,1.24-1.37,.73-2.72,1.5-4.13,2.17-1.13,.54-2.3,.99-3.48,1.43-.27,.1-.68,.05-.93-.08-1.06-.58-2.11-1.2-3.13-1.85Z"/>
          <path class="cls-2" d="M27.77,31.01c-.11,.09-.32,.11-.46,.08-2.97-.63-5.94-1.26-8.9-1.9-.45-.1-.91-.16-1.36-.26-.1-.02-.18-.12-.35-.23,.16-.18,.29-.39,.46-.51,.68-.5,1.36-.98,2.06-1.44,.64-.41,1.33-.43,2.01-.16,2.64,1.06,5.27,2.13,7.92,3.2,.02,.01,.03,.04,.08,.08-.5,.4-.96,.79-1.46,1.15Z"/>
          <path class="cls-2" d="M15.73,30.53c.62-.56,1.37-.67,2.15-.51,2.94,.62,5.88,1.28,8.87,1.92-.36,.38-.73,.71-1.01,1.12-.39,.58-.85,.68-1.53,.63-2.82-.24-5.65-.39-8.48-.57-.51-.03-1.01-.1-1.51-.17-.18-.02-.37-.12-.66-.23,.25-.31,.42-.61,.66-.82,.49-.48,1.01-.92,1.51-1.37Z"/>
          <path class="cls-2" d="M15.01,34.01c2.13,.13,4.25,.27,6.38,.41,1.02,.08,2.03,.15,3.09,.23-.39,.72-.72,1.39-1.09,2.05-.05,.11-.23,.23-.36,.24-1.87,.16-3.75,.3-5.62,.45-.94,.08-1.7-.25-2.29-.98-.56-.71-1.26-1.32-1.51-2.37,.49-.01,.95-.06,1.4-.03Z"/>
          <path class="cls-2" d="M29.93,29.1c-2.63-1.06-5.25-2.13-7.88-3.2-.35-.15-.67-.37-1.07-.58,.21-.17,.31-.29,.45-.36,.71-.34,1.44-.67,2.17-.97,.56-.22,1.12-.09,1.63,.21,1.45,.86,2.9,1.75,4.33,2.63,.1,.06,.19,.18,.23,.3,.21,.64,.39,1.3,.63,2.06-.22-.03-.37-.03-.5-.09Z"/>
          <path class="cls-2" d="M13.13,41.99c.4-.79,.82-1.56,1.28-2.31,.49-.83,1.31-1.12,2.19-1.22,1.99-.21,3.97-.37,5.95-.55,.12-.01,.23,0,.31,0-.15,.85-.29,1.68-.45,2.5-.02,.1-.13,.23-.23,.26-2.77,.76-5.54,1.5-8.33,2.23-.28,.08-.61-.02-.92-.03,.06-.29,.06-.61,.19-.86Z"/>
          <path class="cls-2" d="M19.11,48.06c.08-.36,.45-.69,.76-.96,.4-.32,.84-.59,1.3-.84,1.63-.9,3.29-1.77,4.92-2.67,.3-.16,.56-.22,.9-.13,.78,.17,1.56,.29,2.43,.45-1.11,.84-2.16,1.61-3.19,2.4-2,1.51-3.98,3.04-5.97,4.55-.36,.27-.76,.49-1.15,.71-.27,.15-.49,.08-.44-.26,.12-1.08,.22-2.18,.44-3.25Z"/>
          <path class="cls-2" d="M38.85,52.61c-.08,.1-.16,.23-.27,.27-.96,.38-1.93,.75-2.9,1.11-.04,.01-.11-.02-.23-.04,.06-.26,.09-.53,.18-.76,.85-2.02,1.73-4.03,2.64-6.11,.1,.13,.16,.21,.22,.3,.21,.32,.42,.66,.62,.99,.24,.42,.71,.89,.66,1.26-.16,1.02-.3,2.07-.92,2.96Z"/>
          <path class="cls-2" d="M36.94,44.52c.13,.23,.19,.43,.32,.58,.52,.59,.37,1.19,.08,1.83-.93,2.05-1.86,4.1-2.76,6.17-.48,1.06-1.29,1.55-2.41,1.6-.59,.02-1.18,.06-1.91,.11,.24-.43,.4-.78,.61-1.09,.82-1.25,1.66-2.5,2.5-3.75,1.09-1.66,2.18-3.34,3.27-5,.09-.14,.18-.26,.3-.44Z"/>
          <path class="cls-2" d="M28.88,22.54c.18,.99,.34,1.99,.51,3.07-1.21-.85-2.54-1.43-3.57-2.44,.01-.08,.03-.14,.04-.22,.92-.23,1.84-.45,2.77-.66,.06-.01,.24,.15,.25,.25Z"/>
          <path class="cls-2" d="M22.21,53.48c-.66-.15-1.34-.23-2-.36-.21-.04-.4-.15-.75-.29,.42-.4,.71-.72,1.07-.99,2.15-1.63,4.32-3.24,6.48-4.86,1.22-.92,2.42-1.87,3.64-2.8,.11-.09,.27-.17,.41-.17,.69-.02,1.39-.01,2.15-.01-.09,.12-.13,.19-.19,.26-.31,.34-.65,.66-.97,.98-2.38,2.43-4.77,4.84-7.13,7.28-.76,.77-1.59,1.22-2.71,.96Z"/>
          <path class="cls-2" d="M25.63,54.69c-.27-.01-.53-.1-.8-.15-.02-.05-.04-.11-.06-.16,.3-.38,.57-.79,.92-1.13,1.99-2.06,4-4.11,5.99-6.16,.88-.9,1.74-1.82,2.58-2.74,.31-.34,.64-.56,1.12-.55,.3,.01,.62-.08,.97-.13-.06,.13-.1,.22-.15,.3-2.09,3.16-4.18,6.31-6.27,9.48-.56,.86-1.33,1.33-2.4,1.28-.63-.02-1.26,0-1.9-.02Z"/>
        </g>
        <g>
          <path class="cls-2" d="M127.33,46.56c-.25,.13-.66,.17-.93,.08-1.18-.43-2.35-.89-3.48-1.43-1.4-.67-2.76-1.44-4.13-2.17,.86-.43,1.69-.85,2.53-1.24,.19-.09,.46-.14,.67-.09,1.99,.52,3.97,1.05,5.93,1.6,.83,.24,1.65,.5,2.46,.81,.39,.15,.42,.37,.08,.59-1.03,.65-2.07,1.26-3.13,1.85Z"/>
          <path class="cls-2" d="M108.32,53.99c-.96-.37-1.93-.73-2.9-1.11-.11-.04-.19-.17-.27-.27-.62-.89-.76-1.95-.92-2.96-.05-.38,.42-.84,.66-1.26,.19-.34,.41-.67,.62-.99,.05-.1,.12-.17,.22-.3,.91,2.07,1.78,4.08,2.64,6.11,.1,.23,.12,.5,.18,.76-.12,.02-.18,.05-.23,.04Z"/>
          <path class="cls-2" d="M111.82,54.7c-1.12-.05-1.93-.54-2.41-1.6-.9-2.07-1.83-4.12-2.76-6.17-.29-.64-.44-1.23,.08-1.83,.13-.15,.19-.36,.32-.58,.12,.18,.22,.3,.3,.44,1.09,1.66,2.18,3.34,3.27,5,.83,1.25,1.68,2.5,2.5,3.75,.21,.31,.37,.66,.61,1.09-.73-.04-1.32-.09-1.91-.11Z"/>
          <path class="cls-2" d="M118.25,33.07c-.27-.41-.65-.75-1.01-1.12,2.99-.65,5.93-1.31,8.87-1.92,.78-.16,1.53-.05,2.15,.51,.51,.45,1.03,.9,1.51,1.37,.24,.22,.41,.51,.66,.82-.29,.11-.48,.21-.66,.23-.51,.08-1.01,.14-1.51,.17-2.83,.18-5.66,.34-8.48,.57-.68,.05-1.15-.04-1.53-.63Z"/>
          <path class="cls-2" d="M124.78,26.75c.7,.45,1.38,.94,2.06,1.44,.17,.12,.3,.32,.46,.51-.16,.11-.25,.21-.35,.23-.45,.1-.91,.16-1.36,.26-2.96,.64-5.93,1.28-8.9,1.9-.14,.03-.36,.01-.46-.08-.5-.36-.96-.75-1.46-1.15,.04-.03,.05-.06,.08-.08,2.65-1.07,5.28-2.14,7.92-3.2,.68-.27,1.37-.25,2.01,.16Z"/>
          <path class="cls-2" d="M119.53,34.65c1.06-.08,2.07-.15,3.09-.23,2.13-.14,4.25-.28,6.38-.41,.45-.03,.92,.02,1.4,.03-.25,1.05-.95,1.65-1.51,2.37-.59,.73-1.35,1.06-2.29,.98-1.87-.15-3.75-.29-5.62-.45-.13-.01-.3-.13-.36-.24-.37-.66-.7-1.33-1.09-2.05Z"/>
          <path class="cls-2" d="M118.76,24.19c.51-.29,1.07-.42,1.63-.21,.73,.3,1.46,.64,2.17,.97,.14,.06,.25,.18,.45,.36-.4,.22-.72,.43-1.07,.58-2.63,1.07-5.25,2.14-7.88,3.2-.13,.05-.28,.05-.5,.09,.24-.77,.42-1.43,.63-2.06,.03-.12,.13-.24,.23-.3,1.44-.88,2.89-1.76,4.33-2.63Z"/>
          <path class="cls-2" d="M117.02,43.46c.34-.09,.59-.03,.9,.13,1.63,.9,3.29,1.77,4.92,2.67,.45,.25,.9,.52,1.3,.84,.3,.27,.68,.61,.76,.96,.23,1.07,.32,2.17,.44,3.25,.04,.34-.17,.41-.44,.26-.39-.23-.79-.44-1.15-.71-1.99-1.51-3.97-3.04-5.97-4.55-1.03-.79-2.07-1.56-3.19-2.4,.88-.16,1.65-.28,2.43-.45Z"/>
          <path class="cls-2" d="M130.15,42.89c-2.79-.72-5.57-1.47-8.33-2.23-.1-.03-.21-.16-.23-.26-.16-.82-.3-1.64-.45-2.5,.09,0,.19-.01,.31,0,1.99,.18,3.97,.35,5.95,.55,.89,.1,1.71,.39,2.19,1.22,.45,.76,.88,1.52,1.28,2.31,.13,.26,.13,.57,.19,.86-.31,.01-.64,.11-.92,.03Z"/>
          <path class="cls-2" d="M118.13,22.95c.01,.08,.03,.14,.04,.22-1.03,1.02-2.36,1.59-3.57,2.44,.17-1.08,.32-2.07,.51-3.07,.01-.1,.18-.26,.25-.25,.93,.21,1.85,.43,2.77,.66Z"/>
          <path class="cls-2" d="M118.37,54.69c-.64,.02-1.28,0-1.9,.02-1.07,.05-1.84-.41-2.4-1.28-2.09-3.17-4.18-6.32-6.27-9.48-.05-.09-.09-.17-.15-.3,.36,.05,.67,.14,.97,.13,.49-.01,.81,.22,1.12,.55,.84,.93,1.71,1.85,2.58,2.74,1.99,2.05,4,4.1,5.99,6.16,.35,.35,.62,.76,.92,1.13-.02,.05-.04,.11-.06,.16-.27,.05-.53,.14-.8,.15Z"/>
          <path class="cls-2" d="M119.07,52.51c-2.37-2.44-4.75-4.85-7.13-7.28-.32-.32-.66-.65-.97-.98-.06-.06-.11-.14-.19-.26,.76,0,1.46-.01,2.15,.01,.14,0,.3,.09,.41,.17,1.22,.93,2.42,1.88,3.64,2.8,2.16,1.62,4.33,3.23,6.48,4.86,.36,.27,.65,.59,1.07,.99-.35,.14-.54,.25-.75,.29-.66,.13-1.34,.21-2,.36-1.12,.26-1.96-.19-2.71-.96Z"/>
        </g>
      </g>
      <g>
        <path class="cls-4" d="M109.77,41.5c-.31-.24-.36-.56-.17-.89,.15-.28,.36-.54,.59-.89,.23,.35,.44,.62,.61,.91,.19,.31,.12,.62-.16,.85-.27,.23-.58,.24-.86,.01Z"/>
        <path class="cls-4" d="M111.37,39.54c.1-.15,.38-.29,.54-.27,.37,.05,.41,.42,.17,1.08-.62-.23-.89-.52-.71-.81Z"/>
        <path class="cls-4" d="M116.09,14.68c-.45-.52-.56-.92-.3-1.16,.22-.18,.45-.16,.66,.03,.27,.26,.15,.64-.36,1.12Z"/>
        <path class="cls-4" d="M113.08,31.91c.11-.3,.38-.42,.69-.38,.35,.04,.56,.25,.61,.58,.04,.32-.06,.61-.38,.7-.35,.13-.71,.17-1.2,.29,.12-.5,.16-.85,.28-1.2Z"/>
        <path class="cls-4" d="M117.98,15.5c-.02-.68,.16-1.06,.53-1.05,.29,.01,.49,.17,.49,.5,.01,.38-.26,.53-1.02,.55Z"/>
        <path class="cls-4" d="M119.03,16.23c-.15,.29-.23,.62-.62,.48-.1-.03-.19-.29-.15-.38,.18-.39,.46-.16,.77-.1Z"/>
        <path class="cls-4" d="M118.97,20.01c-.01,.29-.18,.45-.46,.48-.38,.03-.54-.26-.56-1.02,.72-.01,1.04,.16,1.03,.54Z"/>
        <path class="cls-4" d="M118.48,18.7c-.04-.09,.1-.39,.19-.41,.36-.08,.42,.22,.53,.5-.28,.1-.56,.25-.72-.09Z"/>
        <path class="cls-4" d="M118.78,17.44c.51-.51,.89-.62,1.13-.32,.21,.24,.17,.49-.04,.7-.26,.24-.67,.1-1.09-.38Z"/>
        <path class="cls-4" d="M114.96,35.18c.31-.16,.59-.04,.79,.24,.19,.27,.18,.57-.02,.84-.19,.25-.48,.36-.77,.21-.32-.17-.63-.39-1.03-.65,.4-.25,.69-.48,1.03-.64Z"/>
        <path class="cls-4" d="M114.66,37.77c-.62,.23-.96,.18-1.07-.13-.1-.26-.02-.49,.25-.59,.34-.14,.58,.09,.82,.72Z"/>
        <path class="cls-4" d="M113.53,34.77c-.25-.13-.35-.35-.23-.62,.14-.31,.49-.34,1.09-.05-.29,.63-.54,.82-.86,.67Z"/>
        <path class="cls-4" d="M113.93,38.92c.34,.12,.49,.44,.36,.75-.1,.23-.35,.45-.57,.54-.29,.11-.59-.05-.7-.37-.11-.35-.16-.71-.27-1.2,.5,.12,.85,.16,1.19,.28Z"/>
        <path class="cls-4" d="M117.43,14.22c.06,.34,.25,.62-.1,.79-.1,.04-.37-.08-.4-.17-.13-.38,.22-.43,.5-.62Z"/>
        <path class="cls-4" d="M116.93,19.99c.03-.09,.29-.18,.38-.15,.37,.16,.19,.44,.12,.76-.29-.13-.62-.22-.5-.61Z"/>
        <g>
          <path class="cls-4" d="M126.87,4.28c-.03-.06,.01-.19,.06-.26,.26-.29,.58-.45,.99-.39-.05,.57-.3,.81-.81,.77-.1,0-.22-.05-.25-.12Z"/>
          <path class="cls-4" d="M127.55,27.13c-.46-.02-.75-.43-.81-1.07,.13-.37,.18-.77,.39-1.08,.14-.22,.45-.41,.71-.44,.15-.01,.42,.28,.5,.49,.13,.35,.21,.73,.21,1.1,.01,.59-.45,1.03-.99,1.01Z"/>
          <path class="cls-4" d="M126.27,23.56c-.1,.35-.18,.68-.29,1.1-.39-.64-.41-.71-.19-1.01,.08-.1,.24-.13,.36-.19,.04,.03,.09,.06,.13,.1Z"/>
          <path class="cls-4" d="M125.54,25.72c-.46-.34-.88-.62-1.29-.92,.54-.32,1.09,.05,1.29,.92Z"/>
          <path class="cls-4" d="M130.71,28.89c-.23,.05-.52,.09-.68-.03-.45-.31-.86-.7-1.35-1.11,.17-.14,.29-.31,.44-.35,.61-.14,1.45,.37,1.62,.96,.04,.17,.01,.52-.03,.53Z"/>
          <path class="cls-4" d="M131.27,12.12c-.3-.57-.08-1.17,.4-1.2-.14,.41-.27,.8-.4,1.2Z"/>
          <path class="cls-4" d="M129.18,5.6c-.01-.49,.26-.78,.57-.78,.31,.01,.52,.26,.46,.65-.04,.25-.13,.5-.26,.72-.03,.08-.31,.12-.36,.08-.18-.24-.34-.51-.42-.67Z"/>
          <path class="cls-4" d="M130.77,31.35c.24-.16,.46-.31,.69-.46,.54,.77,.49,1.36-.13,1.6-.18-.37-.37-.73-.56-1.13Z"/>
          <path class="cls-4" d="M133.51,28.34c.21,.1,.43,.18,.63,.3,.09,.05,.15,.17,.19,.28,.19,.58,.39,1.19,.58,1.77-.04,.02-.09,.03-.12,.04,0,.09,.01,.18-.01,.26-.03,.14-.1,.27-.14,.41-.15-.08-.31-.12-.43-.23-.1-.09-.16-.24-.22-.37-.24-.56-.51-1.1-.67-1.69-.06-.23,.12-.52,.18-.79Z"/>
          <path class="cls-4" d="M133.59,31.38c-1.04,.5-1.61,.11-1.98-1.36,.98-.11,1.79,.46,1.98,1.36Z"/>
          <path class="cls-4" d="M132.19,26.06c.31,.48,.23,.96,.04,1.45-.12,.31-.32,.37-.56,.14-.42-.4-.82-.83-1.26-1.28,.37-.21,.67-.37,.96-.54,.35-.19,.62-.08,.82,.23Z"/>
          <path class="cls-4" d="M131,25.29c.03,.08,.05,.15,.1,.25-.51,.27-.97,.56-1.59,.4-.4-.1-.39-.39-.45-.68s.08-.41,.3-.53c.95-.5,1.22-.41,1.64,.56Z"/>
          <path class="cls-4" d="M129.02,21.79c.1-.3,.18-.59,.27-.9,.05,.01,.1,.02,.14,.03,.17,.24,.34,.49,.61,.86h-1.02Z"/>
          <path class="cls-4" d="M131.21,21.69h-.78s-.04-.08-.06-.12c.15-.09,.3-.27,.44-.26,.16,0,.3,.17,.45,.28-.02,.03-.03,.06-.05,.1Z"/>
          <path class="cls-4" d="M131.76,20.72c-.02,.09-.06,.18-.1,.27-.59-.05-.75-.19-.83-.73h0c-.12-.11-.35-.22-.35-.29,.03-.24,.16-.45,.28-.73,.45,.41,.17,.71,.06,1.02h0c.32,.06,.63,.12,.96,.17-.01,.13-.01,.22-.03,.3Z"/>
          <path class="cls-4" d="M131.44,18.26s-.15-.06-.15-.1c0-.06,.04-.16,.11-.18,.34-.15,.67-.29,1.07-.45,.02,.13,.06,.25,.04,.26-.35,.16-.7,.32-1.07,.48Z"/>
          <path class="cls-4" d="M133.76,8.1c.21-.01,.42,.12,.63,.18-.09,.19-.13,.45-.28,.56-.37,.25-.78,.42-1.2,.65-.19-.55,.31-1.34,.85-1.39Z"/>
          <path class="cls-4" d="M132.94,6.73c.08-.18,.23-.41,.4-.48,.27-.09,.58-.05,.88-.06,.04,.06,.09,.13,.13,.18-.21,.28-.37,.59-.62,.8-.13,.11-.44,.06-.64-.01-.1-.04-.19-.31-.15-.43Z"/>
          <path class="cls-4" d="M132.24,12.83c.18-.68,.85-1.05,1.48-.81-.13,.67-.72,.99-1.48,.81Z"/>
          <path class="cls-4" d="M133.62,13.26c-.29,.68-.79,.72-1.24,.12,.44-.04,.83-.08,1.24-.12Z"/>
          <path class="cls-4" d="M132.9,10.79c-.05,.62-.28,.88-.93,1.01,.11-.85,.3-1.06,.93-1.01Z"/>
          <path class="cls-4" d="M133.11,20.43c-.03,.05-.16,.04-.25,.06,.01-.08-.02-.17,.02-.23,.19-.29,.4-.57,.61-.86,.04,.03,.09,.05,.13,.08-.16,.32-.32,.65-.51,.95Z"/>
          <path class="cls-4" d="M133.71,18.6c-.14-.04-.3-.04-.41-.11-.16-.1-.28-.25-.49-.45,.28-.1,.46-.21,.66-.22,.11,0,.3,.15,.32,.25,.03,.16-.05,.35-.09,.53Z"/>
          <path class="cls-4" d="M133.18,16.56c-.11-.04-.26-.15-.26-.23,0-.1,.11-.26,.21-.29,.31-.08,.65-.11,1.02-.16-.18,.59-.54,.83-.96,.68Z"/>
          <path class="cls-4" d="M133.14,15.37s-.02-.24,.02-.27c.25-.19,.93-.16,1.23,.04-.25,.29-1.04,.42-1.25,.23Z"/>
          <path class="cls-4" d="M134.82,13.57c-.22,.23-.46,.27-.83-.01,.3-.28,.59-.54,.9-.82,.27,.37,.14,.62-.06,.83Z"/>
          <path class="cls-4" d="M134.87,11.66c.1,.15,.17,.49,.11,.52-.19,.13-.45,.16-.7,.24,0-.17-.03-.34-.01-.51,.02-.18,.09-.36,.16-.62,.18,.15,.37,.23,.44,.37Z"/>
          <path class="cls-4" d="M134.56,9.18s.08,.06,.11,.09c-.05,.26-.08,.52-.16,.76-.14,.38-.51,.58-.86,.49-.14-.05-.32-.18-.36-.31-.03-.13,.06-.37,.18-.43,.35-.23,.72-.39,1.09-.58Z"/>
          <path class="cls-4" d="M134.46,5.4c-.15,.08-.29,.17-.44,.23-.09,.04-.19,.02-.41,.04-.01,0-.18,.04-.27-.01-.09-.06-.16-.3-.16-.35,.25-.14,.51-.34,.77-.35,.17,0,.35,.28,.52,.43Z"/>
          <path class="cls-4" d="M133.05,3.61c.06,0,.13-.01,.19-.01,.1,.19,.34,.45,.28,.58-.11,.28-.38,.49-.59,.71-.05-.03-.12-.08-.18-.11,.1-.39,.21-.79,.3-1.18Z"/>
          <path class="cls-4" d="M132.57,8.47c-.25,.25-.38,.43-.56,.53-.09,.05-.3-.02-.4-.11-.17-.17-.31-.39-.45-.61-.03-.06-.02-.24-.01-.24,.26-.04,.53-.13,.77-.08,.22,.05,.38,.28,.66,.5Z"/>
          <path class="cls-4" d="M131.11,7.27c.04-.21,.09-.41,.14-.65h.66c.11,0,.23,.02,.34,.03-.01,.73-.28,.89-1.13,.62Z"/>
          <path class="cls-4" d="M132.24,3.59c.17,.54,.11,1.03-.22,1.17-.16,.08-.45,.05-.58-.05-.14-.12-.26-.39-.23-.57,.06-.32,.58-.55,1.03-.54Z"/>
          <path class="cls-4" d="M131.5,5.54c-.11,.29-.17,.58-.32,.82-.06,.11-.31,.18-.43,.14-.11-.04-.22-.27-.22-.4,.03-.52,.27-.66,.97-.56Z"/>
          <path class="cls-4" d="M130.64,2.87c.06,.95-.49,1.46-1.36,1.29,.06-.75,.66-1.32,1.36-1.29Z"/>
          <path class="cls-4" d="M129.9,2.41c-.29,.32-.54,.63-.83,.89-.12,.11-.32,.13-.5,.18-.05-.19-.18-.41-.15-.59,.12-.65,.64-.83,1.48-.48Z"/>
          <path class="cls-4" d="M128.88,5.85c-.02,.05-.04,.12-.06,.18-.27,.01-.55,.06-.82,.03-.11-.01-.18-.22-.27-.34,.18-.12,.39-.38,.53-.35,.24,.05,.42,.3,.63,.46Z"/>
          <path class="cls-4" d="M127.37,1.16c.19,0,.4,.24,.53,.42,.15,.21,.08,.4-.21,.42-.29,.02-.58,.01-.96,.01,.1-.23,.11-.34,.17-.41,.14-.16,.32-.45,.46-.44Z"/>
          <path class="cls-4" d="M126.81,.8c-.17,.41-.34,.79-.53,1.24-.36-.73-.13-1.25,.53-1.24Z"/>
          <path class="cls-4" d="M126.03,3.21c.12-.43,.53-.71,1.15-.63-.19,.34-.37,.68-.61,.99-.06,.09-.32,.1-.44,.04-.09-.04-.13-.29-.1-.41Z"/>
          <path class="cls-4" d="M125.94,2.3c-.11,.25-.22,.51-.35,.78-.14-.05-.26-.09-.51-.18,.26-.28,.48-.51,.68-.73,.05,.05,.12,.1,.17,.14Z"/>
          <path class="cls-4" d="M125.11,1.32c-.35,.39-1.5,.34-1.8-.06,.39-.43,1.12-.42,1.8,.06Z"/>
          <path class="cls-4" d="M124.8,1.95c-.15,.69-.59,.92-1.2,.64,.29-.53,.63-.71,1.2-.64Z"/>
          <path class="cls-4" d="M121.63,1.54c.09-.11,.48-.01,.7,.06,.28,.1,.32,.3,.04,.46-.28,.15-.59,.27-.89,.4-.05-.03-.1-.06-.14-.1,.08-.29,.1-.63,.28-.83Z"/>
          <path class="cls-4" d="M121.17,1.96c.03,.68-.03,.79-.85,.78-.04-.68,.15-.86,.85-.78Z"/>
          <path class="cls-4" d="M118.74,2.73s.08,.18,.12,.3c-.34,.02-.59,.03-.86,.04-.01-.04-.03-.09-.04-.13,.27-.08,.53-.15,.79-.22Z"/>
          <g>
            <path class="cls-4" d="M136.36,44.92c-.44,.25-.83,.52-1.26,.71-.35,.16-.71,.15-.97-.21-.25-.34-.25-1.02,0-1.36,.24-.35,.56-.48,.98-.37,.59,.17,.93,.61,1.25,1.22Z"/>
            <path class="cls-4" d="M129.48,48.87c-.09,.49-.53,.83-1.02,.79-.4-.03-.69-.39-.68-.91,0-.28,.05-.56,.13-.84,.02-.11,.13-.23,.24-.27,.31-.14,.64-.26,.95-.38,.31,.42,.48,1.11,.38,1.61Z"/>
            <path class="cls-4" d="M116.35,71.48c.05,.08,.05,.21,.03,.3-.01,.04-.14,.1-.21,.09-.68-.1-1.35-.22-2.02-.32-.01-.03-.02-.06-.03-.1,.24-.14,.48-.3,.72-.42,.58-.27,1.17-.1,1.5,.45Z"/>
            <path class="cls-4" d="M115.27,68.09c.95,.17,1.5,.82,1.51,1.75-1.08,.25-1.66-.21-1.51-1.75Z"/>
            <path class="cls-4" d="M100.3,84.78c.17-.22,.26-.42,.4-.46,.49-.17,.98-.21,1.47,.03,.26,.12,.4,.28,.16,.59-.65-.04-1.29-.1-2.03-.16Z"/>
            <path class="cls-4" d="M100.96,88.81c-1.18,.13-2.07-.98-1.78-2.18,1.11-.06,1.95,.94,1.78,2.18Z"/>
            <path class="cls-4" d="M112.5,64.39c-.48,.1-.9-.25-.89-.75,.11-.56,.41-1.07,.85-1.47,.28-.25,.79-.23,.91-.01,.5,.95,.17,2.01-.88,2.23Z"/>
            <path class="cls-4" d="M112.49,67.11q-.16-.18,.02-1.1c.51,.43,.5,.86-.02,1.1Z"/>
            <path class="cls-4" d="M111.27,61.62c-.08-.57-.15-1.09-.23-1.64,.99,.39,1.07,.96,.23,1.64Z"/>
            <path class="cls-4" d="M104.06,53.29c.26,.17,.29,.38,.26,.55-.71-.06-1.38-.14-2.05-.21,.13-.37,.28-.79,.44-1.25,.48,.32,.9,.64,1.35,.91Z"/>
            <path class="cls-4" d="M105.03,53.91c.5,.23,.96,.44,1.48,.69-.62,.31-.92,.31-1.28,.06-.29-.21-.26-.45-.21-.76Z"/>
            <path class="cls-4" d="M110.28,57.46c.09,.27,.18,.54,.26,.81q.27,.93-.67,1.19h-.08c-.36-.89-.21-1.55,.49-2Z"/>
            <path class="cls-4" d="M110.14,57.27c.12-.43,.45-.94,.83-1.09,.18-.06,.48-.06,.62,.04,.23,.15,.25,.43,.08,.69-.31,.46-1.01,.64-1.52,.36Z"/>
            <path class="cls-4" d="M109.08,55.32c.45,.06,.86,.11,1.35,.17-.48,.57-.96,.51-1.35-.17Z"/>
            <path class="cls-4" d="M107.15,55.56c.39-.03,.78-.01,1.28-.01-.32,.65-.59,1.18-.91,1.83-.27-.44-.49-.8-.7-1.15-.23-.38-.11-.64,.34-.67Z"/>
            <g>
              <path class="cls-4" d="M16.08,3.64c.41-.06,.73,.1,.99,.39,.05,.06,.1,.19,.06,.26-.03,.06-.15,.12-.25,.12-.51,.04-.76-.19-.81-.77Z"/>
              <path class="cls-4" d="M27.91,14.68c-.51-.49-.63-.86-.36-1.12,.21-.19,.44-.22,.66-.03,.26,.24,.15,.64-.3,1.16Z"/>
              <path class="cls-4" d="M28.36,21.08c-.23,.08-.44,.19-.68,.22-.08,.01-.27-.24-.25-.32,.09-.27,.25-.52,.41-.85,.15,.18,.24,.25,.28,.34,.09,.21,.16,.42,.24,.63Z"/>
              <path class="cls-4" d="M27.07,14.83c-.03,.1-.3,.22-.4,.17-.35-.17-.16-.45-.1-.79,.28,.18,.63,.24,.5,.62Z"/>
              <path class="cls-4" d="M26.06,19.47c-.02,.76-.18,1.05-.56,1.02-.28-.02-.45-.18-.46-.48-.01-.38,.3-.55,1.03-.54Z"/>
              <path class="cls-4" d="M24.8,18.79c.11-.28,.17-.57,.53-.5,.1,.02,.24,.32,.19,.41-.16,.34-.44,.18-.72,.09Z"/>
              <path class="cls-4" d="M25.74,16.32c.04,.09-.05,.35-.15,.38-.39,.14-.46-.18-.62-.48,.3-.06,.58-.29,.77,.1Z"/>
              <path class="cls-4" d="M25,14.95c0-.32,.19-.49,.49-.5,.37-.01,.55,.37,.53,1.05-.76-.02-1.03-.17-1.02-.55Z"/>
              <path class="cls-4" d="M25.22,17.44c-.42,.48-.83,.62-1.09,.38-.22-.22-.25-.46-.04-.7,.25-.29,.63-.18,1.13,.32Z"/>
              <path class="cls-4" d="M26.69,19.83c.09-.03,.35,.06,.38,.15,.12,.39-.21,.48-.5,.61-.08-.31-.25-.59,.12-.76Z"/>
              <path class="cls-4" d="M14.4,6.27s-.32,0-.36-.08c-.13-.23-.22-.48-.26-.72-.05-.39,.15-.64,.46-.65,.31,0,.58,.29,.57,.78-.09,.16-.24,.43-.42,.67Z"/>
              <path class="cls-4" d="M12.73,12.12c-.13-.4-.26-.79-.4-1.2,.48,.03,.7,.63,.4,1.2Z"/>
              <path class="cls-4" d="M25.26,2.73c.26,.06,.52,.14,.79,.22-.01,.04-.03,.09-.04,.13-.27-.01-.53-.02-.86-.04,.04-.12,.1-.3,.12-.3Z"/>
              <path class="cls-4" d="M22.83,1.96c.7-.09,.9,.1,.85,.78-.82,.01-.89-.1-.85-.78Z"/>
              <path class="cls-4" d="M21.66,1.6c.23-.08,.62-.17,.7-.06,.18,.21,.21,.54,.28,.83-.04,.03-.09,.06-.14,.1-.29-.13-.61-.25-.89-.4-.28-.16-.24-.37,.04-.46Z"/>
              <path class="cls-4" d="M19.2,1.95c.57-.08,.91,.11,1.2,.64-.61,.28-1.05,.05-1.2-.64Z"/>
              <path class="cls-4" d="M20.69,1.26c-.3,.4-1.46,.45-1.8,.06,.68-.49,1.42-.5,1.8-.06Z"/>
              <path class="cls-4" d="M18.24,2.16c.21,.23,.42,.45,.68,.73-.25,.1-.37,.13-.51,.18-.13-.27-.24-.53-.35-.78,.05-.04,.12-.09,.17-.14Z"/>
              <path class="cls-4" d="M17.87,3.62c-.12,.05-.38,.04-.44-.04-.24-.31-.41-.66-.61-.99,.62-.09,1.03,.19,1.15,.63,.03,.12-.01,.37-.1,.41Z"/>
              <path class="cls-4" d="M17.72,2.05c-.19-.45-.36-.83-.53-1.24,.66-.01,.89,.51,.53,1.24Z"/>
              <path class="cls-4" d="M16.1,1.58c.13-.18,.34-.42,.53-.42,.14-.01,.32,.28,.46,.44,.06,.08,.08,.18,.17,.41-.38,0-.67,.01-.96-.01-.28-.02-.36-.22-.21-.42Z"/>
              <path class="cls-4" d="M16.28,5.73c-.09,.12-.16,.32-.27,.34-.27,.03-.55-.02-.82-.03-.02-.06-.04-.13-.06-.18,.21-.16,.39-.41,.63-.46,.14-.03,.35,.23,.53,.35Z"/>
              <path class="cls-4" d="M15.58,2.89c.03,.18-.1,.4-.15,.59-.17-.05-.38-.08-.5-.18-.29-.26-.54-.56-.83-.89,.84-.36,1.36-.17,1.48,.48Z"/>
              <path class="cls-4" d="M14.72,4.15c-.88,.17-1.43-.34-1.36-1.29,.7-.03,1.3,.54,1.36,1.29Z"/>
              <path class="cls-4" d="M13.47,6.1c0,.13-.11,.36-.22,.4-.12,.04-.37-.03-.43-.14-.15-.24-.22-.53-.32-.82,.7-.1,.94,.04,.97,.56Z"/>
              <path class="cls-4" d="M12.89,7.27c-.85,.27-1.12,.12-1.13-.62,.11-.01,.23-.03,.34-.03h.66c.05,.24,.1,.44,.14,.65Z"/>
              <path class="cls-4" d="M11.76,3.59c.44-.01,.96,.22,1.03,.54,.03,.18-.09,.45-.23,.57-.13,.11-.42,.13-.58,.05-.32-.14-.39-.63-.22-1.17Z"/>
              <path class="cls-4" d="M12.09,7.97c.24-.05,.51,.03,.77,.08,.01,0,.02,.17-.01,.24-.14,.22-.28,.43-.45,.61-.1,.09-.31,.16-.4,.11-.18-.1-.31-.28-.56-.53,.28-.22,.44-.44,.66-.5Z"/>
              <path class="cls-4" d="M10.28,12.02c.63-.24,1.3,.13,1.48,.81-.76,.18-1.35-.14-1.48-.81Z"/>
              <path class="cls-4" d="M11.62,13.38c-.45,.61-.95,.56-1.24-.12,.41,.04,.8,.08,1.24,.12Z"/>
              <path class="cls-4" d="M10.24,8.1c.54,.05,1.05,.84,.85,1.39-.42-.23-.83-.4-1.2-.65-.15-.11-.19-.37-.28-.56,.21-.06,.42-.19,.63-.18Z"/>
              <path class="cls-4" d="M9.66,6.37c.04-.05,.09-.12,.13-.18,.29,.01,.61-.02,.88,.06,.17,.06,.32,.29,.4,.48,.04,.12-.05,.39-.15,.43-.19,.08-.51,.12-.64,.01-.25-.21-.41-.52-.62-.8Z"/>
              <path class="cls-4" d="M11.1,10.79c.63-.05,.82,.15,.93,1.01-.65-.13-.88-.39-.93-1.01Z"/>
              <path class="cls-4" d="M10.76,3.6c.06,0,.13,.01,.19,.01,.1,.39,.21,.79,.3,1.18-.06,.03-.13,.08-.18,.11-.22-.23-.49-.43-.59-.71-.05-.13,.18-.39,.28-.58Z"/>
              <path class="cls-4" d="M10.06,4.96c.26,.01,.52,.21,.77,.35,0,.04-.08,.28-.16,.35-.09,.05-.26,.01-.27,.01-.22-.02-.32,0-.41-.04-.15-.05-.29-.15-.44-.23,.17-.15,.35-.43,.52-.43Z"/>
              <path class="cls-4" d="M9.44,9.18c.37,.19,.75,.36,1.09,.58,.12,.06,.22,.3,.18,.43-.03,.13-.22,.26-.36,.31-.36,.1-.72-.11-.86-.49-.09-.24-.11-.5-.16-.76,.03-.02,.08-.05,.11-.09Z"/>
              <path class="cls-4" d="M9.13,11.66c.08-.14,.26-.22,.44-.37,.08,.26,.14,.43,.16,.62,.02,.17-.01,.34-.01,.51-.25-.08-.51-.11-.7-.24-.06-.03,.01-.37,.11-.52Z"/>
              <path class="cls-4" d="M9.18,13.57c-.21-.22-.34-.46-.06-.83,.3,.28,.59,.54,.9,.82-.37,.28-.62,.24-.83,.01Z"/>
              <path class="cls-4" d="M9.6,15.14c.3-.21,.98-.24,1.23-.04,.04,.03,.06,.23,.02,.27-.22,.19-1.01,.06-1.25-.23Z"/>
              <path class="cls-4" d="M9.86,15.88c.37,.05,.7,.09,1.02,.16,.1,.03,.21,.19,.21,.29,0,.08-.15,.18-.26,.23-.42,.15-.78-.09-.96-.68Z"/>
              <path class="cls-4" d="M11.14,20.49c-.09-.02-.22-.01-.25-.06-.18-.3-.35-.63-.51-.95,.04-.02,.09-.04,.13-.08,.21,.29,.41,.57,.61,.86,.04,.05,.01,.15,.02,.23Z"/>
              <path class="cls-4" d="M10.7,18.49c-.11,.06-.27,.06-.41,.11-.03-.18-.12-.37-.09-.53,.02-.1,.22-.25,.32-.25,.19,.01,.38,.12,.66,.22-.21,.21-.32,.36-.49,.45Z"/>
              <path class="cls-4" d="M11.49,17.78s.02-.13,.04-.26c.4,.16,.73,.3,1.07,.45,.06,.02,.11,.12,.11,.18,0,.03-.12,.12-.15,.1-.37-.15-.72-.31-1.07-.48Z"/>
              <path class="cls-4" d="M12.24,20.72c-.02-.09-.02-.17-.03-.3,.34-.05,.64-.11,.96-.16h0c-.11-.31-.39-.62,.06-1.03,.12,.28,.25,.5,.28,.73,0,.08-.23,.18-.35,.28h.01s-.01,.01-.01,.01c-.09,.54-.24,.68-.83,.73-.03-.09-.08-.18-.1-.27Z"/>
              <path class="cls-4" d="M13.57,21.69h-.78s-.03-.06-.05-.1c.15-.11,.29-.28,.45-.28,.14-.01,.29,.17,.44,.26-.02,.04-.04,.09-.06,.12Z"/>
              <path class="cls-4" d="M13.97,21.79c.27-.38,.43-.63,.61-.86,.04-.01,.09-.02,.14-.03,.09,.3,.17,.59,.27,.9h-1.02Z"/>
              <g>
                <path class="cls-4" d="M16.22,48.75c.01,.52-.28,.88-.68,.91-.49,.04-.93-.3-1.02-.79-.1-.5,.06-1.19,.38-1.61,.31,.12,.64,.24,.95,.38,.11,.04,.22,.16,.24,.27,.08,.28,.13,.56,.13,.84Z"/>
                <path class="cls-4" d="M12.51,34.78c-.26,1.08-1.56,1.4-2.86,.83,.32-1.13,1.58-1.5,2.86-.83Z"/>
                <path class="cls-4" d="M10.15,33.39c0-.1,.06-.22,.14-.28,.53-.49,1.16-.46,1.64,.05,.16,.16,.29,.35,.53,.64-.8-.09-1.45-.16-2.11-.25-.08-.01-.21-.11-.21-.16Z"/>
                <path class="cls-4" d="M12.76,36.57c-.08,1.3-.94,1.91-1.98,1.38,.28-.93,.91-1.36,1.98-1.38Z"/>
                <path class="cls-4" d="M11.94,41.47c-.06,.51-.13,.99-.19,1.56-.31-.25-.62-.45-.53-.86,.09-.36,.26-.67,.72-.69Z"/>
                <path class="cls-4" d="M11.6,44.32c.14-.21,.31-.29,.48,.03,.21,.41,.46,.79,.73,1.22-.64,.25-1.12-.09-1.7-.35,.16-.32,.3-.64,.49-.91Z"/>
                <path class="cls-4" d="M12.67,32.49c-.62-.24-.67-.83-.13-1.6,.23,.15,.45,.3,.69,.46-.19,.4-.38,.77-.56,1.13Z"/>
                <path class="cls-4" d="M29.61,34.1c.61-.28,.95-.26,1.09,.05,.12,.27,.02,.49-.23,.62-.32,.15-.57-.04-.86-.67Z"/>
                <path class="cls-4" d="M30.41,37.64c-.11,.31-.45,.36-1.07,.13,.24-.64,.49-.86,.82-.72,.27,.11,.35,.34,.25,.59Z"/>
                <path class="cls-4" d="M30.07,35.82c-.4,.26-.7,.48-1.03,.65-.29,.15-.57,.04-.77-.21-.21-.27-.22-.57-.02-.84,.19-.28,.48-.4,.79-.24,.34,.16,.63,.39,1.03,.64Z"/>
                <path class="cls-4" d="M17.73,23.56s.09-.06,.13-.1c.12,.06,.28,.1,.36,.19,.22,.29,.19,.37-.19,1.01-.11-.42-.19-.76-.29-1.1Z"/>
                <path class="cls-4" d="M18.46,25.72c.19-.86,.75-1.24,1.29-.92-.41,.3-.82,.58-1.29,.92Z"/>
                <path class="cls-4" d="M16.88,24.98c.21,.31,.26,.71,.39,1.08-.06,.64-.35,1.05-.81,1.07-.54,.02-1.01-.41-.99-1.01,0-.37,.08-.76,.21-1.1,.08-.21,.35-.5,.5-.49,.26,.03,.57,.23,.71,.44Z"/>
                <path class="cls-4" d="M29.71,39.67c-.13-.3,.02-.63,.36-.75,.34-.12,.69-.16,1.19-.28-.11,.49-.16,.85-.27,1.2-.11,.31-.41,.48-.7,.37-.23-.09-.48-.31-.57-.54Z"/>
                <path class="cls-4" d="M30.01,32.81c-.31-.1-.42-.38-.38-.7,.04-.34,.26-.54,.61-.58,.31-.04,.58,.08,.69,.38,.12,.35,.16,.7,.28,1.2-.49-.12-.85-.16-1.2-.29Z"/>
                <path class="cls-4" d="M13.97,28.86c-.16,.12-.45,.09-.68,.03-.04-.01-.08-.36-.03-.53,.17-.59,1.02-1.1,1.62-.96,.15,.03,.27,.21,.44,.35-.49,.41-.9,.8-1.35,1.11Z"/>
                <path class="cls-4" d="M13.77,36.8c.38,.39,.4,.72,.03,1.07-.14,.14-.22,.34-.36,.49-.04,.05-.18,.08-.24,.04-.05-.03-.1-.17-.08-.24,.19-.44,.41-.88,.64-1.36Z"/>
                <path class="cls-4" d="M31.92,40.35c-.24-.66-.19-1.03,.17-1.08,.16-.02,.44,.12,.54,.27,.17,.29-.1,.58-.71,.81Z"/>
                <path class="cls-4" d="M33.2,40.64c.16-.29,.38-.56,.61-.91,.24,.35,.44,.61,.59,.89,.18,.32,.14,.65-.17,.89-.28,.23-.59,.22-.86-.01-.28-.24-.36-.54-.16-.85Z"/>
                <path class="cls-4" d="M13,25.29c.42-.97,.69-1.06,1.64-.56,.23,.12,.37,.24,.3,.53s-.05,.58-.45,.68c-.62,.16-1.08-.13-1.59-.4,.04-.1,.06-.17,.1-.25Z"/>
                <path class="cls-4" d="M11.81,26.06c.21-.3,.48-.42,.82-.23,.29,.17,.59,.34,.96,.54-.44,.44-.84,.88-1.26,1.28-.24,.23-.44,.17-.56-.14-.18-.49-.27-.97,.04-1.45Z"/>
                <path class="cls-4" d="M12.39,30.01c-.37,1.47-.94,1.86-1.98,1.36,.18-.9,.99-1.47,1.98-1.36Z"/>
                <path class="cls-4" d="M9.67,28.92c.04-.11,.11-.23,.19-.28,.19-.12,.42-.21,.63-.3,.06,.27,.25,.56,.18,.79-.16,.58-.43,1.12-.67,1.69-.05,.13-.12,.28-.22,.37-.12,.11-.28,.15-.43,.23-.04-.14-.11-.27-.14-.41-.02-.08-.01-.17-.01-.26-.03-.01-.08-.02-.12-.04,.19-.58,.39-1.19,.58-1.77Z"/>
                <path class="cls-4" d="M7.54,33.17c.59-.48,1.17-.42,1.68,.16,.13,.16,.25,.34,.43,.57-.75-.09-1.38-.16-2.01-.25-.1-.01-.19-.09-.28-.13,.05-.12,.09-.28,.18-.36Z"/>
                <path class="cls-4" d="M7.99,34.45c.37,0,.72,.04,1.15,.08-.21,.58-.37,1.13-.59,1.66-.15,.37-.38,.4-.62,.09-.24-.32-.43-.71-.55-1.1-.12-.42,.17-.72,.62-.72Z"/>
                <path class="cls-4" d="M7.61,39.95c-.05-.55,.05-1.03,.36-1.46,.51-.71,1.56-.75,2.13,.16,.19,.3-.01,.61-.28,.77-.24,.15-.52,.25-.8,.3-.44,.1-.91,.15-1.4,.23Z"/>
                <path class="cls-4" d="M10.7,40.55c-.13,.68-.44,1.24-1.13,1.5-.7,.26-1.29-.01-1.83-.43,.22-1.16,2.14-1.6,2.96-1.07Z"/>
                <path class="cls-4" d="M8.89,43.7c.42-.11,.75,.02,.98,.37,.25,.35,.25,1.03,0,1.36-.26,.36-.63,.37-.97,.21-.43-.19-.82-.46-1.26-.71,.32-.62,.66-1.05,1.25-1.22Z"/>
                <path class="cls-4" d="M7.84,47.66c-.61-.19-.57-.82-.7-1.37,.85-.16,1.48,.26,2.18,.65-.46,.35-.82,.93-1.48,.72Z"/>
                <path class="cls-4" d="M8.82,50.02c-.49-.79-.45-1.19,.22-1.66,.24-.16,.48-.31,.73-.48,.18,.16,.31,.28,.46,.42-.29,.57-.56,1.13-.85,1.69-.13,.26-.41,.29-.56,.03Z"/>
                <path class="cls-4" d="M12.56,49.77c-.08,.54-.46,.98-.97,1.01-.42,.01-.84-.08-1.39-.14,.31-.65,.55-1.17,.8-1.69,.13-.26,.35-.34,.62-.23,.11,.04,.22,.09,.32,.13,.62,.28,.69,.4,.63,.92Z"/>
                <path class="cls-4" d="M12.3,47.67c.21-.55,.42-1.11,.68-1.83,.37,.28,.67,.5,.96,.73,.04,.04,.04,.16,.04,.24-.01,.1-.05,.19-.09,.29-.31,1.01-.64,1.12-1.6,.56Z"/>
                <g>
                  <g>
                    <path class="cls-4" d="M44.82,86.63c.29,1.2-.61,2.31-1.78,2.18-.16-1.24,.67-2.25,1.78-2.18Z"/>
                    <g>
                      <path class="cls-4" d="M41.67,84.94c-.24-.31-.1-.48,.16-.59,.49-.24,.98-.21,1.47-.03,.14,.04,.23,.25,.4,.46-.75,.06-1.38,.12-2.03,.16Z"/>
                      <path class="cls-4" d="M29.61,75.78c.01-.95,.52-1.53,1.51-1.78,.3,1.23-.31,1.98-1.51,1.78Z"/>
                      <path class="cls-4" d="M30.98,82.83c-.13,.22-.44,.45-.66,.44-.55-.01-1.09-.15-1.64-.25-.03-.08-.08-.15-.11-.23,.26-.39,.46-.82,.78-1.15,.35-.36,.84-.35,1.2-.1,.36,.26,.63,.93,.43,1.28Z"/>
                      <path class="cls-4" d="M27.65,71.48c.34-.55,.92-.72,1.5-.45,.25,.12,.49,.28,.72,.42-.01,.03-.02,.06-.03,.1-.67,.11-1.34,.23-2.02,.32-.06,.01-.19-.04-.21-.09-.02-.1-.02-.23,.03-.3Z"/>
                      <path class="cls-4" d="M27.22,69.84c.01-.93,.56-1.58,1.51-1.75,.15,1.55-.43,2-1.51,1.75Z"/>
                      <path class="cls-4" d="M31.5,64.39c-1.05-.22-1.37-1.28-.88-2.23,.12-.22,.63-.24,.91,.01,.44,.4,.75,.91,.85,1.47,.01,.5-.41,.84-.89,.75Z"/>
                      <path class="cls-4" d="M31.51,67.11c-.52-.24-.53-.67-.02-1.1q.18,.92,.02,1.1Z"/>
                      <path class="cls-4" d="M30.18,65.1c.25-.16,.5-.1,.69,.19-.25,.39-.46,.79-.73,1.15-.26,.36-.7,.52-.89,.37-.22-.18-.24-.68,.04-1.01,.25-.28,.57-.5,.89-.7Z"/>
                      <path class="cls-4" d="M29.18,68.85c.8,.12,1.23,.48,1.39,1.13,.08,.29-.08,.48-.37,.46-.97-.06-1.36-.66-1.03-1.6Z"/>
                      <path class="cls-4" d="M30.31,72.43c.16,1.03-1.12,1.65-2.52,1.51-.01-1.15,1.21-1.86,2.52-1.51Z"/>
                      <path class="cls-4" d="M31.56,68.03c-.13,.35-.23,.63-.34,.91-.19-.4-.16-.7,.34-.91Z"/>
                      <path class="cls-4" d="M32.04,78.59c.57-.18,1.59,.37,1.89,.91,.23,.41,.11,.68-.35,.8-.15,.04-.31,.04-.48,.06-.01,.02-.02,.05-.03,.08-.45-.16-.94-.27-1.35-.5-.21-.12-.43-.52-.37-.68,.11-.28,.4-.58,.68-.67Z"/>
                      <path class="cls-4" d="M32.82,74.88c-.12,.45-.41,.69-.86,.61,.09-.59,.17-1.16,.26-1.72,.61,.17,.76,.48,.61,1.11Z"/>
                      <path class="cls-4" d="M33.51,76.3c.34,.02,.42,.36,.41,.68-.08,.34-.15,.67-.25,1.01-.03,.08-.15,.17-.24,.18-.09,.01-.22-.06-.27-.14-.17-.24-.37-.49-.48-.77-.08-.22-.14-.61-.02-.69,.22-.18,.56-.29,.84-.27Z"/>
                      <path class="cls-4" d="M32.18,82.21c.09-1.01,.12-1.35,1.55-1.1,.29,.05,.36,.25,.39,.49,.03,.24,.09,.46-.21,.63-.57,.32-1.15,.25-1.73,.09v-.1Z"/>
                      <g>
                        <path class="cls-4" d="M32.96,59.98c-.08,.55-.15,1.07-.23,1.64-.84-.68-.77-1.25,.23-1.64Z"/>
                        <path class="cls-4" d="M39.94,53.29c.45-.27,.88-.58,1.35-.91,.16,.46,.31,.89,.44,1.25-.67,.06-1.34,.14-2.05,.21-.03-.17,0-.38,.26-.55Z"/>
                        <path class="cls-4" d="M38.77,54.66c-.36,.25-.66,.25-1.28-.06,.52-.25,.98-.46,1.48-.69,.05,.3,.09,.55-.21,.76Z"/>
                        <path class="cls-4" d="M37.18,56.23c-.22,.35-.43,.7-.7,1.15-.31-.65-.58-1.18-.91-1.83,.5,0,.89-.02,1.28,.01,.44,.03,.56,.29,.34,.67Z"/>
                        <path class="cls-4" d="M33.57,55.5c.49-.06,.9-.11,1.35-.17-.39,.68-.88,.75-1.35,.17Z"/>
                        <path class="cls-4" d="M34.21,59.46h-.08q-.94-.26-.67-1.19c.08-.27,.17-.54,.26-.81,.69,.45,.84,1.11,.49,2Z"/>
                        <path class="cls-4" d="M33.86,57.27c-.52,.28-1.21,.11-1.52-.36-.17-.26-.15-.54,.08-.69,.14-.11,.43-.11,.62-.04,.38,.15,.71,.66,.83,1.09Z"/>
                        <path class="cls-4" d="M30.2,56.83c-.41,.43-.86,.83-1.33,1.28-.18-.21-.29-.32-.35-.39,.52-.55,1.01-1.09,1.5-1.62,.4,.21,.41,.49,.17,.73Z"/>
                        <path class="cls-4" d="M30.11,59.27c.57-.65,1.31-.92,2.23-.85,.06,.68-.05,1.25-.59,1.66-.56,.42-1.19,.42-1.82,.19-.09-.03-.18-.24-.16-.32,.08-.24,.17-.5,.35-.68Z"/>
                        <path class="cls-4" d="M13.27,52.61c-.21-.24-.05-.99,.27-1.37,.46-.53,1.69-.76,2.29-.4,.13,.09,.22,.25,.32,.39-.54,.44-1.03,.88-1.53,1.26-.51,.38-1.09,.41-1.35,.12Z"/>
                        <path class="cls-4" d="M17.13,53.4c-.18,.71-.79,1.07-1.49,.86-.4-.12-.79-.32-1.18-.49,0-.05,0-.11,.01-.16,.5-.38,.99-.78,1.52-1.12,.26-.18,.59-.39,.91-.13,.32,.27,.32,.67,.23,1.04Z"/>
                        <path class="cls-4" d="M17.07,48.58c-.06-.11-.1-.29-.04-.38,.05-.09,.24-.11,.37-.12,.11-.01,.23,.02,.4,.05-.06,.39-.13,.73-.21,1.21-.23-.31-.39-.53-.52-.77Z"/>
                        <path class="cls-4" d="M19.47,56.36c-.24,.3-.45,.71-.9,.66-.46-.06-.53-.53-.63-.9-.08-.26-.12-.53-.18-.86,.58,.17,1.1,.3,1.6,.48,.1,.02,.18,.19,.21,.3,.02,.1-.03,.24-.1,.32Z"/>
                        <path class="cls-4" d="M19.23,54.77c.1-.25,.21-.51,.3-.77,.53,.1,1.01,.18,1.49,.27-.28,.61-1.02,.83-1.79,.5Z"/>
                        <path class="cls-4" d="M21.46,57.49c-.14,.38-.48,.54-.85,.54-.43,0-.78-.17-.98-.64,.4-.22,.78-.49,1.2-.65,.19-.08,.55-.05,.67,.08,.11,.12,.04,.45-.03,.67Z"/>
                        <path class="cls-4" d="M21.57,55.88c-.1,0-.19-.1-.32-.17,.23-.4,.44-.75,.63-1.1,.15-.27,.38-.21,.56-.12,.11,.05,.21,.25,.21,.38,.01,.45-.63,1.05-1.07,1.02Z"/>
                        <path class="cls-4" d="M24.73,57.14c-.16,.34-.3,.69-.41,1.05-.12,.38-.38,.51-.82,.48-.24-.94,.52-1.47,.88-2.17,.4,.11,.52,.29,.36,.65Z"/>
                        <path class="cls-4" d="M26.53,58.05c-.19,.77-.79,1.09-1.65,.92,.19-.43,.38-.82,.56-1.21,.04-.09,.1-.21,.17-.24,.27-.1,.55-.16,.82-.25,.03,.26,.15,.54,.1,.78Z"/>
                        <path class="cls-4" d="M26.85,56.1c.08-.28,.26-.4,.56-.39,.53,.02,1.06,.01,1.64,.01-.52,.91-1.51,1.06-2.2,.38Z"/>
                        <path class="cls-4" d="M28.11,59.95c-.11-.37,.14-.59,.38-.81,.16-.14,.35-.25,.58-.43,.12,.53,.25,.97,.32,1.43,.09,.41-.1,.57-.51,.48-.37-.09-.67-.27-.78-.66Z"/>
                      </g>
                      <path class="cls-4" d="M27.93,63.53c.13-.9,.92-1.26,1.72-.8,.27,.16,.28,.83,.02,1.02-.56,.39-1.16,.26-1.79,.13,.03-.15,.04-.25,.05-.35Z"/>
                      <path class="cls-4" d="M26.99,64.66c.12-.37,.36-.55,.76-.45,.35,.08,.68,.15,1.09,.24-.29,.52-.55,1.01-.83,1.47-.19,.31-.43,.32-.65,.02-.28-.38-.53-.78-.37-1.28Z"/>
                      <path class="cls-4" d="M25.89,67.51c.09-.19,.35-.29,.53-.43,.14,.22,.39,.44,.39,.67,.01,.61-.09,1.21-.15,1.82-.02,.14-.05,.29-.13,.4-.06,.1-.21,.18-.31,.18-.06,.01-.19-.12-.22-.21-.15-.49-.27-.97-.39-1.42,.1-.39,.13-.73,.28-1.02Z"/>
                      <path class="cls-4" d="M25,72.2c.62-.67,1.5-.61,2.14,.18-.72,.12-1.44,.23-2.15,.35-.23-.18-.16-.35,.01-.53Z"/>
                      <path class="cls-4" d="M26.3,74.99c-.34-.22-.66-.51-.88-.84-.23-.39-.01-.73,.42-.85,.09-.02,.17-.03,.26-.05,.26-.04,.51-.09,.81-.15,0,.56,.03,1.07-.01,1.58-.03,.44-.24,.56-.61,.32Z"/>
                      <path class="cls-4" d="M27.21,78.55s-.09-.08-.14-.12c-.04-.31-.12-.63-.14-.94-.02-.54,.22-.94,.65-1.12,.53-.23,1.3-.12,1.63,.23,.24,.26,.15,.52-.08,.68-.63,.44-1.28,.85-1.92,1.28Z"/>
                      <path class="cls-4" d="M27.94,79.98c-.1-.03-.23-.3-.18-.36,.24-.37,.46-.78,.79-1.04,.49-.38,1.08-.58,1.74-.48,.28,1.3-.83,2.43-2.35,1.87Z"/>
                      <path class="cls-4" d="M29.67,85.38c-.61,.01-.77-.56-1.1-.97,.75-.45,1.5-.14,2.32-.15-.37,.52-.57,1.11-1.22,1.12Z"/>
                      <path class="cls-4" d="M31.87,87.1c-.08,.35-.32,.31-.53,.15-.66-.55-.91-.93-.22-1.69,.16-.17,.34-.36,.5-.54,.19,.11,.36,.19,.56,.29-.11,.59-.19,1.19-.31,1.78Z"/>
                      <path class="cls-4" d="M34.34,87.17c-.44,.14-.92,.17-1.48,.27,.11-.68,.19-1.21,.29-1.75,.05-.3,.25-.4,.53-.38,.13,.01,.26,.03,.39,.04,.64,.08,.76,.17,.84,.67,.09,.48-.13,.98-.57,1.15Z"/>
                      <path class="cls-4" d="M35.35,83.84c-.03,.16-.29,.34-.48,.39-.25,.06-.53,.02-.85,.02,.04-.63,.09-1.18,.14-1.74h1.31c-.03,.46-.02,.91-.12,1.33Z"/>
                      <path class="cls-4" d="M36.65,82.87c.32-.16,.72-.04,.96,.28,.23,.31,.45,.64,.59,.99,.17,.43,.02,.77-.34,.96-.39,.22-.83,.18-1.08-.19-.25-.38-.39-.81-.59-1.26,.16-.3,.25-.67,.45-.78Z"/>
                      <path class="cls-4" d="M37.4,88.32c-.34,.39-.96,.22-1.12-.27-.18-.59-.04-1.18,.51-1.46,.48-.25,1.03-.36,1.55-.48,.15-.03,.35,.14,.62,.26-.56,.71-1.04,1.34-1.55,1.95Z"/>
                      <path class="cls-4" d="M40.15,88.98c-.49,.41-1.31,.48-2.16,.14,.34-.51,.63-.98,.96-1.44,.38-.5,.92-.62,1.22-.31,.48,.49,.46,1.2-.02,1.61Z"/>
                      <path class="cls-4" d="M40.84,83.67c-.67,.85-1.36,.83-1.99-.05-.13-.19-.09-.38,.16-.42,.41-.06,.83-.17,1.24-.14,.24,.02,.46,.28,.68,.42-.06,.14-.08,.16-.1,.19Z"/>
                      <path class="cls-4" d="M43.05,85.74c-.18,.98-.8,1.36-2.01,1.24,.03-1.08,.48-1.36,2.01-1.24Z"/>
                    </g>
                    <path class="cls-4" d="M43.7,90.13c-.04,.14-.11,.27-.16,.4-.23,.58-.77,.69-1.16,.21-.25-.3-.42-.67-.69-1.11,.65,0,1.15-.01,1.65,0,.31,0,.45,.21,.36,.51Z"/>
                    <path class="cls-4" d="M45.73,91.23c-.37,.25-.78,.3-1.19,.14-.12-.05-.22-.14-.38-.25,.44-.46,.75-1.02,1.42-1.11,.3-.04,.46,.03,.51,.36,.04,.36-.06,.66-.36,.86Z"/>
                    <path class="cls-4" d="M46.33,88.62c-.29,.43-.64,.59-1.01,.44,.16-.65,.32-1.3,.5-1.98,.66,.61,.81,1.09,.51,1.53Z"/>
                    <path class="cls-4" d="M47.64,87.86c-.21-.11-.29-.48-.39-.75-.02-.05,.13-.24,.21-.25,.42-.05,.84-.08,1.29-.11,0,.39,.01,.68-.01,.96,0,.08-.06,.22-.1,.22-.34,0-.72,.06-.99-.08Z"/>
                    <path class="cls-4" d="M49.09,90.67c-.01,.35-.27,.5-.53,.5-.12,0-.35-.34-.32-.5,.08-.56,.23-1.12,.36-1.68,.5-.01,.65,.16,.59,.55-.05,.37-.08,.75-.1,1.12Z"/>
                    <path class="cls-4" d="M49.86,91.1c.06-.43,.12-.82,.19-1.22,.03-.15,.1-.34,.21-.42,.18-.13,.41-.26,.64-.28,.09,0,.24,.29,.28,.48,.21,.8-.32,1.4-1.32,1.45Z"/>
                    <path class="cls-4" d="M52.94,87.29c-.17,.66-1.31,1.24-1.99,.68,.13-.58,.23-.66,1.96-1.36,.02,.26,.09,.49,.03,.68Z"/>
                    <path class="cls-4" d="M53,88.94c.06-.1,.11-.18,.16-.27,.3-.52,.61-1.05,.91-1.56,.49,.08,.52,.4,.36,.7-.26,.5-.59,.95-.92,1.44-.23-.13-.36-.22-.51-.31Z"/>
                    <path class="cls-4" d="M54.68,91.36c-.08,.12-.32,.21-.48,.18-.25-.03-.51-.14-.71-.28-.3-.21-.37-.5-.11-.81,.17-.22,.35-.42,.53-.64,.26,.35,.52,.68,.72,1.04,.09,.14,.12,.39,.04,.51Z"/>
                    <path class="cls-4" d="M56.82,86.76c.29-.19,.46-.09,.5,.25,.01,.12,0,.24-.02,.35-.06,.35-.05,.79-.49,.88-.44,.1-.7-.26-1.03-.63,.36-.3,.68-.61,1.04-.84Z"/>
                    <path class="cls-4" d="M56.97,85.36s.01-.08,.01-.11c.55-.04,1.1-.09,1.66-.13,.02,.04,.05,.08,.09,.11-.23,.22-.42,.52-.69,.61-.45,.16-.75-.25-1.07-.48Z"/>
                    <path class="cls-4" d="M55.92,91.47c.61-.26,1.21-.54,1.83-.76,.13-.04,.35,.15,.57,.27-.83,.55-1.59,.66-2.4,.49Z"/>
                    <path class="cls-4" d="M58.11,89.05v-1.62c.72,.09,1.13,.71,1.06,1.69-.34-.02-.68-.04-1.06-.06Z"/>
                    <path class="cls-4" d="M60.46,88.66c-.48-.32-.75-.77-.61-1.02,.15-.29,.36-.57,.84-.41-.08,.49-.15,.95-.24,1.43Z"/>
                    <path class="cls-4" d="M61.16,85.45c-.09,.35-.24,.69-.38,1.06-.45-.49-.85-.93-1.31-1.4,.36-.09,.73-.23,1.12-.27,.46-.05,.67,.17,.56,.62Z"/>
                  </g>
                  <g>
                    <g>
                      <path class="cls-4" d="M61.53,62.01c.14-.26,.38-.31,.63-.19,.3,.14,.31,.56,.03,1.07-.63-.27-.83-.55-.66-.88Z"/>
                      <path class="cls-4" d="M56.58,62.46c-.36-.05-.57-.28-.59-.64-.03-.34,.13-.61,.46-.69,.32-.1,.66-.14,1.1-.23-.09,.44-.13,.78-.23,1.11-.11,.35-.39,.5-.75,.44Z"/>
                      <path class="cls-4" d="M56.72,59.86c-.09,.32-.38,.37-1.09,.16,.24-.64,.48-.85,.81-.75,.29,.1,.37,.32,.28,.58Z"/>
                      <path class="cls-4" d="M55.38,58.7c-.31,.16-.59,.05-.8-.22s-.22-.56-.01-.83c.21-.28,.5-.38,.8-.23,.31,.16,.61,.38,1.02,.64-.41,.26-.69,.48-1.01,.64Z"/>
                      <path class="cls-4" d="M58.33,61.52c.27-.12,.49-.03,.61,.23,.15,.32-.02,.54-.68,.85-.27-.58-.25-.95,.08-1.08Z"/>
                      <path class="cls-4" d="M59.48,62.95c.16-.32,.38-.61,.64-1.02,.26,.4,.48,.69,.64,1.01,.17,.31,.05,.59-.22,.8-.27,.22-.56,.21-.83,.01-.28-.21-.38-.5-.23-.8Z"/>
                      <path class="cls-4" d="M63.19,61.92c-.1-.32-.14-.67-.23-1.12,.45,.1,.8,.14,1.12,.24,.36,.11,.49,.4,.43,.76-.05,.31-.25,.52-.57,.56-.36,.04-.64-.08-.76-.43Z"/>
                      <path class="cls-4" d="M63.81,59.85c-.11-.25-.05-.49,.22-.62,.34-.16,.61,.06,.85,.69-.55,.25-.95,.23-1.07-.08Z"/>
                      <path class="cls-4" d="M64.82,58.56c-.24-.16-.43-.31-.69-.5,.34-.25,.63-.44,.91-.65,.02,.02,.05,.04,.08,.06-.1,.35-.18,.68-.29,1.08Z"/>
                    </g>
                    <g>
                      <path class="cls-4" d="M81.81,62.89c-.28-.51-.27-.93,.03-1.07,.25-.12,.49-.06,.63,.19,.17,.32-.03,.61-.66,.88Z"/>
                      <path class="cls-4" d="M78.88,57.47s.05-.04,.08-.06c.28,.21,.57,.4,.91,.65-.26,.18-.45,.34-.69,.5-.11-.4-.19-.73-.29-1.08Z"/>
                      <path class="cls-4" d="M79.98,59.24c.27,.13,.32,.37,.22,.62-.12,.3-.52,.32-1.07,.08,.25-.63,.52-.85,.85-.69Z"/>
                      <path class="cls-4" d="M80.05,62.35c-.32-.04-.52-.25-.57-.56-.05-.36,.08-.65,.43-.76,.32-.1,.67-.14,1.12-.24-.09,.45-.13,.8-.23,1.12-.12,.36-.4,.48-.76,.43Z"/>
                      <path class="cls-4" d="M88.37,60.02c-.71,.21-1.01,.16-1.09-.16-.09-.26-.01-.49,.28-.58,.34-.11,.57,.11,.81,.75Z"/>
                      <path class="cls-4" d="M87.62,58.06c.41-.26,.7-.48,1.02-.64,.3-.15,.59-.05,.8,.23,.21,.27,.19,.56-.01,.83s-.49,.38-.8,.22c-.31-.16-.59-.38-1.01-.64Z"/>
                      <path class="cls-4" d="M87.55,61.13c.34,.09,.5,.36,.46,.69-.02,.36-.24,.58-.59,.64-.36,.05-.64-.1-.75-.44-.1-.34-.14-.67-.23-1.11,.44,.09,.78,.13,1.1,.23Z"/>
                      <path class="cls-4" d="M85.75,62.6c-.66-.31-.83-.53-.68-.85,.12-.26,.34-.35,.61-.23,.32,.13,.35,.5,.08,1.08Z"/>
                      <path class="cls-4" d="M84.3,63.75c-.27,.19-.56,.21-.83-.01-.27-.21-.39-.49-.22-.8,.16-.31,.38-.61,.64-1.01,.26,.41,.48,.69,.64,1.02,.15,.3,.05,.59-.23,.8Z"/>
                    </g>
                  </g>
                </g>
              </g>
            </g>
            <path class="cls-4" d="M111.18,74.88c-.15-.64,0-.94,.61-1.11,.09,.56,.17,1.12,.26,1.72-.45,.09-.75-.15-.86-.61Z"/>
            <path class="cls-4" d="M111.31,77.26c-.11,.28-.3,.53-.48,.77-.05,.08-.18,.15-.27,.14-.09-.01-.21-.11-.24-.18-.1-.34-.17-.67-.25-1.01-.01-.32,.08-.66,.41-.68,.28-.02,.63,.09,.84,.27,.12,.09,.05,.48-.02,.69Z"/>
            <path class="cls-4" d="M109.89,81.59c.03-.24,.1-.43,.39-.49,1.43-.25,1.46,.1,1.55,1.1v.1c-.58,.16-1.16,.24-1.73-.09-.29-.16-.24-.39-.21-.63Z"/>
            <path class="cls-4" d="M110.93,80.44s-.02-.05-.03-.08c-.16-.02-.32-.02-.48-.06-.45-.12-.57-.39-.35-.8,.3-.54,1.32-1.09,1.89-.91,.28,.09,.57,.39,.68,.67,.06,.16-.16,.56-.37,.68-.41,.23-.9,.34-1.35,.5Z"/>
            <path class="cls-4" d="M112.44,68.03c.5,.21,.53,.51,.34,.91-.11-.28-.21-.56-.34-.91Z"/>
            <path class="cls-4" d="M112.88,74c.99,.25,1.5,.83,1.51,1.78-1.2,.19-1.82-.55-1.51-1.78Z"/>
            <path class="cls-4" d="M113.69,72.43c1.31-.35,2.53,.37,2.52,1.51-1.39,.14-2.68-.49-2.52-1.51Z"/>
            <path class="cls-4" d="M113.79,70.45c-.29,.01-.44-.17-.37-.46,.16-.66,.59-1.02,1.39-1.13,.34,.94-.05,1.53-1.03,1.6Z"/>
            <path class="cls-4" d="M114.75,66.81c-.18,.15-.63-.01-.89-.37-.27-.36-.49-.76-.73-1.15,.19-.29,.44-.36,.69-.19,.31,.21,.64,.42,.89,.7,.28,.32,.26,.82,.04,1.01Z"/>
            <path class="cls-4" d="M114.07,60.27c-.63,.23-1.25,.23-1.82-.19-.54-.41-.66-.98-.59-1.66,.92-.06,1.65,.21,2.23,.85,.17,.18,.27,.44,.35,.68,.02,.09-.08,.29-.16,.32Z"/>
            <path class="cls-4" d="M113.8,56.83c-.24-.25-.23-.53,.17-.73,.5,.53,.98,1.07,1.5,1.62-.05,.06-.16,.18-.35,.39-.46-.44-.92-.84-1.33-1.28Z"/>
            <path class="cls-4" d="M130.23,36.8c.23,.49,.44,.92,.64,1.36,.02,.06-.02,.21-.08,.24-.05,.03-.19,.01-.24-.04-.14-.15-.22-.35-.36-.49-.37-.35-.35-.68,.03-1.07Z"/>
            <path class="cls-4" d="M132.06,33.16c.49-.52,1.11-.54,1.64-.05,.08,.06,.14,.18,.14,.28,0,.05-.13,.15-.21,.16-.66,.09-1.31,.16-2.11,.25,.24-.29,.37-.48,.53-.64Z"/>
            <path class="cls-4" d="M132.4,44.32c.18,.27,.32,.58,.49,.91-.57,.26-1.06,.59-1.7,.35,.27-.43,.53-.81,.73-1.22,.16-.32,.34-.24,.48-.03Z"/>
            <path class="cls-4" d="M132.06,41.47c.46,.02,.64,.34,.72,.69,.09,.41-.22,.62-.53,.86-.06-.56-.13-1.05-.19-1.56Z"/>
            <path class="cls-4" d="M131.24,36.57c1.07,.02,1.7,.45,1.98,1.38-1.04,.53-1.9-.09-1.98-1.38Z"/>
            <path class="cls-4" d="M131.49,34.78c1.29-.67,2.54-.3,2.86,.83-1.31,.57-2.6,.25-2.86-.83Z"/>
            <path class="cls-4" d="M133.3,40.55c.82-.53,2.74-.09,2.96,1.07-.54,.42-1.12,.69-1.83,.43-.69-.26-1.01-.82-1.13-1.5Z"/>
            <path class="cls-4" d="M136.39,39.95c-.5-.08-.96-.13-1.4-.23-.28-.05-.56-.15-.8-.3-.27-.16-.48-.46-.28-.77,.57-.91,1.62-.88,2.13-.16,.3,.43,.41,.91,.36,1.46Z"/>
            <path class="cls-4" d="M136.62,35.17c-.12,.39-.31,.78-.55,1.1-.24,.31-.46,.28-.62-.09-.23-.53-.39-1.08-.59-1.66,.42-.03,.78-.08,1.15-.08,.44,0,.73,.3,.62,.72Z"/>
            <path class="cls-4" d="M136.46,33.17c.1,.08,.13,.24,.18,.36-.09,.04-.18,.12-.28,.13-.63,.09-1.26,.16-2.01,.25,.18-.24,.3-.41,.43-.57,.51-.58,1.08-.64,1.68-.16Z"/>
            <path class="cls-4" d="M83.54,88.66c-.09-.48-.16-.94-.24-1.43,.49-.16,.69,.12,.84,.41,.14,.25-.13,.69-.61,1.02Z"/>
            <path class="cls-4" d="M83.22,86.51c-.14-.37-.29-.71-.38-1.06-.11-.44,.1-.67,.56-.62,.39,.04,.77,.18,1.12,.27-.45,.48-.85,.92-1.31,1.4Z"/>
            <path class="cls-4" d="M87.03,85.36c-.32,.23-.62,.64-1.07,.48-.27-.09-.46-.39-.69-.61,.03-.03,.06-.06,.09-.11,.56,.04,1.11,.09,1.66,.13,0,.03,.01,.08,.01,.11Z"/>
            <path class="cls-4" d="M85.89,87.43v1.62c-.38,.02-.72,.04-1.06,.06-.08-.97,.34-1.6,1.06-1.69Z"/>
            <path class="cls-4" d="M85.68,90.99c.23-.12,.44-.31,.57-.27,.62,.22,1.22,.5,1.83,.76-.81,.17-1.57,.06-2.4-.49Z"/>
            <path class="cls-4" d="M87.19,88.23c-.43-.09-.42-.53-.49-.88-.02-.11-.03-.23-.02-.35,.03-.34,.21-.44,.5-.25,.36,.24,.68,.54,1.04,.84-.32,.37-.58,.72-1.03,.63Z"/>
            <path class="cls-4" d="M90.51,91.27c-.21,.14-.46,.25-.71,.28-.15,.02-.4-.06-.48-.18-.08-.12-.04-.37,.04-.51,.21-.36,.46-.69,.72-1.04,.18,.22,.36,.42,.53,.64,.26,.31,.19,.61-.11,.81Z"/>
            <path class="cls-4" d="M90.49,89.26c-.32-.49-.66-.94-.92-1.44-.16-.3-.13-.63,.36-.7,.3,.51,.61,1.04,.91,1.56,.05,.09,.1,.17,.16,.27-.15,.1-.28,.18-.51,.31Z"/>
            <path class="cls-4" d="M91.06,87.29c-.05-.19,.01-.42,.03-.68,1.73,.7,1.83,.78,1.96,1.36-.68,.56-1.82-.02-1.99-.68Z"/>
            <path class="cls-4" d="M92.82,89.66c.04-.18,.19-.48,.28-.48,.23,.02,.45,.15,.64,.28,.11,.09,.17,.27,.21,.42,.08,.4,.13,.79,.19,1.22-.99-.04-1.52-.65-1.32-1.45Z"/>
            <path class="cls-4" d="M95.44,91.17c-.26,0-.52-.15-.53-.5-.02-.38-.04-.76-.1-1.12-.05-.39,.1-.56,.59-.55,.13,.55,.28,1.11,.36,1.68,.02,.16-.21,.5-.32,.5Z"/>
            <path class="cls-4" d="M96.36,87.86c-.27,.14-.66,.08-.99,.08-.03,0-.1-.14-.1-.22-.02-.28-.01-.57-.01-.96,.44,.03,.86,.05,1.29,.11,.08,.01,.23,.19,.21,.25-.1,.27-.18,.64-.39,.75Z"/>
            <path class="cls-4" d="M97.67,88.62c-.3-.44-.15-.93,.51-1.53,.17,.68,.34,1.33,.5,1.98-.37,.15-.71-.01-1.01-.44Z"/>
            <path class="cls-4" d="M99.46,91.37c-.41,.16-.82,.11-1.19-.14-.29-.21-.4-.51-.36-.86,.04-.32,.21-.4,.51-.36,.67,.1,.97,.65,1.42,1.11-.16,.11-.26,.19-.38,.25Z"/>
            <path class="cls-4" d="M101.62,90.74c-.39,.49-.93,.38-1.16-.21-.05-.13-.12-.26-.16-.4-.1-.3,.04-.51,.36-.51,.51-.01,1.01,0,1.65,0-.27,.44-.44,.81-.69,1.11Z"/>
            <path class="cls-4" d="M100.95,85.74c1.53-.12,1.98,.16,2.01,1.24-1.21,.12-1.83-.26-2.01-1.24Z"/>
            <path class="cls-4" d="M103.16,83.67s-.03-.05-.1-.19c.22-.14,.44-.4,.68-.42,.41-.03,.83,.08,1.24,.14,.25,.04,.29,.23,.16,.42-.63,.89-1.32,.91-1.99,.05Z"/>
            <path class="cls-4" d="M103.85,88.98c-.49-.41-.5-1.12-.02-1.61,.3-.3,.84-.18,1.22,.31,.34,.45,.63,.93,.96,1.44-.85,.34-1.68,.27-2.16-.14Z"/>
            <path class="cls-4" d="M107.73,88.05c-.16,.49-.79,.66-1.12,.27-.51-.61-.98-1.23-1.55-1.95,.27-.12,.46-.29,.62-.26,.52,.12,1.07,.23,1.55,.48,.55,.28,.69,.86,.51,1.46Z"/>
            <path class="cls-4" d="M107.21,84.91c-.25,.38-.69,.41-1.08,.19-.36-.19-.51-.53-.34-.96,.14-.36,.37-.68,.59-.99,.24-.32,.64-.44,.96-.28,.21,.11,.29,.48,.45,.78-.21,.45-.35,.89-.59,1.26Z"/>
            <path class="cls-4" d="M108.65,83.84c-.1-.42-.09-.86-.12-1.33h1.31c.05,.56,.1,1.11,.14,1.74-.32,0-.61,.04-.85-.02-.18-.05-.44-.23-.48-.39Z"/>
            <path class="cls-4" d="M109.66,87.17c-.44-.16-.66-.67-.57-1.15,.09-.5,.21-.59,.84-.67,.13-.01,.26-.03,.39-.04,.28-.02,.48,.08,.53,.38,.1,.54,.18,1.07,.29,1.75-.56-.1-1.04-.13-1.48-.27Z"/>
            <path class="cls-4" d="M112.65,87.25c-.21,.16-.45,.19-.53-.15-.12-.59-.21-1.19-.31-1.78,.21-.1,.37-.18,.56-.29,.16,.18,.34,.37,.5,.54,.69,.76,.44,1.13-.22,1.69Z"/>
            <path class="cls-4" d="M114.33,85.38c-.65-.01-.85-.61-1.22-1.12,.82,.01,1.58-.3,2.32,.15-.34,.41-.5,.98-1.1,.97Z"/>
            <path class="cls-4" d="M115.32,83.02c-.55,.1-1.09,.24-1.64,.25-.22,.01-.53-.23-.66-.44-.19-.35,.08-1.02,.43-1.28,.36-.25,.85-.26,1.2,.1,.31,.32,.52,.76,.78,1.15-.03,.08-.08,.15-.11,.23Z"/>
            <path class="cls-4" d="M116.06,79.98c-1.51,.56-2.63-.57-2.35-1.87,.66-.11,1.25,.1,1.74,.48,.32,.26,.55,.67,.79,1.04,.04,.05-.09,.32-.18,.36Z"/>
            <path class="cls-4" d="M116.93,78.43c-.05,.04-.1,.08-.14,.12-.65-.42-1.3-.83-1.92-1.28-.23-.16-.31-.42-.08-.68,.34-.35,1.1-.45,1.63-.23,.43,.18,.67,.58,.65,1.12-.02,.31-.1,.63-.14,.94Z"/>
            <path class="cls-4" d="M118.58,74.15c-.22,.34-.54,.63-.88,.84-.37,.24-.57,.12-.61-.32-.04-.51-.01-1.02-.01-1.58,.3,.06,.55,.11,.81,.15,.09,.02,.17,.03,.26,.05,.43,.12,.65,.46,.42,.85Z"/>
            <path class="cls-4" d="M117.58,67.08c.18,.14,.44,.24,.53,.43,.15,.28,.18,.63,.28,1.02-.12,.44-.24,.93-.39,1.42-.02,.09-.15,.22-.22,.21-.11,0-.25-.09-.31-.18-.08-.11-.11-.26-.13-.4-.06-.61-.16-1.21-.15-1.82,0-.23,.25-.45,.39-.67Z"/>
            <path class="cls-4" d="M119,72.2c.17,.18,.24,.35,.01,.53-.71-.12-1.43-.23-2.15-.35,.64-.79,1.52-.85,2.14-.18Z"/>
            <path class="cls-4" d="M117.01,64.66c.16,.5-.09,.9-.37,1.28-.22,.3-.45,.29-.65-.02-.28-.46-.54-.95-.83-1.47,.41-.09,.75-.16,1.09-.24,.4-.1,.64,.09,.76,.45Z"/>
            <path class="cls-4" d="M116.07,63.53c.01,.1,.02,.19,.05,.35-.64,.13-1.23,.26-1.79-.13-.26-.18-.25-.85,.02-1.02,.8-.46,1.59-.1,1.72,.8Z"/>
            <path class="cls-4" d="M115.89,59.95c-.11,.39-.41,.57-.78,.66-.41,.1-.59-.06-.51-.48,.08-.45,.21-.9,.32-1.43,.24,.18,.42,.29,.58,.43,.24,.22,.49,.44,.38,.81Z"/>
            <path class="cls-4" d="M114.95,55.72c.58,0,1.11,.01,1.64-.01,.3-.01,.49,.11,.56,.39-.69,.68-1.69,.53-2.2-.38Z"/>
            <path class="cls-4" d="M117.47,58.05c-.05-.24,.06-.52,.1-.78,.27,.09,.55,.15,.82,.25,.08,.03,.13,.15,.17,.24,.18,.39,.37,.78,.56,1.21-.86,.17-1.46-.15-1.65-.92Z"/>
            <path class="cls-4" d="M120.5,58.66c-.44,.03-.7-.1-.82-.48-.11-.36-.25-.71-.41-1.05-.16-.36-.04-.54,.36-.65,.36,.7,1.11,1.23,.88,2.17Z"/>
            <path class="cls-4" d="M124.77,54.77c-.78,.34-1.51,.11-1.79-.5,.49-.09,.96-.17,1.49-.27,.1,.26,.21,.52,.3,.77Z"/>
            <path class="cls-4" d="M121.36,54.86c0-.13,.1-.32,.21-.38,.18-.09,.41-.15,.56,.12,.18,.36,.4,.7,.63,1.1-.13,.08-.23,.17-.32,.17-.44,.03-1.08-.56-1.07-1.02Z"/>
            <path class="cls-4" d="M123.4,58.03c-.38,0-.71-.16-.85-.54-.08-.22-.14-.55-.03-.67,.12-.13,.48-.15,.67-.08,.42,.16,.8,.43,1.2,.65-.21,.46-.55,.64-.98,.64Z"/>
            <path class="cls-4" d="M126.05,56.12c-.1,.37-.16,.83-.63,.9-.44,.05-.66-.36-.9-.66-.06-.09-.12-.23-.1-.32,.02-.11,.11-.28,.21-.3,.5-.17,1.02-.3,1.6-.48-.06,.34-.11,.61-.18,.86Z"/>
            <path class="cls-4" d="M126.41,49.35c-.08-.48-.14-.82-.21-1.21,.17-.03,.29-.06,.4-.05,.13,.01,.31,.03,.37,.12,.05,.09,.02,.27-.04,.38-.13,.24-.29,.45-.52,.77Z"/>
            <path class="cls-4" d="M128.36,54.26c-.7,.21-1.31-.15-1.49-.86-.1-.37-.1-.77,.23-1.04,.31-.26,.65-.05,.91,.13,.53,.35,1.03,.75,1.52,1.12,.01,.05,.01,.11,.01,.16-.39,.16-.78,.37-1.18,.49Z"/>
            <path class="cls-4" d="M130.73,52.61c-.26,.29-.84,.26-1.35-.12-.51-.39-.99-.82-1.53-1.26,.11-.14,.19-.3,.32-.39,.61-.36,1.83-.13,2.29,.4,.32,.38,.48,1.13,.27,1.37Z"/>
            <path class="cls-4" d="M130.1,47.11c-.03-.1-.08-.19-.09-.29,0-.08,0-.19,.04-.24,.29-.24,.59-.45,.96-.73,.26,.71,.48,1.28,.68,1.83-.96,.56-1.29,.44-1.6-.56Z"/>
            <path class="cls-4" d="M132.41,50.77c-.51-.02-.9-.46-.97-1.01-.06-.52,.01-.64,.63-.92,.11-.04,.22-.09,.32-.13,.27-.11,.49-.03,.62,.23,.25,.52,.49,1.04,.8,1.69-.55,.06-.97,.15-1.39,.14Z"/>
            <path class="cls-4" d="M135.18,50.02c-.15,.26-.43,.23-.56-.03-.29-.55-.56-1.11-.85-1.69,.15-.14,.28-.26,.46-.42,.26,.16,.5,.31,.73,.48,.67,.48,.7,.88,.22,1.66Z"/>
            <path class="cls-4" d="M136.16,47.66c-.66,.21-1.02-.38-1.48-.72,.7-.39,1.33-.81,2.18-.65-.13,.55-.1,1.18-.7,1.37Z"/>
          </g>
        </g>
      </g>
    </g>
  </g>
</svg>